<svg width="70" height="70" viewBox="0 0 70 70" fill="none" xmlns="http://www.w3.org/2000/svg">
<path d="M17.5 42.6562H15.3125V44.8438H17.5V42.6562Z" fill="#9A563A"/>
<path d="M21.875 42.6562H19.6875V44.8438H21.875V42.6562Z" fill="#9A563A"/>
<path d="M16.4063 8.75004C16.4063 8.10107 16.2138 7.46668 15.8533 6.92708C15.4927 6.38748 14.9803 5.96691 14.3807 5.71856C13.7811 5.47021 13.1214 5.40523 12.4849 5.53184C11.8484 5.65845 11.2637 5.97096 10.8048 6.42985C10.3459 6.88874 10.0334 7.4734 9.9068 8.1099C9.78019 8.7464 9.84517 9.40615 10.0935 10.0057C10.3419 10.6053 10.7624 11.1178 11.302 11.4783C11.8416 11.8389 12.476 12.0313 13.125 12.0313C13.195 12.0313 13.2617 12.0149 13.3306 12.0105L16.1547 25.1913C15.9992 25.2274 15.8535 25.2972 15.7279 25.3956C15.6022 25.4941 15.4997 25.6188 15.4273 25.7611L11.0523 34.5111C10.9767 34.663 10.9373 34.8304 10.9375 35V66.7188C10.9375 67.0089 11.0527 67.2871 11.2579 67.4922C11.463 67.6973 11.7412 67.8125 12.0313 67.8125H29.5313C29.8213 67.8125 30.0995 67.6973 30.3047 67.4922C30.5098 67.2871 30.625 67.0089 30.625 66.7188V35C30.6252 34.8304 30.5858 34.663 30.5102 34.5111L26.1352 25.7611C26.0647 25.6217 25.9652 25.499 25.8433 25.4013C25.7214 25.3036 25.58 25.2331 25.4286 25.1946L28.2188 13.1032C28.2931 13.1032 28.3631 13.125 28.4375 13.125C29.2054 13.1296 29.9508 12.8663 30.5455 12.3805C31.1402 11.8947 31.5469 11.2168 31.6956 10.4634C31.8443 9.71009 31.7257 8.92846 31.3602 8.25312C30.9948 7.57778 30.4053 7.05099 29.6933 6.76343C28.9813 6.47586 28.1913 6.44553 27.4593 6.67765C26.7274 6.90976 26.0992 7.38981 25.6831 8.03513C25.2669 8.68046 25.0887 9.45069 25.1792 10.2132C25.2697 10.9758 25.6232 11.6829 26.1789 12.2129L23.1875 25.1563H21.875V8.54879C22.6048 8.29078 23.2198 7.78309 23.6115 7.11545C24.0031 6.44782 24.1461 5.66322 24.0152 4.90033C23.8844 4.13745 23.488 3.4454 22.8962 2.94649C22.3044 2.44758 21.5553 2.17395 20.7813 2.17395C20.0072 2.17395 19.2581 2.44758 18.6663 2.94649C18.0745 3.4454 17.6781 4.13745 17.5473 4.90033C17.4164 5.66322 17.5594 6.44782 17.951 7.11545C18.3427 7.78309 18.9577 8.29078 19.6875 8.54879V25.1563H18.3838L15.377 11.1246C15.7015 10.8199 15.9602 10.4521 16.1371 10.0437C16.3141 9.63536 16.4057 9.19511 16.4063 8.75004ZM28.4375 8.75004C28.6538 8.75004 28.8653 8.81419 29.0452 8.93437C29.225 9.05456 29.3652 9.22538 29.448 9.42523C29.5308 9.62509 29.5524 9.84501 29.5102 10.0572C29.468 10.2693 29.3639 10.4642 29.2109 10.6172C29.0579 10.7702 28.863 10.8743 28.6509 10.9165C28.4387 10.9587 28.2188 10.9371 28.0189 10.8543C27.8191 10.7715 27.6483 10.6313 27.5281 10.4514C27.4079 10.2716 27.3438 10.0601 27.3438 9.84379C27.3438 9.55371 27.459 9.27551 27.6641 9.07039C27.8692 8.86528 28.1474 8.75004 28.4375 8.75004ZM20.7813 4.37504C20.9976 4.37504 21.209 4.43919 21.3889 4.55937C21.5688 4.67956 21.709 4.85038 21.7917 5.05023C21.8745 5.25009 21.8962 5.47001 21.854 5.68217C21.8118 5.89434 21.7076 6.08923 21.5547 6.24219C21.4017 6.39515 21.2068 6.49932 20.9946 6.54153C20.7825 6.58373 20.5625 6.56207 20.3627 6.47929C20.1628 6.3965 19.992 6.25631 19.8718 6.07645C19.7516 5.89658 19.6875 5.68512 19.6875 5.46879C19.6875 5.17871 19.8027 4.90051 20.0079 4.69539C20.213 4.49028 20.4912 4.37504 20.7813 4.37504ZM28.4375 56.875H24.0625V59.0625H28.4375V61.25H13.125V59.0625H21.875V56.875H13.125V40.4688H28.4375V56.875ZM13.125 65.625V63.4375H28.4375V65.625H13.125ZM27.7616 33.9063H25.1563V36.0938H28.4375V38.2813H13.125V35.2582L14.8947 31.7188H18.5938V29.5313H15.9884L17.0822 27.3438H24.4803L27.7616 33.9063ZM12.0313 8.75004C12.0313 8.53372 12.0954 8.32225 12.2156 8.14239C12.3358 7.96252 12.5066 7.82233 12.7064 7.73955C12.9063 7.65677 13.1262 7.63511 13.3384 7.67731C13.5505 7.71951 13.7454 7.82368 13.8984 7.97664C14.0514 8.12961 14.1555 8.3245 14.1977 8.53666C14.2399 8.74883 14.2183 8.96875 14.1355 9.1686C14.0527 9.36846 13.9125 9.53928 13.7327 9.65946C13.5528 9.77965 13.3413 9.84379 13.125 9.84379C12.8349 9.84379 12.5567 9.72856 12.3516 9.52344C12.1465 9.31832 12.0313 9.04012 12.0313 8.75004Z" fill="#9A563A"/>
<path d="M39.3903 59.2429L41.5472 58.882C40.5694 53.014 43.3169 50.1068 43.435 49.9865L42.6563 49.2187L41.883 48.4454C41.732 48.5953 38.2167 52.2057 39.3903 59.2429Z" fill="#9A563A"/>
<path d="M53.5938 56.875H51.4062V59.0625H53.5938V56.875Z" fill="#9A563A"/>
<path d="M58.0092 45.0428C57.4722 43.6012 56.9636 42.2406 56.6573 41.2409C55.0977 36.1681 54.7728 28.9603 54.7061 26.25H55.7812C56.0713 26.25 56.3495 26.1348 56.5546 25.9296C56.7598 25.7245 56.875 25.4463 56.875 25.1562V20.7812C56.875 20.4912 56.7598 20.213 56.5546 20.0079C56.3495 19.8027 56.0713 19.6875 55.7812 19.6875H53.9383L54.6766 14.3697C54.6981 14.2148 54.6863 14.0572 54.6417 13.9073C54.5972 13.7574 54.5211 13.6188 54.4185 13.5009C54.3159 13.3829 54.1891 13.2883 54.0469 13.2235C53.9046 13.1587 53.7501 13.1251 53.5938 13.125H42.6562C42.4999 13.1251 42.3454 13.1587 42.2031 13.2235C42.0609 13.2883 41.9341 13.3829 41.8315 13.5009C41.7289 13.6188 41.6528 13.7574 41.6083 13.9073C41.5637 14.0572 41.5519 14.2148 41.5734 14.3697L42.3117 19.6875H40.4688C40.1787 19.6875 39.9005 19.8027 39.6954 20.0079C39.4902 20.213 39.375 20.4912 39.375 20.7812V25.1562C39.375 25.4463 39.4902 25.7245 39.6954 25.9296C39.9005 26.1348 40.1787 26.25 40.4688 26.25H41.5439C41.4772 28.9603 41.1523 36.1681 39.5927 41.2409C39.2864 42.2406 38.7778 43.6012 38.2408 45.0428C36.797 48.9125 35 53.7294 35 56.875C35 61.1133 36.7358 65.4063 39.3192 67.5588C39.5157 67.7226 39.7634 67.8124 40.0192 67.8125H56.2308C56.4866 67.8124 56.7343 67.7226 56.9308 67.5588C59.5142 65.4063 61.25 61.1133 61.25 56.875C61.25 53.7294 59.453 48.9125 58.0092 45.0428ZM43.4383 31.7188H52.8117C52.9298 33.0969 53.0928 34.5877 53.317 36.0938H42.933C43.1572 34.5877 43.3202 33.0969 43.4383 31.7188ZM41.6883 41.8841C42.0441 40.6996 42.3361 39.4969 42.5633 38.2812H53.69C53.9171 39.4969 54.2092 40.6996 54.565 41.8841C54.8209 42.7153 55.1819 43.7139 55.6008 44.8438H40.6481C41.067 43.7139 41.428 42.7153 41.6839 41.8841H41.6883ZM43.9119 15.3125H52.3337L51.7344 19.6875H44.5156L43.9119 15.3125ZM41.5625 21.875H54.6875V24.0625H41.5625V21.875ZM52.5153 26.25C52.5317 27.0266 52.5711 28.1739 52.6531 29.5312H43.5969C43.6789 28.1739 43.7183 27.0266 43.7347 26.25H52.5153ZM39.8355 47.0312H56.4145C57.692 50.4842 59.0625 54.4184 59.0625 56.875C59.0563 58.3604 58.8217 59.836 58.3669 61.25H37.8831C37.4283 59.836 37.1937 58.3604 37.1875 56.875C37.1875 54.4184 38.558 50.4842 39.8355 47.0312ZM55.8163 65.625H40.4337C39.782 64.9849 39.2343 64.2468 38.8106 63.4375H57.4394C57.0157 64.2468 56.468 64.9849 55.8163 65.625Z" fill="#9A563A"/>
</svg>
