<svg width="70" height="70" viewBox="0 0 70 70" fill="none" xmlns="http://www.w3.org/2000/svg">
<g clip-path="url(#clip0_144_20)">
<path d="M62.8441 57.2453L65.5409 53.8221C65.783 53.5141 65.8557 53.1048 65.7338 52.7322C65.6124 52.3595 65.3119 52.0727 64.9346 51.9674L60.7398 50.795C59.1885 50.3657 57.5456 50.3995 56.0126 50.8923C56.0086 49.2752 55.5289 47.6953 54.633 46.3495L52.2179 42.7265C52.0175 42.3824 51.6403 42.1809 51.2424 42.205C50.9877 42.2078 50.741 42.2931 50.5389 42.4488C49.074 41.3435 47.3407 40.6468 45.518 40.431L41.9048 40.0057L44.3291 39.3994C46.5358 38.8476 48.2457 37.1034 48.7529 34.8857C49.2606 32.6681 48.4787 30.3537 46.731 28.8974C43.6725 26.3449 39.9407 24.7329 35.9852 24.2549L37.3092 24.0557C39.8657 23.6642 41.875 21.6629 42.2769 19.1076C42.6787 16.5528 41.3804 14.0312 39.0678 12.8737L38.6619 12.6722C35.8999 11.2892 32.9226 10.3876 29.8578 10.0063L26.5834 9.59817C25.3618 9.44418 24.1242 9.46937 22.91 9.67202C19.1743 10.2908 16.0883 12.9281 14.8959 16.5218L14.7785 16.8739C14.3755 18.092 14.3755 19.4075 14.7785 20.6251L15.3647 22.3836C15.7104 23.4106 16.3327 24.3225 17.1633 25.018L16.3522 25.1657C13.751 25.6305 11.7577 27.7371 11.4372 30.3595L11.1595 32.5611C10.8344 35.2309 12.3056 37.796 14.7739 38.8636L17.8422 40.1791L14.802 40.5306C11.7675 40.8861 9.04265 42.5582 7.35166 45.1032L6.09515 46.9786C3.76532 50.4762 3.76532 55.0305 6.09515 58.5276L6.97328 59.8384C8.90126 62.7396 12.1544 64.4821 15.6377 64.4798H41.9677L41.7943 68.7823C41.7794 69.1732 41.9603 69.5465 42.2769 69.776C42.5934 70.0061 43.0039 70.0628 43.3714 69.9277L47.4626 68.4165C48.9836 67.8555 50.3036 66.8549 51.2545 65.5417C51.3506 65.6768 51.4256 65.8176 51.5309 65.9487C52.4629 67.0575 53.6661 67.9059 55.0234 68.4107L59.1032 69.9231C59.4707 70.0594 59.8817 70.0033 60.1994 69.7732C60.5165 69.543 60.698 69.1692 60.6826 68.7777L60.5062 64.4174C60.4404 62.8054 59.8995 61.2489 58.9509 59.9438C60.4856 59.4469 61.84 58.5081 62.8441 57.2453ZM16.9944 19.8941C16.75 19.1556 16.75 18.3577 16.9944 17.6192L17.1118 17.2677C18.0311 14.4983 20.4096 12.4667 23.289 11.9921C24.2787 11.8261 25.2874 11.8055 26.2829 11.9309L29.5584 12.3402C32.3605 12.6871 35.083 13.5091 37.608 14.7719L38.0122 14.9745C39.4118 15.6735 40.1983 17.1973 39.9573 18.7429C39.7163 20.2885 38.5033 21.5009 36.9572 21.7402L25.7648 23.4587L21.4961 24.0683C19.7759 24.3202 18.1239 23.299 17.5795 21.6475L16.9944 19.8941ZM15.6933 36.709C14.182 36.0558 13.2816 34.4856 13.4808 32.8519L13.755 30.656C13.9513 29.0514 15.1712 27.7623 16.762 27.4778L25.5221 25.8858C25.7408 25.8458 25.9623 25.8252 26.1844 25.8246C26.2783 25.8246 26.3733 25.8246 26.4683 25.8366L34.8414 26.4812C38.6602 26.7674 42.2929 28.2437 45.2295 30.7018C46.2988 31.5925 46.7768 33.0087 46.4666 34.3654C46.1563 35.7221 45.1104 36.7897 43.7606 37.1274L37.9526 38.5774C37.6595 38.6513 37.3584 38.689 37.0556 38.689H21.0696C20.5688 38.6896 20.0724 38.5877 19.6122 38.3902L15.6933 36.709ZM43.2529 60.3485C42.902 60.9089 42.6186 61.5083 42.4074 62.1351H15.6377C12.9381 62.1379 10.4165 60.7881 8.9213 58.5407L8.04432 57.2298C6.24055 54.521 6.24055 50.9937 8.04432 48.2849L9.30025 46.409C10.6106 44.4369 12.7223 43.1415 15.0739 42.8661L27.5457 41.4007C29.5898 41.1649 31.6541 41.1649 33.6983 41.4007L45.2495 42.762C46.6784 42.9354 48.0339 43.4918 49.1731 44.3717L47.8542 46.3506C46.9623 47.6935 46.482 49.2683 46.4723 50.8803C44.937 50.3811 43.2889 50.3502 41.7359 50.7904L37.5388 51.9628C37.161 52.0681 36.8616 52.3561 36.7402 52.7287C36.6189 53.102 36.6921 53.5107 36.9348 53.8181L39.6476 57.251C40.6591 58.5121 42.0181 59.4498 43.5563 59.9472C43.4567 60.0869 43.3433 60.2065 43.2529 60.3485ZM48.0889 54.5147C48.5388 54.9647 48.9172 55.481 49.2097 56.046L49.4627 56.544L48.9132 56.6311C48.0396 56.7639 47.1947 57.0415 46.4122 57.4514C46.1059 57.6117 45.8105 57.7925 45.5283 57.9929C43.9375 57.8378 42.4766 57.0455 41.4777 55.7976L39.8634 53.7563L42.3622 53.0527C44.0314 52.5696 45.8294 52.861 47.2611 53.8467C47.5599 54.039 47.8375 54.2629 48.0889 54.5147ZM46.6469 66.2206L44.2037 67.1233L44.3102 64.5056C44.3176 64.1844 44.36 63.865 44.4384 63.5536C44.724 62.1889 45.486 60.9696 46.5873 60.1138C46.8696 59.8894 47.1735 59.693 47.4947 59.5276C48.0522 59.2357 48.655 59.0376 49.2778 58.9414L49.8285 58.855L49.7409 59.4045C49.6047 60.25 49.6047 61.1116 49.7409 61.957L49.7466 61.9954L49.7535 62.0401C49.8102 62.3698 49.8886 62.6949 49.9882 63.0143C49.366 64.4975 48.1581 65.6567 46.6503 66.2172L46.6469 66.2206ZM51.5521 55.4799L51.2951 54.9767C50.8921 54.1942 50.3695 53.4798 49.7466 52.8581C49.4959 52.6102 49.2274 52.3818 48.9424 52.1746C48.6052 50.6136 48.9149 48.9821 49.8005 47.6529L51.239 45.4874L52.6798 47.6495C53.3255 48.6169 53.6696 49.7538 53.6696 50.917C53.6696 51.1866 53.6501 51.4562 53.6106 51.7235C53.5711 52.0034 53.5116 52.2805 53.4326 52.5524C53.3353 52.8965 53.2059 53.2313 53.0456 53.5513C52.76 54.114 52.3902 54.6304 51.9494 55.082L51.5521 55.4799ZM55.8334 66.2206C54.862 65.86 54.001 65.2543 53.333 64.4621C52.8985 63.9325 52.5602 63.3303 52.3341 62.6835C52.2133 62.3543 52.1263 62.0131 52.0748 61.6662V61.6285L52.069 61.5867C51.9723 60.9862 51.9723 60.3743 52.069 59.7738L52.156 59.2219L52.6375 59.4669C52.8705 59.5871 53.1097 59.6942 53.3553 59.7869C53.9403 60.0228 54.5517 60.1899 55.1757 60.2838C55.5157 60.3307 55.8574 60.3594 56.2003 60.3697C57.3927 61.4264 58.1031 62.9233 58.169 64.5147L58.2743 67.1187L55.8334 66.2206ZM56.5804 58.025C56.5392 58.025 56.4018 58.025 56.3623 58.0353C56.0727 58.0313 55.7836 58.0084 55.4968 57.966C55.0549 57.8996 54.6221 57.7817 54.2077 57.6145C54.0354 57.5498 53.8665 57.4748 53.7034 57.3907L53.2076 57.1382L53.6106 56.7364C54.2237 56.1096 54.7378 55.3929 55.135 54.6109C55.2862 54.3029 55.4172 53.9852 55.5277 53.6601C56.9067 52.8472 58.5571 52.6303 60.0998 53.0585L62.6025 53.762L60.9968 55.801C59.9218 57.152 58.3092 57.9631 56.5839 58.0215L56.5804 58.025Z" fill="#9A563A"/>
<path d="M31.7932 7.03416V2.34472C31.7932 1.69729 31.2682 1.17236 30.6208 1.17236C29.9734 1.17236 29.4485 1.69729 29.4485 2.34472V7.03416C29.4485 7.68159 29.9734 8.20652 30.6208 8.20652C31.2682 8.20652 31.7932 7.68159 31.7932 7.03416Z" fill="#9A563A"/>
<path d="M36.4826 8.20653C36.4826 8.85397 37.0075 9.37889 37.655 9.37889C38.3024 9.37889 38.8273 8.85397 38.8273 8.20653V7.03418C38.8273 6.38674 38.3024 5.86182 37.655 5.86182C37.0075 5.86182 36.4826 6.38674 36.4826 7.03418V8.20653Z" fill="#9A563A"/>
<path d="M37.655 4.68944C38.3024 4.68944 38.8273 4.16451 38.8273 3.51708V1.17236C38.8273 0.524928 38.3024 0 37.655 0C37.0075 0 36.4826 0.524928 36.4826 1.17236V3.51708C36.4826 4.16451 37.0075 4.68944 37.655 4.68944Z" fill="#9A563A"/>
<path d="M9.51837 23.4471C9.51837 24.0946 10.0433 24.6195 10.6907 24.6195C11.3382 24.6195 11.8631 24.0946 11.8631 23.4471V22.2748C11.8631 21.6273 11.3382 21.1024 10.6907 21.1024C10.0433 21.1024 9.51837 21.6273 9.51837 22.2748V23.4471Z" fill="#9A563A"/>
<path d="M10.6907 19.9302C11.3382 19.9302 11.8631 19.4052 11.8631 18.7578V16.4131C11.8631 15.7657 11.3382 15.2407 10.6907 15.2407C10.0433 15.2407 9.51837 15.7657 9.51837 16.4131V18.7578C9.51837 19.4052 10.0433 19.9302 10.6907 19.9302Z" fill="#9A563A"/>
<path d="M22.4143 7.03417C22.4143 7.6816 22.9392 8.20653 23.5867 8.20653C24.2341 8.20653 24.759 7.6816 24.759 7.03417V5.86181C24.759 5.21438 24.2341 4.68945 23.5867 4.68945C22.9392 4.68945 22.4143 5.21438 22.4143 5.86181V7.03417Z" fill="#9A563A"/>
<path d="M23.5867 3.51708C24.2341 3.51708 24.759 2.99215 24.759 2.34472V1.17236C24.759 0.524928 24.2341 0 23.5867 0C22.9392 0 22.4143 0.524928 22.4143 1.17236V2.34472C22.4143 2.99215 22.9392 3.51708 23.5867 3.51708Z" fill="#9A563A"/>
<path d="M45.8615 17.5854C45.8615 18.2329 46.3864 18.7578 47.0339 18.7578C47.6813 18.7578 48.2062 18.2329 48.2062 17.5854V12.896C48.2062 12.2486 47.6813 11.7236 47.0339 11.7236C46.3864 11.7236 45.8615 12.2486 45.8615 12.896V17.5854Z" fill="#9A563A"/>
<path d="M47.0339 10.5512C47.6813 10.5512 48.2062 10.0263 48.2062 9.37889V5.86181C48.2062 5.21438 47.6813 4.68945 47.0339 4.68945C46.3864 4.68945 45.8615 5.21438 45.8615 5.86181V9.37889C45.8615 10.0263 46.3864 10.5512 47.0339 10.5512Z" fill="#9A563A"/>
<path d="M45.8615 23.4471C45.8615 24.0946 46.3864 24.6195 47.0339 24.6195C47.6813 24.6195 48.2062 24.0946 48.2062 23.4471V22.2748C48.2062 21.6273 47.6813 21.1024 47.0339 21.1024C46.3864 21.1024 45.8615 21.6273 45.8615 22.2748V23.4471Z" fill="#9A563A"/>
<path d="M55.2403 30.4813C55.2403 29.8339 54.7154 29.309 54.068 29.309C53.4206 29.309 52.8956 29.8339 52.8956 30.4813V31.6537C52.8956 32.3011 53.4206 32.826 54.068 32.826C54.7154 32.826 55.2403 32.3011 55.2403 31.6537V30.4813Z" fill="#9A563A"/>
<path d="M55.2403 23.4471C55.2403 22.7997 54.7154 22.2748 54.068 22.2748C53.4206 22.2748 52.8956 22.7997 52.8956 23.4471V26.9642C52.8956 27.6116 53.4206 28.1366 54.068 28.1366C54.7154 28.1366 55.2403 27.6116 55.2403 26.9642V23.4471Z" fill="#9A563A"/>
<path d="M54.068 35.1708C53.4206 35.1708 52.8956 35.6957 52.8956 36.3431V37.5155C52.8956 38.1629 53.4206 38.6879 54.068 38.6879C54.7154 38.6879 55.2403 38.1629 55.2403 37.5155V36.3431C55.2403 35.6957 54.7154 35.1708 54.068 35.1708Z" fill="#9A563A"/>
<path d="M30.0066 33.9985H33.5151C34.0246 33.9985 34.5317 33.9361 35.0252 33.8118L39.1118 32.7912C39.7358 32.6298 40.113 31.9961 39.9562 31.371C39.7999 30.7459 39.1685 30.3646 38.5423 30.5163L34.4556 31.5375C34.1488 31.6154 33.8339 31.6549 33.5174 31.6549H30.0066C29.3592 31.6549 28.8342 32.1798 28.8342 32.8272C28.8342 33.4747 29.3592 33.9996 30.0066 33.9996V33.9985Z" fill="#9A563A"/>
<path d="M22.4143 33.9984C23.0618 33.9984 23.5867 33.4735 23.5867 32.8261C23.5867 32.1786 23.0618 31.6537 22.4143 31.6537H21.7177C20.8161 31.652 19.9265 31.4425 19.1188 31.0406L18.2487 30.6044C17.6694 30.3148 16.9647 30.55 16.6756 31.1299C16.386 31.7092 16.6212 32.4133 17.2005 32.703L18.0706 33.1381C19.2041 33.7019 20.452 33.9967 21.7177 33.9984H22.4143Z" fill="#9A563A"/>
<path d="M17.8863 56.8594L17.121 56.7529C15.1014 56.4707 13.2123 55.592 11.6954 54.2296L10.91 55.0997L10.1772 56.0179C12.0325 57.67 14.3366 58.7342 16.7975 59.0753L17.5629 59.1807C17.6167 59.1887 17.6716 59.1927 17.726 59.1927C18.3403 59.1898 18.8486 58.7135 18.8909 58.1005C18.9333 57.4874 18.4948 56.9458 17.8863 56.8594Z" fill="#9A563A"/>
<path d="M28.2761 57.4456H22.4143C21.7669 57.4456 21.2419 57.9705 21.2419 58.6179C21.2419 59.2653 21.7669 59.7903 22.4143 59.7903H28.2761C28.9235 59.7903 29.4485 59.2653 29.4485 58.6179C29.4485 57.9705 28.9235 57.4456 28.2761 57.4456Z" fill="#9A563A"/>
<path d="M36.4826 57.4456H32.9656C32.3181 57.4456 31.7932 57.9705 31.7932 58.6179C31.7932 59.2653 32.3181 59.7903 32.9656 59.7903H36.4826C37.1301 59.7903 37.655 59.2653 37.655 58.6179C37.655 57.9705 37.1301 57.4456 36.4826 57.4456Z" fill="#9A563A"/>
<path d="M21.242 19.9301H23.704C25.3893 19.9318 27.0374 19.4326 28.4387 18.4961L30.1016 17.3884C30.6403 17.029 30.7857 16.3008 30.4262 15.7621C30.0667 15.2235 29.3386 15.0781 28.7999 15.4376L27.1387 16.5452C26.122 17.2242 24.9268 17.5865 23.704 17.5854H21.242C20.5945 17.5854 20.0696 18.1103 20.0696 18.7577C20.0696 19.4052 20.5945 19.9301 21.242 19.9301Z" fill="#9A563A"/>
</g>
<defs>
<clipPath id="clip0_144_20">
<rect width="70" height="70" fill="white"/>
</clipPath>
</defs>
</svg>
