<svg width="70" height="70" viewBox="0 0 70 70" fill="none" xmlns="http://www.w3.org/2000/svg">
<path d="M33.8378 50.2646C33.8383 50.3574 33.8503 50.4497 33.8731 50.5403C33.8771 50.5557 33.8742 50.5711 33.8788 50.5865C33.8856 50.6087 33.9004 50.6258 33.9084 50.6474C33.9187 50.6844 33.9306 50.7209 33.9443 50.7568C34.0919 51.0661 37.7021 58.3322 50.165 58.3322C62.6279 58.3322 66.2381 51.0661 66.3857 50.7568C66.4045 50.7169 66.4569 50.5443 66.4603 50.5312C66.4871 50.4264 66.499 50.3187 66.4962 50.211C66.4956 50.2036 66.4979 50.1962 66.4973 50.1888C66.4893 50.076 66.4654 49.9655 66.4261 49.8601C66.4141 49.8265 66.3965 49.7968 66.3817 49.7644C66.3634 49.7188 66.3429 49.6749 66.3196 49.6316C66.3031 49.6054 66.2797 49.586 66.2615 49.561C66.2381 49.5296 66.213 49.4995 66.1863 49.4704C66.1282 49.4077 66.0632 49.3513 65.992 49.3023C65.9738 49.2898 65.9612 49.271 65.9413 49.2585L57.5814 44.1516C55.9771 43.0396 53.8971 42.8817 52.143 43.738L50.1103 45.0631L47.5472 43.6714C45.8005 42.9051 43.7826 43.0908 42.2056 44.1642L34.3602 49.2767C34.3403 49.2898 34.3283 49.3097 34.3089 49.3234C34.244 49.3713 34.1842 49.426 34.1306 49.4869C34.1044 49.5154 34.0793 49.545 34.0565 49.5764C34.0423 49.5957 34.0235 49.6111 34.0104 49.6316C33.9825 49.6823 33.958 49.7347 33.9375 49.7889C33.9249 49.8173 33.9078 49.8441 33.8976 49.8737C33.8606 49.9791 33.8389 50.0891 33.8338 50.2008C33.8326 50.2218 33.8378 50.2429 33.8378 50.2646ZM50.165 55.9987C42.8152 55.9987 39.0181 53.276 37.2839 51.4211H63.046C61.3119 53.276 57.5148 55.9987 50.165 55.9987ZM43.488 46.1137C44.3637 45.5166 45.474 45.3776 46.4699 45.7411L49.6084 47.4457C49.985 47.6502 50.443 47.632 50.8019 47.3978L53.357 45.7297C54.3614 45.3514 55.4889 45.5047 56.356 46.1376L61.1848 49.0876H38.9247L43.488 46.1137Z" fill="#9A563A"/>
<path d="M48.4496 25.8402C47.9033 25.499 47.1832 25.6653 46.8419 26.2117L41.0081 35.5457C40.7837 35.9058 40.7717 36.3587 40.9774 36.7296C41.183 37.1005 41.5739 37.3306 41.9977 37.3306H47.8315C48.4758 37.3306 48.9983 36.8082 48.9983 36.1639C48.9983 35.5195 48.4758 34.9971 47.8315 34.9971H44.1028L48.8211 27.4479C49.1623 26.9016 48.9966 26.182 48.4496 25.8402Z" fill="#9A563A"/>
<path d="M43.6841 15.3581L42.8996 15.8811C39.6232 18.0773 35.2997 17.8899 32.2256 15.4179C31.7225 15.0157 30.9882 15.0972 30.5859 15.6002C30.1837 16.1039 30.2652 16.8376 30.7683 17.2399C31.8661 18.1166 33.116 18.7832 34.4554 19.2059C34.2691 19.4754 34.0161 19.6924 33.7205 19.8343C33.1001 19.893 32.6352 20.4285 32.6642 21.0512C32.6939 21.6739 33.2072 22.1633 33.8304 22.1627C34.1238 22.1627 35.5692 22.0089 36.9114 19.7021C37.2327 19.7295 37.5546 19.7437 37.8765 19.7437C38.3169 19.7374 38.7561 19.7055 39.1925 19.648C38.9977 20.1738 38.6786 20.6444 38.2627 21.0199C37.6765 21.1406 37.2766 21.6853 37.337 22.2806C37.3974 22.8765 37.8987 23.3294 38.4975 23.3294C39.1013 23.3294 40.6447 22.9107 41.9379 19.0316C41.9465 19.0059 41.9408 18.9797 41.9476 18.9541C42.7361 18.6607 43.4892 18.2813 44.1939 17.8227L44.9784 17.2997C45.3294 17.0706 45.5305 16.6701 45.5048 16.2514C45.4792 15.8332 45.2308 15.4607 44.8542 15.2755C44.4777 15.0909 44.031 15.1223 43.6841 15.3581Z" fill="#9A563A"/>
<path d="M65.98 17.2997C66.5093 16.9397 66.65 16.2207 66.2951 15.688C65.9396 15.1553 65.2217 15.0084 64.6856 15.3582L63.9012 15.8811C60.6248 18.0774 56.3013 17.8899 53.2271 15.418C52.7241 15.0158 51.9897 15.0972 51.5875 15.6003C51.1853 16.1039 51.2668 16.8377 51.7698 17.2399C52.8677 18.1167 54.1176 18.7832 55.457 19.206C55.2707 19.4754 55.0177 19.6925 54.7221 19.8343C54.1016 19.893 53.6368 20.4285 53.6658 21.0512C53.6954 21.6739 54.2088 22.1633 54.832 22.1627C55.1254 22.1627 56.5708 22.0089 57.913 19.7022C58.2343 19.7295 58.5562 19.7438 58.8781 19.7438C59.3184 19.7375 59.7577 19.7056 60.1941 19.648C59.9992 20.1739 59.6802 20.6445 59.2643 21.0199C58.6781 21.1407 58.2782 21.6853 58.3386 22.2807C58.3989 22.8766 58.9003 23.3295 59.499 23.3295C60.1029 23.3295 61.6463 22.9108 62.9395 19.0316C62.948 19.006 62.9423 18.9798 62.9492 18.9541C63.7377 18.6607 64.4908 18.2813 65.1955 17.8227L65.98 17.2997Z" fill="#9A563A"/>
<path d="M65.3329 8.1616H59.4991V5.82808C59.4991 5.43612 59.302 5.0698 58.975 4.85445C58.6474 4.63853 58.2332 4.6015 57.8726 4.75589L49.9258 8.1616H23.8127L29.9883 1.98598C30.439 1.52965 30.4367 0.795296 29.9832 0.34181C29.5297 -0.111676 28.7948 -0.113955 28.3385 0.336113L20.1712 8.50342C19.8379 8.83727 19.7376 9.33918 19.9182 9.77501C20.0988 10.2108 20.5244 10.4951 20.9961 10.4951H25.8842L26.6436 22.3912C19.647 20.3328 12.1617 20.6929 5.39469 23.4126C4.83923 23.6354 4.54184 24.2421 4.70649 24.817L9.36668 41.1276L11.6711 50.3449L12.8311 68.906C12.8698 69.5212 13.3797 69.9998 13.9955 69.9998H20.9961C21.6125 69.9998 22.1218 69.5212 22.1606 68.906L23.3205 50.3449L25.625 41.1276L27.4349 34.7925L28.7475 55.3521C29.0295 59.6488 32.593 62.9918 36.8983 62.9992H37.3307V68.833C37.3307 69.4774 37.8531 69.9998 38.4975 69.9998H65.3329C65.9772 69.9998 66.4997 69.4774 66.4997 68.833V61.8325C66.4997 61.1881 65.9772 60.6657 65.3329 60.6657H36.8983C33.823 60.6606 31.2782 58.273 31.0765 55.204L29.3628 28.3588C29.3525 28.3047 29.3377 28.2511 29.3189 28.1987L30.2852 24.817C30.4498 24.2421 30.1524 23.6354 29.597 23.4126C29.4107 23.338 29.2215 23.2742 29.0341 23.203L28.2228 10.4951H50.1651C50.3234 10.4957 50.4795 10.4632 50.6248 10.4005L57.1656 7.59759V9.32836C57.1656 9.97269 57.688 10.4951 58.3324 10.4951H65.3329C65.9772 10.4951 66.4997 9.97269 66.4997 9.32836C66.4997 8.68402 65.9772 8.1616 65.3329 8.1616ZM64.1662 62.9992V67.6663H39.6642V62.9992H64.1662ZM27.7471 25.2055L23.6162 39.6641H21.2525L22.1401 35.2261C22.2603 34.5977 21.8507 33.9892 21.2228 33.8639C20.5956 33.738 19.9837 34.1419 19.8521 34.768L18.8728 39.6641H16.1188L15.1395 34.768C15.0609 34.3561 14.7675 34.0183 14.3704 33.8827C13.9739 33.7471 13.5347 33.8348 13.2202 34.1129C12.9063 34.3909 12.7655 34.8159 12.8516 35.2261L13.7392 39.6641H11.3755L7.24453 25.2055C13.8685 22.807 21.1237 22.807 27.7471 25.2055ZM21.2519 48.9981H13.7397L11.9896 41.9976H23.002L21.2519 48.9981ZM19.9 67.6663H15.0917L14.0707 51.3317H20.9209L19.9 67.6663Z" fill="#9A563A"/>
<path d="M15.1622 10.4951H17.4957V12.8286H15.1622V10.4951Z" fill="#9A563A"/>
<path d="M15.1622 15.1621H17.4957V17.4956H15.1622V15.1621Z" fill="#9A563A"/>
<path d="M12.8287 12.8286H15.1623V15.1621H12.8287V12.8286Z" fill="#9A563A"/>
<path d="M17.4957 12.8286H19.8292V15.1621H17.4957V12.8286Z" fill="#9A563A"/>
<path d="M5.82825 4.66138H8.16176V6.99489H5.82825V4.66138Z" fill="#9A563A"/>
<path d="M5.82825 9.32837H8.16176V11.6619H5.82825V9.32837Z" fill="#9A563A"/>
<path d="M3.49463 6.99487H5.82815V9.32839H3.49463V6.99487Z" fill="#9A563A"/>
<path d="M8.16174 6.99487H10.4953V9.32839H8.16174V6.99487Z" fill="#9A563A"/>
<path d="M30.6719 33.4885C31.1277 33.9443 31.8666 33.9443 32.3218 33.4885L34.6553 31.155C35.1099 30.6992 35.1093 29.9614 34.6541 29.5062C34.199 29.0516 33.4612 29.051 33.0054 29.5051L30.6719 31.8386C30.2161 32.2944 30.2161 33.0333 30.6719 33.4885Z" fill="#9A563A"/>
<path d="M37.6725 29.5051L35.339 31.8386C35.0439 32.1332 34.9282 32.5633 35.0359 32.9661C35.1436 33.3694 35.4586 33.6839 35.8614 33.7921C36.2642 33.8998 36.6943 33.7842 36.9889 33.4885L39.3224 31.155C39.777 30.6992 39.7764 29.9614 39.3212 29.5062C38.866 29.0516 38.1283 29.051 37.6725 29.5051Z" fill="#9A563A"/>
<path d="M56.3406 29.5051L54.0071 31.8386C53.712 32.1332 53.5963 32.5633 53.704 32.9661C53.8117 33.3694 54.1267 33.6839 54.5295 33.7921C54.9323 33.8998 55.3624 33.7842 55.657 33.4885L57.9905 31.155C58.4451 30.6992 58.4445 29.9614 57.9893 29.5062C57.5341 29.0516 56.7964 29.051 56.3406 29.5051Z" fill="#9A563A"/>
<path d="M59.499 33.8303C59.8084 33.8309 60.1058 33.7078 60.324 33.4885L62.6575 31.155C63.1121 30.6992 63.1115 29.9614 62.6563 29.5062C62.2011 29.0516 61.4634 29.051 61.0076 29.5051L58.6741 31.8386C58.3408 32.1725 58.2411 32.6744 58.4211 33.1102C58.6017 33.546 59.0273 33.8303 59.499 33.8303Z" fill="#9A563A"/>
</svg>
