<svg width="70" height="70" viewBox="0 0 70 70" fill="none" xmlns="http://www.w3.org/2000/svg">
<g clip-path="url(#clip0_144_41)">
<path d="M29.0434 40.8035L28.7358 40.9264L29.6015 43.0928L29.909 42.9691C33.0478 41.7141 36.9522 41.7135 40.0911 42.9691L40.3985 43.0922L41.2642 40.9258L40.9566 40.8034C37.2734 39.3291 32.7267 39.3296 29.0434 40.8035Z" fill="#9A563A"/>
<path d="M33.8337 23.3492H36.1663V36.1782H33.8337V23.3492Z" fill="#9A563A"/>
<path d="M67.6555 0.0239571V21.4263C67.6555 21.8021 67.5952 22.1755 67.4766 22.5322L61.9302 39.1708L53.2764 52.7157C53.0084 53.1392 52.5745 53.4301 52.081 53.5175C51.04 53.6799 50.0643 52.9676 49.9019 51.9265C49.8395 51.5264 49.9059 51.1166 50.092 50.7566C52.1205 47.0733 55.8504 40.2357 55.8504 40.2357C55.894 40.156 55.9282 40.0716 55.9524 39.9839L56.8958 36.5257L60.6038 24.8693L58.3806 24.1619L54.6643 35.8446L54.6728 35.8472C54.6677 35.8634 54.6551 35.8747 54.6506 35.8909C54.3532 36.9826 53.2273 37.6263 52.1357 37.3291C52.06 37.3085 51.9855 37.2835 51.9126 37.2543C50.996 36.8874 50.4713 35.9192 50.6643 34.9509L52.472 25.9112C52.4867 25.8357 52.494 25.7588 52.494 25.6819V22.2656C52.4808 17.292 54.4574 12.5198 57.9837 9.01239C58.2023 8.79371 58.3254 8.49719 58.3254 8.18783V0.0239571H55.9928V7.71229C55.1849 8.56556 54.4493 9.48443 53.7935 10.4594C47.3524 0.0795018 33.7164 -3.1136 23.3365 3.32756C20.4422 5.12361 18.0018 7.56373 16.2055 10.458C15.55 9.48356 14.8147 8.56512 14.0072 7.71229V0.0239571H11.6746V8.18783C11.6746 8.49719 11.7977 8.79371 12.0164 9.01239C15.5427 12.5199 17.5194 17.2925 17.506 22.2661V25.6819C17.5061 25.7587 17.5139 25.8354 17.5287 25.9107L19.3364 34.9505C19.53 35.9192 19.0052 36.8881 18.0881 37.2552C17.0371 37.6753 15.8446 37.1641 15.4245 36.1131C15.3955 36.0406 15.3707 35.9664 15.3501 35.8912C15.3456 35.8747 15.3331 35.8634 15.328 35.8475L15.3364 35.8449L11.62 24.1619L9.39678 24.8693L13.1048 36.5257L14.0481 39.9839C14.0723 40.0716 14.1066 40.156 14.1502 40.2357C14.1502 40.2357 17.8801 47.073 19.9086 50.7566C20.3584 51.5721 20.1352 52.5756 19.3208 53.1871C18.9201 53.4871 18.4126 53.607 17.92 53.5179C17.4264 53.4309 16.9924 53.1397 16.7246 52.7161L8.07088 39.1712L2.5244 22.5329C2.40515 22.1762 2.34435 21.8024 2.3445 21.4263V0.0239571H0.0119635V21.4263C0.011672 22.053 0.112846 22.6758 0.311549 23.2702L5.90366 40.0461C5.93384 40.1372 5.97509 40.2243 6.0267 40.3053L14.7577 53.9719C15.3783 54.9396 16.3727 55.6064 17.5037 55.813C17.743 55.8566 17.9859 55.8784 18.2292 55.8784C19.1509 55.8733 20.0457 55.5678 20.7781 55.0083C20.8245 54.9736 20.8602 54.9307 20.9048 54.8944C20.9888 54.9896 21.0663 55.0928 21.1517 55.186C21.8239 55.9235 22.5549 56.6052 23.3373 57.2245V61.6494C23.336 63.9664 22.9622 66.2681 22.2302 68.4664C22.0273 69.0777 22.3584 69.7378 22.9698 69.9407C23.0883 69.9801 23.2124 70 23.3373 70H46.6627C47.3068 70.0002 47.8291 69.4781 47.8291 68.8339C47.8291 68.709 47.8091 68.5849 47.7698 68.4664C47.0378 66.2681 46.664 63.9664 46.6627 61.6494V57.2253C47.4422 56.6085 48.1705 55.9295 48.8404 55.195C48.9308 55.0963 49.0105 54.9909 49.0987 54.8902C49.1616 54.9425 49.2136 55.0023 49.2799 55.0521C51.1056 56.4219 53.696 56.0524 55.0658 54.2267C55.1279 54.144 55.1868 54.0591 55.2425 53.9719L63.9735 40.3053C64.0251 40.2243 64.0663 40.1372 64.0965 40.0461L69.6898 23.2696C69.8876 22.6752 69.9883 22.0527 69.988 21.4263V0.0239571H67.6555ZM52.1663 13.3217C51.8642 12.9503 51.5493 12.6045 51.2321 12.2647L51.8102 11.6866C52.0261 12.0336 52.2306 12.3895 52.4268 12.7525C52.3324 12.9388 52.2551 13.1328 52.1663 13.3217ZM50.4503 9.74772L49.5617 10.637C48.6908 9.86988 47.7597 9.17406 46.7773 8.55608L48.066 7.2675C48.9315 8.0231 49.7294 8.85304 50.4503 9.74772ZM25.3542 7.38894L23.7976 5.83241C24.939 5.04357 26.1607 4.37749 27.4422 3.84538L28.5793 6.11814C27.4713 6.45301 26.3928 6.87797 25.3542 7.38894ZM30.9086 5.55936L29.6758 3.09562C31.0337 2.72095 32.4275 2.49236 33.8337 2.41335V5.20365C32.8516 5.25569 31.8743 5.3745 30.9083 5.55936H30.9086ZM36.1663 2.39688C37.5764 2.47676 38.9741 2.70652 40.3357 3.08206L39.093 5.56038C38.1266 5.37567 37.1489 5.25642 36.1663 5.20379V2.39688ZM42.5592 3.84975C43.8432 4.37632 45.068 5.03745 46.2127 5.8222L44.6455 7.38909C43.6074 6.87811 42.5293 6.45286 41.4218 6.11771L42.5592 3.84975ZM21.9493 7.28266L23.2226 8.55565C22.2396 9.17275 21.3085 9.86872 20.4381 10.6367L19.5618 9.76055C20.004 9.20278 20.476 8.66936 20.9759 8.16276C21.2883 7.8518 21.621 7.57015 21.9493 7.28266ZM18.1881 11.6853L18.768 12.2651C18.4499 12.6065 18.1342 12.9525 17.8339 13.3217C17.7455 13.1337 17.6685 12.9405 17.5745 12.7549C17.7701 12.3928 17.9707 12.0339 18.188 11.6856L18.1881 11.6853ZM45.1028 67.6675H24.8972C25.4095 65.7025 25.6691 63.6802 25.6699 61.6494V58.8526C26.2425 59.1833 26.8322 59.484 27.4363 59.7531C32.2524 61.8932 37.7498 61.8932 42.5659 59.7531C43.1691 59.4841 43.7579 59.1839 44.3299 58.8536V61.65C44.3307 63.6805 44.5904 65.7026 45.1028 67.6675ZM47.113 53.6286C45.5846 55.3331 43.7119 56.6939 41.6186 57.621C37.4037 59.4837 32.5991 59.4837 28.3842 57.621C26.2865 56.6919 24.4101 55.3274 22.8797 53.6182C22.6645 53.3839 22.4698 53.1381 22.2684 52.8966C22.6174 51.8109 22.5029 50.6294 21.9515 49.631C20.2671 46.5713 17.406 41.3317 16.4891 39.6523C18.8637 40.1156 21.1643 38.5663 21.6277 36.1917C21.7372 35.6304 21.7359 35.0531 21.6235 34.4924L20.8336 30.5417C21.8648 30.6426 22.9026 30.712 23.9447 30.712C25.7629 30.7134 27.5779 30.5582 29.3694 30.2478L28.9685 27.9505C26.1212 28.4341 23.2185 28.498 20.3527 28.1401L19.8385 25.5662V23.5544C22.4714 22.1486 25.6515 21.8078 28.8816 22.6252L29.4557 20.3644C26.0657 19.5043 22.7013 19.7464 19.7786 20.9986C19.679 19.2582 19.3636 17.5371 18.8395 15.8746C19.4214 15.0397 20.0677 14.2514 20.7724 13.5172C20.8351 13.4471 20.9057 13.3771 20.9774 13.3043C21.0379 13.2445 21.0959 13.184 21.2133 13.0809C22.5378 11.7903 24.0406 10.696 25.6755 9.83154C27.2044 9.0067 28.8392 8.39587 30.5342 8.0161C33.4764 7.32859 36.5377 7.32961 39.4795 8.01902C41.1723 8.39951 42.8048 9.01078 44.3313 9.83563C45.9712 10.7041 47.4781 11.8031 48.8057 13.0994C48.9617 13.2452 49.1053 13.3894 49.267 13.5619C49.9575 14.282 50.5905 15.0553 51.1601 15.8744C50.6359 17.5371 50.3204 19.2583 50.221 20.9989C47.2989 19.7472 43.9358 19.5059 40.5439 20.3647L41.118 22.6255C44.3481 21.8071 47.5291 22.1478 50.1611 23.5544V25.5662L49.6244 28.2503C47.1461 28.4663 44.6504 28.3654 42.1976 27.9501L41.7967 30.2484C43.5674 30.5534 45.3608 30.706 47.1576 30.7045C47.823 30.7045 48.4866 30.6789 49.1471 30.6375L48.3764 34.4927C47.9018 36.8656 49.4407 39.1738 51.8137 39.6484C52.3736 39.7603 52.9502 39.7618 53.5107 39.6526C52.5939 41.332 49.7339 46.5716 48.0484 49.6313C47.4976 50.6275 47.3849 51.8076 47.7374 52.89C47.5329 53.1362 47.3358 53.3847 47.1126 53.6286H47.113Z" fill="#9A563A"/>
</g>
<defs>
<clipPath id="clip0_144_41">
<rect width="70" height="70" fill="white"/>
</clipPath>
</defs>
</svg>
