<svg width="70" height="70" viewBox="0 0 70 70" fill="none" xmlns="http://www.w3.org/2000/svg">
<path d="M10.9375 40.4688C13.953 40.4688 16.4062 38.0155 16.4062 35C16.4062 31.9845 13.953 29.5312 10.9375 29.5312C7.92203 29.5312 5.46875 31.9845 5.46875 35C5.46875 38.0155 7.92203 40.4688 10.9375 40.4688ZM10.9375 31.7188C12.7466 31.7188 14.2188 33.1909 14.2188 35C14.2188 36.8091 12.7466 38.2812 10.9375 38.2812C9.12844 38.2812 7.65625 36.8091 7.65625 35C7.65625 33.1909 9.12844 31.7188 10.9375 31.7188Z" fill="#9A563A"/>
<path d="M22.9688 31.7188C25.3816 31.7188 27.3438 29.7566 27.3438 27.3438C27.3438 24.9309 25.3816 22.9688 22.9688 22.9688C20.5559 22.9688 18.5938 24.9309 18.5938 27.3438C18.5938 29.7566 20.5559 31.7188 22.9688 31.7188ZM22.9688 25.1562C24.1752 25.1562 25.1562 26.1373 25.1562 27.3438C25.1562 28.5502 24.1752 29.5312 22.9688 29.5312C21.7623 29.5312 20.7812 28.5502 20.7812 27.3438C20.7812 26.1373 21.7623 25.1562 22.9688 25.1562Z" fill="#9A563A"/>
<path d="M18.5938 51.4062C16.1809 51.4062 14.2188 53.3684 14.2188 55.7812H16.4062C16.4062 54.5748 17.3873 53.5938 18.5938 53.5938C19.8002 53.5938 20.7812 54.5748 20.7812 55.7812H22.9688C22.9688 53.3684 21.0066 51.4062 18.5938 51.4062Z" fill="#9A563A"/>
<path d="M63.758 21.5545C63.9713 21.7678 64.2513 21.875 64.5313 21.875C64.8113 21.875 65.0913 21.7678 65.3046 21.5545C68.1439 18.7162 68.1439 14.0962 65.3046 11.2579L64.9841 10.9375L69.6796 6.242L68.133 4.69543L63.4375 9.3909L60.6091 6.56247L65.3046 1.867L63.758 0.320435L59.0625 5.0159L58.7421 4.69543C55.9027 1.85606 51.2849 1.85606 48.4455 4.69543C48.0178 5.12309 48.0178 5.81434 48.4455 6.242L63.758 21.5545ZM57.1955 6.242L63.758 12.8045C65.4785 14.525 65.7082 17.1806 64.4471 19.1504L50.8496 5.55293C52.8194 4.28965 55.475 4.52153 57.1955 6.242Z" fill="#9A563A"/>
<path d="M46.2517 12.3557L48.4389 10.1685L49.9857 11.7153L47.7985 13.9025L46.2517 12.3557Z" fill="#9A563A"/>
<path d="M49.533 15.637L51.7201 13.4498L53.2669 14.9966L51.0798 17.1838L49.533 15.637Z" fill="#9A563A"/>
<path d="M52.8131 18.9182L55.0003 16.731L56.5471 18.2778L54.3599 20.465L52.8131 18.9182Z" fill="#9A563A"/>
<path d="M56.0933 22.1995L58.2804 20.0123L59.8272 21.5591L57.6401 23.7463L56.0933 22.1995Z" fill="#9A563A"/>
<path d="M41.8767 16.7296L44.0639 14.5424L45.6107 16.0892L43.4235 18.2764L41.8767 16.7296Z" fill="#9A563A"/>
<path d="M45.1569 20.0109L47.344 17.8237L48.8908 19.3705L46.7037 21.5577L45.1569 20.0109Z" fill="#9A563A"/>
<path d="M48.4381 23.2921L50.6253 21.1049L52.1721 22.6517L49.9849 24.8389L48.4381 23.2921Z" fill="#9A563A"/>
<path d="M51.7183 26.5734L53.9054 24.3862L55.4522 25.933L53.2651 28.1202L51.7183 26.5734Z" fill="#9A563A"/>
<path d="M62.3438 37.1875C61.8581 37.1875 61.378 37.2422 60.9044 37.3516C60.048 34.6905 57.5706 32.8125 54.6875 32.8125C51.6622 32.8125 49.1094 34.8698 48.3525 37.6589C47.5869 37.3472 46.772 37.1875 45.9375 37.1875C45.1697 37.1875 44.4216 37.3264 43.7161 37.5802C44.2553 36.7839 44.6173 35.8619 44.765 34.8698C46.6867 34.4083 48.125 32.6867 48.125 30.625C48.125 28.5502 46.6736 26.8089 44.7322 26.3616C44.2848 24.4202 42.5436 22.9688 40.4688 22.9688C39.6977 22.9688 38.9452 23.1766 38.2812 23.5648C37.6173 23.1766 36.8648 22.9688 36.0938 22.9688C36.0566 22.9688 36.0216 22.9775 35.9844 22.9786C35.4791 20.4805 33.2686 18.5938 30.625 18.5938H27.3438V13.125C27.3438 12.5213 26.8537 12.0312 26.25 12.0312H24.0625V7.65625H28.4375V8.75C28.4375 9.16453 28.6716 9.54297 29.0423 9.72891L33.4173 11.9164C33.5716 11.993 33.7389 12.0312 33.9062 12.0312C34.1064 12.0312 34.3055 11.9766 34.4816 11.8683C34.8031 11.6681 35 11.317 35 10.9375V4.375C35 2.56594 33.5278 1.09375 31.7188 1.09375H12.0312C10.2222 1.09375 8.75 2.56594 8.75 4.375C8.75 6.18406 10.2222 7.65625 12.0312 7.65625H13.125V12.0312H10.9375C10.3338 12.0312 9.84375 12.5213 9.84375 13.125V18.5938H6.5625C3.54703 18.5938 1.09375 21.047 1.09375 24.0625V63.4375C1.09375 65.2466 2.56594 66.7188 4.375 66.7188H29.6516C31.033 68.0695 32.9197 68.9062 35 68.9062H61.25C65.4719 68.9062 68.9062 65.4719 68.9062 61.25V48.125C68.9062 47.5836 68.5059 47.1548 67.9897 47.0673C68.5748 46.0698 68.9062 44.928 68.9062 43.75C68.9062 40.1308 65.963 37.1875 62.3438 37.1875ZM66.7188 51.4062H29.5312V49.2188H66.7188V51.4062ZM33.9062 33.9062C33.9062 31.4934 35.8684 29.5312 38.2812 29.5312C40.6941 29.5312 42.6562 31.4934 42.6562 33.9062C42.6562 36.3191 40.6941 38.2812 38.2812 38.2812C35.8684 38.2812 33.9062 36.3191 33.9062 33.9062ZM44.8438 47.0312H31.7188C31.7188 43.412 34.662 40.4688 38.2812 40.4688C41.9005 40.4688 44.8438 43.412 44.8438 47.0312ZM48.5614 40.2741C48.8939 40.5245 49.3369 40.5661 49.7088 40.3812C50.0806 40.1964 50.3158 39.8169 50.3158 39.4012C50.3158 39.3794 50.3147 39.3553 50.3136 39.3312C50.3366 36.9381 52.2911 35 54.6886 35C56.9067 35 58.765 36.6745 59.01 38.8959C59.0483 39.2438 59.2517 39.5533 59.5569 39.7261C59.862 39.8989 60.2306 39.9153 60.5489 39.772C61.1286 39.5084 61.7334 39.375 62.3438 39.375C64.7566 39.375 66.7188 41.3372 66.7188 43.75C66.7188 45.0319 66.1566 46.2 65.1984 47.0312H47.0312C47.0312 44.205 45.6783 41.6938 43.5914 40.0936C45.0767 39.1716 47.0837 39.1552 48.5614 40.2741ZM37.5495 25.7261C37.9652 26.1012 38.5973 26.1012 39.013 25.7261C39.3028 25.4669 39.7895 25.1562 40.4688 25.1562C41.6752 25.1562 42.6562 26.1373 42.6562 27.3438C42.6562 27.9475 43.1463 28.4375 43.75 28.4375C44.9564 28.4375 45.9375 29.4186 45.9375 30.625C45.9375 31.4858 45.4333 32.2252 44.7092 32.5817C44.0945 29.5958 41.4466 27.3438 38.2812 27.3438C35.1159 27.3438 32.468 29.5958 31.8533 32.5817C31.1292 32.2252 30.625 31.4858 30.625 30.625C30.625 29.4186 31.6061 28.4375 32.8125 28.4375C33.4162 28.4375 33.9062 27.9475 33.9062 27.3438C33.9062 26.1373 34.8873 25.1562 36.0938 25.1562C36.773 25.1562 37.2597 25.4669 37.5495 25.7261ZM10.9375 4.375C10.9375 3.77234 11.4286 3.28125 12.0312 3.28125H31.7188C32.3214 3.28125 32.8125 3.77234 32.8125 4.375V9.16781L30.625 8.07406V6.5625C30.625 5.95875 30.135 5.46875 29.5312 5.46875H12.0312C11.4286 5.46875 10.9375 4.97766 10.9375 4.375ZM15.3125 7.65625H21.875V12.0312H15.3125V7.65625ZM12.0312 14.2188H25.1562V18.5938H12.0312V14.2188ZM6.5625 20.7812H30.625C32.2733 20.7812 33.6284 22.0073 33.8592 23.5933C32.8519 24.1959 32.1016 25.1858 31.8303 26.3616C29.8889 26.8089 28.4375 28.5502 28.4375 30.625C28.4375 32.6867 29.8758 34.4083 31.7975 34.8687C32.06 36.6406 33.0291 38.1795 34.4127 39.1945C31.5252 40.6262 29.5312 43.5969 29.5312 47.0312H28.4375C27.8338 47.0312 27.3438 47.5213 27.3438 48.125V53.6791C27.2606 53.69 27.1775 53.6856 27.0944 53.6988C26.1592 49.8225 22.6953 47.0312 18.5938 47.0312C14.4922 47.0312 11.0294 49.8225 10.0931 53.6977C7.65516 53.3148 5.17453 54.052 3.28125 55.5592V24.0625C3.28125 22.2534 4.75344 20.7812 6.5625 20.7812ZM3.28125 63.4375V58.7366C4.50188 56.8859 6.51984 55.7812 8.75 55.7812C9.39422 55.7812 10.0373 55.8764 10.6597 56.0656C10.9736 56.1608 11.3116 56.1105 11.585 55.9289C11.8573 55.7462 12.0334 55.452 12.0652 55.1272C12.3977 51.7584 15.2042 49.2188 18.5938 49.2188C21.9833 49.2188 24.7898 51.7584 25.1234 55.1261C25.1552 55.452 25.3323 55.7452 25.6036 55.9278C25.8759 56.1094 26.2139 56.1597 26.5289 56.0645C26.7969 55.9847 27.0703 55.9289 27.3438 55.8819V61.25C27.3438 62.4258 27.6172 63.5348 28.093 64.5312H4.375C3.77234 64.5312 3.28125 64.0402 3.28125 63.4375ZM61.25 66.7188H35C31.9845 66.7188 29.5312 64.2655 29.5312 61.25V53.5938H66.7188V61.25C66.7188 64.2655 64.2655 66.7188 61.25 66.7188Z" fill="#9A563A"/>
</svg>
