<svg width="70" height="70" viewBox="0 0 70 70" fill="none" xmlns="http://www.w3.org/2000/svg">
<path d="M14.2188 40.5584L12.0313 40.3779C12.0061 40.6656 11.4844 47.4567 15.3125 51.6075C16.2934 52.6395 17.4847 53.4487 18.8057 53.9801C20.1266 54.5115 21.5464 54.7527 22.9688 54.6875V52.5C21.8514 52.5593 20.7344 52.3787 19.6926 51.9705C18.6509 51.5622 17.7086 50.9357 16.9291 50.1331C13.7583 46.6965 14.21 40.6196 14.2188 40.5584Z" fill="#9A563A"/>
<path d="M57.9688 36.0938H43.75V38.2812H57.9688V36.0938Z" fill="#9A563A"/>
<path d="M41.5625 36.0938H39.375V38.2812H41.5625V36.0938Z" fill="#9A563A"/>
<path d="M10.4431 31.7188H7.65625V45.9375C7.66105 49.2267 8.89978 52.3944 11.1275 54.8144C13.3553 57.2343 16.4099 58.7304 19.6875 59.0067V65.625H50.3125V59.0067C53.5901 58.7304 56.6447 57.2343 58.8725 54.8144C61.1002 52.3944 62.339 49.2267 62.3438 45.9375V31.7188H51.8591L58.7016 24.8773C59.43 24.29 64.3606 20.312 65.3045 19.367C66.0104 18.7081 66.5733 17.9111 66.9581 17.0254C67.343 16.1397 67.5416 15.1844 67.5416 14.2188C67.5416 13.2531 67.343 12.2978 66.9581 11.4121C66.5733 10.5264 66.0104 9.72939 65.3045 9.07047C64.6465 8.36312 63.8497 7.79896 62.9639 7.4132C62.0781 7.02744 61.1224 6.82835 60.1563 6.82835C59.1901 6.82835 58.2344 7.02744 57.3486 7.4132C56.4628 7.79896 55.666 8.36312 55.008 9.07047C54.0619 10.0166 50.0675 14.9669 49.4933 15.6789L33.4534 31.7188H28.9319C31.4373 30.2846 33.5199 28.2147 34.9694 25.7182C36.4189 23.2216 37.184 20.3868 37.1875 17.5V5.46875C37.1875 5.17867 37.0723 4.90047 36.8672 4.69535C36.662 4.49023 36.3838 4.375 36.0938 4.375H33.9063C30.2424 4.38147 26.686 5.61309 23.8028 7.8739C20.9197 10.1347 18.8755 13.2948 17.9955 16.8514C16.6475 14.0966 14.5542 11.7748 11.9534 10.1495C9.35254 8.52417 6.34818 7.66042 3.28125 7.65625C2.99117 7.65625 2.71297 7.77148 2.50785 7.9766C2.30273 8.18172 2.1875 8.45992 2.1875 8.75V17.5C2.19096 20.3868 2.95609 23.2216 4.40561 25.7182C5.85514 28.2147 7.93774 30.2846 10.4431 31.7188ZM48.125 63.4375H30.625V61.25H28.4375V63.4375H26.25V61.25H24.0625V63.4375H21.875V59.0625H48.125V63.4375ZM56.5545 10.617C57.0144 10.1213 57.5717 9.72592 58.1914 9.45551C58.8112 9.1851 59.4801 9.04553 60.1563 9.04553C60.8324 9.04553 61.5013 9.1851 62.1211 9.45551C62.7408 9.72592 63.2981 10.1213 63.758 10.617C64.2588 11.0738 64.6589 11.6301 64.9326 12.2503C65.2064 12.8704 65.3477 13.5409 65.3477 14.2188C65.3477 14.8966 65.2064 15.5671 64.9326 16.1872C64.6589 16.8074 64.2588 17.3637 63.758 17.8205C63.1159 18.4625 59.9069 21.0864 58.0464 22.5936L51.7814 16.3286C53.2886 14.4681 55.9125 11.2591 56.5545 10.617ZM50.3125 17.9528L56.4222 24.0625L54.6875 25.7972L48.5778 19.6875L50.3125 17.9528ZM47.0313 21.2341L53.1409 27.3438L49.2188 31.2659L43.1091 25.1562L47.0313 21.2341ZM41.5625 26.7028L46.5784 31.7188H36.5466L41.5625 26.7028ZM60.1563 33.9062V45.9375C60.1531 48.8373 58.9997 51.6175 56.9492 53.668C54.8987 55.7185 52.1186 56.8718 49.2188 56.875H20.7813C17.8814 56.8718 15.1013 55.7185 13.0508 53.668C11.0003 51.6175 9.84694 48.8373 9.84375 45.9375V33.9062H60.1563ZM19.6875 20.7812C19.6918 17.0115 21.1913 13.3975 23.8569 10.7319C26.5225 8.06628 30.1365 6.56684 33.9063 6.5625H35V17.5C34.9957 21.2697 33.4962 24.8838 30.8306 27.5494C28.165 30.215 24.551 31.7144 20.7813 31.7188H19.6875V31.1916C21.7383 29.6986 29.6089 23.4259 30.6184 14.3391L28.4441 14.0984C27.6916 20.8677 22.4514 26.0816 19.6875 28.397V20.7812ZM4.375 9.88531C7.94461 10.1651 11.2778 11.7795 13.7102 14.407C16.1427 17.0344 17.4958 20.4819 17.5 24.0625V28.6256C13.9703 25.9754 11.2865 22.3568 9.77484 18.2098L7.72516 18.9755C9.53239 24.0406 12.9706 28.3622 17.5 31.2616V31.6772C13.9304 31.3974 10.5972 29.783 8.16479 27.1555C5.73233 24.5281 4.37918 21.0806 4.375 17.5V9.88531Z" fill="#9A563A"/>
<path d="M61.5705 11.2584L59.3833 13.4456L60.9301 14.9924L63.1173 12.8052L61.5705 11.2584Z" fill="#9A563A"/>
<path d="M58.2892 14.5391L56.1021 16.7263L57.6488 18.2731L59.836 16.0859L58.2892 14.5391Z" fill="#9A563A"/>
</svg>
