<svg width="70" height="70" viewBox="0 0 70 70" fill="none" xmlns="http://www.w3.org/2000/svg">
<path d="M17.5 42.6562H15.3125V44.8438H17.5V42.6562Z" fill="white"/>
<path d="M21.875 42.6562H19.6875V44.8438H21.875V42.6562Z" fill="white"/>
<path d="M16.4063 8.74998C16.4063 8.10101 16.2138 7.46662 15.8533 6.92702C15.4927 6.38742 14.9803 5.96685 14.3807 5.7185C13.7811 5.47015 13.1214 5.40517 12.4849 5.53178C11.8484 5.65839 11.2637 5.9709 10.8048 6.42979C10.3459 6.88868 10.0334 7.47334 9.9068 8.10984C9.78019 8.74634 9.84517 9.40609 10.0935 10.0057C10.3419 10.6052 10.7624 11.1177 11.302 11.4782C11.8416 11.8388 12.476 12.0312 13.125 12.0312C13.195 12.0312 13.2617 12.0148 13.3306 12.0105L16.1547 25.1912C15.9992 25.2274 15.8535 25.2971 15.7279 25.3956C15.6022 25.494 15.4997 25.6188 15.4273 25.7611L11.0523 34.5111C10.9767 34.6629 10.9373 34.8303 10.9375 35V66.7187C10.9375 67.0088 11.0527 67.287 11.2579 67.4921C11.463 67.6972 11.7412 67.8125 12.0313 67.8125H29.5313C29.8213 67.8125 30.0995 67.6972 30.3047 67.4921C30.5098 67.287 30.625 67.0088 30.625 66.7187V35C30.6252 34.8303 30.5858 34.6629 30.5102 34.5111L26.1352 25.7611C26.0647 25.6217 25.9652 25.499 25.8433 25.4012C25.7214 25.3035 25.58 25.233 25.4286 25.1945L28.2188 13.1031C28.2931 13.1031 28.3631 13.125 28.4375 13.125C29.2054 13.1295 29.9508 12.8663 30.5455 12.3805C31.1402 11.8947 31.5469 11.2167 31.6956 10.4634C31.8443 9.71003 31.7257 8.9284 31.3602 8.25306C30.9948 7.57772 30.4053 7.05093 29.6933 6.76336C28.9813 6.4758 28.1913 6.44547 27.4593 6.67759C26.7274 6.9097 26.0992 7.38974 25.6831 8.03507C25.2669 8.6804 25.0887 9.45063 25.1792 10.2132C25.2697 10.9757 25.6232 11.6828 26.1789 12.2128L23.1875 25.1562H21.875V8.54873C22.6048 8.29072 23.2198 7.78303 23.6115 7.11539C24.0031 6.44776 24.1461 5.66316 24.0152 4.90027C23.8844 4.13739 23.488 3.44533 22.8962 2.94643C22.3044 2.44752 21.5553 2.17389 20.7813 2.17389C20.0072 2.17389 19.2581 2.44752 18.6663 2.94643C18.0745 3.44533 17.6781 4.13739 17.5473 4.90027C17.4164 5.66316 17.5594 6.44776 17.951 7.11539C18.3427 7.78303 18.9577 8.29072 19.6875 8.54873V25.1562H18.3838L15.377 11.1245C15.7015 10.8198 15.9602 10.452 16.1371 10.0437C16.3141 9.6353 16.4057 9.19505 16.4063 8.74998ZM28.4375 8.74998C28.6538 8.74998 28.8653 8.81413 29.0452 8.93431C29.225 9.05449 29.3652 9.22531 29.448 9.42517C29.5308 9.62503 29.5524 9.84494 29.5102 10.0571C29.468 10.2693 29.3639 10.4642 29.2109 10.6171C29.0579 10.7701 28.863 10.8743 28.6509 10.9165C28.4387 10.9587 28.2188 10.937 28.0189 10.8542C27.8191 10.7714 27.6483 10.6313 27.5281 10.4514C27.4079 10.2715 27.3438 10.0601 27.3438 9.84373C27.3438 9.55365 27.459 9.27545 27.6641 9.07033C27.8692 8.86522 28.1474 8.74998 28.4375 8.74998ZM20.7813 4.37498C20.9976 4.37498 21.209 4.43913 21.3889 4.55931C21.5688 4.67949 21.709 4.85031 21.7917 5.05017C21.8745 5.25003 21.8962 5.46994 21.854 5.68211C21.8118 5.89428 21.7076 6.08917 21.5547 6.24213C21.4017 6.39509 21.2068 6.49926 20.9946 6.54147C20.7825 6.58367 20.5625 6.56201 20.3627 6.47922C20.1628 6.39644 19.992 6.25625 19.8718 6.07639C19.7516 5.89652 19.6875 5.68505 19.6875 5.46873C19.6875 5.17865 19.8027 4.90045 20.0079 4.69533C20.213 4.49022 20.4912 4.37498 20.7813 4.37498ZM28.4375 56.875H24.0625V59.0625H28.4375V61.25H13.125V59.0625H21.875V56.875H13.125V40.4687H28.4375V56.875ZM13.125 65.625V63.4375H28.4375V65.625H13.125ZM27.7616 33.9062H25.1563V36.0937H28.4375V38.2812H13.125V35.2581L14.8947 31.7187H18.5938V29.5312H15.9884L17.0822 27.3437H24.4803L27.7616 33.9062ZM12.0313 8.74998C12.0313 8.53366 12.0954 8.32219 12.2156 8.14233C12.3358 7.96246 12.5066 7.82227 12.7064 7.73949C12.9063 7.6567 13.1262 7.63504 13.3384 7.67725C13.5505 7.71945 13.7454 7.82362 13.8984 7.97658C14.0514 8.12955 14.1555 8.32443 14.1977 8.5366C14.2399 8.74877 14.2183 8.96869 14.1355 9.16854C14.0527 9.3684 13.9125 9.53922 13.7327 9.6594C13.5528 9.77958 13.3413 9.84373 13.125 9.84373C12.8349 9.84373 12.5567 9.7285 12.3516 9.52338C12.1465 9.31826 12.0313 9.04006 12.0313 8.74998Z" fill="white"/>
<path d="M39.3903 59.2429L41.5471 58.882C40.5693 53.014 43.3168 50.1068 43.4349 49.9865L42.6562 49.2187L41.8829 48.4454C41.732 48.5953 38.2167 52.2057 39.3903 59.2429Z" fill="white"/>
<path d="M53.5938 56.875H51.4062V59.0625H53.5938V56.875Z" fill="white"/>
<path d="M58.0092 45.0428C57.4722 43.6012 56.9636 42.2406 56.6573 41.2409C55.0977 36.1681 54.7728 28.9603 54.7061 26.25H55.7812C56.0713 26.25 56.3495 26.1348 56.5546 25.9296C56.7598 25.7245 56.875 25.4463 56.875 25.1562V20.7812C56.875 20.4912 56.7598 20.213 56.5546 20.0079C56.3495 19.8027 56.0713 19.6875 55.7812 19.6875H53.9383L54.6766 14.3697C54.6981 14.2148 54.6863 14.0572 54.6417 13.9073C54.5972 13.7574 54.5211 13.6188 54.4185 13.5009C54.3159 13.3829 54.1891 13.2883 54.0469 13.2235C53.9046 13.1587 53.7501 13.1251 53.5938 13.125H42.6562C42.4999 13.1251 42.3454 13.1587 42.2031 13.2235C42.0609 13.2883 41.9341 13.3829 41.8315 13.5009C41.7289 13.6188 41.6528 13.7574 41.6083 13.9073C41.5637 14.0572 41.5519 14.2148 41.5734 14.3697L42.3117 19.6875H40.4688C40.1787 19.6875 39.9005 19.8027 39.6954 20.0079C39.4902 20.213 39.375 20.4912 39.375 20.7812V25.1562C39.375 25.4463 39.4902 25.7245 39.6954 25.9296C39.9005 26.1348 40.1787 26.25 40.4688 26.25H41.5439C41.4772 28.9603 41.1523 36.1681 39.5927 41.2409C39.2864 42.2406 38.7778 43.6012 38.2408 45.0428C36.797 48.9125 35 53.7294 35 56.875C35 61.1133 36.7358 65.4063 39.3192 67.5588C39.5157 67.7226 39.7634 67.8124 40.0192 67.8125H56.2308C56.4866 67.8124 56.7343 67.7226 56.9308 67.5588C59.5142 65.4063 61.25 61.1133 61.25 56.875C61.25 53.7294 59.453 48.9125 58.0092 45.0428ZM43.4383 31.7188H52.8117C52.9298 33.0969 53.0928 34.5877 53.317 36.0938H42.933C43.1572 34.5877 43.3202 33.0969 43.4383 31.7188ZM41.6883 41.8841C42.0441 40.6996 42.3361 39.4969 42.5633 38.2812H53.69C53.9171 39.4969 54.2092 40.6996 54.565 41.8841C54.8209 42.7153 55.1819 43.7139 55.6008 44.8438H40.6481C41.067 43.7139 41.428 42.7153 41.6839 41.8841H41.6883ZM43.9119 15.3125H52.3337L51.7344 19.6875H44.5156L43.9119 15.3125ZM41.5625 21.875H54.6875V24.0625H41.5625V21.875ZM52.5153 26.25C52.5317 27.0266 52.5711 28.1739 52.6531 29.5312H43.5969C43.6789 28.1739 43.7183 27.0266 43.7347 26.25H52.5153ZM39.8355 47.0312H56.4145C57.692 50.4842 59.0625 54.4184 59.0625 56.875C59.0563 58.3604 58.8217 59.836 58.3669 61.25H37.8831C37.4283 59.836 37.1937 58.3604 37.1875 56.875C37.1875 54.4184 38.558 50.4842 39.8355 47.0312ZM55.8163 65.625H40.4337C39.782 64.9849 39.2343 64.2468 38.8106 63.4375H57.4394C57.0157 64.2468 56.468 64.9849 55.8163 65.625Z" fill="white"/>
</svg>
