<svg width="70" height="70" viewBox="0 0 70 70" fill="none" xmlns="http://www.w3.org/2000/svg">
<g clip-path="url(#clip0_124_21)">
<mask id="mask0_124_21" style="mask-type:luminance" maskUnits="userSpaceOnUse" x="0" y="0" width="70" height="70">
<path d="M70 0H0V70H70V0Z" fill="white"/>
</mask>
<g mask="url(#mask0_124_21)">
<path d="M2.91667 16.3332C4.84896 16.3355 6.41439 17.9009 6.41667 19.8332C6.41667 20.4775 6.93905 20.9999 7.58333 20.9999C8.22762 20.9999 8.75 20.4775 8.75 19.8332C8.75228 17.9009 10.3177 16.3355 12.25 16.3332C12.8943 16.3332 13.4167 15.8108 13.4167 15.1665C13.4167 14.5223 12.8943 13.9999 12.25 13.9999C10.3177 13.9976 8.75228 12.4322 8.75 10.4999C8.75 9.85563 8.22762 9.33325 7.58333 9.33325C6.93905 9.33325 6.41667 9.85563 6.41667 10.4999C6.41439 12.4322 4.84896 13.9976 2.91667 13.9999C2.27238 13.9999 1.75 14.5223 1.75 15.1665C1.75 15.8108 2.27238 16.3332 2.91667 16.3332ZM7.58333 13.9965C7.91659 14.4397 8.31022 14.8333 8.75342 15.1665C8.31022 15.4998 7.91659 15.8934 7.58333 16.3366C7.25008 15.8934 6.85645 15.4998 6.41325 15.1665C6.85645 14.8333 7.25008 14.4397 7.58333 13.9965Z" fill="#9A563A"/>
<path d="M35.5833 19.8334C35.5833 19.1891 35.061 18.6667 34.4167 18.6667H18.0833C14.0285 18.6741 10.5917 21.6534 10.0101 25.6667H8.75C6.17399 25.6695 4.08618 27.7573 4.08333 30.3334C4.08789 31.1548 4.31234 31.9603 4.73218 32.6667H2.91667C2.27238 32.6667 1.75 33.1891 1.75 33.8334V61.8335C1.75513 66.3418 5.40837 69.9949 9.91667 70H56.5833C61.0916 69.9949 64.7449 66.3418 64.75 61.8335V56C64.75 55.3557 64.2276 54.8335 63.5833 54.8335H43.75V33.8334C43.75 33.1891 43.2276 32.6667 42.5833 32.6667H40.7678C41.1877 31.9603 41.4121 31.1548 41.4167 30.3334C41.4138 27.7573 39.326 25.6695 36.75 25.6667H33.1213C34.6958 24.1343 35.5833 22.0305 35.5833 19.8334ZM56.5833 67.6667H30.9167C27.6964 67.6627 25.0873 65.0538 25.0833 61.8335H62.4167C62.4127 65.0538 59.8036 67.6627 56.5833 67.6667ZM62.4167 59.5H25.0833V57.1667H62.4167V59.5ZM23.9167 54.8335C23.2724 54.8335 22.75 55.3557 22.75 56V61.8335C22.75 64.0306 23.6375 66.1343 25.2121 67.6667H9.91667C6.69637 67.6627 4.08732 65.0538 4.08333 61.8335V42H41.4167V54.8335H23.9167ZM41.4167 39.6667H4.08333V35H41.4167V39.6667ZM36.75 28C38.0386 28 39.0833 29.0448 39.0833 30.3334C39.0833 31.6219 38.0386 32.6667 36.75 32.6667H8.75C7.46143 32.6667 6.41667 31.6219 6.41667 30.3334C6.41667 29.0448 7.46143 28 8.75 28H36.75ZM27.4167 25.6667H12.3673C12.925 22.9528 15.3125 21.0034 18.0833 21H33.1326C32.575 23.7139 30.1875 25.6633 27.4167 25.6667Z" fill="#9A563A"/>
<path d="M51.9166 45.5C52.9796 45.4926 53.9776 44.9867 54.6128 44.134C55.3557 43.1462 55.6012 41.8713 55.277 40.6784L53.0434 32.3636C52.9061 31.8543 52.4441 31.5 51.9166 31.5C51.3891 31.5 50.9271 31.8543 50.7898 32.3636L48.5562 40.6784C48.232 41.8713 48.4776 43.1462 49.2204 44.134C49.8556 44.9867 50.8536 45.4926 51.9166 45.5ZM50.8098 41.2845L51.9166 37.1636L53.0235 41.2845C53.1613 41.7761 53.0645 42.3042 52.7608 42.7144C52.5729 42.9969 52.2561 43.1667 51.9166 43.1667C51.5771 43.1667 51.2604 42.9969 51.0724 42.7144C50.7687 42.3042 50.6719 41.7761 50.8098 41.2845Z" fill="#9A563A"/>
<path d="M67.0833 2.33333H55.4166V1.16667C55.4166 0.522379 54.8942 0 54.25 0H35.5833C34.939 0 34.4166 0.522379 34.4166 1.16667V2.33333H28.5833C27.939 2.33333 27.4166 2.85571 27.4166 3.5V8.16667C27.4166 8.81095 27.939 9.33333 28.5833 9.33333H34.4166V10.5C34.4206 13.7203 37.0297 16.3293 40.25 16.3333C41.5163 16.3288 42.7462 15.9084 43.75 15.137V17.5C43.7522 19.4323 45.3177 20.9977 47.25 21C47.6482 20.996 48.0429 20.9231 48.4166 20.7852V24.5C48.4166 26.4329 49.9838 28 51.9166 28C53.8495 28 55.4166 26.4329 55.4166 24.5V9.33333H67.0833C67.7276 9.33333 68.25 8.81095 68.25 8.16667V3.5C68.25 2.85571 67.7276 2.33333 67.0833 2.33333ZM29.75 7V4.66667H34.4166V7H29.75ZM40.25 14C38.3177 13.9977 36.7522 12.4323 36.75 10.5V2.33333H43.75V10.5C43.7477 12.4323 42.1823 13.9977 40.25 14ZM47.25 18.6667C46.6057 18.6661 46.0839 18.1443 46.0833 17.5V2.33333H48.4166V17.5C48.4161 18.1443 47.8942 18.6661 47.25 18.6667ZM53.0833 24.5C53.0833 25.1443 52.5609 25.6667 51.9166 25.6667C51.2723 25.6667 50.75 25.1443 50.75 24.5V2.33333H53.0833V24.5ZM65.9166 7H55.4166V4.66667H65.9166V7Z" fill="#9A563A"/>
</g>
</g>
<defs>
<clipPath id="clip0_124_21">
<rect width="70" height="70" fill="white"/>
</clipPath>
</defs>
</svg>
