<svg width="70" height="70" viewBox="0 0 70 70" fill="none" xmlns="http://www.w3.org/2000/svg">
<path d="M68.8325 55.4163H67.5363C70.7589 52.2802 70.8291 47.1253 67.6929 43.9027C67.1954 43.3914 66.6328 42.9478 66.0197 42.5831C68.4842 41.1114 69.995 38.4537 69.9991 35.5832C69.9933 31.0754 66.3404 27.4224 61.8326 27.4166H51.3327V19.25C51.3324 18.6058 50.8099 18.0835 50.1656 18.0838C50.1064 18.0838 50.0472 18.0884 49.9887 18.0974L36.1662 20.223V19.1334C38.8803 18.5753 40.8293 16.1877 40.8328 13.4168C40.8328 8.32552 36.0297 3.46291 35.8244 3.25875C35.3688 2.80332 34.6303 2.80332 34.1747 3.25875C33.9694 3.46291 29.1663 8.32552 29.1663 13.4168C29.1698 16.1877 31.1188 18.5753 33.8329 19.1334V20.5835L19.6558 22.7652C19.0872 22.8527 18.6672 23.3413 18.6664 23.9167V36.9143C17.8143 35.9953 16.8316 35.2066 15.7498 34.574C15.3889 34.3656 14.9441 34.3656 14.5832 34.574C11.138 36.5758 8.81231 40.0584 8.28323 44.0076C7.47693 43.8422 6.65633 43.7559 5.83326 43.7497C5.31833 43.7521 4.80413 43.7855 4.29328 43.8501C3.87941 43.8999 3.52373 44.1668 3.35996 44.5501C0.982613 50.1267 2.8354 56.6061 7.8014 60.0829H0V62.4162H2.77897L4.78911 66.4376C4.98671 66.8331 5.3911 67.0829 5.83326 67.0828H50.166C50.8103 67.0828 51.3327 66.5604 51.3327 65.9161V62.4162H58.7783L60.7884 66.4376C60.986 66.8331 61.3904 67.0829 61.8326 67.0828H66.4992C67.1435 67.0828 67.6658 66.5604 67.6658 65.9161V62.4162H68.8325C69.4768 62.4162 69.9991 61.8938 69.9991 61.2495V56.5829C69.9991 55.9386 69.4768 55.4163 68.8325 55.4163ZM67.6658 49.583C67.662 52.803 65.0525 55.4125 61.8326 55.4163H40.8328C37.6113 55.4163 34.9996 52.8046 34.9996 49.583C34.9996 46.3614 37.6113 43.7497 40.8328 43.7497H55.9993C57.9323 43.7497 59.4993 45.3167 59.4993 47.2497C59.4993 49.1827 57.9323 50.7497 55.9993 50.7497H44.3328C43.6885 50.7497 43.1661 50.2273 43.1661 49.583C43.1661 48.9387 43.6885 48.4163 44.3328 48.4163H52.4993V46.083H44.3328C42.3998 46.083 40.8328 47.65 40.8328 49.583C40.8328 51.516 42.3998 53.083 44.3328 53.083H55.9993C59.2193 53.0792 61.8288 50.4697 61.8326 47.2497C61.8283 45.9833 61.4076 44.7535 60.6356 43.7497H61.8326C65.0525 43.7535 67.662 46.363 67.6658 49.583ZM58.3326 29.7499C60.2656 29.7499 61.8326 31.3169 61.8326 33.2499C61.8326 35.1829 60.2656 36.7498 58.3326 36.7498H46.6661C46.0218 36.7498 45.4994 36.2275 45.4994 35.5832C45.4994 34.9389 46.0218 34.4165 46.6661 34.4165H54.8326V32.0832H46.6661C44.7331 32.0832 43.1661 33.6502 43.1661 35.5832C43.1661 37.5162 44.7331 39.0831 46.6661 39.0831H58.3326C61.5526 39.0793 64.1621 36.4698 64.1659 33.2499C64.1647 32.0465 63.7879 30.8735 63.0879 29.8946C66.2297 30.6074 68.1988 33.7321 67.486 36.8739C66.8862 39.518 64.5437 41.4001 61.8326 41.4164H55.9993H45.4994C42.2779 41.4164 39.6662 38.8047 39.6662 35.5832C39.6662 32.3616 42.2779 29.7499 45.4994 29.7499H58.3326ZM31.4996 13.4168C31.4996 10.4337 33.7454 7.33153 34.9996 5.83355C36.2549 7.33036 38.4995 10.4267 38.4995 13.4168C38.4934 14.8946 37.5596 16.2095 36.1662 16.7021V14.5834H33.8329V16.7021C32.4395 16.2095 31.5057 14.8946 31.4996 13.4168ZM15.1665 36.9575C17.7729 38.7117 19.4606 41.5378 19.7689 44.6644C18.0289 45.3593 16.4618 46.426 15.177 47.7899C13.8829 46.4313 12.3083 45.3711 10.5629 44.6831C10.8658 41.5493 12.5545 38.7153 15.1665 36.9575ZM21.0187 46.6766C22.1372 46.2837 23.3141 46.083 24.4997 46.083C24.6829 46.083 24.8742 46.09 25.0737 46.1029C26.9957 51.574 24.1186 57.5673 18.6475 59.4893C17.5289 59.8822 16.3519 60.0829 15.1665 60.0829C14.9833 60.0829 14.792 60.0759 14.5925 60.063C12.6704 54.5919 15.5475 48.5986 21.0187 46.6766ZM4.66661 49.583C4.66515 48.3977 4.86552 47.2208 5.25927 46.1029C5.45876 46.09 5.6501 46.083 5.83326 46.083C8.85431 46.074 11.7297 47.3801 13.7105 49.6612C11.7973 52.6017 11.193 56.2054 12.0422 59.6092C7.65426 58.2416 4.66573 54.1792 4.66661 49.583ZM23.7787 64.7495H6.55425L5.3876 62.4162H24.9454L23.7787 64.7495ZM34.9996 64.7495H26.3873L27.554 62.4162H30.333V60.0829H22.5222C27.4938 56.6109 29.3512 50.1294 26.973 44.5512C26.8092 44.168 26.4535 43.9011 26.0397 43.8512C24.7122 43.6806 23.3656 43.7279 22.0532 43.9912C21.8712 42.6936 21.4908 41.4317 20.9251 40.2498H20.9997V24.9176L48.9994 20.6104V27.4166H45.4994C40.995 27.4106 37.3386 31.0574 37.3326 35.5619C37.3297 37.7981 38.2449 39.9374 39.8645 41.4794C35.3923 42.0071 32.1948 46.0603 32.7224 50.5325C32.9413 52.3881 33.7909 54.1122 35.1291 55.4163H33.8329C33.1886 55.4163 32.6663 55.9386 32.6663 56.5829V61.2495C32.6663 61.8938 33.1886 62.4162 33.8329 62.4162H34.9996V64.7495ZM40.1118 64.7495H37.3329V62.4162H41.2785L40.1118 64.7495ZM48.9994 64.7495H42.7205L43.8871 62.4162H48.9994V64.7495ZM65.3325 64.7495H62.5536L61.3869 62.4162H65.3325V64.7495ZM67.6658 60.0829H34.9996V57.7496H67.6658V60.0829Z" fill="white"/>
<path d="M25.6664 27.4166H23.3331V36.7498H25.6664V27.4166Z" fill="white"/>
<path d="M25.6664 39.0831H23.3331V41.4164H25.6664V39.0831Z" fill="white"/>
</svg>
