<svg width="70" height="70" viewBox="0 0 70 70" fill="none" xmlns="http://www.w3.org/2000/svg">
<path d="M68.8325 55.4164H67.5363C70.7589 52.2803 70.8291 47.1254 67.6929 43.9028C67.1954 43.3915 66.6328 42.9479 66.0197 42.5832C68.4842 41.1115 69.995 38.4538 69.9991 35.5833C69.9933 31.0755 66.3404 27.4225 61.8326 27.4167H51.3327V19.2501C51.3324 18.6059 50.8099 18.0836 50.1656 18.0839C50.1064 18.0839 50.0472 18.0885 49.9887 18.0975L36.1662 20.2231V19.1335C38.8803 18.5754 40.8293 16.1878 40.8328 13.4169C40.8328 8.32558 36.0297 3.46297 35.8244 3.25881C35.3688 2.80338 34.6303 2.80338 34.1747 3.25881C33.9694 3.46297 29.1663 8.32558 29.1663 13.4169C29.1698 16.1878 31.1188 18.5754 33.8329 19.1335V20.5836L19.6558 22.7653C19.0872 22.8528 18.6672 23.3414 18.6664 23.9168V36.9144C17.8143 35.9954 16.8316 35.2067 15.7498 34.5741C15.3889 34.3657 14.9441 34.3657 14.5832 34.5741C11.138 36.5759 8.81231 40.0585 8.28323 44.0077C7.47693 43.8423 6.65633 43.756 5.83326 43.7498C5.31833 43.7522 4.80413 43.7856 4.29328 43.8502C3.87941 43.9 3.52373 44.1669 3.35996 44.5502C0.982613 50.1268 2.8354 56.6062 7.8014 60.083H0V62.4163H2.77897L4.78911 66.4377C4.98671 66.8332 5.3911 67.083 5.83326 67.0829H50.166C50.8103 67.0829 51.3327 66.5605 51.3327 65.9162V62.4163H58.7783L60.7884 66.4377C60.986 66.8332 61.3904 67.083 61.8326 67.0829H66.4992C67.1435 67.0829 67.6658 66.5605 67.6658 65.9162V62.4163H68.8325C69.4768 62.4163 69.9991 61.8939 69.9991 61.2496V56.583C69.9991 55.9387 69.4768 55.4164 68.8325 55.4164ZM67.6658 49.5831C67.662 52.8031 65.0525 55.4126 61.8326 55.4164H40.8328C37.6113 55.4164 34.9996 52.8047 34.9996 49.5831C34.9996 46.3615 37.6113 43.7498 40.8328 43.7498H55.9993C57.9323 43.7498 59.4993 45.3168 59.4993 47.2498C59.4993 49.1828 57.9323 50.7498 55.9993 50.7498H44.3328C43.6885 50.7498 43.1661 50.2274 43.1661 49.5831C43.1661 48.9388 43.6885 48.4164 44.3328 48.4164H52.4993V46.0831H44.3328C42.3998 46.0831 40.8328 47.6501 40.8328 49.5831C40.8328 51.5161 42.3998 53.0831 44.3328 53.0831H55.9993C59.2193 53.0793 61.8288 50.4698 61.8326 47.2498C61.8283 45.9834 61.4076 44.7536 60.6356 43.7498H61.8326C65.0525 43.7536 67.662 46.3631 67.6658 49.5831ZM58.3326 29.75C60.2656 29.75 61.8326 31.317 61.8326 33.25C61.8326 35.183 60.2656 36.7499 58.3326 36.7499H46.6661C46.0218 36.7499 45.4994 36.2276 45.4994 35.5833C45.4994 34.939 46.0218 34.4166 46.6661 34.4166H54.8326V32.0833H46.6661C44.7331 32.0833 43.1661 33.6503 43.1661 35.5833C43.1661 37.5163 44.7331 39.0832 46.6661 39.0832H58.3326C61.5526 39.0794 64.1621 36.4699 64.1659 33.25C64.1647 32.0466 63.7879 30.8736 63.0879 29.8947C66.2297 30.6075 68.1988 33.7322 67.486 36.874C66.8862 39.5181 64.5437 41.4002 61.8326 41.4165H55.9993H45.4994C42.2779 41.4165 39.6662 38.8048 39.6662 35.5833C39.6662 32.3617 42.2779 29.75 45.4994 29.75H58.3326ZM31.4996 13.4169C31.4996 10.4338 33.7454 7.33159 34.9996 5.83361C36.2549 7.33042 38.4995 10.4268 38.4995 13.4169C38.4934 14.8947 37.5596 16.2096 36.1662 16.7022V14.5835H33.8329V16.7022C32.4395 16.2096 31.5057 14.8947 31.4996 13.4169ZM15.1665 36.9576C17.7729 38.7118 19.4606 41.5379 19.7689 44.6645C18.0289 45.3594 16.4618 46.4261 15.177 47.79C13.8829 46.4314 12.3083 45.3712 10.5629 44.6832C10.8658 41.5494 12.5545 38.7154 15.1665 36.9576ZM21.0187 46.6767C22.1372 46.2838 23.3141 46.0831 24.4997 46.0831C24.6829 46.0831 24.8742 46.0901 25.0737 46.103C26.9957 51.5741 24.1186 57.5674 18.6475 59.4894C17.5289 59.8823 16.3519 60.083 15.1665 60.083C14.9833 60.083 14.792 60.076 14.5925 60.0631C12.6704 54.592 15.5475 48.5987 21.0187 46.6767ZM4.66661 49.5831C4.66515 48.3978 4.86552 47.2209 5.25927 46.103C5.45876 46.0901 5.6501 46.0831 5.83326 46.0831C8.85431 46.0741 11.7297 47.3802 13.7105 49.6613C11.7973 52.6018 11.193 56.2055 12.0422 59.6093C7.65426 58.2417 4.66573 54.1793 4.66661 49.5831ZM23.7787 64.7496H6.55425L5.3876 62.4163H24.9454L23.7787 64.7496ZM34.9996 64.7496H26.3873L27.554 62.4163H30.333V60.083H22.5222C27.4938 56.611 29.3512 50.1295 26.973 44.5513C26.8092 44.1681 26.4535 43.9012 26.0397 43.8513C24.7122 43.6807 23.3656 43.728 22.0532 43.9913C21.8712 42.6937 21.4908 41.4318 20.9251 40.2499H20.9997V24.9177L48.9994 20.6105V27.4167H45.4994C40.995 27.4107 37.3386 31.0575 37.3326 35.562C37.3297 37.7982 38.2449 39.9375 39.8645 41.4795C35.3923 42.0072 32.1948 46.0604 32.7224 50.5326C32.9413 52.3882 33.7909 54.1123 35.1291 55.4164H33.8329C33.1886 55.4164 32.6663 55.9387 32.6663 56.583V61.2496C32.6663 61.8939 33.1886 62.4163 33.8329 62.4163H34.9996V64.7496ZM40.1118 64.7496H37.3329V62.4163H41.2785L40.1118 64.7496ZM48.9994 64.7496H42.7205L43.8871 62.4163H48.9994V64.7496ZM65.3325 64.7496H62.5536L61.3869 62.4163H65.3325V64.7496ZM67.6658 60.083H34.9996V57.7497H67.6658V60.083Z" fill="#9A563A"/>
<path d="M25.6664 27.4166H23.3331V36.7498H25.6664V27.4166Z" fill="#9A563A"/>
<path d="M25.6664 39.0831H23.3331V41.4164H25.6664V39.0831Z" fill="#9A563A"/>
</svg>
