<svg width="70" height="70" viewBox="0 0 70 70" fill="none" xmlns="http://www.w3.org/2000/svg">
<path d="M56.875 32.8125C55.5771 32.8125 54.3083 33.1974 53.2291 33.9185C52.1499 34.6396 51.3087 35.6645 50.812 36.8636C50.3153 38.0628 50.1854 39.3823 50.4386 40.6553C50.6918 41.9283 51.3168 43.0976 52.2346 44.0154C53.1524 44.9332 54.3217 45.5582 55.5947 45.8114C56.8677 46.0646 58.1872 45.9347 59.3864 45.438C60.5855 44.9413 61.6104 44.1001 62.3315 43.0209C63.0526 41.9417 63.4375 40.6729 63.4375 39.375C63.4358 37.635 62.7438 35.9669 61.5135 34.7365C60.2831 33.5062 58.615 32.8142 56.875 32.8125ZM56.875 43.75C56.0097 43.75 55.1638 43.4934 54.4444 43.0127C53.7249 42.5319 53.1642 41.8487 52.833 41.0492C52.5019 40.2498 52.4153 39.3701 52.5841 38.5215C52.7529 37.6728 53.1696 36.8933 53.7814 36.2814C54.3933 35.6696 55.1728 35.2529 56.0215 35.0841C56.8702 34.9153 57.7498 35.0019 58.5492 35.333C59.3487 35.6642 60.032 36.2249 60.5127 36.9444C60.9934 37.6638 61.25 38.5097 61.25 39.375C61.25 40.5353 60.7891 41.6481 59.9686 42.4686C59.1481 43.2891 58.0353 43.75 56.875 43.75Z" fill="#9A563A"/>
<path d="M30.625 15.3125C31.9229 15.3125 33.1917 14.9276 34.2709 14.2065C35.3501 13.4854 36.1913 12.4605 36.688 11.2614C37.1847 10.0622 37.3146 8.74272 37.0614 7.46972C36.8082 6.19672 36.1832 5.0274 35.2654 4.10961C34.3476 3.19183 33.1783 2.56682 31.9053 2.3136C30.6323 2.06038 29.3128 2.19034 28.1136 2.68704C26.9145 3.18374 25.8896 4.02488 25.1685 5.10407C24.4474 6.18327 24.0625 7.45206 24.0625 8.75C24.0642 10.49 24.7562 12.1581 25.9865 13.3885C27.2169 14.6188 28.885 15.3108 30.625 15.3125ZM30.625 4.375C31.4903 4.375 32.3362 4.63159 33.0556 5.11232C33.7751 5.59305 34.3358 6.27634 34.667 7.07576C34.9981 7.87519 35.0847 8.75486 34.9159 9.60352C34.7471 10.4522 34.3304 11.2317 33.7186 11.8436C33.1067 12.4555 32.3272 12.8721 31.4785 13.0409C30.6299 13.2097 29.7502 13.1231 28.9508 12.792C28.1513 12.4608 27.4681 11.9001 26.9873 11.1806C26.5066 10.4612 26.25 9.6153 26.25 8.75C26.25 7.58968 26.7109 6.47688 27.5314 5.65641C28.3519 4.83594 29.4647 4.375 30.625 4.375Z" fill="#9A563A"/>
<path d="M66.7188 48.125H49.0908L48.125 40.3944C48.1056 39.5371 47.7513 38.7215 47.138 38.1221C46.5248 37.5228 45.7013 37.1873 44.8438 37.1875L25.0469 37.193L3.17188 39.3805C2.90209 39.4076 2.65199 39.5339 2.4701 39.735C2.28821 39.9361 2.1875 40.1976 2.1875 40.4688V44.8438C2.1875 45.1338 2.30273 45.412 2.50785 45.6171C2.71297 45.8223 2.99117 45.9375 3.28125 45.9375H41.6948L41.977 48.125H3.28125C2.99117 48.125 2.71297 48.2402 2.50785 48.4454C2.30273 48.6505 2.1875 48.9287 2.1875 49.2188V57.9688C2.1875 58.2588 2.30273 58.537 2.50785 58.7421C2.71297 58.9473 2.99117 59.0625 3.28125 59.0625H8.75V66.7188C8.75 67.0088 8.86523 67.287 9.07035 67.4921C9.27547 67.6973 9.55367 67.8125 9.84375 67.8125H22.9688C23.2588 67.8125 23.537 67.6973 23.7421 67.4921C23.9473 67.287 24.0625 67.0088 24.0625 66.7188V59.0625H45.9375V66.7188C45.9375 67.0088 46.0527 67.287 46.2579 67.4921C46.463 67.6973 46.7412 67.8125 47.0312 67.8125H60.1562C60.4463 67.8125 60.7245 67.6973 60.9296 67.4921C61.1348 67.287 61.25 67.0088 61.25 66.7188V59.0625H66.7188C67.0088 59.0625 67.287 58.9473 67.4921 58.7421C67.6973 58.537 67.8125 58.2588 67.8125 57.9688V49.2188C67.8125 48.9287 67.6973 48.6505 67.4921 48.4454C67.287 48.2402 67.0088 48.125 66.7188 48.125ZM4.375 43.75V41.4531L25.1562 39.375H44.8438C45.1338 39.375 45.412 39.4902 45.6171 39.6954C45.8223 39.9005 45.9375 40.1787 45.9375 40.4688C45.9377 40.5141 45.9406 40.5594 45.9462 40.6044L47.04 49.3544C47.0731 49.6189 47.2015 49.8622 47.4013 50.0386C47.6011 50.215 47.8585 50.3124 48.125 50.3125H60.1562C60.4463 50.3125 60.7245 50.4277 60.9296 50.6329C61.1348 50.838 61.25 51.1162 61.25 51.4062C61.25 51.6963 61.1348 51.9745 60.9296 52.1796C60.7245 52.3848 60.4463 52.5 60.1562 52.5H45.7078C45.4355 52.4998 45.173 52.398 44.9717 52.2146C44.7704 52.0311 44.6449 51.7791 44.6195 51.508L43.7445 44.7038C43.7104 44.4395 43.581 44.1968 43.3807 44.0212C43.1803 43.8456 42.9227 43.7491 42.6562 43.75H4.375ZM21.875 65.625H19.6875V63.4375H17.5V65.625H15.3125V62.3438H13.125V65.625H10.9375V59.0625H21.875V65.625ZM59.0625 65.625H56.875V62.3438H54.6875V65.625H52.5V61.25H50.3125V65.625H48.125V59.0625H59.0625V65.625ZM65.625 56.875H4.375V54.6875H21.875V52.5H4.375V50.3125H42.2592L42.4473 51.7683C42.5364 52.5708 42.9183 53.3123 43.5198 53.8508C44.1214 54.3894 44.9004 54.6873 45.7078 54.6875H60.1562C61.0265 54.6875 61.8611 54.3418 62.4764 53.7264C63.0918 53.1111 63.4375 52.2765 63.4375 51.4062C63.4339 51.0328 63.3658 50.6628 63.2363 50.3125H65.625V56.875Z" fill="#9A563A"/>
<path d="M23.0169 19.3659L18.6419 33.5847C18.5916 33.7483 18.5804 33.9214 18.6091 34.0902C18.6379 34.2589 18.7059 34.4185 18.8076 34.5562C18.9093 34.6938 19.0419 34.8057 19.1947 34.8828C19.3476 34.9599 19.5164 35 19.6875 35H30.625C30.874 35.0002 31.1156 34.9154 31.3099 34.7597C31.5042 34.604 31.6396 34.3867 31.6936 34.1436L33.2861 26.9762L35.1564 30.0945C35.2794 30.2995 35.4661 30.4585 35.688 30.5473L43.7161 33.7575C44.4732 34.0588 45.3163 34.0618 46.0756 33.7661C46.8348 33.4703 47.4537 32.8977 47.8074 32.1637C48.1612 31.4297 48.2235 30.5889 47.9818 29.8107C47.7402 29.0326 47.2125 28.375 46.5052 27.9705C46.4626 27.9463 46.4184 27.9251 46.3728 27.907L40.1407 25.375C35.6038 17.5 34.4597 17.5 33.9063 17.5H25.1563C24.6515 17.5546 24.1757 17.7628 23.7931 18.0965C23.4105 18.4302 23.1396 18.8733 23.0169 19.3659ZM25.2974 19.6875H33.6788C35.4918 21.8948 37.0819 24.2762 38.4257 26.7969C38.5471 27.0099 38.7366 27.1759 38.9638 27.2683L45.4705 29.9053C45.6153 30.0005 45.7338 30.1305 45.8154 30.2833C45.897 30.4362 45.939 30.6071 45.9375 30.7803C45.9374 30.9482 45.8961 31.1136 45.8173 31.2619C45.7385 31.4102 45.6246 31.5369 45.4855 31.631C45.3464 31.7251 45.1864 31.7837 45.0194 31.8016C44.8524 31.8196 44.6836 31.7964 44.5277 31.7341L36.843 28.6563L33.7499 23.5036C33.6372 23.3159 33.4707 23.1663 33.2721 23.0742C33.0734 22.9822 32.8517 22.9519 32.6356 22.9872C32.4195 23.0226 32.219 23.1219 32.06 23.2725C31.9011 23.4231 31.791 23.6179 31.7439 23.8317L29.75 32.8125H21.1685L25.1136 19.9883C25.1533 19.8764 25.2159 19.7739 25.2974 19.6875Z" fill="#9A563A"/>
<path d="M26.25 52.5H24.0625V54.6875H26.25V52.5Z" fill="#9A563A"/>
<path d="M39.375 52.5H28.4375V54.6875H39.375V52.5Z" fill="#9A563A"/>
</svg>
