<svg width="70" height="70" viewBox="0 0 70 70" fill="none" xmlns="http://www.w3.org/2000/svg">
<g clip-path="url(#clip0_117_12)">
<path d="M29.0434 40.8035L28.7358 40.9264L29.6015 43.0928L29.909 42.9691C33.0478 41.7141 36.9522 41.7135 40.0911 42.9691L40.3985 43.0922L41.2642 40.9258L40.9566 40.8034C37.2734 39.3291 32.7267 39.3296 29.0434 40.8035Z" fill="white"/>
<path d="M33.8337 23.3492H36.1663V36.1782H33.8337V23.3492Z" fill="white"/>
<path d="M67.6555 0.023896V21.4262C67.6555 21.8021 67.5952 22.1754 67.4766 22.5321L61.9302 39.1707L53.2764 52.7156C53.0084 53.1391 52.5745 53.4301 52.081 53.5174C51.04 53.6798 50.0643 52.9675 49.9019 51.9265C49.8395 51.5263 49.9059 51.1165 50.092 50.7566C52.1205 47.0732 55.8504 40.2357 55.8504 40.2357C55.894 40.1559 55.9282 40.0715 55.9524 39.9839L56.8958 36.5256L60.6038 24.8692L58.3806 24.1619L54.6643 35.8445L54.6728 35.8471C54.6677 35.8633 54.6551 35.8747 54.6506 35.8909C54.3532 36.9825 53.2273 37.6263 52.1357 37.329C52.06 37.3085 51.9855 37.2834 51.9126 37.2542C50.996 36.8873 50.4713 35.9191 50.6643 34.9509L52.472 25.9111C52.4867 25.8356 52.494 25.7588 52.494 25.6818V22.2655C52.4808 17.292 54.4574 12.5197 57.9837 9.01232C58.2023 8.79365 58.3254 8.49713 58.3254 8.18777V0.023896H55.9928V7.71223C55.1849 8.5655 54.4493 9.48437 53.7935 10.4594C47.3524 0.0794408 33.7164 -3.11366 23.3365 3.3275C20.4422 5.12355 18.0018 7.56367 16.2055 10.4579C15.55 9.4835 14.8147 8.56506 14.0072 7.71223V0.023896H11.6746V8.18777C11.6746 8.49713 11.7977 8.79365 12.0164 9.01232C15.5427 12.5199 17.5194 17.2924 17.506 22.2661V25.6818C17.5061 25.7586 17.5139 25.8353 17.5287 25.9107L19.3364 34.9504C19.53 35.9192 19.0052 36.888 18.0881 37.2551C17.0371 37.6753 15.8446 37.164 15.4245 36.113C15.3955 36.0406 15.3707 35.9664 15.3501 35.8912C15.3456 35.8747 15.3331 35.8633 15.328 35.8474L15.3364 35.8448L11.62 24.1619L9.39678 24.8692L13.1048 36.5256L14.0481 39.9839C14.0723 40.0715 14.1066 40.1559 14.1502 40.2357C14.1502 40.2357 17.8801 47.0729 19.9086 50.7566C20.3584 51.5721 20.1352 52.5755 19.3208 53.1871C18.9201 53.4871 18.4126 53.6069 17.92 53.5178C17.4264 53.4308 16.9924 53.1397 16.7246 52.716L8.07088 39.1711L2.5244 22.5329C2.40515 22.1761 2.34435 21.8024 2.3445 21.4262V0.023896H0.0119635V21.4262C0.011672 22.053 0.112846 22.6757 0.311549 23.2701L5.90366 40.046C5.93384 40.1371 5.97509 40.2243 6.0267 40.3052L14.7577 53.9718C15.3783 54.9395 16.3727 55.6063 17.5037 55.8129C17.743 55.8565 17.9859 55.8784 18.2292 55.8784C19.1509 55.8733 20.0457 55.5677 20.7781 55.0082C20.8245 54.9735 20.8602 54.9306 20.9048 54.8943C20.9888 54.9895 21.0663 55.0927 21.1517 55.1859C21.8239 55.9234 22.5549 56.6051 23.3373 57.2244V61.6494C23.336 63.9663 22.9622 66.2681 22.2302 68.4663C22.0273 69.0776 22.3584 69.7377 22.9698 69.9406C23.0883 69.98 23.2124 70 23.3373 70H46.6627C47.3068 70.0001 47.8291 69.4781 47.8291 68.8339C47.8291 68.7089 47.8091 68.5849 47.7698 68.4663C47.0378 66.2681 46.664 63.9663 46.6627 61.6494V57.2253C47.4422 56.6085 48.1705 55.9294 48.8404 55.1949C48.9308 55.0962 49.0105 54.9908 49.0987 54.8901C49.1616 54.9424 49.2136 55.0022 49.2799 55.0521C51.1056 56.4219 53.696 56.0523 55.0658 54.2266C55.1279 54.144 55.1868 54.059 55.2425 53.9718L63.9735 40.3052C64.0251 40.2243 64.0663 40.1371 64.0965 40.046L69.6898 23.2695C69.8876 22.6752 69.9883 22.0527 69.988 21.4262V0.023896H67.6555ZM52.1663 13.3217C51.8642 12.9502 51.5493 12.6044 51.2321 12.2646L51.8102 11.6866C52.0261 12.0335 52.2306 12.3894 52.4268 12.7524C52.3324 12.9387 52.2551 13.1327 52.1663 13.3217ZM50.4503 9.74766L49.5617 10.6369C48.6908 9.86982 47.7597 9.174 46.7773 8.55602L48.066 7.26744C48.9315 8.02304 49.7294 8.85298 50.4503 9.74766ZM25.3542 7.38888L23.7976 5.83235C24.939 5.04351 26.1607 4.37743 27.4422 3.84532L28.5793 6.11808C27.4713 6.45295 26.3928 6.87791 25.3542 7.38888ZM30.9086 5.5593L29.6758 3.09555C31.0337 2.72089 32.4275 2.4923 33.8337 2.41329V5.20358C32.8516 5.25563 31.8743 5.37444 30.9083 5.5593H30.9086ZM36.1663 2.39681C37.5764 2.4767 38.9741 2.70646 40.3357 3.082L39.093 5.56032C38.1266 5.37561 37.1489 5.25636 36.1663 5.20373V2.39681ZM42.5592 3.84969C43.8432 4.37626 45.068 5.03739 46.2127 5.82214L44.6455 7.38902C43.6074 6.87805 42.5293 6.4528 41.4218 6.11765L42.5592 3.84969ZM21.9493 7.2826L23.2226 8.55558C22.2396 9.17269 21.3085 9.86866 20.4381 10.6366L19.5618 9.76049C20.004 9.20272 20.476 8.6693 20.9759 8.1627C21.2883 7.85174 21.621 7.57009 21.9493 7.2826ZM18.1881 11.6853L18.768 12.265C18.4499 12.6065 18.1342 12.9524 17.8339 13.3217C17.7455 13.1336 17.6685 12.9405 17.5745 12.7549C17.7701 12.3928 17.9707 12.0338 18.188 11.6856L18.1881 11.6853ZM45.1028 67.6674H24.8972C25.4095 65.7024 25.6691 63.6801 25.6699 61.6494V58.8525C26.2425 59.1833 26.8322 59.4839 27.4363 59.753C32.2524 61.8931 37.7498 61.8931 42.5659 59.753C43.1691 59.484 43.7579 59.1839 44.3299 58.8535V61.6499C44.3307 63.6804 44.5904 65.7026 45.1028 67.6674ZM47.113 53.6285C45.5846 55.333 43.7119 56.6939 41.6186 57.6209C37.4037 59.4836 32.5991 59.4836 28.3842 57.6209C26.2865 56.6918 24.4101 55.3273 22.8797 53.6181C22.6645 53.3839 22.4698 53.1381 22.2684 52.8965C22.6174 51.8109 22.5029 50.6293 21.9515 49.631C20.2671 46.5713 17.406 41.3317 16.4891 39.6522C18.8637 40.1155 21.1643 38.5663 21.6277 36.1916C21.7372 35.6304 21.7359 35.0531 21.6235 34.4924L20.8336 30.5416C21.8648 30.6425 22.9026 30.7119 23.9447 30.7119C25.7629 30.7134 27.5779 30.5581 29.3694 30.2477L28.9685 27.9505C26.1212 28.434 23.2185 28.4979 20.3527 28.14L19.8385 25.5662V23.5544C22.4714 22.1486 25.6515 21.8077 28.8816 22.6252L29.4557 20.3643C26.0657 19.5042 22.7013 19.7464 19.7786 20.9985C19.679 19.2581 19.3636 17.537 18.8395 15.8745C19.4214 15.0396 20.0677 14.2513 20.7724 13.5172C20.8351 13.4471 20.9057 13.3771 20.9774 13.3042C21.0379 13.2444 21.0959 13.1839 21.2133 13.0809C22.5378 11.7902 24.0406 10.696 25.6755 9.83148C27.2044 9.00664 28.8392 8.39581 30.5342 8.01604C33.4764 7.32852 36.5377 7.32955 39.4795 8.01896C41.1723 8.39945 42.8048 9.01072 44.3313 9.83556C45.9712 10.704 47.4781 11.8031 48.8057 13.0994C48.9617 13.2451 49.1053 13.3893 49.267 13.5618C49.9575 14.282 50.5905 15.0552 51.1601 15.8744C50.6359 17.537 50.3204 19.2583 50.221 20.9988C47.2989 19.7471 43.9358 19.5058 40.5439 20.3646L41.118 22.6254C44.3481 21.807 47.5291 22.1477 50.1611 23.5544V25.5662L49.6244 28.2502C47.1461 28.4663 44.6504 28.3654 42.1976 27.95L41.7967 30.2483C43.5674 30.5533 45.3608 30.7059 47.1576 30.7045C47.823 30.7045 48.4866 30.6788 49.1471 30.6374L48.3764 34.4927C47.9018 36.8656 49.4407 39.1738 51.8137 39.6483C52.3736 39.7603 52.9502 39.7617 53.5107 39.6525C52.5939 41.3319 49.7339 46.5716 48.0484 49.6313C47.4976 50.6274 47.3849 51.8075 47.7374 52.89C47.5329 53.1362 47.3358 53.3846 47.1126 53.6285H47.113Z" fill="white"/>
</g>
<defs>
<clipPath id="clip0_117_12">
<rect width="70" height="70" fill="white"/>
</clipPath>
</defs>
</svg>
