<svg width="100" height="74" viewBox="0 0 100 74" fill="none" xmlns="http://www.w3.org/2000/svg">
<mask id="mask0_132_12" style="mask-type:alpha" maskUnits="userSpaceOnUse" x="0" y="0" width="100" height="74">
<rect y="0.736816" width="100" height="72.5262" fill="#D9D9D9"/>
</mask>
<g mask="url(#mask0_132_12)">
<path d="M83.1723 60.8459C82.7226 60.8459 82.3576 61.2109 82.3576 61.6606C82.3576 66.4769 69.0086 71.6337 49.1373 71.6337C29.266 71.6337 15.9185 66.4769 15.9185 61.6606C15.9185 61.2109 15.5536 60.8459 15.1039 60.8459C14.6542 60.8459 14.2892 61.2109 14.2892 61.6606C14.2892 68.9242 32.0082 73.2631 49.1373 73.2631C66.2664 73.2631 83.987 68.9225 83.987 61.6606C83.987 61.2109 83.622 60.8459 83.1723 60.8459Z" fill="#9A563A"/>
<path d="M99.6969 38.6659C99.332 38.4639 93.688 35.4317 86.1344 34.1657C88.9743 29.0089 90.0855 24.3849 90.1654 24.0378L89.6407 23.0863C89.2969 22.9657 84.6045 21.3755 78.5434 21.0676C79.0126 13.8855 77.512 8.17796 77.4061 7.79018L76.4041 7.21991C75.956 7.34374 68.7853 9.3804 61.8102 14.3287C57.6375 6.43621 51.0257 1.05942 50.62 0.736816H49.6049C49.1927 1.06431 42.387 6.60077 38.2289 14.6888C31.0974 9.47327 23.5829 7.347 23.1234 7.22154L22.1214 7.79181C22.0138 8.18447 20.466 14.0501 21.0004 21.3771C14.242 21.5303 8.8277 23.4741 8.46599 23.6093L7.96415 24.5934C8.05866 24.9274 9.37352 29.4537 12.4481 34.4134C5.61629 35.7967 0.646843 38.4786 0.306314 38.6676L0 39.7983C0.337271 40.3637 8.41874 53.6802 22.0937 57.3755C22.9442 57.6053 23.7947 57.778 24.6436 57.9262C25.3442 62.3906 37.5462 65.0497 49.3882 65.0497C61.0558 65.0497 73.077 62.4704 74.1002 58.1234C75.3629 57.9572 76.6338 57.7177 77.9063 57.3739C91.5813 53.6786 99.6627 40.3621 100 39.7967L99.6969 38.6659ZM78.3967 22.7327C83.0175 22.9625 86.8562 23.9466 88.3845 24.3995C87.9446 25.9588 86.6982 29.8154 84.3601 33.9099C81.4876 33.5564 78.3984 33.4945 75.2407 33.9442C77.0933 30.2146 78.0106 26.3368 78.3967 22.7327ZM76.0277 9.0415C76.7462 12.3441 78.9132 24.9812 72.7055 35.2004C66.4652 45.4733 53.631 50.2032 50.2908 51.2883C49.5723 47.9857 47.4053 35.3486 53.613 25.1311C59.8534 14.8566 72.6876 10.1266 76.0277 9.0415ZM49.5283 22.7262C49.7385 22.7067 49.9438 22.6757 50.1605 22.6757C50.3625 22.6757 50.5564 22.7002 50.7519 22.7165L49.4485 28.6619C49.2041 28.0346 48.932 27.4105 48.6387 26.7898L49.5283 22.7262ZM48.0815 25.6623C47.8371 25.1995 47.5845 24.7384 47.3075 24.2839C47.1511 24.0248 46.9686 23.7902 46.8057 23.5393C47.3841 23.2232 48.0196 22.9902 48.699 22.8468L48.0815 25.6623ZM51.5193 22.8191C52.0114 22.9136 52.4855 23.0472 52.9287 23.2346C52.6941 23.5849 52.4432 23.9189 52.2216 24.2839C51.5226 25.4342 50.954 26.6105 50.4424 27.7951L51.5259 22.8582C51.5275 22.8435 51.5177 22.8321 51.5193 22.8191ZM50.1132 2.43946C51.7621 3.86676 57.0444 8.74659 60.4774 15.3144C57.8982 17.2989 55.42 19.7006 53.3768 22.5714C52.409 22.1397 51.3189 21.892 50.1605 21.892C48.7576 21.892 47.4721 22.2733 46.369 22.8908C44.4171 20.0704 42.0464 17.6916 39.5536 15.7103C42.9768 8.94374 48.4318 3.89445 50.1132 2.43946ZM23.5014 9.03987C26.8415 10.125 39.6676 14.8435 45.9145 25.1295C47.3043 27.4187 48.2477 29.8268 48.9059 32.2285C46.7894 40.2545 47.9251 47.9384 48.5735 51.0651C44.4611 49.6492 32.7153 44.9046 26.8204 35.1987C20.6224 24.9943 22.7845 12.3458 23.5014 9.03987ZM9.76945 24.89C11.4688 24.3539 15.9316 23.1466 21.1666 23.0407C21.569 26.5323 22.4701 30.2651 24.2411 33.8627C20.7413 33.426 17.3246 33.5938 14.2191 34.0875C11.7035 30.1755 10.2876 26.4329 9.76945 24.89ZM22.5222 55.8C11.2847 52.7645 3.77841 42.5356 1.87699 39.6973C4.71365 38.3189 14.8383 33.9376 25.2122 35.6484C25.2888 35.7804 25.3491 35.9156 25.4289 36.0476C29.3817 42.5535 35.666 46.8664 40.8456 49.5368C32.3356 52.9991 23.0957 52.7694 16.3943 48.8411C16.1173 48.6765 15.7654 48.7727 15.6041 49.0464C15.4428 49.3218 15.5356 49.6753 15.8094 49.8366C19.5487 52.0281 24.0326 53.1262 28.7446 53.1262C33.1682 53.1262 37.7906 52.147 42.1882 50.213C44.5279 51.3372 46.5434 52.1046 47.8859 52.5641C44.1369 54.3091 33.1666 58.6774 22.5222 55.8ZM49.3914 64.1226C35.9332 64.1226 26.6884 61.0969 25.6538 58.0826C27.1658 58.2945 28.6648 58.4004 30.1312 58.4004C40.5637 58.4004 49.3556 53.69 50.0041 53.3348C50.6509 53.69 59.4428 58.4004 69.877 58.4004C70.9393 58.4004 72.0228 58.3352 73.1128 58.2277C71.8289 61.1947 62.6314 64.1226 49.3914 64.1226ZM77.4843 55.8C66.6265 58.736 55.4379 54.1315 51.9169 52.4664C56.554 50.8452 68.057 45.9914 74.0986 36.046C74.1572 35.9499 74.2012 35.8505 74.2582 35.7527C84.8228 33.7894 95.2473 38.2928 98.1295 39.6957C96.2314 42.534 88.7365 52.7596 77.4843 55.8Z" fill="#9A563A"/>
<path d="M7.02893 40.2203C6.84644 39.9596 6.48636 39.8944 6.22567 40.0769C5.96498 40.2594 5.8998 40.6195 6.08229 40.8801C6.73728 41.8203 7.45418 42.7278 8.21182 43.5783C8.32587 43.707 8.48392 43.7722 8.64359 43.7722C8.78045 43.7722 8.91732 43.7233 9.02811 43.6256C9.26599 43.4138 9.28718 43.0488 9.07536 42.8109C8.34542 41.9946 7.65785 41.1229 7.02893 40.2203Z" fill="#9A563A"/>
<path d="M14.646 47.7234C13.1454 46.6823 11.7377 45.5206 10.4619 44.2676C10.2354 44.0444 9.86883 44.0477 9.64561 44.2758C9.42239 44.5039 9.42565 44.8688 9.65375 45.0921C10.9751 46.389 12.4334 47.5947 13.9861 48.6717C14.0872 48.7418 14.2012 48.7743 14.3153 48.7743C14.4977 48.7743 14.6786 48.688 14.791 48.5267C14.9735 48.2644 14.9083 47.9043 14.646 47.7234Z" fill="#9A563A"/>
<path d="M77.9813 60.6179C77.9813 60.3621 77.7743 60.1552 77.5185 60.1552C77.2627 60.1552 77.0558 60.3621 77.0558 60.6179C77.0558 64.2268 65.9389 68.0916 49.3898 68.0916C32.8407 68.0916 21.7238 64.2268 21.7238 60.6179C21.7238 60.3621 21.5169 60.1552 21.2611 60.1552C21.0053 60.1552 20.7984 60.3621 20.7984 60.6179C20.7984 65.3266 33.3572 69.0154 49.3898 69.0154C65.4224 69.0154 77.9813 65.3266 77.9813 60.6179Z" fill="#9A563A"/>
</g>
</svg>
