<svg width="47" height="47" viewBox="0 0 47 47" fill="none" xmlns="http://www.w3.org/2000/svg">
<path d="M41.4417 27.3245C47.3608 20.9648 46.8804 10.9069 46.8565 10.4727C46.8186 9.78698 46.2708 9.23949 45.585 9.20159C45.3797 9.19001 42.4721 9.04822 38.8337 9.78873C38.116 6.10302 36.8586 3.45508 36.7989 3.33049C36.5017 2.71141 35.7864 2.41521 35.1378 2.64262C35.0076 2.68825 32.2477 3.67092 29.1355 5.76856C27.094 2.68614 24.9444 0.733789 24.7738 0.581124C24.2625 0.12278 23.488 0.12278 22.9763 0.581124C22.8057 0.733789 20.6561 2.68614 18.6146 5.76891C15.5024 3.67127 12.7421 2.68825 12.6123 2.64262C11.9641 2.41556 11.2485 2.71141 10.9512 3.33049C10.8915 3.45508 9.63373 6.10302 8.91638 9.78908C5.27805 9.04857 2.37005 9.19036 2.16474 9.20159C1.47898 9.23949 0.931494 9.78698 0.893592 10.4731C0.869376 10.9069 0.389272 20.9648 6.30845 27.3245C3.29271 28.9939 1.31824 31.1751 1.22068 31.2839C0.762686 31.7956 0.762686 32.5702 1.22068 33.0818C1.43511 33.3212 6.54359 38.9431 13.0496 38.9431C14.7401 38.9431 16.3355 38.563 17.7762 37.9969C19.2737 42.5334 22.8096 45.7404 22.9759 45.8899C23.2318 46.1187 23.5536 46.2335 23.8751 46.2335C24.1965 46.2335 24.518 46.1187 24.7738 45.8899C24.9406 45.7407 28.4757 42.5334 29.9736 37.9973C31.4142 38.563 33.0097 38.9431 34.7002 38.9431C41.2062 38.9431 46.315 33.3212 46.5294 33.0818C46.9874 32.5702 46.9874 31.7956 46.5294 31.2839C46.4315 31.1748 44.4567 28.9936 41.4417 27.3245ZM39.1489 25.8213C35.6436 29.3266 30.4224 30.4009 27.1021 30.7196C29.4977 27.859 32.8721 22.7824 32.8721 16.884C32.8721 16.2238 32.8286 15.5745 32.7503 14.9369C36.8403 12.4096 41.8611 11.9566 44.1682 11.8916C44.0917 14.7003 43.4432 21.5271 39.1489 25.8213ZM34.8574 5.66889C35.2638 6.73123 35.8355 8.43651 36.2177 10.4566C34.8753 10.8739 33.4999 11.4256 32.1733 12.1538C31.7508 10.6998 31.1682 9.33635 30.5133 8.09117C32.2109 6.93408 33.8197 6.13215 34.8574 5.66889ZM23.8765 3.48526C25.5575 5.26073 29.0818 9.49253 29.9697 14.5613C29.9701 14.562 29.9701 14.5627 29.9704 14.5638C30.1027 15.3201 30.1768 16.0954 30.1768 16.884C30.1768 22.9358 25.8074 28.2341 23.8751 30.2809C21.9427 28.2341 17.573 22.9358 17.573 16.884C17.573 10.83 21.9459 5.52991 23.8765 3.48526ZM12.8923 5.66889C13.9301 6.1325 15.5392 6.93443 17.2364 8.09152C16.5815 9.33635 15.999 10.6998 15.5764 12.1538C14.2498 11.4256 12.8744 10.8739 11.532 10.4566C11.9142 8.43651 12.4863 6.73088 12.8923 5.66889ZM14.9995 14.9369C14.9212 15.5745 14.878 16.2238 14.878 16.884C14.878 22.7859 18.2559 27.8646 20.6516 30.7245C17.3357 30.41 12.1185 29.3389 8.60052 25.8213C4.3196 21.5404 3.66437 14.7007 3.58365 11.8895C5.88906 11.952 10.8993 12.4012 14.9995 14.9369ZM4.14833 32.1809C5.05625 31.3583 6.58009 30.1395 8.45944 29.248C12.3813 32.1697 17.2259 33.1233 20.4455 33.4202C19.7784 33.9147 18.9965 34.4277 18.1293 34.8791C18.0808 34.9001 18.0341 34.9247 17.9892 34.951C16.5296 35.6912 14.838 36.2481 13.0496 36.2481C9.17644 36.2481 5.73148 33.6111 4.14833 32.1809ZM23.873 42.9622C22.7913 41.769 21.0243 39.5145 20.2241 36.7974C21.8048 35.8681 23.0651 34.8254 23.8747 34.0803C24.6844 34.8254 25.9446 35.8681 27.525 36.797C26.7259 39.5039 24.9546 41.7655 23.873 42.9622ZM34.7002 36.2481C31.795 36.2481 29.1313 34.7647 27.3126 33.4191C30.5323 33.1215 35.3719 32.1669 39.29 29.2484C41.1623 30.1373 42.6911 31.3604 43.6021 32.1841C42.0235 33.6153 38.5905 36.2481 34.7002 36.2481Z" fill="white"/>
</svg>
