<svg width="31" height="30" viewBox="0 0 31 30" fill="none" xmlns="http://www.w3.org/2000/svg">
<g clip-path="url(#clip0_25_75)">
<path d="M2.19583 7.00006C3.02396 7.00104 3.69485 7.67194 3.69583 8.50006C3.69583 8.77618 3.91971 9.00006 4.19583 9.00006C4.47195 9.00006 4.69583 8.77618 4.69583 8.50006C4.69681 7.67194 5.36771 7.00104 6.19583 7.00006C6.47195 7.00006 6.69583 6.77618 6.69583 6.50006C6.69583 6.22394 6.47195 6.00006 6.19583 6.00006C5.36771 5.99908 4.69681 5.32819 4.69583 4.50006C4.69583 4.22394 4.47195 4.00006 4.19583 4.00006C3.91971 4.00006 3.69583 4.22394 3.69583 4.50006C3.69485 5.32819 3.02396 5.99908 2.19583 6.00006C1.91971 6.00006 1.69583 6.22394 1.69583 6.50006C1.69583 6.77618 1.91971 7.00006 2.19583 7.00006ZM4.19583 5.9986C4.33865 6.18854 4.50736 6.35724 4.6973 6.50006C4.50736 6.64288 4.33865 6.81158 4.19583 7.00153C4.05301 6.81158 3.88431 6.64288 3.69437 6.50006C3.88431 6.35724 4.05301 6.18854 4.19583 5.9986Z" fill="#9A563A"/>
<path d="M16.1958 8.50006C16.1958 8.22394 15.972 8.00006 15.6958 8.00006H8.69583C6.95804 8.00323 5.48514 9.28009 5.23587 11.0001H4.69583C3.59183 11.0013 2.69705 11.8961 2.69583 13.0001C2.69778 13.3521 2.79398 13.6973 2.97391 14.0001H2.19583C1.91971 14.0001 1.69583 14.2239 1.69583 14.5001V26.5001C1.69803 28.4322 3.2637 29.9979 5.19583 30.0001H25.1958C27.128 29.9979 28.6936 28.4322 28.6958 26.5001V24.0001C28.6958 23.7239 28.472 23.5001 28.1958 23.5001H19.6958V14.5001C19.6958 14.2239 19.472 14.0001 19.1958 14.0001H18.4178C18.5977 13.6973 18.6939 13.3521 18.6958 13.0001C18.6946 11.8961 17.7998 11.0013 16.6958 11.0001H15.1407C15.8155 10.3433 16.1958 9.44171 16.1958 8.50006ZM25.1958 29.0001H14.1958C12.8157 28.9984 11.6975 27.8802 11.6958 26.5001H27.6958C27.6941 27.8802 26.576 28.9984 25.1958 29.0001ZM27.6958 25.5001H11.6958V24.5001H27.6958V25.5001ZM11.1958 23.5001C10.9197 23.5001 10.6958 23.7239 10.6958 24.0001V26.5001C10.6958 27.4417 11.0762 28.3433 11.751 29.0001H5.19583C3.8157 28.9984 2.69754 27.8802 2.69583 26.5001V18.0001H18.6958V23.5001H11.1958ZM18.6958 17.0001H2.69583V15.0001H18.6958V17.0001ZM16.6958 12.0001C17.2481 12.0001 17.6958 12.4478 17.6958 13.0001C17.6958 13.5523 17.2481 14.0001 16.6958 14.0001H4.69583C4.14359 14.0001 3.69583 13.5523 3.69583 13.0001C3.69583 12.4478 4.14359 12.0001 4.69583 12.0001H16.6958ZM12.6958 11.0001H6.24612C6.48514 9.83698 7.50833 9.00153 8.69583 9.00006H15.1455C14.9065 10.1631 13.8833 10.9986 12.6958 11.0001Z" fill="#9A563A"/>
<path d="M23.1958 19.5001C23.6514 19.4969 24.0791 19.2801 24.3513 18.9146C24.6697 18.4913 24.7749 17.9449 24.636 17.4337L23.6787 13.8702C23.6199 13.6519 23.4219 13.5001 23.1958 13.5001C22.9697 13.5001 22.7717 13.6519 22.7129 13.8702L21.7556 17.4337C21.6167 17.9449 21.7219 18.4913 22.0403 18.9146C22.3125 19.2801 22.7403 19.4969 23.1958 19.5001ZM22.7215 17.6934L23.1958 15.9273L23.6702 17.6934C23.7293 17.9041 23.6878 18.1304 23.5576 18.3062C23.4771 18.4273 23.3413 18.5001 23.1958 18.5001C23.0503 18.5001 22.9146 18.4273 22.834 18.3062C22.7039 18.1304 22.6624 17.9041 22.7215 17.6934Z" fill="#9A563A"/>
<path d="M29.6958 1.00006H24.6958V0.500061C24.6958 0.223938 24.472 6.10352e-05 24.1958 6.10352e-05H16.1958C15.9197 6.10352e-05 15.6958 0.223938 15.6958 0.500061V1.00006H13.1958C12.9197 1.00006 12.6958 1.22394 12.6958 1.50006V3.50006C12.6958 3.77618 12.9197 4.00006 13.1958 4.00006H15.6958V4.50006C15.6975 5.88019 16.8157 6.99835 18.1958 7.00006C18.7386 6.99811 19.2657 6.81793 19.6958 6.48737V7.50006C19.6968 8.32819 20.3677 8.99908 21.1958 9.00006C21.3665 8.99835 21.5357 8.9671 21.6958 8.90802V10.5001C21.6958 11.3284 22.3675 12.0001 23.1958 12.0001C24.0242 12.0001 24.6958 11.3284 24.6958 10.5001V4.00006H29.6958C29.972 4.00006 30.1958 3.77618 30.1958 3.50006V1.50006C30.1958 1.22394 29.972 1.00006 29.6958 1.00006ZM13.6958 3.00006V2.00006H15.6958V3.00006H13.6958ZM18.1958 6.00006C17.3677 5.99908 16.6968 5.32819 16.6958 4.50006V1.00006H19.6958V4.50006C19.6949 5.32819 19.024 5.99908 18.1958 6.00006ZM21.1958 8.00006C20.9197 7.99982 20.6961 7.77618 20.6958 7.50006V1.00006H21.6958V7.50006C21.6956 7.77618 21.472 7.99982 21.1958 8.00006ZM23.6958 10.5001C23.6958 10.7762 23.472 11.0001 23.1958 11.0001C22.9197 11.0001 22.6958 10.7762 22.6958 10.5001V1.00006H23.6958V10.5001ZM29.1958 3.00006H24.6958V2.00006H29.1958V3.00006Z" fill="#9A563A"/>
</g>
<defs>
<clipPath id="clip0_25_75">
<rect width="30" height="30" fill="white" transform="translate(0.945831 6.10352e-05)"/>
</clipPath>
</defs>
</svg>
