<svg width="31" height="30" viewBox="0 0 31 30" fill="none" xmlns="http://www.w3.org/2000/svg">
<g clip-path="url(#clip0_25_49)">
<path d="M27.759 24.5337L28.9148 23.0666C29.0186 22.9346 29.0497 22.7592 28.9975 22.5995C28.9454 22.4398 28.8166 22.3169 28.655 22.2718L26.8572 21.7693C26.1923 21.5853 25.4882 21.5998 24.8312 21.811C24.8295 21.118 24.6239 20.4408 24.24 19.8641L23.2049 18.3114C23.1191 18.1639 22.9574 18.0776 22.7869 18.0879C22.6777 18.0891 22.572 18.1256 22.4854 18.1924C21.8576 17.7186 21.1147 17.4201 20.3336 17.3276L18.785 17.1453L19.824 16.8855C20.7698 16.649 21.5026 15.9015 21.7199 14.9511C21.9375 14.0006 21.6024 13.0088 20.8534 12.3846C19.5426 11.2907 17.9433 10.5998 16.2481 10.395L16.8155 10.3096C17.9112 10.1418 18.7723 9.28413 18.9445 8.18897C19.1167 7.09406 18.5603 6.01337 17.5692 5.51731L17.3952 5.43095C16.2115 4.83823 14.9355 4.45183 13.622 4.28844L12.2187 4.11352C11.6952 4.04752 11.1648 4.05832 10.6444 4.14517C9.04339 4.41037 7.72081 5.54061 7.20978 7.08081L7.15949 7.23169C6.98678 7.75375 6.98678 8.31753 7.15949 8.83935L7.41071 9.59301C7.55889 10.0331 7.82556 10.4239 8.18154 10.722L7.83391 10.7853C6.71912 10.9845 5.86487 11.8873 5.72749 13.0112L5.6085 13.9548C5.46915 15.099 6.09966 16.1983 7.15753 16.6559L8.4725 17.2196L7.16955 17.3703C5.86904 17.5226 4.70126 18.2392 3.97655 19.33L3.43805 20.1337C2.43955 21.6327 2.43955 23.5845 3.43805 25.0833L3.81439 25.6451C4.64067 26.8884 6.03489 27.6352 7.52773 27.6342H18.812L18.7377 29.4781C18.7313 29.6457 18.8088 29.8057 18.9445 29.904C19.0802 30.0027 19.2561 30.0269 19.4136 29.969L21.167 29.3214C21.8188 29.0809 22.3845 28.6521 22.792 28.0893C22.8332 28.1472 22.8654 28.2076 22.9105 28.2637C23.3099 28.7389 23.8256 29.1025 24.4073 29.3189L26.1558 29.9671C26.3133 30.0255 26.4894 30.0014 26.6256 29.9028C26.7615 29.8042 26.8393 29.644 26.8326 29.4762L26.7571 27.6075C26.7289 26.9166 26.497 26.2496 26.0905 25.6902C26.7483 25.4773 27.3287 25.0749 27.759 24.5337ZM8.10917 8.52606C8.00441 8.20958 8.00441 7.86759 8.10917 7.55111L8.15946 7.40048C8.55346 6.21356 9.57282 5.34288 10.8068 5.1395C11.231 5.06835 11.6633 5.05952 12.0899 5.11325L13.4937 5.28866C14.6946 5.43733 15.8614 5.78963 16.9436 6.33083L17.1168 6.41768C17.7166 6.71723 18.0537 7.3703 17.9504 8.0327C17.8471 8.69509 17.3273 9.2147 16.6646 9.31725L11.8679 10.0537L10.0385 10.315C9.30124 10.423 8.59321 9.98529 8.3599 9.27751L8.10917 8.52606ZM7.55153 15.7324C6.90385 15.4525 6.51795 14.7796 6.60332 14.0794L6.72084 13.1383C6.80498 12.4506 7.32779 11.8981 8.00956 11.7762L11.7639 11.0939C11.8576 11.0768 11.9525 11.0679 12.0477 11.0677C12.088 11.0677 12.1287 11.0677 12.1694 11.0728L15.7579 11.3491C17.3945 11.4718 18.9514 12.1045 20.2099 13.1579C20.6682 13.5397 20.873 14.1466 20.7401 14.728C20.6071 15.3095 20.1589 15.767 19.5804 15.9118L17.0913 16.5332C16.9656 16.5648 16.8366 16.581 16.7068 16.581H9.85569C9.64102 16.5813 9.42832 16.5376 9.23107 16.453L7.55153 15.7324ZM19.3628 25.8637C19.2124 26.1038 19.091 26.3607 19.0004 26.6293H7.52773C6.37075 26.6306 5.29006 26.0521 4.64925 25.0889L4.27341 24.5271C3.50036 23.3662 3.50036 21.8544 4.27341 20.6935L4.81166 19.8896C5.37323 19.0444 6.27826 18.4892 7.28608 18.3712L12.6311 17.7432C13.5072 17.6421 14.3919 17.6421 15.268 17.7432L20.2185 18.3266C20.8309 18.4009 21.4118 18.6394 21.9 19.0164L21.3348 19.8646C20.9525 20.4401 20.7467 21.115 20.7425 21.8059C20.0846 21.5919 19.3782 21.5787 18.7127 21.7674L16.9139 22.2698C16.752 22.3149 16.6237 22.4383 16.5716 22.598C16.5196 22.758 16.551 22.9332 16.6551 23.0649L17.8177 24.5362C18.2512 25.0766 18.8336 25.4785 19.4928 25.6917C19.4501 25.7515 19.4015 25.8028 19.3628 25.8637ZM21.4353 23.3635C21.6282 23.5563 21.7903 23.7776 21.9157 24.0197L22.0241 24.2332L21.7886 24.2705C21.4143 24.3274 21.0521 24.4464 20.7168 24.622C20.5855 24.6907 20.4589 24.7683 20.338 24.8541C19.6562 24.7876 19.0301 24.4481 18.602 23.9133L17.9102 23.0384L18.981 22.7369C19.6964 22.5298 20.467 22.6547 21.0806 23.0772C21.2087 23.1596 21.3276 23.2555 21.4353 23.3635ZM20.8174 28.3803L19.7703 28.7672L19.8159 27.6453C19.8191 27.5076 19.8373 27.3707 19.8709 27.2373C19.9933 26.6524 20.3198 26.1298 20.7918 25.7631C20.9128 25.6669 21.0431 25.5828 21.1807 25.5119C21.4196 25.3867 21.678 25.3018 21.9449 25.2606L22.1809 25.2236L22.1434 25.4591C22.085 25.8215 22.085 26.1907 22.1434 26.553L22.1458 26.5695L22.1488 26.5886C22.1731 26.7299 22.2067 26.8693 22.2494 27.0062C21.9827 27.6418 21.465 28.1386 20.8188 28.3788L20.8174 28.3803ZM22.9196 23.7771L22.8095 23.5615C22.6367 23.2261 22.4128 22.9199 22.1458 22.6535C22.0384 22.5473 21.9233 22.4494 21.8011 22.3606C21.6566 21.6915 21.7894 20.9923 22.1689 20.4227L22.7854 19.4946L23.4029 20.4212C23.6796 20.8358 23.8271 21.3231 23.8271 21.8216C23.8271 21.9371 23.8187 22.0527 23.8018 22.1672C23.7849 22.2872 23.7594 22.406 23.7255 22.5225C23.6838 22.6699 23.6284 22.8134 23.5597 22.9506C23.4373 23.1917 23.2788 23.413 23.0899 23.6066L22.9196 23.7771ZM24.7544 28.3803C24.3381 28.2257 23.9691 27.9662 23.6828 27.6266C23.4966 27.3997 23.3516 27.1416 23.2547 26.8644C23.203 26.7233 23.1657 26.5771 23.1436 26.4284V26.4122L23.1411 26.3943C23.0997 26.137 23.0997 25.8747 23.1411 25.6173L23.1784 25.3808L23.3848 25.4858C23.4846 25.5374 23.5872 25.5832 23.6924 25.623C23.9431 25.7241 24.2051 25.7957 24.4726 25.8359C24.6183 25.8561 24.7647 25.8683 24.9117 25.8727C25.4227 26.3256 25.7272 26.9672 25.7554 27.6492L25.8005 28.7652L24.7544 28.3803ZM25.0746 24.8679C25.0569 24.8679 24.9981 24.8679 24.9811 24.8723C24.857 24.8706 24.7331 24.8607 24.6102 24.8426C24.4208 24.8141 24.2353 24.7636 24.0577 24.692C23.9839 24.6642 23.9115 24.6321 23.8416 24.596L23.6291 24.4878L23.8018 24.3156C24.0646 24.047 24.2849 23.7398 24.4551 23.4047C24.5199 23.2727 24.5761 23.1365 24.6234 22.9972C25.2144 22.6488 25.9217 22.5558 26.5829 22.7394L27.6555 23.0409L26.9673 23.9147C26.5066 24.4937 25.8155 24.8414 25.0761 24.8664L25.0746 24.8679Z" fill="#9A563A"/>
<path d="M14.4515 3.0147V1.00494C14.4515 0.727472 14.2265 0.502502 13.949 0.502502C13.6716 0.502502 13.4466 0.727472 13.4466 1.00494V3.0147C13.4466 3.29217 13.6716 3.51714 13.949 3.51714C14.2265 3.51714 14.4515 3.29217 14.4515 3.0147Z" fill="#9A563A"/>
<path d="M16.4612 3.51715C16.4612 3.79462 16.6862 4.01959 16.9637 4.01959C17.2412 4.01959 17.4661 3.79462 17.4661 3.51715V3.01471C17.4661 2.73724 17.2412 2.51227 16.9637 2.51227C16.6862 2.51227 16.4612 2.73724 16.4612 3.01471V3.51715Z" fill="#9A563A"/>
<path d="M16.9637 2.00982C17.2412 2.00982 17.4661 1.78485 17.4661 1.50738V0.502501C17.4661 0.22503 17.2412 6.10352e-05 16.9637 6.10352e-05C16.6862 6.10352e-05 16.4612 0.22503 16.4612 0.502501V1.50738C16.4612 1.78485 16.6862 2.00982 16.9637 2.00982Z" fill="#9A563A"/>
<path d="M4.90514 10.0488C4.90514 10.3263 5.13011 10.5513 5.40758 10.5513C5.68505 10.5513 5.91002 10.3263 5.91002 10.0488V9.54638C5.91002 9.26891 5.68505 9.04395 5.40758 9.04395C5.13011 9.04395 4.90514 9.26891 4.90514 9.54638V10.0488Z" fill="#9A563A"/>
<path d="M5.40758 8.54156C5.68505 8.54156 5.91002 8.31659 5.91002 8.03912V7.03424C5.91002 6.75677 5.68505 6.5318 5.40758 6.5318C5.13011 6.5318 4.90514 6.75677 4.90514 7.03424V8.03912C4.90514 8.31659 5.13011 8.54156 5.40758 8.54156Z" fill="#9A563A"/>
<path d="M10.432 3.01471C10.432 3.29218 10.6569 3.51715 10.9344 3.51715C11.2119 3.51715 11.4369 3.29218 11.4369 3.01471V2.51227C11.4369 2.2348 11.2119 2.00983 10.9344 2.00983C10.6569 2.00983 10.432 2.2348 10.432 2.51227V3.01471Z" fill="#9A563A"/>
<path d="M10.9344 1.50738C11.2119 1.50738 11.4369 1.28241 11.4369 1.00494V0.502501C11.4369 0.22503 11.2119 6.10352e-05 10.9344 6.10352e-05C10.6569 6.10352e-05 10.432 0.22503 10.432 0.502501V1.00494C10.432 1.28241 10.6569 1.50738 10.9344 1.50738Z" fill="#9A563A"/>
<path d="M20.4808 7.53667C20.4808 7.81414 20.7057 8.03911 20.9832 8.03911C21.2607 8.03911 21.4856 7.81414 21.4856 7.53667V5.52691C21.4856 5.24944 21.2607 5.02448 20.9832 5.02448C20.7057 5.02448 20.4808 5.24944 20.4808 5.52691V7.53667Z" fill="#9A563A"/>
<path d="M20.9832 4.52202C21.2607 4.52202 21.4856 4.29706 21.4856 4.01959V2.51227C21.4856 2.2348 21.2607 2.00983 20.9832 2.00983C20.7057 2.00983 20.4808 2.2348 20.4808 2.51227V4.01959C20.4808 4.29706 20.7057 4.52202 20.9832 4.52202Z" fill="#9A563A"/>
<path d="M20.4808 10.0488C20.4808 10.3263 20.7057 10.5513 20.9832 10.5513C21.2607 10.5513 21.4856 10.3263 21.4856 10.0488V9.54638C21.4856 9.26891 21.2607 9.04395 20.9832 9.04395C20.7057 9.04395 20.4808 9.26891 20.4808 9.54638V10.0488Z" fill="#9A563A"/>
<path d="M24.5003 13.0635C24.5003 12.786 24.2753 12.561 23.9978 12.561C23.7204 12.561 23.4954 12.786 23.4954 13.0635V13.5659C23.4954 13.8434 23.7204 14.0684 23.9978 14.0684C24.2753 14.0684 24.5003 13.8434 24.5003 13.5659V13.0635Z" fill="#9A563A"/>
<path d="M24.5003 10.0488C24.5003 9.77136 24.2753 9.54639 23.9978 9.54639C23.7204 9.54639 23.4954 9.77136 23.4954 10.0488V11.5561C23.4954 11.8336 23.7204 12.0586 23.9978 12.0586C24.2753 12.0586 24.5003 11.8336 24.5003 11.5561V10.0488Z" fill="#9A563A"/>
<path d="M23.9978 15.0732C23.7204 15.0732 23.4954 15.2982 23.4954 15.5757V16.0781C23.4954 16.3556 23.7204 16.5806 23.9978 16.5806C24.2753 16.5806 24.5003 16.3556 24.5003 16.0781V15.5757C24.5003 15.2982 24.2753 15.0732 23.9978 15.0732Z" fill="#9A563A"/>
<path d="M13.6858 14.5708H15.1894C15.4078 14.5708 15.6252 14.5441 15.8366 14.4908L17.5881 14.0534C17.8555 13.9842 18.0171 13.7127 17.9499 13.4447C17.8829 13.1768 17.6123 13.0135 17.3439 13.0785L15.5925 13.5161C15.461 13.5495 15.3261 13.5664 15.1904 13.5664H13.6858C13.4083 13.5664 13.1834 13.7914 13.1834 14.0689C13.1834 14.3463 13.4083 14.5713 13.6858 14.5713V14.5708Z" fill="#9A563A"/>
<path d="M10.432 14.5708C10.7094 14.5708 10.9344 14.3458 10.9344 14.0684C10.9344 13.7909 10.7094 13.5659 10.432 13.5659H10.1334C9.747 13.5652 9.36576 13.4754 9.0196 13.3032L8.64669 13.1162C8.39841 12.9921 8.09641 13.0929 7.97252 13.3415C7.84838 13.5897 7.94921 13.8915 8.19749 14.0156L8.57039 14.2021C9.05615 14.4437 9.59097 14.5701 10.1334 14.5708H10.432Z" fill="#9A563A"/>
<path d="M8.4914 24.3684L8.16339 24.3228C7.29786 24.2018 6.48826 23.8252 5.83813 23.2413L5.50154 23.6142L5.18751 24.0077C5.98263 24.7158 6.97009 25.1718 8.02477 25.3181L8.35278 25.3632C8.37584 25.3666 8.3994 25.3684 8.4227 25.3684C8.68594 25.3671 8.9038 25.163 8.92195 24.9003C8.94011 24.6375 8.75218 24.4054 8.4914 24.3684Z" fill="#9A563A"/>
<path d="M12.9442 24.6196H10.432C10.1545 24.6196 9.92953 24.8446 9.92953 25.1221C9.92953 25.3995 10.1545 25.6245 10.432 25.6245H12.9442C13.2216 25.6245 13.4466 25.3995 13.4466 25.1221C13.4466 24.8446 13.2216 24.6196 12.9442 24.6196Z" fill="#9A563A"/>
<path d="M16.4612 24.6196H14.9539C14.6765 24.6196 14.4515 24.8446 14.4515 25.1221C14.4515 25.3995 14.6765 25.6245 14.9539 25.6245H16.4612C16.7387 25.6245 16.9637 25.3995 16.9637 25.1221C16.9637 24.8446 16.7387 24.6196 16.4612 24.6196Z" fill="#9A563A"/>
<path d="M9.92953 8.54155H10.9847C11.707 8.54229 12.4133 8.32836 13.0138 7.927L13.7265 7.45228C13.9574 7.29821 14.0197 6.98615 13.8656 6.75529C13.7116 6.52443 13.3995 6.46212 13.1686 6.61619L12.4567 7.0909C12.021 7.38187 11.5087 7.53716 10.9847 7.53667H9.92953C9.65206 7.53667 9.42709 7.76164 9.42709 8.03911C9.42709 8.31658 9.65206 8.54155 9.92953 8.54155Z" fill="#9A563A"/>
</g>
<defs>
<clipPath id="clip0_25_49">
<rect width="30" height="30" fill="white" transform="translate(0.825836 6.10352e-05)"/>
</clipPath>
</defs>
</svg>
