<svg width="30" height="31" viewBox="0 0 30 31" fill="none" xmlns="http://www.w3.org/2000/svg">
<path d="M12.4463 17.4932L12.3144 17.5459L12.6856 18.4747L12.8174 18.4217C14.1631 17.8836 15.8369 17.8834 17.1826 18.4217L17.3144 18.4744L17.6856 17.5457L17.5537 17.4932C15.9746 16.8611 14.0254 16.8614 12.4463 17.4932Z" fill="#9A563A"/>
<path d="M14.5 10.0103H15.5V15.5103H14.5V10.0103Z" fill="#9A563A"/>
<path d="M29 0.0102708V9.18583C29 9.34696 28.9741 9.50702 28.9233 9.65996L26.5454 16.7932L22.8354 22.6001C22.7205 22.7817 22.5345 22.9065 22.3229 22.9439C21.8766 23.0135 21.4583 22.7081 21.3887 22.2618C21.3619 22.0903 21.3904 21.9146 21.4702 21.7603C22.3399 20.1811 23.9389 17.2498 23.9389 17.2498C23.9576 17.2156 23.9723 17.1794 23.9827 17.1418L24.3871 15.6592L25.9768 10.6619L25.0237 10.3586L23.4304 15.3672L23.4341 15.3683C23.4319 15.3753 23.4265 15.3801 23.4246 15.3871C23.2971 15.8551 22.8144 16.1311 22.3464 16.0036C22.3139 15.9948 22.282 15.9841 22.2507 15.9716C21.8577 15.8143 21.6328 15.3992 21.7156 14.9841L22.4906 11.1086C22.4969 11.0762 22.5 11.0433 22.5 11.0103V9.54565C22.4943 7.4134 23.3418 5.36746 24.8535 3.86377C24.9473 3.77002 25 3.6429 25 3.51027V0.0102708H24V3.3064C23.6536 3.67221 23.3383 4.06615 23.0571 4.48415C20.2957 0.0340838 14.4497 -1.33485 9.99963 1.42658C8.75881 2.19658 7.71256 3.24271 6.94244 4.48352C6.66144 4.06577 6.34619 3.67202 6 3.3064V0.0102708H5V3.51027C5 3.6429 5.05275 3.77002 5.1465 3.86377C6.65831 5.36752 7.50575 7.41358 7.5 9.5459V11.0103C7.50006 11.0432 7.50338 11.0761 7.50975 11.1084L8.28475 14.9839C8.36775 15.3992 8.14275 15.8146 7.74956 15.972C7.299 16.1521 6.78775 15.9329 6.60763 15.4823C6.59519 15.4513 6.58456 15.4195 6.57575 15.3872C6.57381 15.3801 6.56844 15.3753 6.56625 15.3685L6.56988 15.3673L4.97656 10.3586L4.02344 10.6619L5.61313 15.6592L6.01756 17.1418C6.02794 17.1794 6.04263 17.2156 6.06131 17.2498C6.06131 17.2498 7.66038 20.181 8.53006 21.7603C8.72288 22.1099 8.62719 22.5401 8.27806 22.8023C8.10625 22.9309 7.88869 22.9823 7.6775 22.9441C7.46588 22.9068 7.27981 22.782 7.165 22.6003L3.455 16.7934L1.07713 9.66027C1.026 9.50733 0.999938 9.34708 1 9.18583V0.0102708H2.69402e-07V9.18583C-0.000124731 9.45452 0.0432503 9.72152 0.128438 9.97633L2.52588 17.1685C2.53881 17.2075 2.5565 17.2449 2.57863 17.2796L6.32175 23.1387C6.58781 23.5536 7.01413 23.8395 7.499 23.928C7.60163 23.9467 7.70575 23.9561 7.81006 23.9561C8.20519 23.9539 8.58881 23.8229 8.90281 23.583C8.92269 23.5681 8.938 23.5498 8.95712 23.5342C8.99312 23.575 9.02637 23.6193 9.063 23.6592C9.35119 23.9754 9.66456 24.2676 10 24.5331V26.4302C9.99944 27.4235 9.83919 28.4103 9.52538 29.3528C9.43838 29.6148 9.58031 29.8978 9.84244 29.9848C9.89325 30.0017 9.94644 30.0103 10 30.0103H20C20.2761 30.0103 20.5001 29.7865 20.5001 29.5103C20.5001 29.4568 20.4915 29.4036 20.4746 29.3528C20.1608 28.4103 20.0006 27.4235 20 26.4302V24.5335C20.3342 24.2691 20.6464 23.978 20.9336 23.6631C20.9724 23.6208 21.0066 23.5756 21.0444 23.5324C21.0713 23.5548 21.0936 23.5805 21.1221 23.6018C21.9048 24.1891 23.0153 24.0306 23.6026 23.248C23.6292 23.2125 23.6544 23.1761 23.6783 23.1387L27.4214 17.2796C27.4436 17.2449 27.4613 17.2075 27.4742 17.1685L29.8721 9.97608C29.9569 9.72127 30.0001 9.4544 30 9.18583V0.0102708H29ZM22.3595 5.71127C22.23 5.55202 22.095 5.40377 21.959 5.25808L22.2068 5.01027C22.2994 5.15902 22.3871 5.31158 22.4712 5.46721C22.4307 5.54708 22.3976 5.63027 22.3595 5.71127ZM21.6238 4.17902L21.2429 4.56027C20.8695 4.2314 20.4703 3.93308 20.0491 3.66815L20.6016 3.11571C20.9727 3.43965 21.3147 3.79546 21.6238 4.17902ZM10.8647 3.16777L10.1973 2.50046C10.6867 2.16227 11.2104 1.87671 11.7598 1.64858L12.2473 2.62296C11.7723 2.76652 11.3099 2.94871 10.8647 3.16777ZM13.2459 2.3834L12.7174 1.32715C13.2996 1.16652 13.8971 1.06852 14.5 1.03465V2.2309C14.0789 2.25321 13.6599 2.30415 13.2458 2.3834H13.2459ZM15.5 1.02758C16.1046 1.06183 16.7038 1.16033 17.2875 1.32133L16.7547 2.38383C16.3404 2.30465 15.9212 2.25352 15.5 2.23096V1.02758ZM18.2407 1.65046C18.7912 1.87621 19.3163 2.15965 19.8071 2.49608L19.1352 3.16783C18.6901 2.94877 18.2279 2.76646 17.7531 2.62277L18.2407 1.65046ZM9.40494 3.12221L9.95081 3.66796C9.52937 3.93252 9.13019 4.2309 8.75706 4.56015L8.38138 4.18452C8.57094 3.9454 8.77331 3.71671 8.98763 3.49952C9.12156 3.36621 9.26419 3.24546 9.40494 3.12221ZM7.79244 5.00971L8.04106 5.25827C7.90469 5.40465 7.76931 5.55296 7.64056 5.71127C7.60269 5.63065 7.56969 5.54783 7.52938 5.46827C7.61325 5.31302 7.69925 5.15915 7.79238 5.00983L7.79244 5.00971ZM19.3312 29.0103H10.6687C10.8884 28.1678 10.9997 27.3008 11 26.4302V25.2311C11.2455 25.373 11.4983 25.5018 11.7573 25.6172C13.8221 26.5347 16.1789 26.5347 18.2436 25.6172C18.5023 25.5019 18.7547 25.3732 18.9999 25.2316V26.4305C19.0002 27.301 19.1116 28.1679 19.3312 29.0103ZM20.1931 22.9915C19.5378 23.7223 18.7349 24.3057 17.8375 24.7031C16.0305 25.5017 13.9707 25.5017 12.1637 24.7031C11.2644 24.3048 10.4599 23.7198 9.80381 22.9871C9.71156 22.8866 9.62806 22.7813 9.54175 22.6777C9.69137 22.2123 9.64225 21.7057 9.40588 21.2777C8.68375 19.966 7.45713 17.7196 7.06406 16.9996C8.08206 17.1983 9.06837 16.5341 9.26706 15.516C9.314 15.2754 9.31344 15.0279 9.26525 14.7875L8.92663 13.0938C9.36869 13.137 9.81363 13.1668 10.2604 13.1668C11.0399 13.1674 11.818 13.1008 12.5861 12.9678L12.4142 11.9829C11.1935 12.1902 9.94906 12.2176 8.72044 12.0641L8.5 10.9607V10.0982C9.62875 9.49552 10.9921 9.3494 12.3769 9.69983L12.6231 8.73058C11.1697 8.36183 9.72731 8.46565 8.47431 9.00246C8.43163 8.25633 8.29638 7.51846 8.07169 6.80571C8.32119 6.44777 8.59825 6.10983 8.90038 5.79508C8.92725 5.76502 8.9575 5.73502 8.98825 5.70377C9.01419 5.67815 9.03906 5.65221 9.08937 5.60802C9.65725 5.05471 10.3015 4.58558 11.0024 4.21496C11.6579 3.86133 12.3588 3.59946 13.0854 3.43665C14.3468 3.1419 15.6592 3.14233 16.9204 3.4379C17.6462 3.60102 18.3461 3.86308 19.0005 4.21671C19.7036 4.58902 20.3496 5.06021 20.9188 5.61596C20.9856 5.67846 21.0472 5.74027 21.1165 5.81421C21.4126 6.12296 21.6839 6.45446 21.9281 6.80565C21.7034 7.51846 21.5681 8.2564 21.5255 9.00258C20.2727 8.46596 18.8309 8.36252 17.3767 8.73071L17.6229 9.69996C19.0077 9.34908 20.3714 9.49515 21.4998 10.0982V10.9607L21.2698 12.1114C20.2073 12.204 19.1373 12.1608 18.0858 11.9827L17.9139 12.968C18.673 13.0988 19.4419 13.1642 20.2122 13.1636C20.4974 13.1636 20.7819 13.1526 21.0651 13.1348L20.7347 14.7876C20.5313 15.805 21.191 16.7945 22.2083 16.998C22.4484 17.046 22.6956 17.0466 22.9359 16.9998C22.5428 17.7198 21.3167 19.9661 20.5941 21.2778C20.3579 21.7049 20.3096 22.2108 20.4608 22.6749C20.3731 22.7805 20.2886 22.887 20.1929 22.9915H20.1931Z" fill="#9A563A"/>
</svg>
