<svg width="31" height="30" viewBox="0 0 31 30" fill="none" xmlns="http://www.w3.org/2000/svg">
<g clip-path="url(#clip0_25_80)">
<path d="M8.47668 18.2813H7.53918V19.2188H8.47668V18.2813Z" fill="#9A563A"/>
<path d="M10.3517 18.2813H9.41418V19.2188H10.3517V18.2813Z" fill="#9A563A"/>
<path d="M8.00794 3.75009C8.00794 3.47196 7.92546 3.20007 7.77094 2.96882C7.61642 2.73756 7.39679 2.55732 7.13983 2.45088C6.88288 2.34445 6.60013 2.3166 6.32734 2.37086C6.05455 2.42512 5.80398 2.55905 5.60732 2.75572C5.41065 2.95239 5.27672 3.20296 5.22246 3.47574C5.1682 3.74853 5.19604 4.03128 5.30248 4.28824C5.40892 4.5452 5.58916 4.76482 5.82041 4.91934C6.05167 5.07386 6.32356 5.15634 6.60169 5.15634C6.63169 5.15634 6.66028 5.14931 6.68981 5.14743L7.90012 10.7963C7.83349 10.8118 7.77106 10.8417 7.71721 10.8839C7.66336 10.9261 7.61939 10.9796 7.5884 11.0406L5.7134 14.7906C5.68097 14.8556 5.66412 14.9274 5.66419 15.0001V28.5938C5.66419 28.7182 5.71357 28.8374 5.80148 28.9253C5.88939 29.0132 6.00862 29.0626 6.13294 29.0626H13.6329C13.7573 29.0626 13.8765 29.0132 13.9644 28.9253C14.0523 28.8374 14.1017 28.7182 14.1017 28.5938V15.0001C14.1018 14.9274 14.0849 14.8556 14.0525 14.7906L12.1775 11.0406C12.1473 10.9808 12.1046 10.9282 12.0524 10.8863C12.0001 10.8445 11.9395 10.8142 11.8747 10.7977L13.0704 5.61571C13.1023 5.61571 13.1323 5.62509 13.1642 5.62509C13.4933 5.62705 13.8127 5.51421 14.0676 5.30601C14.3225 5.09781 14.4968 4.80726 14.5605 4.4844C14.6242 4.16154 14.5734 3.82655 14.4168 3.53712C14.2602 3.24769 14.0075 3.02192 13.7024 2.89868C13.3972 2.77544 13.0587 2.76244 12.745 2.86192C12.4313 2.9614 12.1621 3.16713 11.9837 3.4437C11.8053 3.72027 11.729 4.05036 11.7678 4.37716C11.8066 4.70396 11.9581 5.00702 12.1962 5.23415L10.9142 10.7813H10.3517V3.66384C10.6644 3.55326 10.928 3.33568 11.0959 3.04955C11.2637 2.76342 11.325 2.42716 11.2689 2.10021C11.2128 1.77326 11.043 1.47667 10.7893 1.26285C10.5357 1.04903 10.2147 0.931763 9.88294 0.931763C9.55121 0.931763 9.23016 1.04903 8.97653 1.26285C8.72291 1.47667 8.55303 1.77326 8.49694 2.10021C8.44084 2.42716 8.50213 2.76342 8.66998 3.04955C8.83783 3.33568 9.10143 3.55326 9.41419 3.66384V10.7813H8.85544L7.56684 4.76774C7.70589 4.63717 7.81675 4.47953 7.89261 4.30452C7.96846 4.12951 8.00771 3.94083 8.00794 3.75009ZM13.1642 3.75009C13.2569 3.75009 13.3475 3.77758 13.4246 3.82909C13.5017 3.88059 13.5618 3.9538 13.5973 4.03945C13.6327 4.12511 13.642 4.21936 13.6239 4.31029C13.6058 4.40122 13.5612 4.48474 13.4956 4.55029C13.4301 4.61585 13.3466 4.66049 13.2556 4.67858C13.1647 4.69667 13.0705 4.68739 12.9848 4.65191C12.8991 4.61643 12.8259 4.55635 12.7744 4.47926C12.7229 4.40218 12.6954 4.31155 12.6954 4.21884C12.6954 4.09452 12.7448 3.97529 12.8327 3.88738C12.9206 3.79947 13.0399 3.75009 13.1642 3.75009ZM9.88294 1.87509C9.97565 1.87509 10.0663 1.90258 10.1434 1.95409C10.2204 2.00559 10.2805 2.0788 10.316 2.16446C10.3515 2.25011 10.3608 2.34436 10.3427 2.43529C10.3246 2.52622 10.2799 2.60974 10.2144 2.67529C10.1488 2.74085 10.0653 2.78549 9.97438 2.80358C9.88346 2.82167 9.78921 2.81239 9.70355 2.77691C9.6179 2.74143 9.54469 2.68135 9.49318 2.60426C9.44168 2.52718 9.41419 2.43655 9.41419 2.34384C9.41419 2.21952 9.46357 2.10029 9.55148 2.01238C9.63939 1.92447 9.75861 1.87509 9.88294 1.87509ZM13.1642 24.3751H11.2892V25.3126H13.1642V26.2501H6.60169V25.3126H10.3517V24.3751H6.60169V17.3438H13.1642V24.3751ZM6.60169 28.1251V27.1876H13.1642V28.1251H6.60169ZM12.8745 14.5313H11.7579V15.4688H13.1642V16.4063H6.60169V15.1107L7.36012 13.5938H8.94544V12.6563H7.82887L8.29762 11.7188H11.4682L12.8745 14.5313ZM6.13294 3.75009C6.13294 3.65738 6.16043 3.56675 6.21193 3.48966C6.26344 3.41258 6.33665 3.3525 6.4223 3.31702C6.50796 3.28154 6.60221 3.27226 6.69313 3.29034C6.78406 3.30843 6.86759 3.35308 6.93314 3.41863C6.9987 3.48419 7.04334 3.56771 7.06143 3.65864C7.07952 3.74957 7.07023 3.84382 7.03475 3.92947C6.99928 4.01512 6.93919 4.08833 6.86211 4.13984C6.78502 4.19135 6.6944 4.21884 6.60169 4.21884C6.47737 4.21884 6.35814 4.16945 6.27023 4.08154C6.18232 3.99364 6.13294 3.87441 6.13294 3.75009Z" fill="#9A563A"/>
<path d="M17.8582 25.3899L18.7826 25.2352C18.3635 22.7204 19.541 21.4744 19.5917 21.4229L19.2579 21.0938L18.9265 20.7624C18.8618 20.8266 17.3553 22.374 17.8582 25.3899Z" fill="#9A563A"/>
<path d="M23.9454 24.3751H23.0079V25.3126H23.9454V24.3751Z" fill="#9A563A"/>
<path d="M25.8378 19.3041C25.6076 18.6863 25.3897 18.1032 25.2584 17.6747C24.59 15.5007 24.4507 12.4116 24.4222 11.2501H24.8829C25.0073 11.2501 25.1265 11.2007 25.2144 11.1128C25.3023 11.0249 25.3517 10.9056 25.3517 10.7813V8.90631C25.3517 8.78199 25.3023 8.66276 25.2144 8.57485C25.1265 8.48695 25.0073 8.43756 24.8829 8.43756H24.0931L24.4095 6.1585C24.4187 6.09213 24.4137 6.02456 24.3946 5.96033C24.3755 5.8961 24.3429 5.8367 24.2989 5.78615C24.2549 5.7356 24.2006 5.69506 24.1396 5.66727C24.0787 5.63948 24.0124 5.62509 23.9454 5.62506H19.2579C19.1909 5.62509 19.1247 5.63948 19.0637 5.66727C19.0028 5.69506 18.9485 5.7356 18.9045 5.78615C18.8605 5.8367 18.8279 5.8961 18.8088 5.96033C18.7897 6.02456 18.7846 6.09213 18.7939 6.1585L19.1103 8.43756H18.3204C18.1961 8.43756 18.0769 8.48695 17.989 8.57485C17.9011 8.66276 17.8517 8.78199 17.8517 8.90631V10.7813C17.8517 10.9056 17.9011 11.0249 17.989 11.1128C18.0769 11.2007 18.1961 11.2501 18.3204 11.2501H18.7812C18.7526 12.4116 18.6134 15.5007 17.945 17.6747C17.8137 18.1032 17.5957 18.6863 17.3656 19.3041C16.7468 20.9626 15.9767 23.0269 15.9767 24.3751C15.9767 26.1915 16.7206 28.0313 17.8278 28.9538C17.912 29.024 18.0181 29.0625 18.1278 29.0626H25.0756C25.1852 29.0625 25.2914 29.024 25.3756 28.9538C26.4828 28.0313 27.2267 26.1915 27.2267 24.3751C27.2267 23.0269 26.4565 20.9626 25.8378 19.3041ZM19.5931 13.5938H23.6103C23.6609 14.1844 23.7307 14.8233 23.8268 15.4688H19.3765C19.4726 14.8233 19.5425 14.1844 19.5931 13.5938ZM18.8431 17.9504C18.9956 17.4427 19.1207 16.9273 19.2181 16.4063H23.9867C24.084 16.9273 24.2092 17.4427 24.3617 17.9504C24.4714 18.3066 24.6261 18.7346 24.8056 19.2188H18.3973C18.5768 18.7346 18.7315 18.3066 18.8412 17.9504H18.8431ZM19.7961 6.56256H23.4054L23.1486 8.43756H20.0548L19.7961 6.56256ZM18.7892 9.37506H24.4142V10.3126H18.7892V9.37506ZM23.4832 11.2501C23.4903 11.5829 23.5072 12.0746 23.5423 12.6563H19.6611C19.6962 12.0746 19.7131 11.5829 19.7201 11.2501H23.4832ZM18.049 20.1563H25.1543C25.7018 21.6362 26.2892 23.3222 26.2892 24.3751C26.2865 25.0117 26.186 25.644 25.9911 26.2501H17.2123C17.0174 25.644 16.9168 25.0117 16.9142 24.3751C16.9142 23.3222 17.5015 21.6362 18.049 20.1563ZM24.8979 28.1251H18.3054C18.0261 27.8507 17.7914 27.5344 17.6098 27.1876H25.5936C25.412 27.5344 25.1773 27.8507 24.8979 28.1251Z" fill="#9A563A"/>
</g>
<defs>
<clipPath id="clip0_25_80">
<rect width="30" height="30" fill="white" transform="translate(0.976685 6.10352e-05)"/>
</clipPath>
</defs>
</svg>
