<svg width="31" height="30" viewBox="0 0 31 30" fill="none" xmlns="http://www.w3.org/2000/svg">
<g clip-path="url(#clip0_25_70)">
<path d="M6.45404 13.0001C6.17792 13.0001 5.95404 13.2239 5.95404 13.5001V18.0001H5.45404C5.17792 18.0001 4.95404 18.2239 4.95404 18.5001V29.5001C4.95404 29.7762 5.17792 30.0001 5.45404 30.0001H10.454C10.7302 30.0001 10.954 29.7762 10.954 29.5001V18.5001C10.954 18.2239 10.7302 18.0001 10.454 18.0001H9.95404V13.5001C9.95404 13.2239 9.73016 13.0001 9.45404 13.0001H8.45404V10.0001H8.95404C9.23016 10.0001 9.45404 9.77618 9.45404 9.50006C9.45404 9.22394 9.23016 9.00006 8.95404 9.00006H8.45404V8.00006H9.45404C9.73016 8.00006 9.95404 7.77618 9.95404 7.50006C9.95404 7.22394 9.73016 7.00006 9.45404 7.00006H8.45404V6.00006H9.45404C9.73016 6.00006 9.95404 5.77618 9.95404 5.50006C9.95404 5.22394 9.73016 5.00006 9.45404 5.00006H8.45404V4.00006H9.45404C9.73016 4.00006 9.95404 3.77618 9.95404 3.50006C9.95404 3.22394 9.73016 3.00006 9.45404 3.00006H8.45404V2.00006H8.95404C9.23016 2.00006 9.45404 1.77618 9.45404 1.50006C9.45404 1.22394 9.23016 1.00006 8.95404 1.00006H8.45404V0.500061C8.45404 0.223938 8.23016 6.10352e-05 7.95404 6.10352e-05C7.67792 6.10352e-05 7.45404 0.223938 7.45404 0.500061V1.00006H6.95404C6.67792 1.00006 6.45404 1.22394 6.45404 1.50006C6.45404 1.77618 6.67792 2.00006 6.95404 2.00006H7.45404V3.00006H6.45404C6.17792 3.00006 5.95404 3.22394 5.95404 3.50006C5.95404 3.77618 6.17792 4.00006 6.45404 4.00006H7.45404V5.00006H6.45404C6.17792 5.00006 5.95404 5.22394 5.95404 5.50006C5.95404 5.77618 6.17792 6.00006 6.45404 6.00006H7.45404V7.00006H6.45404C6.17792 7.00006 5.95404 7.22394 5.95404 7.50006C5.95404 7.77618 6.17792 8.00006 6.45404 8.00006H7.45404V9.00006H6.95404C6.67792 9.00006 6.45404 9.22394 6.45404 9.50006C6.45404 9.77618 6.67792 10.0001 6.95404 10.0001H7.45404V13.0001H6.45404ZM9.95404 29.0001H5.95404V19.0001H9.95404V29.0001ZM8.95404 18.0001H6.95404V14.0001H8.95404V18.0001Z" fill="#9A563A"/>
<path d="M15.454 2.50006C14.6259 2.49908 13.955 1.82819 13.954 1.00006C13.954 0.723938 13.7302 0.500061 13.454 0.500061C13.1779 0.500061 12.954 0.723938 12.954 1.00006C12.9531 1.82819 12.2822 2.49908 11.454 2.50006C11.1779 2.50006 10.954 2.72394 10.954 3.00006C10.954 3.27618 11.1779 3.50006 11.454 3.50006C12.2822 3.50104 12.9531 4.17194 12.954 5.00006C12.954 5.27618 13.1779 5.50006 13.454 5.50006C13.7302 5.50006 13.954 5.27618 13.954 5.00006C13.955 4.17194 14.6259 3.50104 15.454 3.50006C15.7302 3.50006 15.954 3.27618 15.954 3.00006C15.954 2.72394 15.7302 2.50006 15.454 2.50006ZM13.454 3.50153C13.3112 3.31158 13.1425 3.14288 12.9526 3.00006C13.1425 2.85724 13.3112 2.68854 13.454 2.4986C13.5969 2.68854 13.7656 2.85724 13.9555 3.00006C13.7656 3.14288 13.5969 3.31158 13.454 3.50153Z" fill="#9A563A"/>
<path d="M13.454 16.0001C13.1779 16.0001 12.954 16.2239 12.954 16.5001V29.5001C12.954 29.7762 13.1779 30.0001 13.454 30.0001H18.454C18.7302 30.0001 18.954 29.7762 18.954 29.5001V16.5001C18.954 16.2239 18.7302 16.0001 18.454 16.0001H13.454ZM13.954 17.0001H17.954V19.0001H13.954V17.0001ZM13.954 29.0001V20.0001H17.954V29.0001H13.954Z" fill="#9A563A"/>
<path d="M16.6122 5.02571C16.4865 4.98347 16.3491 4.99324 16.2304 5.05257C16.1115 5.11189 16.0214 5.2159 15.9797 5.34187C15.7011 6.2408 15.9362 7.22029 16.5927 7.89485C13.5405 8.71321 12.5529 10.6798 12.5029 10.7847C12.4377 10.921 12.4377 11.0792 12.5029 11.2154C12.5661 11.348 14.1132 14.4615 19.454 14.4615C24.7949 14.4615 26.342 11.348 26.4052 11.2154C26.4704 11.0792 26.4704 10.921 26.4052 10.7847C26.353 10.6751 25.2805 8.53426 21.8984 7.79256C21.8635 7.70955 21.8063 7.63777 21.7331 7.58528C21.685 7.55257 20.5576 6.77058 20.9284 5.65828C21.0158 5.39632 20.8742 5.11311 20.6122 5.02571C20.3503 4.93831 20.0671 5.07991 19.9797 5.34187C19.7329 6.09944 19.8671 6.92976 20.3403 7.57088C20.1286 7.55623 19.9055 7.55061 19.6801 7.54671C19.4545 7.37605 18.5981 6.649 18.9284 5.65828C19.0158 5.39632 18.8742 5.11311 18.6122 5.02571C18.3503 4.93831 18.0671 5.07991 17.9797 5.34187C17.7309 6.10725 17.8701 6.94588 18.353 7.58968C18.1625 7.60652 17.9785 7.62776 17.7993 7.65266C17.7795 7.62801 17.7573 7.60555 17.7331 7.58528C17.685 7.55257 16.5576 6.77058 16.9284 5.65828C17.0158 5.39632 16.8742 5.11311 16.6122 5.02571ZM13.5336 11.0003C13.9426 10.3866 15.3891 8.70369 18.9435 8.5533C17.7849 8.79475 16.9543 9.81599 16.954 10.9996C16.9538 12.1834 17.7841 13.2049 18.9428 13.4466C15.3867 13.296 13.9409 11.6114 13.5336 11.0003ZM17.954 11.0001C17.954 10.1717 18.6257 9.50008 19.454 9.50008C20.2824 9.50008 20.954 10.1717 20.954 11.0001C20.954 11.8284 20.2824 12.5001 19.454 12.5001C18.6259 12.4991 17.955 11.8282 17.954 11.0001ZM25.3745 10.9998C24.9655 11.6134 23.519 13.296 19.9653 13.4466C21.1242 13.2049 21.9543 12.1832 21.954 10.9996C21.9538 9.81599 21.1232 8.79475 19.9645 8.5533C23.5214 8.70369 24.9672 10.3887 25.3745 10.9998Z" fill="#9A563A"/>
</g>
<defs>
<clipPath id="clip0_25_70">
<rect width="30" height="30" fill="white" transform="translate(0.704041 6.10352e-05)"/>
</clipPath>
</defs>
</svg>
