<svg width="31" height="30" viewBox="0 0 31 30" fill="none" xmlns="http://www.w3.org/2000/svg">
<path d="M6.58351 17.3823L5.64601 17.3049C5.63523 17.4282 5.41164 20.3387 7.05226 22.1176C7.47265 22.5599 7.98321 22.9067 8.54934 23.1344C9.11547 23.3622 9.72393 23.4656 10.3335 23.4376V22.5001C9.85466 22.5255 9.37592 22.4481 8.92946 22.2732C8.483 22.0982 8.07915 21.8297 7.74507 21.4857C6.38617 20.0129 6.57976 17.4085 6.58351 17.3823Z" fill="#9A563A"/>
<path d="M25.3335 15.4688H19.2397V16.4063H25.3335V15.4688Z" fill="#9A563A"/>
<path d="M18.3022 15.4688H17.3647V16.4063H18.3022V15.4688Z" fill="#9A563A"/>
<path d="M4.96537 13.5938H3.771V19.6876C3.77305 21.0972 4.30394 22.4548 5.25869 23.4919C6.21344 24.5291 7.52256 25.1702 8.92725 25.2887V28.1251H22.0522V25.2887C23.4569 25.1702 24.7661 24.5291 25.7208 23.4919C26.6756 22.4548 27.2064 21.0972 27.2085 19.6876V13.5938H22.7151L25.6476 10.6618C25.9597 10.4101 28.0729 8.70522 28.4774 8.30022C28.7799 8.01782 29.0212 7.67623 29.1861 7.29666C29.351 6.91709 29.4361 6.50766 29.4361 6.09381C29.4361 5.67996 29.351 5.27053 29.1861 4.89096C29.0212 4.5114 28.7799 4.1698 28.4774 3.8874C28.1954 3.58425 27.8539 3.34247 27.4743 3.17715C27.0947 3.01182 26.6851 2.9265 26.271 2.9265C25.8569 2.9265 25.4473 3.01182 25.0677 3.17715C24.6881 3.34247 24.3466 3.58425 24.0646 3.8874C23.6591 4.29287 21.9472 6.41444 21.7012 6.71959L14.8269 13.5938H12.8891C13.9629 12.9792 14.8554 12.0921 15.4766 11.0221C16.0979 9.95219 16.4258 8.73727 16.4272 7.50006V2.34381C16.4272 2.21949 16.3779 2.10026 16.29 2.01235C16.202 1.92445 16.0828 1.87506 15.9585 1.87506H15.021C13.4508 1.87783 11.9266 2.40567 10.691 3.37459C9.45533 4.34351 8.57924 5.69784 8.20209 7.22209C7.62437 6.04146 6.72728 5.04641 5.61263 4.34984C4.49798 3.65328 3.2104 3.2831 1.896 3.28131C1.77168 3.28131 1.65245 3.3307 1.56454 3.4186C1.47663 3.50651 1.42725 3.62574 1.42725 3.75006V7.50006C1.42873 8.73727 1.75664 9.95219 2.37787 11.0221C2.99909 12.0921 3.89164 12.9792 4.96537 13.5938ZM21.1147 27.1876H13.6147V26.2501H12.6772V27.1876H11.7397V26.2501H10.8022V27.1876H9.86475V25.3126H21.1147V27.1876ZM24.7274 4.55022C24.9245 4.33778 25.1633 4.16831 25.4289 4.05242C25.6945 3.93653 25.9812 3.87671 26.271 3.87671C26.5608 3.87671 26.8475 3.93653 27.1131 4.05242C27.3787 4.16831 27.6175 4.33778 27.8146 4.55022C28.0292 4.746 28.2007 4.98439 28.318 5.25017C28.4353 5.51596 28.4959 5.80329 28.4959 6.09381C28.4959 6.38433 28.4353 6.67166 28.318 6.93745C28.2007 7.20323 28.0292 7.44163 27.8146 7.6374C27.5394 7.91256 26.1641 9.03709 25.3668 9.68303L22.6818 6.99803C23.3277 6.20069 24.4522 4.82537 24.7274 4.55022ZM22.0522 7.69412L24.6707 10.3126L23.9272 11.056L21.3088 8.43756L22.0522 7.69412ZM20.646 9.10037L23.2644 11.7188L21.5835 13.3997L18.9651 10.7813L20.646 9.10037ZM18.3022 11.4441L20.4519 13.5938H16.1526L18.3022 11.4441ZM26.271 14.5313V19.6876C26.2696 20.9303 25.7753 22.1218 24.8966 23.0006C24.0178 23.8794 22.8263 24.3737 21.5835 24.3751H9.396C8.15321 24.3737 6.96172 23.8794 6.08294 23.0006C5.20416 22.1218 4.70986 20.9303 4.7085 19.6876V14.5313H26.271ZM8.92725 8.90631C8.92911 7.29072 9.57172 5.74183 10.7141 4.59943C11.8565 3.45704 13.4054 2.81442 15.021 2.81256H15.4897V7.50006C15.4879 9.11565 14.8453 10.6645 13.7029 11.8069C12.5605 12.9493 11.0116 13.592 9.396 13.5938H8.92725V13.3679C9.80615 12.728 13.1793 10.0397 13.6119 6.14537L12.6801 6.04225C12.3576 8.94334 10.1118 11.1779 8.92725 12.1702V8.90631ZM2.36475 4.23662C3.89458 4.35651 5.32307 5.04843 6.36555 6.17448C7.40803 7.30053 7.98795 8.77804 7.98975 10.3126V12.2682C6.47702 11.1324 5.32682 9.58156 4.67896 7.80428L3.80053 8.13241C4.57506 10.3032 6.04858 12.1553 7.98975 13.3979V13.576C6.45991 13.4561 5.03142 12.7642 3.98894 11.6381C2.94646 10.5121 2.36654 9.03458 2.36475 7.50006V4.23662Z" fill="#9A563A"/>
<path d="M26.8771 4.82509L25.9398 5.76245L26.6027 6.42536L27.54 5.488L26.8771 4.82509Z" fill="#9A563A"/>
<path d="M25.4709 6.23116L24.5335 7.16852L25.1964 7.83143L26.1338 6.89407L25.4709 6.23116Z" fill="#9A563A"/>
</svg>
