<svg width="64" height="65" viewBox="0 0 64 65" fill="none" xmlns="http://www.w3.org/2000/svg">
<g clip-path="url(#clip0_5_2)">
<path d="M54.6275 9.90803C48.5835 3.86403 40.5477 0.5354 32.0002 0.5354C23.4527 0.5354 15.4168 3.86403 9.37279 9.90803C3.32879 15.952 0.000162244 23.9878 0.000162244 32.5354C0.000162244 38.2772 1.55391 43.8989 4.50154 48.852L0.0964122 62.0675C-0.128213 62.7413 0.0471622 63.484 0.549412 63.9863C0.906787 64.3436 1.38591 64.5356 1.87541 64.5355C2.07366 64.5355 2.27379 64.504 2.46804 64.4393L15.6835 60.0341C20.6368 62.9816 26.2585 64.5354 32.0002 64.5354C40.5477 64.5354 48.5835 61.2068 54.6275 55.1629C60.6715 49.1188 64.0002 41.0829 64.0002 32.5354C64.0002 23.9878 60.6715 15.9519 54.6275 9.90803ZM32.0002 60.7854C26.6715 60.7854 21.4579 59.2672 16.9229 56.3949C16.6193 56.2027 16.2708 56.1039 15.9195 56.1039C15.7203 56.1039 15.5202 56.1356 15.3267 56.2001L4.83979 59.6959L8.33541 49.2089C8.51354 48.6747 8.44204 48.0885 8.14054 47.6127C5.26841 43.0778 3.75016 37.8642 3.75016 32.5354C3.75016 16.9583 16.4232 4.2854 32.0002 4.2854C47.5772 4.2854 60.2502 16.9583 60.2502 32.5354C60.2502 48.1125 47.5773 60.7854 32.0002 60.7854Z" fill="#9A563A"/>
<path d="M43.2502 20.6604H38.2502C35.8379 20.6604 33.8752 22.623 33.8752 25.0354V30.0354C33.8752 32.4478 35.8379 34.4104 38.2502 34.4104H43.6545C42.8055 37.9892 39.585 40.6604 35.7502 40.6604C34.7147 40.6604 33.8752 41.4999 33.8752 42.5354C33.8752 43.5709 34.7147 44.4104 35.7502 44.4104C42.2981 44.4104 47.6252 39.0833 47.6252 32.5354V25.0354C47.6252 22.623 45.6626 20.6604 43.2502 20.6604ZM37.6252 30.0354V25.0354C37.6252 24.6908 37.9056 24.4104 38.2502 24.4104H43.2502C43.5949 24.4104 43.8752 24.6908 43.8752 25.0354V30.6604H38.2502C37.9056 30.6604 37.6252 30.38 37.6252 30.0354Z" fill="#9A563A"/>
<path d="M25.7502 20.6604H20.7502C18.3379 20.6604 16.3752 22.623 16.3752 25.0354V30.0354C16.3752 32.4478 18.3379 34.4104 20.7502 34.4104H26.1545C25.3055 37.9892 22.085 40.6604 18.2502 40.6604C17.2147 40.6604 16.3752 41.4999 16.3752 42.5354C16.3752 43.5709 17.2147 44.4104 18.2502 44.4104C24.7981 44.4104 30.1252 39.0833 30.1252 32.5354V25.0354C30.1252 22.623 28.1626 20.6604 25.7502 20.6604ZM20.1252 30.0354V25.0354C20.1252 24.6908 20.4056 24.4104 20.7502 24.4104H25.7502C26.0949 24.4104 26.3752 24.6908 26.3752 25.0354V30.6604H20.7502C20.4056 30.6604 20.1252 30.38 20.1252 30.0354Z" fill="#9A563A"/>
</g>
<defs>
<clipPath id="clip0_5_2">
<rect width="64" height="64" fill="white" transform="translate(0.000244141 0.5354)"/>
</clipPath>
</defs>
</svg>
