<svg width="240" height="240" viewBox="0 0 240 240" fill="none" xmlns="http://www.w3.org/2000/svg">
<g clip-path="url(#clip0_25_131)">
<path d="M25.0186 196.793C22.0022 196.793 19.5445 199.25 19.5445 202.271C19.5445 205.291 22.0022 207.749 25.0186 207.749C28.0351 207.749 30.4928 205.291 30.4928 202.271C30.4928 199.25 28.0351 196.793 25.0186 196.793ZM25.0186 205.533C23.2213 205.533 21.756 204.068 21.756 202.271C21.756 200.473 23.2213 199.008 25.0186 199.008C26.816 199.008 28.2813 200.473 28.2813 202.271C28.2813 204.068 26.8121 205.533 25.0186 205.533Z" fill="#9A563A" fill-opacity="0.15"/>
<path d="M9.38932 204.607C6.37286 204.607 3.91515 207.065 3.91515 210.085C3.91515 213.106 6.37286 215.564 9.38932 215.564C12.4058 215.564 14.8635 213.106 14.8635 210.085C14.8635 207.065 12.4058 204.607 9.38932 204.607ZM9.38932 213.348C7.59194 213.348 6.1267 211.883 6.1267 210.085C6.1267 208.288 7.59194 206.823 9.38932 206.823C11.1867 206.823 12.6519 208.288 12.6519 210.085C12.6519 211.883 11.1828 213.348 9.38932 213.348Z" fill="#9A563A" fill-opacity="0.15"/>
<path d="M238.378 178.127C237.808 177.924 224.269 173.259 211.105 177.764H211.109C207.819 178.889 204.885 180.476 202.329 182.226C203.517 179.042 204.33 175.592 205.045 172.052C205.838 168.152 204.459 165.73 200.696 164.424C193.229 161.838 185.825 159.767 177.694 162.475C176.713 156.907 174.134 152.558 171.036 148.916C175.115 138.066 177.424 126.262 177.424 113.871C177.424 111.515 177.424 103.349 177.424 102.29C177.424 92.1506 159.884 84.5742 136.139 80.2879C137.054 78.3186 137.87 76.5838 138.538 75.2123C143.817 64.3499 148.998 60.3761 154.011 56.5352C158.059 53.4328 161.881 50.5062 165.272 44.4811C171.669 33.1108 169.5 23.4167 159.005 16.4421L158.759 16.3014C147.345 10.9484 137.937 14.1172 131.529 25.4954C128.184 31.4423 127.414 36.2249 126.601 41.2888C125.574 47.6851 124.515 54.2963 117.908 64.5296C115.993 67.4953 113.152 71.8715 109.761 77.0839C102.829 76.5877 95.7609 76.2985 88.712 76.2985C31.6806 76.2985 0.320401 90.1656 0.320401 102.767C0.320401 103.556 0 111.523 0 113.879C0 149.702 18.72 180.937 46.2628 197.031C43.2737 198.782 41.6678 200.778 41.6678 203.013C41.6678 211.422 64.5335 219.084 89.6381 219.084C103.306 219.084 116.239 216.794 125.246 213.368C125.945 215.001 127.219 216.58 128.637 217.185C135.119 219.952 143.426 222.3 151.253 216.798C155.07 222.026 157.571 225.203 160.4 226.133C160.599 226.199 160.802 226.231 161.005 226.231C161.209 226.231 161.412 226.199 161.611 226.133C164.444 225.199 166.945 222.022 170.762 216.798C178.585 222.292 186.892 219.948 193.382 217.185C194.628 216.654 195.867 215.884 196.722 213.633C202.048 218.959 209.492 220.819 209.851 220.905L211.308 221.245L211.535 219.764C211.594 219.381 212.883 210.336 207.636 203.197C206.385 201.493 204.889 200.11 203.338 198.938C204.111 198.977 204.893 199.012 205.705 199.012C209.589 199.012 213.887 198.516 218.142 197.058C231.33 192.546 238.785 180.675 239.097 180.175L240 178.71L238.378 178.127ZM234.045 179.815L223.191 183.516L225.39 178.663C228.86 178.815 231.892 179.327 234.045 179.815ZM223.46 178.628L220.889 184.305L213.883 186.696L217.158 179.151C219.318 178.792 221.44 178.624 223.46 178.628ZM212 180.386C213.071 180.019 214.145 179.741 215.22 179.499L211.981 186.962C211.926 187.087 211.965 187.216 211.969 187.341L204.537 189.877L208.077 182.066C209.327 181.441 210.621 180.859 212 180.386ZM205.479 183.496L202.271 190.572C202.259 190.6 202.279 190.623 202.267 190.65L194.577 193.272C194.628 193.206 194.683 193.143 194.737 193.077C196.554 191.678 198.047 190.068 199.266 188.275C201.036 186.642 203.091 184.973 205.479 183.496ZM199.426 168.09C201.341 168.754 201.646 169.289 201.243 171.278C199.266 181.015 196.062 189.892 186.403 193.35C178.315 192.01 170.657 189.123 164.213 184.883C163.889 184.668 163.448 184.379 163.268 184.102C163.162 183.938 163.112 183.703 163.104 183.371C163.08 181.285 164.827 179.261 166.773 177.201L176.369 167.038C184.168 163.584 191.995 165.515 199.426 168.09ZM174.345 165.913C174.353 166.003 174.337 165.976 174.326 165.933L174.345 165.913C174.302 165.808 174.314 165.882 174.326 165.933L165.233 175.564C163.397 177.506 160.888 180.159 160.927 183.406C160.939 184.215 161.123 184.872 161.474 185.415C161.838 185.981 162.357 186.368 162.908 186.735C167.718 192.698 169.148 199.555 166.675 204.904C164.049 203.072 161.967 201.04 160.744 199.106C160.693 199.028 160.501 198.672 159.802 198.664C159.017 198.657 158.907 199.028 158.86 199.106C157.641 201.04 155.555 203.072 152.929 204.904C150.479 199.606 151.733 193.3 156.426 187.388C156.942 187.06 157.497 186.782 157.997 186.438C158.556 186.052 159.138 185.622 159.536 184.985C159.876 184.43 160.044 183.781 160.048 183.004C160.087 179.788 157.696 177.131 155.945 175.193L147.667 166.008C147.685 165.949 147.696 165.869 147.642 165.983C147.642 165.981 147.642 165.983 147.642 165.98C148.322 157.762 153.113 151.511 159.779 145.622C160.224 145.228 160.634 144.923 161.002 144.712C161.373 144.923 161.783 145.228 162.232 145.622C168.902 151.519 173.665 157.696 174.345 165.913ZM120.772 171.282C120.365 169.293 120.678 168.758 122.593 168.093C130.028 165.519 137.558 163.518 145.349 166.98C145.446 167.023 145.349 166.98 145.45 167.007L154.261 176.779C156.121 178.839 157.79 180.867 157.762 182.984C157.758 183.324 157.704 183.57 157.602 183.742C157.446 183.996 157.083 184.258 156.719 184.508C150.467 188.814 143.016 191.737 135.155 193.042C125.503 189.584 122.749 181.015 120.772 171.282ZM128.539 193.94C116.653 200.759 103.114 204.69 88.7081 204.69C80.4558 204.69 72.481 203.396 64.932 201.032C70.2499 200.223 77.6738 198.817 85.7894 196.414C95.8859 193.425 108.448 188.369 119.052 180.316C120.815 185.813 123.526 190.635 128.539 193.94ZM139.773 123.651C145.15 122.608 150.061 121.401 154.515 120.084C156.7 125.257 157.915 130.86 158.012 136.925C158.044 138.706 157.927 140.504 157.762 142.309C157.579 142.457 157.403 142.555 157.215 142.723C151.765 147.533 145.923 153.386 144.321 162.475C141.32 161.478 138.421 161.138 135.58 161.224C141.141 150.393 142.543 137.8 139.773 123.651ZM147.642 165.983L147.665 166.009C147.65 166.049 147.637 166.071 147.642 165.983ZM168.019 145.716C166.952 144.673 165.874 143.669 164.803 142.723C163.682 141.735 162.631 141.09 161.599 140.758C161.216 140.633 160.798 140.633 160.415 140.758C160.161 140.84 159.908 140.996 159.65 141.117C159.755 139.707 159.806 138.3 159.782 136.905C159.677 130.669 158.411 124.914 156.188 119.588C163.85 117.2 169.875 114.454 173.478 111.484C173.501 112.305 173.513 113.102 173.513 113.879C173.513 125.089 171.512 135.792 168.019 145.716ZM173.513 102.29C173.513 110.664 151.12 119.787 116.524 123.089C120.92 113.653 125.265 104.111 129.032 95.8195C131.009 91.4707 132.849 87.4188 134.463 83.9139C158.642 88.1768 173.513 95.4757 173.513 102.29ZM85.9535 124.343C85.1603 124.335 84.3749 124.324 83.5895 124.308C86.5591 119.764 89.6264 115.067 92.6819 110.382C100.5 115.47 107.897 117.693 114.543 118.169C113.727 119.936 112.906 121.702 112.082 123.46C111.171 123.526 110.277 123.601 109.358 123.663C108.358 123.73 107.393 123.816 106.377 123.874C104.627 123.976 102.818 124.038 101.016 124.109C99.9105 124.152 98.8398 124.214 97.7145 124.249C95.0107 124.327 92.2404 124.363 89.4349 124.37C88.2353 124.363 87.071 124.355 85.9535 124.343ZM86.6763 128.258C80.4324 135.178 69.7341 141.75 51.5338 141.75C51.0727 141.75 50.6038 141.746 50.135 141.739C36.8891 141.496 27.1403 137.831 21.1621 130.849C17.4345 126.496 15.8208 121.545 15.1409 117.486C20.1931 119.443 26.3081 121.221 33.2201 122.737C45.6415 125.711 61.517 127.723 80.6981 128.168C82.683 128.223 84.6797 128.243 86.6763 128.258ZM93.6587 108.882C97.6247 102.806 101.544 96.7925 105.189 91.205C108.249 91.8536 111.273 92.2482 114.231 92.2482C117.22 92.2482 120.158 91.9161 123.034 91.2519C124.601 90.8885 126.058 90.4157 127.473 89.896C126.836 91.2988 126.183 92.7328 125.511 94.2136C122.409 101.032 118.924 108.706 115.337 116.462C108.01 116.04 100.762 113.524 93.6587 108.882ZM156.973 19.7477C165.651 25.5696 167.257 33.0404 161.889 42.5782C159.833 46.2316 157.61 48.5799 155.164 50.6586C149.788 49.2246 143.508 45.6103 138.562 37.1041C136.428 33.4351 135.315 30.0709 135.143 27.0192C140.488 17.8136 147.631 15.4106 156.973 19.7477ZM121.162 66.624C128.207 55.7069 129.383 48.3689 130.423 41.8945C131.087 37.7488 131.767 34.0407 133.74 29.7895C134.279 32.3684 135.346 35.0996 137.03 37.991C141.903 46.3762 148.041 50.2835 153.507 52.0184C152.902 52.495 152.288 52.9717 151.655 53.4563C146.533 57.3831 140.73 61.8336 135.053 73.5165C134.514 74.6262 133.885 75.9508 133.185 77.4473C129.501 76.529 123.984 74.3019 119.58 69.0778C120.15 68.1908 120.69 67.3546 121.162 66.624ZM118.564 70.6407C123.061 75.7476 128.571 78.0529 132.427 79.0727C131.282 81.5382 129.985 84.3789 128.563 87.4969C126.711 88.2979 124.777 89.0325 122.632 89.5287C117.38 90.74 111.898 90.7048 106.24 89.5952C111.117 82.1087 115.423 75.4858 118.564 70.6407ZM88.7081 80.198C95.2138 80.198 101.391 80.4325 107.33 80.8037C99.1602 93.354 88.4971 109.694 79.0101 124.222C34.83 122.823 4.81774 112.043 4.81774 102.29C4.81774 91.8419 39.2687 80.198 88.7081 80.198ZM3.90342 113.875C3.90342 113.098 3.91515 112.301 3.93859 111.48C6.16186 113.313 9.33071 115.055 13.1951 116.689C13.789 121.151 15.4457 126.891 19.7984 131.986C26.1205 139.382 36.3186 143.262 50.1037 143.512C50.5882 143.52 51.0649 143.524 51.5416 143.524C71.3635 143.524 82.6088 135.932 88.9504 128.286C91.0174 128.282 93.0883 128.254 95.1591 128.211C95.4834 128.204 95.8078 128.2 96.1321 128.192C98.199 128.141 100.258 128.067 102.313 127.973C102.622 127.957 102.927 127.946 103.236 127.93C105.361 127.825 107.479 127.703 109.581 127.555C109.605 127.555 109.624 127.551 109.648 127.551C111.84 127.395 114.012 127.215 116.165 127.012C116.231 127.004 116.302 127 116.368 126.992C118.369 126.801 120.346 126.59 122.307 126.359C122.686 126.316 123.057 126.269 123.433 126.222C123.522 126.211 123.612 126.199 123.702 126.187C121.139 137.87 114.915 147.095 105.049 153.554C79.3423 170.391 35.4512 164.913 16.528 161.478C8.53361 147.623 3.90342 131.318 3.90342 113.875ZM17.7276 163.483C26.7301 165.05 40.3901 166.894 55.0816 166.894C72.8483 166.894 92.0372 164.194 106.018 155.035C116.47 148.193 123.011 138.39 125.582 125.937C126.527 125.816 127.481 125.699 128.414 125.566C129.434 125.421 130.427 125.265 131.427 125.109C131.849 125.042 132.271 124.98 132.685 124.91C134.514 124.617 136.276 124.292 138.026 123.968C140.805 138.148 139.285 150.694 133.474 161.396C129.36 161.822 125.347 163.033 121.319 164.428C117.56 165.73 116.177 168.152 116.966 172.052C117.419 174.283 117.915 176.471 118.513 178.589C99.1915 193.511 71.8714 198.371 61.1927 199.758C43.2229 193.132 27.9687 180.226 17.7276 163.483ZM124.949 209.23C117.349 212.328 105.174 215.169 89.6381 215.169C62.6775 215.169 45.5751 206.616 45.5751 203.005C45.5751 202.326 47.7554 200.669 50.4671 199.325C62.0523 205.26 75.0247 208.593 88.712 208.593C103.048 208.593 116.56 204.877 128.547 198.399C126.668 201.454 125.523 205.049 124.949 209.23ZM191.862 213.61C183.074 217.638 176.924 217.095 171.637 212.563C171.227 212.211 170.684 212.047 170.149 212.11C169.609 212.172 169.125 212.457 168.805 212.895C165.421 217.549 162.881 221.042 161.005 222.159C159.134 221.042 156.594 217.549 153.21 212.895C152.89 212.457 152.405 212.172 151.866 212.11C151.788 212.102 151.718 212.098 151.64 212.098C151.179 212.098 150.733 212.262 150.378 212.567C145.095 217.095 139.046 217.404 130.153 213.618C129.559 213.364 128.539 211.84 128.551 211.234C129.184 204.6 131.423 199.247 135.51 195.539C135.584 195.472 135.569 195.484 135.584 195.468C141.281 194.476 147.177 192.448 152.163 189.889C148.944 195.769 148.631 201.943 151.546 207.034C151.694 207.296 151.952 207.487 152.249 207.557C152.335 207.577 152.425 207.589 152.511 207.589C152.726 207.589 152.937 207.526 153.12 207.409C155.91 205.608 158.2 203.56 159.798 201.521C161.396 203.56 163.686 205.608 166.476 207.409C166.659 207.526 166.874 207.589 167.085 207.589C167.171 207.589 167.261 207.577 167.347 207.557C167.644 207.487 167.902 207.296 168.05 207.034C171.086 201.724 170.641 195.246 167.023 189.142C172.868 192.323 179.409 194.57 186.282 195.683C190.373 199.391 192.827 204.604 193.46 211.223C193.475 211.836 193.139 213.024 191.862 213.61ZM205.404 204.822C208.745 209.378 209.015 215.024 208.913 217.74C206.221 216.849 200.661 214.552 197.199 210.089C196.605 204.936 195.089 200.739 192.6 197.215C193.561 197.48 194.886 197.805 196.496 198.11C199.387 199.403 202.966 201.501 205.404 204.822ZM217.244 194.425C208.71 197.352 199.782 196.046 195.101 194.972L234.725 181.457C231.787 185.133 225.738 191.518 217.244 194.425Z" fill="#9A563A" fill-opacity="0.15"/>
</g>
<defs>
<clipPath id="clip0_25_131">
<rect width="240" height="240" fill="white"/>
</clipPath>
</defs>
</svg>
