<svg width="230" height="230" viewBox="0 0 230 230" fill="none" xmlns="http://www.w3.org/2000/svg">
<g clip-path="url(#clip0_25_119)">
<path d="M148.385 122.778L148.815 120.777L146.784 120.53C146.231 120.459 133.054 118.963 122.945 126.17C117.226 130.25 113.827 136.163 111.93 140.633C112.379 137.607 112.51 133.788 111.418 129.873C109.084 121.498 102.18 116.232 101.888 116.008L99.9395 114.546L99.0269 116.805C98.8885 117.145 95.702 125.224 98.0321 133.598C100.366 141.972 107.27 147.238 107.566 147.462L109.424 148.857L109.421 148.88L109.462 148.884L109.514 148.925L109.525 148.891L111.452 149.123C111.62 149.142 112.959 149.295 115.027 149.295C119.747 149.295 128.263 148.495 135.295 143.479C145.401 136.272 148.269 123.327 148.385 122.778ZM107.749 142.608C105.763 140.603 102.887 137.091 101.634 132.595C100.388 128.118 101.039 123.612 101.701 120.863C103.683 122.867 106.56 126.379 107.816 130.875C109.062 135.352 108.411 139.859 107.749 142.608ZM136.507 137.424L129.464 135.651L134.487 132.061L139.719 133.377C138.803 134.768 137.733 136.134 136.507 137.424ZM143.65 125.508C143.007 127.277 142.053 129.528 140.681 131.87L136.293 130.766L143.65 125.508ZM114.548 144.235C116 140.188 119.149 133.474 125.118 129.218C131.024 125.003 138.343 124.195 142.674 124.124L114.548 144.235ZM115.652 145.532L120.555 142.024C120.574 142.032 120.577 142.05 120.596 142.054L126.794 143.614C122.627 145.061 118.502 145.476 115.652 145.532ZM133.118 140.438C131.94 141.28 130.694 141.942 129.438 142.533L122.339 140.749L127.815 136.833C127.916 136.923 127.994 137.035 128.136 137.072L135.097 138.823C134.468 139.384 133.825 139.933 133.118 140.438Z" fill="#9A563A" fill-opacity="0.15"/>
<path d="M229.276 93.2831C229.13 93.1709 227.803 92.1648 225.805 91.5813C215.195 88.4957 204.543 91.0614 197.972 98.2724C197.033 96.1405 195.948 94.0909 194.804 92.075V26.7502C194.804 15.8964 186.347 6.9987 175.681 6.25442C175.063 3.70366 172.774 1.7962 170.037 1.7962H77.626C74.9144 1.7962 72.6479 3.67 72.0046 6.18335H67.0078C55.6641 6.18335 46.4372 15.4102 46.4372 26.7315L45.6443 93.8927C41.6387 92.7071 37.3076 91.6524 32.6063 90.7809C31.9593 90.6687 31.3272 91.0353 31.114 91.6524C30.9008 92.2732 31.1701 92.9539 31.7498 93.2606C32.5427 93.6758 33.3057 94.061 34.035 94.4275C35.4712 95.1531 36.7803 95.8114 37.9472 96.5257C40.382 98.0143 42.454 99.6899 44.1932 101.47C41.1524 109.541 39.3871 118.226 39.3871 127.397V129.79C31.7835 135.917 29.2963 142.739 31.9443 150.148C14.8482 152.007 0 156.895 0 164.267C0 164.592 0 168.99 0 170.415C0 189.396 9.49614 205.991 23.6113 215.102C22.1115 216.131 21.3336 217.331 21.3336 218.689C21.3336 224.295 35.3141 228.204 47.8622 228.204C60.4103 228.204 74.3908 224.295 74.3908 218.689C74.3908 217.481 73.7475 216.408 72.5656 215.458C76.5077 212.989 80.0945 209.952 83.2287 206.425C90.7725 211.119 107.053 214.676 122.874 214.676C145.868 214.676 166.813 207.723 166.813 200.086C166.813 198.391 165.81 196.85 163.937 195.463C184.406 184.86 201.626 166.376 207.49 140.337C207.819 138.879 208.133 137.409 208.448 135.935C210.149 127.954 211.911 119.703 216.294 113.053C218.295 110.02 222.701 107.574 225.854 108.906C226.4 109.141 227.029 109.1 227.541 108.793C228.053 108.49 228.39 107.959 228.446 107.368C228.663 105.143 228.932 103.295 229.194 101.489C229.497 99.3981 229.792 97.3673 229.994 94.9138C230.043 94.2817 229.774 93.672 229.276 93.2831ZM75.5428 7.61582C75.5428 6.4676 76.4778 5.53257 77.626 5.53257H170.037C171.185 5.53257 172.12 6.4676 172.12 7.61582V10.4359C172.12 11.5841 171.185 12.5191 170.037 12.5191H77.626C76.4778 12.5191 75.5428 11.5841 75.5428 10.4359V7.61582ZM50.1773 26.7502C50.1773 17.471 57.7286 9.91972 67.0078 9.91972H71.8027V10.4359C71.8027 13.6449 74.4133 16.2592 77.626 16.2592H170.037C173.246 16.2592 175.86 13.6449 175.86 10.4359V10.0843C184.369 10.9146 191.067 18.0245 191.067 26.7502V86.1881C185.812 78.7378 179.14 72.2562 171.428 66.9564C171.836 66.2308 172.12 65.4753 172.12 64.6637C172.12 56.3121 149.399 52.5271 129.789 51.6107C128.005 48.2596 124.4 45.9333 120.196 45.9333C115.992 45.9333 112.379 48.2633 110.599 51.622C91.0343 52.557 68.4814 56.3457 68.4814 64.6637C68.4814 65.782 68.934 66.8106 69.6895 67.7718C61.4538 73.9205 54.542 81.5354 49.4293 90.2835L50.1773 26.7502ZM120.196 66.5338C126.146 66.5338 130.99 61.9147 130.99 56.2335C130.99 55.938 130.923 55.6575 130.896 55.3658C155.54 56.5552 168.38 61.724 168.38 64.66C168.38 67.9924 151.867 74.2085 120.301 74.2085C88.7341 74.2085 72.2215 67.9924 72.2215 64.66C72.2215 61.7315 84.9828 56.5776 109.495 55.3733C109.469 55.6613 109.406 55.9381 109.406 56.2298C109.402 61.9147 114.245 66.5338 120.196 66.5338ZM120.297 55.1152C122.672 55.1152 124.931 55.1601 127.138 55.2274C127.194 55.5566 127.246 55.8894 127.246 56.2335C127.246 59.8502 124.082 62.7937 120.192 62.7937C116.303 62.7937 113.142 59.8502 113.142 56.2335C113.142 55.8894 113.194 55.5603 113.251 55.2349C115.521 55.1638 117.847 55.1152 120.297 55.1152ZM115.412 51.4462C116.673 50.3578 118.345 49.6771 120.196 49.6771C122.044 49.6771 123.712 50.3541 124.972 51.4387C123.375 51.4013 121.808 51.3751 120.301 51.3751C118.726 51.3751 117.084 51.405 115.412 51.4462ZM46.9721 104.859C48.7898 107.57 49.8407 110.439 49.9492 113.323C50.1325 118.174 47.7911 122.785 43.1534 126.776C43.2245 119.075 44.612 111.748 46.9721 104.859ZM42.5961 130.583C49.3807 125.691 52.8403 119.688 52.5972 113.222C52.3541 106.688 48.1764 100.273 41.0552 95.385C54.744 98.968 75.1201 106.811 73.2089 121.472C72.7078 125.336 69.9214 128.507 64.4234 131.309C62.1868 132.446 59.8792 133.624 57.3658 134.615C44.7392 139.589 37.6928 145.529 35.9649 152.695C31.1963 144.47 33.3768 137.226 42.5961 130.583ZM33.575 153.693C33.9191 154.307 34.1958 154.913 34.6073 155.533C34.8578 155.911 35.1757 156.281 35.5011 156.644L35.8527 157.052C36.1108 157.362 36.4848 157.527 36.87 157.527C37.0196 157.527 37.173 157.501 37.3188 157.448C37.8424 157.261 38.194 156.764 38.1978 156.21C38.2052 155.219 38.3361 154.254 38.568 153.312C41.6686 153.121 44.9038 152.994 48.3596 152.994C75.7036 152.994 92.4892 159.487 92.4892 164.143C92.4892 164.876 92.0292 165.654 91.2213 166.447C87.7916 160.803 67.4155 157.766 48.0904 157.766C29.1355 157.766 9.16701 160.684 5.16883 166.122C4.56668 165.441 4.23007 164.775 4.23007 164.143C4.22633 160.399 15.1101 155.481 33.575 153.693ZM89.5532 167.767C86.2432 169.903 80.1917 171.994 71.9074 173.434C66.3683 174.354 59.9802 175.023 52.9749 175.229C51.4677 175.27 49.9342 175.296 48.3559 175.296C46.7776 175.296 45.2441 175.27 43.7369 175.229C36.7316 175.023 30.3435 174.354 24.8044 173.434C16.1124 171.926 9.9113 169.697 6.72098 167.453C8.606 164.091 23.9928 159.891 48.0866 159.891C72.9471 159.887 88.4985 164.356 89.5532 167.767ZM47.8585 224.464C34.6746 224.464 25.5524 220.413 25.055 218.782C25.055 218.779 25.2906 218.293 26.7156 217.608L26.2967 216.733C32.9205 220.409 40.4082 222.526 48.3559 222.526C55.7875 222.526 62.8077 220.656 69.106 217.414L69.0125 217.612C70.2617 218.214 70.5909 218.659 70.647 218.659C70.0785 220.451 60.9825 224.464 47.8585 224.464ZM48.3559 218.786C25.8591 218.786 7.24834 200.632 4.21511 177.14C4.54798 177.454 4.86588 177.772 5.25486 178.071C11.0969 182.582 24.3444 185.926 43.5499 185.926C53.4462 185.926 64.9171 185.039 77.7719 182.963L77.4353 180.869C40.2473 186.864 15.039 182.945 6.54894 176.392C5.23616 175.378 4.36097 174.313 3.86353 173.205C3.81865 172.364 3.73637 171.534 3.73263 170.681C10.0123 174.769 23.6562 177.899 39.4245 178.778C39.5629 178.786 39.705 178.793 39.8434 178.801C41.029 178.864 42.2259 178.913 43.4302 178.95C43.6957 178.958 43.9613 178.969 44.2268 178.976C45.592 179.01 46.9646 179.033 48.3522 179.033C49.7397 179.033 51.1124 179.01 52.4775 178.976C52.7431 178.969 53.0086 178.958 53.2741 178.95C54.4822 178.913 55.6753 178.864 56.8609 178.801C57.003 178.793 57.1414 178.786 57.2798 178.778C73.0481 177.899 86.692 174.769 92.9717 170.681C92.9679 171.537 92.8857 172.371 92.8408 173.213C91.8123 175.349 89.153 176.762 86.3143 177.955L87.1371 179.908C88.5359 179.321 90.7426 178.363 92.5341 176.863C89.6168 200.493 70.9387 218.786 48.3559 218.786ZM122.874 210.936C106.253 210.936 91.8609 207.091 85.6673 203.53C86.4564 202.498 87.1857 201.41 87.9001 200.314C98.0695 203.968 109.439 206.01 121.729 206.01C134.334 206.01 147.626 203.078 159.968 197.404C162.205 198.53 163.073 199.54 163.073 200.078C163.073 203.306 147.473 210.936 122.874 210.936ZM225.488 100.95C225.308 102.196 225.121 103.46 224.953 104.851C220.465 104.361 215.595 107.316 213.168 111C208.399 118.237 206.563 126.839 204.786 135.157C204.476 136.616 204.161 138.071 203.84 139.518C194.561 180.719 155.51 202.277 121.729 202.277C110.169 202.277 99.4683 200.389 89.8599 197.026C94.1835 189.224 96.7155 180.147 96.7155 170.419C96.7155 168.994 96.6482 167.592 96.5435 166.197C96.5136 165.778 96.5734 164.308 96.5734 163.982C96.5734 162.572 95.9862 161.271 95.0026 160.055C101.72 166.062 110.558 169.75 120.263 169.75C141.189 169.75 158.21 152.747 158.21 131.844C158.21 110.94 141.185 93.9376 120.263 93.9376C99.3374 93.9376 82.3124 110.94 82.3124 131.844C82.3124 142.058 86.3966 151.326 92.9979 158.152C85.3082 152.298 66.3159 149.258 48.3522 149.258C45.6443 149.258 42.9327 149.388 40.2286 149.534C43.0936 144.867 49.0329 140.749 58.3308 137.087C60.9638 136.051 63.3313 134.843 65.8895 133.542C71.87 130.493 75.2136 126.551 75.8308 121.824C77.2333 111.067 68.0962 101.762 50.8132 95.5795C55.9371 85.5822 63.4473 76.965 72.6666 70.2589C81.7925 75.8018 104.087 77.9636 120.293 77.9636C137.045 77.9636 160.335 75.6671 168.825 69.7017C180.737 77.7541 190.129 88.7276 195.38 101.769C193.857 104.182 192.418 107.032 191.004 109.822C188.045 115.668 184.346 122.908 181.298 122.232L180.46 125.878C186.403 127.228 190.248 119.595 194.34 111.512C196.393 107.451 198.518 103.25 200.672 100.861C206.263 94.6632 215.49 92.4864 224.751 95.1793C225.301 95.3401 225.783 95.5533 226.153 95.7441C225.974 97.6179 225.734 99.2635 225.488 100.95ZM86.0562 131.84C86.0562 113.001 101.406 97.674 120.267 97.674C139.128 97.674 154.474 113.001 154.474 131.84C154.474 150.679 139.128 166.006 120.267 166.006C101.406 166.006 86.0562 150.683 86.0562 131.84Z" fill="#9A563A" fill-opacity="0.15"/>
<path d="M114.603 186.112L121.961 195.748L123.643 194.463L116.285 184.828L114.603 186.112Z" fill="#9A563A" fill-opacity="0.15"/>
<path d="M123.567 185.957L130.926 195.594L132.608 194.309L125.25 184.672L123.567 185.957Z" fill="#9A563A" fill-opacity="0.15"/>
<path d="M131.646 184.855L139.004 194.49L140.686 193.206L133.328 183.57L131.646 184.855Z" fill="#9A563A" fill-opacity="0.15"/>
<path d="M139.58 183.616L146.142 192.204L147.824 190.919L141.262 182.331L139.58 183.616Z" fill="#9A563A" fill-opacity="0.15"/>
<path d="M147.099 183.623L152.114 190.189L153.796 188.904L148.781 182.338L147.099 183.623Z" fill="#9A563A" fill-opacity="0.15"/>
<path d="M79.4026 180.33L79.9823 182.369C81.7252 181.871 83.4755 181.303 85.1885 180.682L84.4667 178.688C82.8023 179.294 81.0968 179.848 79.4026 180.33Z" fill="#9A563A" fill-opacity="0.15"/>
</g>
<defs>
<clipPath id="clip0_25_119">
<rect width="230" height="230" fill="white"/>
</clipPath>
</defs>
</svg>
