<svg width="100" height="101" viewBox="0 0 100 101" fill="none" xmlns="http://www.w3.org/2000/svg">
<g clip-path="url(#clip0_24_9)">
<path d="M93.1221 50.5889C92.2869 49.9344 91.0791 50.0807 90.4243 50.9159C89.7695 51.7513 89.9158 52.9591 90.751 53.6139C93.56 55.8159 95.1017 58.7195 95.209 62.0111C95.3724 67.0149 92.1781 72.7098 86.2146 78.0468L67.1432 95.1141L58.1858 62.6092V55.9077C72.3673 55.9086 82.612 60.917 84.5111 68.9046C84.7566 69.9371 85.7924 70.5753 86.8253 70.3298C87.8579 70.0843 88.4957 69.0483 88.2504 68.0156C86.9785 62.6671 83.0496 58.365 76.8883 55.5747C72.0485 53.3828 65.9994 52.1871 59.2514 52.0732C61.3187 48.1275 65.1358 42.7519 69.6335 37.5305C75.8628 30.2992 82.2238 24.6613 87.0856 22.0627C88.0215 21.5623 88.3746 20.398 87.8745 19.4619C87.3741 18.5258 86.2101 18.1727 85.2737 18.6728C75.9166 23.6742 64.3227 36.764 58.1858 46.3341V42.24C61.9249 34.6504 67.6232 23.8767 74.5258 16.1804C81.2457 8.68807 87.9168 5.22834 94.8499 5.65495C92.8908 16.0675 92.1706 21.5003 95.2688 32.8622C96.1033 35.9218 94.8386 38.4485 93.6311 40.0298C91.0239 43.4434 86.2773 45.7372 81.82 45.7372H72.1864C71.1252 45.7372 70.2648 46.5976 70.2648 47.6589C70.2648 48.7201 71.1252 49.5805 72.1864 49.5805H81.82C87.5014 49.5805 93.3364 46.7475 96.6854 42.3627C99.1365 39.1538 99.9503 35.4207 98.9767 31.851C95.9167 20.6291 96.8223 15.8605 99.0108 4.34005C99.1074 3.83153 98.995 3.30547 98.6983 2.88102C98.4017 2.45657 97.9467 2.16976 97.436 2.08545C88.5173 0.612965 79.8469 4.49186 71.6647 13.6143C65.8329 20.1165 61.0047 28.3393 57.1753 35.7142C56.881 35.0734 56.5253 34.4587 56.1107 33.8786C56.784 32.8913 57.1592 31.7138 57.1592 30.4974C57.1592 29.0357 56.6346 27.6944 55.7638 26.6514L67.4308 3.317C67.9054 2.36769 67.5206 1.21349 66.5713 0.738835C65.6225 0.264422 64.4678 0.648756 63.9934 1.5983L52.4751 24.6353C52.0485 24.539 51.6051 24.4881 51.1496 24.4881H48.8504C48.3949 24.4881 47.9517 24.5388 47.5251 24.6353L36.0066 1.59806C35.532 0.648756 34.3778 0.264182 33.4285 0.738595C32.4794 1.21325 32.0943 2.36745 32.5692 3.31676L44.2364 26.6512C43.3659 27.6941 42.8411 29.0357 42.8411 30.4974C42.8411 31.7136 43.2165 32.8911 43.8896 33.8781C43.4745 34.4587 43.1185 35.0731 42.8242 35.7142C38.9946 28.3391 34.1664 20.116 28.3348 13.6138C20.1528 4.49138 11.4813 0.611764 2.56423 2.08521C2.05355 2.16952 1.59835 2.45633 1.30193 2.88078C1.00552 3.30523 0.892858 3.83129 0.989422 4.33981C3.17749 15.8617 4.08332 20.6308 1.02353 31.8507C0.0497243 35.42 0.863312 39.1531 3.31417 42.362C6.66292 46.747 12.4978 49.5803 18.1795 49.5803H27.8136C28.8748 49.5803 29.7352 48.7199 29.7352 47.6586C29.7352 46.5974 28.8748 45.737 27.8136 45.737H18.1793C13.7219 45.737 8.97589 43.4432 6.36818 40.0294C5.16089 38.4483 3.89667 35.9213 4.73116 32.8622C7.82914 21.5023 7.10899 16.0687 5.14984 5.65495C12.0854 5.22714 18.7546 8.68855 25.4737 16.1804C32.3761 23.8767 38.0743 34.6504 41.8134 42.2402V46.3341C35.6766 36.7637 24.0829 23.6735 14.7263 18.6728C13.7904 18.1727 12.6264 18.5258 12.1258 19.4619C11.6256 20.3978 11.9787 21.5623 12.9148 22.0627C17.7767 24.6613 24.1376 30.299 30.3665 37.5305C34.8642 42.7516 38.6809 48.1275 40.7481 52.0732C34.0011 52.1873 27.9514 53.3831 23.1122 55.5747C16.9511 58.3652 13.022 62.6671 11.7503 68.0156C11.5051 69.0483 12.143 70.0843 13.1755 70.3298C14.2072 70.5748 15.2439 69.9373 15.4896 68.9046C17.3887 60.9163 27.6313 55.9079 41.8137 55.9077V62.6092L32.857 95.1141L13.7861 78.0468C7.78253 72.674 4.58944 66.9462 4.79457 61.9186C4.93029 58.5891 6.53537 55.6677 9.43565 53.47C10.2814 52.8291 10.4479 51.6238 9.80678 50.7778C9.1659 49.932 7.96005 49.766 7.11475 50.4066C3.32377 53.279 1.13595 57.3117 0.954352 61.7618C0.775636 66.1449 2.4117 73.025 11.223 80.9105L32.6043 100.046C33.0999 100.489 33.789 100.644 34.428 100.457C35.066 100.27 35.5618 99.7655 35.7386 99.1242L43.3294 71.5763C44.6513 73.8518 46.7637 75.6514 49.3687 76.5575C49.7773 76.6997 50.2227 76.6997 50.6313 76.5575C53.2363 75.6514 55.3487 73.8515 56.6706 71.5763L64.2619 99.1242C64.4387 99.7653 64.9345 100.27 65.5725 100.457C65.751 100.51 65.9333 100.535 66.1144 100.535C66.5812 100.535 67.0392 100.365 67.3962 100.046L88.7779 80.9105C97.5258 73.0814 99.1927 66.2434 99.0509 61.8857C98.9068 57.4854 96.8014 53.4731 93.1221 50.5889ZM54.3425 65.9568C54.3425 68.8643 52.6228 71.485 49.9998 72.6752C47.3767 71.4847 45.657 68.8641 45.657 65.9568V40.3661C45.657 38.4099 46.4252 36.5629 47.8199 35.1654C48.2169 34.7676 48.4199 34.2158 48.3755 33.6556C48.3308 33.0952 48.0433 32.5826 47.5885 32.2526C47.0226 31.8421 46.6846 31.1858 46.6846 30.4974C46.6846 29.3031 47.6563 28.3312 48.8508 28.3312H51.1501C52.3447 28.3312 53.3163 29.3031 53.3163 30.4976C53.3163 31.1861 52.9786 31.8421 52.4127 32.2526C51.9577 32.5826 51.6702 33.0952 51.6257 33.6554C51.5813 34.2156 51.7838 34.7671 52.1809 35.1651C53.5753 36.5627 54.343 38.4099 54.343 40.3661V65.9568H54.3425ZM27.8924 80.3955C28.202 81.4107 27.6301 82.4846 26.6149 82.7943C26.4283 82.8512 26.2395 82.8783 26.0536 82.8783C25.2304 82.8783 24.4689 82.3451 24.2162 81.5168C22.6164 76.2716 23.6214 66.872 29.6701 62.8656C30.5556 62.2799 31.7472 62.5218 32.3336 63.4065C32.9195 64.2914 32.6776 65.4836 31.7926 66.0697C27.2116 69.104 26.8229 76.8897 27.8924 80.3955ZM72.1067 80.3953C73.1766 76.8899 72.7889 69.105 68.2074 66.0699C67.3224 65.4838 67.0805 64.2914 67.6667 63.4067C68.2525 62.5223 69.4447 62.2794 70.3299 62.866C76.3795 66.8734 77.3836 76.2728 75.7826 81.5175C75.5297 82.3458 74.7684 82.8788 73.9455 82.8788C73.7598 82.8788 73.5705 82.8517 73.3836 82.7945C72.3685 82.4844 71.7968 81.4104 72.1067 80.3953ZM73.9034 40.387C73.6697 39.3517 74.32 38.3231 75.3553 38.0897C78.9493 37.2792 84.187 35.0061 87.12 31.266C87.7753 30.4313 88.9831 30.2848 89.8178 30.9398C90.653 31.5949 90.799 32.8027 90.144 33.6379C86.5918 38.1673 80.612 40.8441 76.2006 41.8389C76.0584 41.8708 75.9159 41.8864 75.7761 41.8864C74.8974 41.8867 74.1047 41.2801 73.9034 40.387ZM24.6435 38.0897C25.6791 38.3231 26.3291 39.3517 26.0954 40.387C25.8941 41.2801 25.1009 41.8864 24.2227 41.8864C24.0824 41.8864 23.9404 41.871 23.798 41.8389C19.3868 40.8439 13.4073 38.167 9.8553 33.6379C9.20025 32.8027 9.34654 31.5949 10.1815 30.9398C11.0167 30.2846 12.2247 30.4313 12.8793 31.266C15.8127 35.0061 21.0498 37.2792 24.6435 38.0897Z" fill="#9A563A"/>
</g>
<defs>
<clipPath id="clip0_24_9">
<rect width="100" height="100" fill="white" transform="translate(0 0.5354)"/>
</clipPath>
</defs>
</svg>
