<svg width="40" height="40" viewBox="0 0 40 40" fill="none" xmlns="http://www.w3.org/2000/svg">
<path d="M18.9773 18.2891H16.6175V19.469H18.9773V18.2891Z" fill="black"/>
<path d="M18.9773 20.7277H16.6175V21.9076H18.9773V20.7277Z" fill="black"/>
<path d="M18.9773 23.1662H16.6175V24.3461H18.9773V23.1662Z" fill="black"/>
<path d="M30.4228 18.8004V36.3422C30.4228 37.7085 29.3113 38.8201 27.9449 38.8201H20.9439C19.7284 38.8201 18.7151 37.9399 18.5062 36.7836C19.1302 36.5098 19.5673 35.8862 19.5673 35.1623V34.5013C22.5516 33.7163 24.7591 30.9952 24.7591 27.768V19.0989C24.7591 17.5023 25.1365 15.9037 25.8503 14.4758L25.903 14.3706C26.6985 12.7796 27.1189 10.9984 27.1189 9.21969V2.35984V1.76984V0H25.9391V1.76992H24.613V0H23.4331V1.76992H22.1072V0H20.9273V1.76992H19.6013V0H18.4213V1.76992H17.0953V0H15.9154V1.76992H14.5894V0H13.4095V1.76992H12.0835V0H10.9036V1.76992H9.57734V0H8.39742V1.76992V2.35992V9.1432C8.39742 10.9747 8.8418 12.8028 9.6825 14.4302C10.4371 15.8907 10.8359 17.5316 10.8359 19.1755V27.768C10.8359 30.9952 13.0434 33.7163 16.0277 34.5013V35.1623C16.0277 35.9744 16.5777 36.66 17.3245 36.8674C17.5799 38.6363 19.1054 40 20.944 40H27.945C29.962 40 31.6028 38.3591 31.6028 36.3422V18.8004H30.4228ZM9.57719 2.94984H25.9391V3.97242H23.9725H11.5438H9.57719V2.94984ZM13.5261 12.4442C13.0012 11.4281 12.7238 10.2866 12.7238 9.14312V5.15242H22.7926V9.21969C22.7926 10.3303 22.53 11.4424 22.0336 12.4355L21.9813 12.5398C20.9682 14.5661 20.4327 16.8342 20.4327 19.0989V27.768C20.4327 29.221 19.2505 30.4032 17.7974 30.4032C16.3444 30.4032 15.1622 29.2211 15.1622 27.768V19.1755C15.1623 16.8437 14.5965 14.5161 13.5261 12.4442ZM16.9883 33.4919C16.909 33.4806 16.8297 33.4674 16.7505 33.453C16.7274 33.4487 16.7042 33.4451 16.6813 33.4406L16.6247 33.43C13.997 32.8864 12.0157 30.5543 12.0157 27.768V19.1755C12.0157 17.344 11.5713 15.5159 10.7306 13.8885C9.97602 12.428 9.57719 10.787 9.57719 9.1432V5.15242H11.5438V9.14312C11.5438 10.4742 11.8666 11.803 12.4778 12.9858C13.4621 14.8909 13.9823 17.0312 13.9823 19.1755V27.768C13.9823 29.8716 15.6938 31.5831 17.7975 31.5831C19.9012 31.5831 21.6127 29.8716 21.6127 27.768V19.0989C21.6127 17.0165 22.1051 14.9309 23.0366 13.0678L23.0888 12.9635C23.6671 11.8071 23.9726 10.5125 23.9726 9.21961V5.15242H25.9391V9.21969C25.9391 10.8163 25.5617 12.4149 24.8479 13.8428L24.7952 13.948C23.9997 15.539 23.5793 17.3202 23.5793 19.0989V27.768C23.5793 30.5543 21.598 32.8864 18.9704 33.4299L18.9138 33.4405C18.8908 33.445 18.8676 33.4487 18.8446 33.4529C18.7653 33.4673 18.6861 33.4806 18.6068 33.4918C18.5986 33.493 18.5904 33.4938 18.5822 33.4949C18.5008 33.5061 18.4195 33.5158 18.338 33.5235C18.3265 33.5246 18.3148 33.5252 18.3032 33.5262C18.2242 33.5332 18.1453 33.5391 18.0663 33.5427C18.0605 33.543 18.0548 33.5429 18.0491 33.5432C17.8814 33.5506 17.7138 33.5506 17.5462 33.5432C17.5405 33.543 17.5347 33.543 17.5289 33.5427C17.4499 33.5391 17.371 33.533 17.292 33.5262C17.2805 33.5252 17.2688 33.5246 17.2572 33.5235C17.1758 33.5158 17.0944 33.5061 17.013 33.4949C17.0048 33.4939 16.9965 33.493 16.9883 33.4919ZM18.3873 35.1623C18.3873 35.4876 18.1227 35.7523 17.7973 35.7523C17.472 35.7523 17.2073 35.4877 17.2073 35.1623V34.7044H17.2074C17.3025 34.7124 17.3981 34.7184 17.4942 34.7227C17.5016 34.723 17.5091 34.7232 17.5165 34.7235C17.6097 34.7272 17.7032 34.7297 17.7973 34.7297C17.8914 34.7297 17.9849 34.7273 18.0782 34.7235C18.0856 34.7232 18.093 34.723 18.1005 34.7227C18.1966 34.7185 18.2923 34.7124 18.3873 34.7044V35.1623Z" fill="black"/>
<path d="M31.6027 16.5192H30.4228V17.7778H31.6027V16.5192Z" fill="black"/>
</svg>
