<svg width="40" height="40" viewBox="0 0 40 40" fill="none" xmlns="http://www.w3.org/2000/svg">
<path d="M10 24.375H8.75V25.625H10V24.375Z" fill="black"/>
<path d="M12.5 24.375H11.25V25.625H12.5V24.375Z" fill="black"/>
<path d="M9.375 5.00002C9.375 4.62918 9.26503 4.26666 9.05901 3.95832C8.85298 3.64998 8.56014 3.40966 8.21753 3.26774C7.87492 3.12583 7.49792 3.0887 7.13421 3.16104C6.77049 3.23339 6.4364 3.41197 6.17418 3.67419C5.91195 3.93641 5.73338 4.27051 5.66103 4.63422C5.58868 4.99794 5.62581 5.37494 5.76773 5.71755C5.90964 6.06016 6.14996 6.35299 6.45831 6.55902C6.76665 6.76505 7.12916 6.87502 7.5 6.87502C7.54 6.87502 7.57813 6.86564 7.6175 6.86314L9.23125 14.395C9.14241 14.4157 9.05917 14.4555 8.98737 14.5118C8.91556 14.568 8.85695 14.6393 8.81563 14.7206L6.31563 19.7206C6.27238 19.8074 6.24991 19.9031 6.25 20V38.125C6.25 38.2908 6.31585 38.4497 6.43306 38.567C6.55027 38.6842 6.70924 38.75 6.875 38.75H16.875C17.0408 38.75 17.1997 38.6842 17.3169 38.567C17.4342 38.4497 17.5 38.2908 17.5 38.125V20C17.5001 19.9031 17.4776 19.8074 17.4344 19.7206L14.9344 14.7206C14.8941 14.641 14.8372 14.5709 14.7676 14.515C14.6979 14.4592 14.6171 14.4189 14.5306 14.3969L16.125 7.48752C16.1675 7.48752 16.2075 7.50002 16.25 7.50002C16.6888 7.50263 17.1148 7.35218 17.4546 7.07458C17.7944 6.79697 18.0268 6.40958 18.1118 5.9791C18.1967 5.54861 18.129 5.10197 17.9201 4.71606C17.7113 4.33015 17.3745 4.02913 16.9676 3.86481C16.5607 3.70048 16.1093 3.68315 15.691 3.81579C15.2728 3.94843 14.9138 4.22274 14.676 4.59149C14.4382 4.96025 14.3364 5.40038 14.3881 5.83612C14.4398 6.27185 14.6418 6.67592 14.9594 6.97877L13.25 14.375H12.5V4.88502C12.917 4.73758 13.2685 4.44747 13.4923 4.06597C13.7161 3.68446 13.7978 3.23612 13.723 2.80018C13.6482 2.36425 13.4217 1.96879 13.0835 1.6837C12.7454 1.39861 12.3173 1.24225 11.875 1.24225C11.4327 1.24225 11.0046 1.39861 10.6665 1.6837C10.3283 1.96879 10.1018 2.36425 10.027 2.80018C9.95221 3.23612 10.0339 3.68446 10.2577 4.06597C10.4815 4.44747 10.833 4.73758 11.25 4.88502V14.375H10.505L8.78688 6.35689C8.97227 6.18279 9.12009 5.97261 9.22123 5.73926C9.32237 5.50591 9.3747 5.25434 9.375 5.00002ZM16.25 5.00002C16.3736 5.00002 16.4945 5.03667 16.5972 5.10535C16.7 5.17402 16.7801 5.27163 16.8274 5.38584C16.8747 5.50004 16.8871 5.62571 16.863 5.74695C16.8389 5.86819 16.7794 5.97955 16.6919 6.06696C16.6045 6.15437 16.4932 6.21389 16.3719 6.23801C16.2507 6.26212 16.125 6.24975 16.0108 6.20244C15.8966 6.15514 15.799 6.07503 15.7303 5.97225C15.6617 5.86947 15.625 5.74863 15.625 5.62502C15.625 5.45926 15.6908 5.30028 15.8081 5.18307C15.9253 5.06586 16.0842 5.00002 16.25 5.00002ZM11.875 2.50002C11.9986 2.50002 12.1195 2.53667 12.2222 2.60535C12.325 2.67402 12.4051 2.77163 12.4524 2.88584C12.4997 3.00004 12.5121 3.12571 12.488 3.24695C12.4639 3.36819 12.4044 3.47955 12.3169 3.56696C12.2295 3.65436 12.1182 3.71389 11.9969 3.73801C11.8757 3.76212 11.75 3.74975 11.6358 3.70244C11.5216 3.65514 11.424 3.57503 11.3553 3.47225C11.2867 3.36947 11.25 3.24863 11.25 3.12502C11.25 2.95926 11.3158 2.80028 11.4331 2.68307C11.5503 2.56586 11.7092 2.50002 11.875 2.50002ZM16.25 32.5H13.75V33.75H16.25V35H7.5V33.75H12.5V32.5H7.5V23.125H16.25V32.5ZM7.5 37.5V36.25H16.25V37.5H7.5ZM15.8638 19.375H14.375V20.625H16.25V21.875H7.5V20.1475L8.51125 18.125H10.625V16.875H9.13625L9.76125 15.625H13.9888L15.8638 19.375ZM6.875 5.00002C6.875 4.8764 6.91166 4.75556 6.98033 4.65278C7.04901 4.55 7.14662 4.4699 7.26082 4.42259C7.37503 4.37529 7.50069 4.36291 7.62193 4.38702C7.74317 4.41114 7.85453 4.47067 7.94194 4.55807C8.02935 4.64548 8.08888 4.75685 8.11299 4.87808C8.13711 4.99932 8.12473 5.12499 8.07743 5.23919C8.03012 5.3534 7.95001 5.45101 7.84723 5.51968C7.74445 5.58836 7.62361 5.62502 7.5 5.62502C7.33424 5.62502 7.17527 5.55917 7.05806 5.44196C6.94085 5.32475 6.875 5.16578 6.875 5.00002Z" fill="black"/>
<path d="M22.5088 33.8531L23.7413 33.6469C23.1825 30.2937 24.7525 28.6325 24.82 28.5637L24.375 28.125L23.9331 27.6831C23.8469 27.7687 21.8381 29.8319 22.5088 33.8531Z" fill="black"/>
<path d="M30.625 32.5H29.375V33.75H30.625V32.5Z" fill="black"/>
<path d="M33.1481 25.7387C32.8412 24.915 32.5506 24.1375 32.3756 23.5663C31.4844 20.6675 31.2987 16.5487 31.2606 15H31.875C32.0408 15 32.1997 14.9342 32.3169 14.8169C32.4342 14.6997 32.5 14.5408 32.5 14.375V11.875C32.5 11.7092 32.4342 11.5503 32.3169 11.4331C32.1997 11.3158 32.0408 11.25 31.875 11.25H30.8219L31.2438 8.21125C31.2561 8.12276 31.2493 8.03266 31.2239 7.94702C31.1984 7.86138 31.1549 7.78219 31.0963 7.71479C31.0376 7.64738 30.9652 7.59333 30.8839 7.55628C30.8026 7.51923 30.7143 7.50004 30.625 7.5H24.375C24.2857 7.50004 24.1974 7.51923 24.1161 7.55628C24.0348 7.59333 23.9624 7.64738 23.9037 7.71479C23.8451 7.78219 23.8016 7.86138 23.7761 7.94702C23.7507 8.03266 23.7439 8.12276 23.7562 8.21125L24.1781 11.25H23.125C22.9592 11.25 22.8003 11.3158 22.6831 11.4331C22.5658 11.5503 22.5 11.7092 22.5 11.875V14.375C22.5 14.5408 22.5658 14.6997 22.6831 14.8169C22.8003 14.9342 22.9592 15 23.125 15H23.7394C23.7013 16.5487 23.5156 20.6675 22.6244 23.5663C22.4494 24.1375 22.1588 24.915 21.8519 25.7387C21.0269 27.95 20 30.7025 20 32.5C20 34.9219 20.9919 37.375 22.4681 38.605C22.5804 38.6986 22.7219 38.7499 22.8681 38.75H32.1319C32.2781 38.7499 32.4196 38.6986 32.5319 38.605C34.0081 37.375 35 34.9219 35 32.5C35 30.7025 33.9731 27.95 33.1481 25.7387ZM24.8219 18.125H30.1781C30.2456 18.9125 30.3388 19.7644 30.4669 20.625H24.5331C24.6612 19.7644 24.7544 18.9125 24.8219 18.125ZM23.8219 23.9337C24.0252 23.2569 24.1921 22.5697 24.3219 21.875H30.68C30.8098 22.5697 30.9767 23.2569 31.18 23.9337C31.3263 24.4087 31.5325 24.9794 31.7719 25.625H23.2275C23.4669 24.9794 23.6731 24.4087 23.8194 23.9337H23.8219ZM25.0925 8.75H29.905L29.5625 11.25H25.4375L25.0925 8.75ZM23.75 12.5H31.25V13.75H23.75V12.5ZM30.0087 15C30.0181 15.4437 30.0406 16.0994 30.0875 16.875H24.9125C24.9594 16.0994 24.9819 15.4437 24.9913 15H30.0087ZM22.7631 26.875H32.2369C32.9669 28.8481 33.75 31.0962 33.75 32.5C33.7465 33.3488 33.6124 34.192 33.3525 35H21.6475C21.3876 34.192 21.2535 33.3488 21.25 32.5C21.25 31.0962 22.0331 28.8481 22.7631 26.875ZM31.895 37.5H23.105C22.7325 37.1342 22.4196 36.7125 22.1775 36.25H32.8225C32.5804 36.7125 32.2675 37.1342 31.895 37.5Z" fill="black"/>
</svg>
