<svg width="40" height="40" viewBox="0 0 40 40" fill="none" xmlns="http://www.w3.org/2000/svg">
<g clip-path="url(#clip0_1_683)">
<path d="M16.5962 23.3163L16.4205 23.3865L16.9151 24.6244L17.0908 24.5538C18.8845 23.8366 21.1155 23.8363 22.9092 24.5538L23.0849 24.6241L23.5795 23.3862L23.4038 23.3162C21.2991 22.4738 18.7009 22.4741 16.5962 23.3163Z" fill="black"/>
<path d="M19.3336 13.3425H20.6664V20.6733H19.3336V13.3425Z" fill="black"/>
<path d="M38.6603 0.0136898V12.2436C38.6603 12.4584 38.6258 12.6717 38.5581 12.8755L35.3887 22.3833L30.4437 30.1232C30.2905 30.3652 30.0426 30.5315 29.7606 30.5814C29.1657 30.6742 28.6081 30.2672 28.5153 29.6723C28.4797 29.4436 28.5177 29.2095 28.624 29.0038C29.7832 26.899 31.9145 22.9918 31.9145 22.9918C31.9394 22.9463 31.959 22.898 31.9728 22.848L32.5119 20.8718L34.6308 14.211L33.3604 13.8068L31.2367 20.4826L31.2416 20.4841C31.2387 20.4934 31.2315 20.4999 31.2289 20.5091C31.059 21.1329 30.4156 21.5008 29.7918 21.3309C29.7486 21.3192 29.706 21.3048 29.6644 21.2882C29.1405 21.0785 28.8407 20.5253 28.951 19.972L29.984 14.8064C29.9924 14.7632 29.9966 14.7193 29.9966 14.6753V12.7232C29.989 9.88115 31.1185 7.15417 33.1335 5.14993C33.2585 5.02498 33.3288 4.85554 33.3288 4.67876V0.0136898H31.9959V4.40702C31.5342 4.89461 31.1139 5.41968 30.7392 5.97682C27.0585 0.0454296 19.2665 -1.7792 13.3351 1.90146C11.6813 2.92778 10.2867 4.32213 9.26026 5.97599C8.88572 5.41918 8.46553 4.89436 8.0041 4.40702V0.0136898H6.67123V4.67876C6.67123 4.85554 6.74154 5.02498 6.86649 5.14993C8.88155 7.15425 10.0111 9.8814 10.0034 12.7235V14.6753C10.0035 14.7192 10.0079 14.7631 10.0164 14.8061L11.0494 19.9717C11.16 20.5253 10.8601 21.0789 10.3361 21.2887C9.73551 21.5288 9.05408 21.2366 8.81399 20.6361C8.79742 20.5947 8.78325 20.5523 8.77151 20.5093C8.76893 20.4999 8.76176 20.4934 8.75885 20.4843L8.76368 20.4828L6.63999 13.8068L5.36959 14.211L7.48845 20.8718L8.02751 22.848C8.04134 22.898 8.06092 22.9463 8.08583 22.9918C8.08583 22.9918 10.2172 26.8988 11.3764 29.0038C11.6334 29.4698 11.5058 30.0432 11.0405 30.3926C10.8115 30.5641 10.5215 30.6326 10.24 30.5817C9.95794 30.5319 9.70994 30.3656 9.55691 30.1235L4.61193 22.3835L1.44251 12.876C1.37437 12.6721 1.33963 12.4585 1.33971 12.2436V0.0136898H0.0068363V12.2436C0.00666969 12.6017 0.0644833 12.9576 0.178028 13.2972L3.37352 22.8835C3.39076 22.9355 3.41434 22.9853 3.44383 23.0316L8.43296 30.8411C8.78759 31.394 9.35581 31.7751 10.0021 31.8931C10.1389 31.918 10.2777 31.9305 10.4167 31.9305C10.9433 31.9276 11.4547 31.753 11.8732 31.4333C11.8997 31.4135 11.9201 31.389 11.9456 31.3682C11.9936 31.4226 12.0379 31.4816 12.0867 31.5348C12.4708 31.9563 12.8885 32.3458 13.3356 32.6997V35.2282C13.3349 36.5522 13.1213 37.8675 12.703 39.1237C12.587 39.473 12.7762 39.8502 13.1256 39.9661C13.1933 39.9886 13.2642 40 13.3356 40H26.6644C27.0324 40.0001 27.3309 39.7018 27.3309 39.3337C27.3309 39.2623 27.3195 39.1914 27.297 39.1237C26.8787 37.8675 26.6651 36.5522 26.6644 35.2282V32.7002C27.1098 32.3477 27.526 31.9597 27.9088 31.54C27.9604 31.4836 28.006 31.4234 28.0564 31.3658C28.0923 31.3957 28.1221 31.4299 28.16 31.4584C29.2032 32.2411 30.6834 32.0299 31.4662 30.9867C31.5017 30.9395 31.5353 30.8909 31.5671 30.8411L36.5563 23.0316C36.5858 22.9853 36.6093 22.9355 36.6266 22.8835L39.8227 13.2969C39.9358 12.9573 39.9933 12.6016 39.9932 12.2436V0.0136898H38.6603ZM29.8093 7.61243C29.6367 7.40017 29.4568 7.20257 29.2755 7.00838L29.6058 6.67808C29.7292 6.87635 29.8461 7.07969 29.9582 7.28712C29.9042 7.39358 29.8601 7.50446 29.8093 7.61243ZM28.8287 5.57012L28.321 6.07828C27.8233 5.63993 27.2913 5.24232 26.7299 4.88919L27.4663 4.15286C27.9609 4.58463 28.4168 5.05888 28.8287 5.57012ZM14.4881 4.22225L13.5986 3.33281C14.2509 2.88204 14.949 2.50142 15.6812 2.19736L16.331 3.49608C15.6979 3.68743 15.0816 3.93027 14.4881 4.22225ZM17.6621 3.17678L16.9576 1.76892C17.7335 1.55483 18.53 1.42421 19.3336 1.37906V2.97351C18.7723 3.00325 18.2139 3.07114 17.6619 3.17678H17.6621ZM20.6664 1.36964C21.4723 1.41529 22.2709 1.54658 23.049 1.76118L22.3389 3.17736C21.7866 3.07181 21.2279 3.00367 20.6664 2.97359V1.36964ZM24.3195 2.19986C25.0533 2.50076 25.7531 2.87854 26.4072 3.32697L25.5117 4.22233C24.9185 3.93035 24.3024 3.68735 23.6696 3.49583L24.3195 2.19986ZM12.5425 4.16152L13.2701 4.88894C12.7083 5.24157 12.1763 5.63927 11.6789 6.07812L11.1782 5.57746C11.4308 5.25873 11.7006 4.95392 11.9862 4.66443C12.1648 4.48674 12.3549 4.3258 12.5425 4.16152ZM10.3932 6.67733L10.7246 7.00863C10.5428 7.20373 10.3624 7.40142 10.1908 7.61243C10.1403 7.50496 10.0963 7.39458 10.0426 7.28854C10.1544 7.08161 10.269 6.87651 10.3931 6.6775L10.3932 6.67733ZM25.773 38.6671H14.227C14.5197 37.5443 14.6681 36.3887 14.6685 35.2282V33.63C14.9957 33.8191 15.3327 33.9908 15.6779 34.1446C18.43 35.3675 21.5713 35.3675 24.3234 34.1446C24.6681 33.9909 25.0045 33.8194 25.3313 33.6306V35.2286C25.3318 36.3888 25.4802 37.5444 25.773 38.6671ZM26.9217 30.6449C26.0484 31.6189 24.9782 32.3965 23.782 32.9263C21.3735 33.9907 18.6281 33.9907 16.2195 32.9263C15.0209 32.3954 13.9487 31.6156 13.0741 30.639C12.9512 30.5051 12.8399 30.3647 12.7248 30.2266C12.9243 29.6062 12.8588 28.9311 12.5437 28.3606C11.5812 26.6122 9.94627 23.6181 9.42237 22.6585C10.7792 22.9232 12.0939 22.0379 12.3587 20.681C12.4213 20.3602 12.4205 20.0304 12.3563 19.71L11.9049 17.4524C12.4942 17.51 13.0872 17.5497 13.6827 17.5497C14.7216 17.5505 15.7588 17.4618 16.7825 17.2845L16.5534 15.9717C14.9264 16.2481 13.2677 16.2845 11.6301 16.08L11.3363 14.6093V13.4597C12.8408 12.6564 14.658 12.4616 16.5038 12.9287L16.8318 11.6368C14.8947 11.1453 12.9722 11.2837 11.3021 11.9992C11.2452 11.0047 11.0649 10.0212 10.7654 9.07118C11.098 8.59409 11.4673 8.14366 11.8699 7.72414C11.9058 7.68407 11.9461 7.64408 11.9871 7.60243C12.0216 7.56828 12.0548 7.5337 12.1219 7.47481C12.8788 6.73731 13.7375 6.11202 14.6717 5.61803C15.5454 5.14669 16.4795 4.79764 17.4481 4.58063C19.1294 4.18776 20.8787 4.18835 22.5597 4.5823C23.527 4.79972 24.4599 5.14902 25.3322 5.62036C26.2693 6.1166 27.1303 6.74464 27.889 7.48539C27.9781 7.56869 28.0602 7.65108 28.1526 7.74963C28.5472 8.16116 28.9089 8.603 29.2343 9.07109C28.9348 10.0212 28.7545 11.0048 28.6977 11.9993C27.0279 11.2841 25.1062 11.1462 23.1679 11.637L23.496 12.9289C25.3418 12.4612 27.1595 12.6559 28.6635 13.4597V14.6093L28.3568 16.143C26.9406 16.2665 25.5145 16.2088 24.1129 15.9715L23.8838 17.2848C24.8957 17.4591 25.9205 17.5463 26.9472 17.5454C27.3274 17.5454 27.7066 17.5308 28.0841 17.5071L27.6436 19.7101C27.3725 21.0661 28.2519 22.385 29.6078 22.6562C29.9278 22.7202 30.2572 22.721 30.5776 22.6586C30.0537 23.6183 28.4194 26.6124 27.4562 28.3608C27.1415 28.93 27.0771 29.6043 27.2785 30.2229C27.1616 30.3636 27.049 30.5055 26.9215 30.6449H26.9217Z" fill="black"/>
</g>
<defs>
<clipPath id="clip0_1_683">
<rect width="40" height="40" fill="white"/>
</clipPath>
</defs>
</svg>
