<svg width="40" height="40" viewBox="0 0 40 40" fill="none" xmlns="http://www.w3.org/2000/svg">
<path d="M32.5 18.75C31.7583 18.75 31.0333 18.9699 30.4166 19.382C29.7999 19.794 29.3193 20.3797 29.0355 21.0649C28.7516 21.7502 28.6774 22.5042 28.8221 23.2316C28.9668 23.959 29.3239 24.6272 29.8484 25.1517C30.3728 25.6761 31.041 26.0333 31.7684 26.1779C32.4958 26.3226 33.2498 26.2484 33.9351 25.9645C34.6203 25.6807 35.206 25.2001 35.618 24.5834C36.0301 23.9667 36.25 23.2417 36.25 22.5C36.249 21.5057 35.8536 20.5525 35.1506 19.8494C34.4475 19.1464 33.4943 18.751 32.5 18.75ZM32.5 25C32.0055 25 31.5222 24.8534 31.1111 24.5787C30.7 24.304 30.3795 23.9135 30.1903 23.4567C30.0011 22.9999 29.9516 22.4972 30.048 22.0123C30.1445 21.5273 30.3826 21.0819 30.7322 20.7322C31.0819 20.3826 31.5273 20.1445 32.0123 20.048C32.4972 19.9516 32.9999 20.0011 33.4567 20.1903C33.9135 20.3795 34.304 20.7 34.5787 21.1111C34.8534 21.5222 35 22.0055 35 22.5C35 23.163 34.7366 23.7989 34.2678 24.2678C33.7989 24.7366 33.163 25 32.5 25Z" fill="black"/>
<path d="M17.5 8.75C18.2417 8.75 18.9667 8.53007 19.5834 8.11801C20.2001 7.70596 20.6807 7.12029 20.9645 6.43506C21.2484 5.74984 21.3226 4.99584 21.1779 4.26841C21.0333 3.54098 20.6761 2.8728 20.1517 2.34835C19.6272 1.8239 18.959 1.46675 18.2316 1.32206C17.5042 1.17736 16.7502 1.25162 16.0649 1.53545C15.3797 1.81928 14.794 2.29993 14.382 2.91661C13.9699 3.5333 13.75 4.25832 13.75 5C13.751 5.99426 14.1464 6.94751 14.8494 7.65056C15.5525 8.3536 16.5057 8.74901 17.5 8.75ZM17.5 2.5C17.9945 2.5 18.4778 2.64662 18.8889 2.92133C19.3 3.19603 19.6205 3.58648 19.8097 4.04329C19.9989 4.50011 20.0484 5.00278 19.952 5.48773C19.8555 5.97268 19.6174 6.41814 19.2678 6.76777C18.9181 7.1174 18.4727 7.3555 17.9877 7.45197C17.5028 7.54843 17.0001 7.49892 16.5433 7.3097C16.0865 7.12048 15.696 6.80005 15.4213 6.38893C15.1466 5.9778 15 5.49446 15 5C15 4.33696 15.2634 3.70108 15.7322 3.23223C16.2011 2.76339 16.837 2.5 17.5 2.5Z" fill="black"/>
<path d="M38.125 27.5H28.0519L27.5 23.0825C27.4889 22.5926 27.2865 22.1266 26.936 21.7841C26.5856 21.4416 26.115 21.2499 25.625 21.25L14.3125 21.2531L1.8125 22.5031C1.65834 22.5186 1.51542 22.5908 1.41148 22.7057C1.30755 22.8206 1.25 22.9701 1.25 23.125V25.625C1.25 25.7908 1.31585 25.9497 1.43306 26.0669C1.55027 26.1842 1.70924 26.25 1.875 26.25H23.8256L23.9869 27.5H1.875C1.70924 27.5 1.55027 27.5658 1.43306 27.6831C1.31585 27.8003 1.25 27.9592 1.25 28.125V33.125C1.25 33.2908 1.31585 33.4497 1.43306 33.5669C1.55027 33.6842 1.70924 33.75 1.875 33.75H5V38.125C5 38.2908 5.06585 38.4497 5.18306 38.5669C5.30027 38.6842 5.45924 38.75 5.625 38.75H13.125C13.2908 38.75 13.4497 38.6842 13.5669 38.5669C13.6842 38.4497 13.75 38.2908 13.75 38.125V33.75H26.25V38.125C26.25 38.2908 26.3158 38.4497 26.4331 38.5669C26.5503 38.6842 26.7092 38.75 26.875 38.75H34.375C34.5408 38.75 34.6997 38.6842 34.8169 38.5669C34.9342 38.4497 35 38.2908 35 38.125V33.75H38.125C38.2908 33.75 38.4497 33.6842 38.5669 33.5669C38.6842 33.4497 38.75 33.2908 38.75 33.125V28.125C38.75 27.9592 38.6842 27.8003 38.5669 27.6831C38.4497 27.5658 38.2908 27.5 38.125 27.5ZM2.5 25V23.6875L14.375 22.5H25.625C25.7908 22.5 25.9497 22.5658 26.0669 22.6831C26.1842 22.8003 26.25 22.9592 26.25 23.125C26.2501 23.1509 26.2518 23.1768 26.255 23.2025L26.88 28.2025C26.8989 28.3536 26.9723 28.4927 27.0865 28.5935C27.2006 28.6943 27.3477 28.75 27.5 28.75H34.375C34.5408 28.75 34.6997 28.8158 34.8169 28.9331C34.9342 29.0503 35 29.2092 35 29.375C35 29.5408 34.9342 29.6997 34.8169 29.8169C34.6997 29.9342 34.5408 30 34.375 30H26.1188C25.9631 29.9999 25.8131 29.9417 25.6981 29.8369C25.5831 29.7321 25.5113 29.5881 25.4969 29.4331L24.9969 25.545C24.9774 25.394 24.9035 25.2553 24.7889 25.155C24.6744 25.0546 24.5273 24.9995 24.375 25H2.5ZM12.5 37.5H11.25V36.25H10V37.5H8.75V35.625H7.5V37.5H6.25V33.75H12.5V37.5ZM33.75 37.5H32.5V35.625H31.25V37.5H30V35H28.75V37.5H27.5V33.75H33.75V37.5ZM37.5 32.5H2.5V31.25H12.5V30H2.5V28.75H24.1481L24.2556 29.5819C24.3065 30.0404 24.5247 30.4641 24.8685 30.7719C25.2122 31.0797 25.6574 31.2499 26.1188 31.25H34.375C34.8723 31.25 35.3492 31.0525 35.7008 30.7008C36.0525 30.3492 36.25 29.8723 36.25 29.375C36.2479 29.1616 36.209 28.9502 36.135 28.75H37.5V32.5Z" fill="black"/>
<path d="M13.1525 11.0662L10.6525 19.1912C10.6237 19.2847 10.6173 19.3837 10.6338 19.4801C10.6502 19.5765 10.6891 19.6677 10.7472 19.7464C10.8053 19.8251 10.8811 19.889 10.9684 19.933C11.0557 19.9771 11.1522 20 11.25 20H17.5C17.6423 20.0001 17.7803 19.9517 17.8914 19.8627C18.0024 19.7737 18.0797 19.6495 18.1106 19.5106L19.0206 15.415L20.0894 17.1969C20.1596 17.314 20.2663 17.4049 20.3931 17.4556L24.9806 19.29C25.4132 19.4622 25.895 19.4639 26.3289 19.2949C26.7627 19.1259 27.1164 18.7987 27.3185 18.3793C27.5206 17.9598 27.5563 17.4793 27.4182 17.0347C27.2801 16.59 26.9786 16.2143 26.5744 15.9831C26.55 15.9693 26.5248 15.9572 26.4987 15.9469L22.9375 14.5C20.345 10 19.6912 10 19.375 10H14.375C14.0866 10.0312 13.8147 10.1502 13.5961 10.3409C13.3774 10.5315 13.2226 10.7847 13.1525 11.0662ZM14.4556 11.25H19.245C20.281 12.5113 21.1896 13.8721 21.9575 15.3125C22.0269 15.4342 22.1352 15.5291 22.265 15.5819L25.9831 17.0887C26.0658 17.1432 26.1336 17.2174 26.1802 17.3048C26.2268 17.3921 26.2508 17.4897 26.25 17.5888C26.2499 17.6847 26.2263 17.7792 26.1813 17.8639C26.1363 17.9487 26.0712 18.0211 25.9917 18.0749C25.9122 18.1286 25.8208 18.1621 25.7254 18.1724C25.6299 18.1826 25.5335 18.1694 25.4444 18.1337L21.0531 16.375L19.2856 13.4306C19.2212 13.3234 19.1261 13.2379 19.0126 13.1853C18.8991 13.1327 18.7724 13.1154 18.6489 13.1355C18.5254 13.1557 18.4108 13.2125 18.32 13.2986C18.2292 13.3846 18.1662 13.4959 18.1394 13.6181L17 18.75H12.0962L14.3506 11.4219C14.3733 11.3579 14.4091 11.2994 14.4556 11.25Z" fill="black"/>
<path d="M15 30H13.75V31.25H15V30Z" fill="black"/>
<path d="M22.5 30H16.25V31.25H22.5V30Z" fill="black"/>
</svg>
