<svg width="51" height="51" viewBox="0 0 51 51" fill="none" xmlns="http://www.w3.org/2000/svg">
<path d="M13.324 31.0042H11.7615V32.5667H13.324V31.0042Z" fill="#9A563A"/>
<path d="M16.449 31.0042H14.8865V32.5667H16.449V31.0042Z" fill="#9A563A"/>
<path d="M12.5427 6.7854C12.5427 6.32185 12.4053 5.86871 12.1477 5.48329C11.8902 5.09786 11.5242 4.79745 11.0959 4.62006C10.6676 4.44267 10.1964 4.39626 9.74173 4.48669C9.28709 4.57712 8.86947 4.80034 8.54169 5.12812C8.21391 5.4559 7.99069 5.87352 7.90026 6.32816C7.80983 6.7828 7.85624 7.25405 8.03363 7.68232C8.21103 8.11058 8.51143 8.47663 8.89686 8.73416C9.28229 8.9917 9.73543 9.12915 10.199 9.12915C10.249 9.12915 10.2966 9.11744 10.3459 9.11431L12.363 18.5292C12.252 18.555 12.1479 18.6048 12.0582 18.6751C11.9684 18.7454 11.8952 18.8345 11.8435 18.9362L8.71851 25.1862C8.66445 25.2947 8.63636 25.4142 8.63648 25.5354V48.1917C8.63648 48.3989 8.71879 48.5976 8.8653 48.7441C9.01181 48.8906 9.21053 48.9729 9.41773 48.9729H21.9177C22.1249 48.9729 22.3236 48.8906 22.4702 48.7441C22.6167 48.5976 22.699 48.3989 22.699 48.1917V25.5354C22.6991 25.4142 22.671 25.2947 22.6169 25.1862L19.4919 18.9362C19.4416 18.8366 19.3705 18.749 19.2835 18.6792C19.1964 18.6093 19.0954 18.559 18.9873 18.5315L20.9802 9.89478C21.0334 9.89478 21.0834 9.9104 21.1365 9.9104C21.685 9.91367 22.2174 9.72561 22.6422 9.37861C23.067 9.0316 23.3575 8.54736 23.4637 8.00926C23.5699 7.47115 23.4852 6.91285 23.2241 6.43046C22.9631 5.94808 22.542 5.57179 22.0335 5.36639C21.5249 5.16099 20.9606 5.13932 20.4378 5.30512C19.915 5.47092 19.4663 5.81381 19.169 6.27475C18.8717 6.7357 18.7445 7.28587 18.8091 7.83053C18.8738 8.3752 19.1263 8.88029 19.5232 9.25884L17.3865 18.5042H16.449V6.64165C16.9702 6.45736 17.4096 6.09473 17.6893 5.61784C17.9691 5.14096 18.0712 4.58053 17.9777 4.03561C17.8842 3.49069 17.6011 2.99637 17.1784 2.64001C16.7557 2.28365 16.2206 2.0882 15.6677 2.0882C15.1148 2.0882 14.5798 2.28365 14.1571 2.64001C13.7343 2.99637 13.4512 3.49069 13.3577 4.03561C13.2642 4.58053 13.3664 5.14096 13.6461 5.61784C13.9259 6.09473 14.3652 6.45736 14.8865 6.64165V18.5042H13.9552L11.8076 8.4815C12.0393 8.26388 12.2241 8.00114 12.3505 7.70946C12.4769 7.41778 12.5424 7.10331 12.5427 6.7854ZM21.1365 6.7854C21.291 6.7854 21.442 6.83122 21.5705 6.91707C21.699 7.00291 21.7991 7.12493 21.8583 7.26768C21.9174 7.41044 21.9329 7.56752 21.9027 7.71907C21.8726 7.87062 21.7982 8.00982 21.6889 8.11908C21.5796 8.22834 21.4404 8.30275 21.2889 8.33289C21.1373 8.36304 20.9803 8.34757 20.8375 8.28844C20.6948 8.2293 20.5727 8.12917 20.4869 8.00069C20.401 7.87222 20.3552 7.72117 20.3552 7.56665C20.3552 7.35945 20.4375 7.16074 20.584 7.01423C20.7306 6.86771 20.9293 6.7854 21.1365 6.7854ZM15.6677 3.6604C15.8222 3.6604 15.9733 3.70622 16.1018 3.79207C16.2302 3.87791 16.3304 3.99993 16.3895 4.14268C16.4486 4.28544 16.4641 4.44252 16.434 4.59407C16.4038 4.74562 16.3294 4.88482 16.2202 4.99408C16.1109 5.10334 15.9717 5.17775 15.8201 5.20789C15.6686 5.23804 15.5115 5.22257 15.3688 5.16344C15.226 5.1043 15.104 5.00417 15.0181 4.87569C14.9323 4.74722 14.8865 4.59617 14.8865 4.44165C14.8865 4.23445 14.9688 4.03574 15.1153 3.88923C15.2618 3.74271 15.4605 3.6604 15.6677 3.6604ZM21.1365 41.1604H18.0115V42.7229H21.1365V44.2854H10.199V42.7229H16.449V41.1604H10.199V29.4417H21.1365V41.1604ZM10.199 47.4104V45.8479H21.1365V47.4104H10.199ZM20.6537 24.7542H18.7927V26.3167H21.1365V27.8792H10.199V25.7198L11.463 23.1917H14.1052V21.6292H12.2443L13.0255 20.0667H18.3099L20.6537 24.7542ZM9.41773 6.7854C9.41773 6.63089 9.46355 6.47984 9.54939 6.35137C9.63524 6.22289 9.75725 6.12275 9.9 6.06362C10.0428 6.00449 10.1998 5.98902 10.3514 6.01917C10.5029 6.04931 10.6421 6.12372 10.7514 6.23298C10.8607 6.34224 10.9351 6.48144 10.9652 6.63299C10.9954 6.78454 10.9799 6.94162 10.9208 7.08438C10.8616 7.22713 10.7615 7.34915 10.633 7.43499C10.5045 7.52084 10.3535 7.56665 10.199 7.56665C9.99178 7.56665 9.79306 7.48434 9.64655 7.33783C9.50004 7.19132 9.41773 6.99261 9.41773 6.7854Z" fill="#9A563A"/>
<path d="M28.9599 42.8518L30.5005 42.594C29.8021 38.4026 31.7646 36.326 31.849 36.2401L31.2927 35.6916L30.7404 35.1393C30.6326 35.2463 28.1216 37.8252 28.9599 42.8518Z" fill="#9A563A"/>
<path d="M39.1052 41.1604H37.5427V42.7229H39.1052V41.1604Z" fill="#9A563A"/>
<path d="M42.2591 32.7088C41.8755 31.6791 41.5123 30.7073 41.2935 29.9932C40.1794 26.3698 39.9474 21.2213 39.8998 19.2854H40.6677C40.8749 19.2854 41.0736 19.2031 41.2202 19.0566C41.3667 18.9101 41.449 18.7114 41.449 18.5042V15.3792C41.449 15.172 41.3667 14.9732 41.2202 14.8267C41.0736 14.6802 40.8749 14.5979 40.6677 14.5979H39.3513L39.8787 10.7995C39.8941 10.6889 39.8856 10.5762 39.8538 10.4692C39.822 10.3621 39.7676 10.2631 39.6943 10.1789C39.621 10.0946 39.5305 10.0271 39.4289 9.98075C39.3273 9.93444 39.2169 9.91045 39.1052 9.9104H31.2927C31.181 9.91045 31.0707 9.93444 30.9691 9.98075C30.8674 10.0271 30.7769 10.0946 30.7036 10.1789C30.6303 10.2631 30.576 10.3621 30.5442 10.4692C30.5124 10.5762 30.5039 10.6889 30.5193 10.7995L31.0466 14.5979H29.7302C29.523 14.5979 29.3243 14.6802 29.1778 14.8267C29.0313 14.9732 28.949 15.172 28.949 15.3792V18.5042C28.949 18.7114 29.0313 18.9101 29.1778 19.0566C29.3243 19.2031 29.523 19.2854 29.7302 19.2854H30.4982C30.4505 21.2213 30.2185 26.3698 29.1044 29.9932C28.8857 30.7073 28.5224 31.6791 28.1388 32.7088C27.1076 35.4729 25.824 38.9135 25.824 41.1604C25.824 44.1877 27.0638 47.2542 28.9091 48.7917C29.0495 48.9087 29.2264 48.9728 29.4091 48.9729H40.9888C41.1716 48.9728 41.3485 48.9087 41.4888 48.7917C43.3341 47.2542 44.574 44.1877 44.574 41.1604C44.574 38.9135 43.2904 35.4729 42.2591 32.7088ZM31.8513 23.1917H38.5466C38.631 24.176 38.7474 25.2409 38.9076 26.3167H31.4904C31.6505 25.2409 31.7669 24.176 31.8513 23.1917ZM30.6013 30.4526C30.8554 29.6065 31.0641 28.7475 31.2263 27.8792H39.174C39.3362 28.7475 39.5449 29.6065 39.799 30.4526C39.9818 31.0463 40.2396 31.7596 40.5388 32.5667H29.8584C30.1576 31.7596 30.4154 31.0463 30.5982 30.4526H30.6013ZM32.1896 11.4729H38.2052L37.7771 14.5979H32.6209L32.1896 11.4729ZM30.5115 16.1604H39.8865V17.7229H30.5115V16.1604ZM38.3349 19.2854C38.3466 19.8401 38.3748 20.6596 38.4333 21.6292H31.9646C32.0232 20.6596 32.0513 19.8401 32.063 19.2854H38.3349ZM29.2779 34.1292H41.1201C42.0326 36.5956 43.0115 39.4057 43.0115 41.1604C43.0071 42.2214 42.8395 43.2754 42.5146 44.2854H27.8834C27.5585 43.2754 27.3909 42.2214 27.3865 41.1604C27.3865 39.4057 28.3654 36.5956 29.2779 34.1292ZM40.6927 47.4104H29.7052C29.2397 46.9532 28.8485 46.426 28.5459 45.8479H41.8521C41.5495 46.426 41.1583 46.9532 40.6927 47.4104Z" fill="#9A563A"/>
</svg>
