<svg width="51" height="51" viewBox="0 0 51 51" fill="none" xmlns="http://www.w3.org/2000/svg">
<g clip-path="url(#clip0_3_30)">
<path d="M2.52669 12.2021C3.9069 12.2037 5.02507 13.3219 5.02669 14.7021C5.02669 15.1623 5.39982 15.5354 5.86003 15.5354C6.32023 15.5354 6.69336 15.1623 6.69336 14.7021C6.69499 13.3219 7.81315 12.2037 9.19336 12.2021C9.65356 12.2021 10.0267 11.829 10.0267 11.3688C10.0267 10.9085 9.65356 10.5354 9.19336 10.5354C7.81315 10.5338 6.69499 9.41563 6.69336 8.03542C6.69336 7.57522 6.32023 7.20209 5.86003 7.20209C5.39982 7.20209 5.02669 7.57522 5.02669 8.03542C5.02507 9.41563 3.9069 10.5338 2.52669 10.5354C2.06649 10.5354 1.69336 10.9085 1.69336 11.3688C1.69336 11.829 2.06649 12.2021 2.52669 12.2021ZM5.86003 10.533C6.09806 10.8495 6.37923 11.1307 6.6958 11.3688C6.37923 11.6068 6.09806 11.888 5.86003 12.2045C5.62199 11.888 5.34082 11.6068 5.02425 11.3688C5.34082 11.1307 5.62199 10.8495 5.86003 10.533Z" fill="#9A563A"/>
<path d="M25.86 14.702C25.86 14.2418 25.4869 13.8687 25.0267 13.8687H13.36C10.4637 13.874 8.00887 16.0021 7.59342 18.8687H6.69336C4.85335 18.8707 3.36206 20.362 3.36003 22.202C3.36328 22.7888 3.5236 23.3642 3.82349 23.8687H2.52669C2.06649 23.8687 1.69336 24.2418 1.69336 24.702V44.702C1.69702 47.9223 4.30648 50.5317 7.52669 50.5354H40.86C44.0802 50.5317 46.6897 47.9223 46.6934 44.702V40.5354C46.6934 40.0752 46.3202 39.702 45.86 39.702H31.6934V24.702C31.6934 24.2418 31.3202 23.8687 30.86 23.8687H29.5632C29.8631 23.3642 30.0234 22.7888 30.0267 22.202C30.0247 20.362 28.5334 18.8707 26.6934 18.8687H24.1014C25.2261 17.7741 25.86 16.2715 25.86 14.702ZM40.86 48.8687H22.5267C20.2265 48.8659 18.3629 47.0023 18.36 44.702H45.0267C45.0238 47.0023 43.1602 48.8659 40.86 48.8687ZM45.0267 43.0354H18.36V41.3687H45.0267V43.0354ZM17.5267 39.702C17.0665 39.702 16.6934 40.0752 16.6934 40.5354V44.702C16.6934 46.2715 17.3273 47.7742 18.452 48.8687H7.52669C5.22648 48.8659 3.36287 47.0023 3.36003 44.702V30.5354H30.0267V39.702H17.5267ZM30.0267 28.8687H3.36003V25.5354H30.0267V28.8687ZM26.6934 20.5354C27.6138 20.5354 28.36 21.2816 28.36 22.202C28.36 23.1225 27.6138 23.8687 26.6934 23.8687H6.69336C5.77295 23.8687 5.02669 23.1225 5.02669 22.202C5.02669 21.2816 5.77295 20.5354 6.69336 20.5354H26.6934ZM20.0267 18.8687H9.27718C9.67554 16.9302 11.3809 15.5378 13.36 15.5354H24.1095C23.7112 17.4739 22.0059 18.8663 20.0267 18.8687Z" fill="#9A563A"/>
<path d="M37.5267 33.0354C38.286 33.0301 38.9989 32.6688 39.4526 32.0597C39.9832 31.3541 40.1585 30.4434 39.927 29.5914L38.3316 23.6523C38.2335 23.2885 37.9035 23.0354 37.5267 23.0354C37.1499 23.0354 36.8199 23.2885 36.7219 23.6523L35.1264 29.5914C34.8949 30.4434 35.0702 31.3541 35.6008 32.0597C36.0545 32.6688 36.7674 33.0301 37.5267 33.0354ZM36.7361 30.0243L37.5267 27.0808L38.3173 30.0243C38.4158 30.3755 38.3466 30.7527 38.1297 31.0457C37.9955 31.2475 37.7692 31.3687 37.5267 31.3687C37.2842 31.3687 37.058 31.2475 36.9237 31.0457C36.7068 30.7527 36.6376 30.3755 36.7361 30.0243Z" fill="#9A563A"/>
<path d="M48.3601 2.20207H40.0267V1.36873C40.0267 0.908529 39.6536 0.5354 39.1934 0.5354H25.8601C25.3999 0.5354 25.0267 0.908529 25.0267 1.36873V2.20207H20.8601C20.3999 2.20207 20.0267 2.5752 20.0267 3.0354V6.36873C20.0267 6.82894 20.3999 7.20207 20.8601 7.20207H25.0267V8.0354C25.0296 10.3356 26.8932 12.1992 29.1934 12.2021C30.0979 12.1988 30.9764 11.8985 31.6934 11.3476V13.0354C31.695 14.4156 32.8132 15.5338 34.1934 15.5354C34.4778 15.5326 34.7598 15.4805 35.0267 15.382V18.0354C35.0267 19.416 36.1461 20.5354 37.5267 20.5354C38.9073 20.5354 40.0267 19.416 40.0267 18.0354V7.20207H48.3601C48.8203 7.20207 49.1934 6.82894 49.1934 6.36873V3.0354C49.1934 2.5752 48.8203 2.20207 48.3601 2.20207ZM21.6934 5.5354V3.86873H25.0267V5.5354H21.6934ZM29.1934 10.5354C27.8132 10.5338 26.695 9.41561 26.6934 8.0354V2.20207H31.6934V8.0354C31.6918 9.41561 30.5736 10.5338 29.1934 10.5354ZM34.1934 13.8687C33.7332 13.8683 33.3605 13.4956 33.3601 13.0354V2.20207H35.0267V13.0354C35.0263 13.4956 34.6536 13.8683 34.1934 13.8687ZM38.3601 18.0354C38.3601 18.4956 37.9869 18.8687 37.5267 18.8687C37.0665 18.8687 36.6934 18.4956 36.6934 18.0354V2.20207H38.3601V18.0354ZM47.5267 5.5354H40.0267V3.86873H47.5267V5.5354Z" fill="#9A563A"/>
</g>
<defs>
<clipPath id="clip0_3_30">
<rect width="50" height="50" fill="white" transform="translate(0.443359 0.5354)"/>
</clipPath>
</defs>
</svg>
