<svg width="51" height="51" viewBox="0 0 51 51" fill="none" xmlns="http://www.w3.org/2000/svg">
<g clip-path="url(#clip0_3_3)">
<path d="M27.4137 38.1445C27.401 38.082 27.3825 38.0205 27.3581 37.9619C27.3336 37.9023 27.3033 37.8457 27.2682 37.793C27.2331 37.7393 27.192 37.6895 27.1471 37.6445C27.1022 37.5996 27.0514 37.5586 26.9987 37.5234C26.945 37.4883 26.8882 37.458 26.8297 37.4336C26.7712 37.4092 26.7097 37.3906 26.6471 37.3779C26.5211 37.3525 26.3913 37.3525 26.2653 37.3779C26.2028 37.3906 26.1414 37.4092 26.0827 37.4336C26.0242 37.458 25.9675 37.4883 25.9138 37.5234C25.861 37.5586 25.8102 37.5996 25.7653 37.6445C25.7204 37.6895 25.6793 37.7393 25.6443 37.793C25.6091 37.8457 25.5789 37.9023 25.5544 37.9619C25.53 38.0205 25.5115 38.082 25.4988 38.1445C25.4861 38.207 25.4802 38.2715 25.4802 38.335C25.4802 38.3984 25.4861 38.4629 25.4988 38.5264C25.5115 38.5879 25.53 38.6494 25.5544 38.709C25.5789 38.7676 25.6091 38.8243 25.6443 38.877C25.6793 38.9307 25.7204 38.9805 25.7653 39.0254C25.8102 39.0713 25.8611 39.1113 25.9138 39.1475C25.9674 39.1827 26.0241 39.213 26.0827 39.2374C26.1413 39.2618 26.2028 39.2804 26.2653 39.2931C26.3288 39.3058 26.3923 39.3116 26.4567 39.3116C26.5202 39.3116 26.5836 39.3058 26.6471 39.2931C26.7097 39.2804 26.7712 39.2618 26.8297 39.2374C26.8882 39.213 26.9449 39.1826 26.9987 39.1475C27.0515 39.1113 27.1022 39.0713 27.1471 39.0254C27.192 38.9805 27.2331 38.9307 27.2682 38.877C27.3034 38.8242 27.3336 38.7676 27.3581 38.709C27.3825 38.6494 27.4009 38.5879 27.4137 38.5264C27.4264 38.4629 27.4332 38.3984 27.4332 38.335C27.4332 38.2715 27.4264 38.207 27.4137 38.1445Z" fill="#9A563A"/>
<path d="M50.3734 36.5875C50.2753 36.0301 49.9676 35.0519 49.007 34.3138C49.9676 33.5757 50.2752 32.5975 50.3734 32.0404C50.7795 29.7376 49.2082 27.0161 47.0109 26.2164C46.4793 26.0231 45.4783 25.8002 44.3589 26.2631C44.2 25.0622 43.5066 24.3067 43.0733 23.9431C41.2819 22.44 38.1397 22.44 36.3483 23.9431C35.9149 24.3068 35.2216 25.0621 35.0628 26.2631C33.9891 25.8194 33.0242 26.006 32.478 26.1927C32.0743 25.4234 31.5244 24.7564 30.8693 24.2215C32.7411 23.3421 34.0401 21.4386 34.0401 19.2375C34.0401 17.3345 33.0691 15.6541 31.5965 14.6654C32.9295 13.6938 33.7972 12.1205 33.7972 10.3485C33.7972 7.40448 31.4021 5.00946 28.4581 5.00946H19.7948C16.8508 5.00946 14.4557 7.40458 14.4557 10.3485C14.4557 11.6327 14.9115 12.8125 15.6697 13.7346H13.1394C10.105 13.7346 7.63634 16.2032 7.63634 19.2376C7.63634 20.5937 8.12941 21.8366 8.94552 22.7969C6.27316 22.9425 3.92452 24.78 3.1627 27.3653C2.99024 27.95 2.90293 28.5582 2.90293 29.173C2.90293 31.0069 3.68008 32.6626 4.92237 33.8284C2.33897 34.5473 0.4375 36.9213 0.4375 39.731V39.9357C0.4375 43.3135 3.18565 46.0615 6.56329 46.0615H35.1136C36.0235 46.0615 36.9208 45.8591 37.7367 45.4726C38.3576 45.6988 39.0343 45.812 39.7109 45.812C40.9444 45.812 42.1778 45.4362 43.0734 44.6847C43.5068 44.3211 44.2002 43.5656 44.3591 42.3647C45.4784 42.8273 46.4795 42.6047 47.0111 42.4114C49.2082 41.6116 50.7795 38.8902 50.3734 36.5875ZM43.4666 29.7618C44.0667 28.7225 45.0521 27.5818 46.343 28.0517C47.6475 28.5266 48.6912 30.3343 48.4501 31.7013C48.2117 33.0535 46.731 33.3373 45.5309 33.3373C45.3328 33.3373 45.1484 33.3963 44.9944 33.4978C44.7871 32.1499 44.0745 30.9663 43.0566 30.1474C43.2225 30.065 43.367 29.9343 43.4666 29.7618ZM43.1035 34.3138C43.1035 36.1845 41.5816 37.7064 39.7109 37.7064C37.8402 37.7064 36.3183 36.1845 36.3183 34.3138C36.3183 32.4431 37.8402 30.9212 39.7109 30.9212C41.5816 30.9213 43.1035 32.4432 43.1035 34.3138ZM37.604 25.4394C38.6674 24.5471 40.7548 24.5471 41.8179 25.4394C42.8697 26.322 42.3753 27.7461 41.7752 28.7854C41.6864 28.9391 41.6442 29.107 41.6441 29.2725C41.6441 29.2919 41.6447 29.3113 41.6459 29.3306C41.0456 29.0967 40.3929 28.9683 39.7108 28.9683C39.0288 28.9683 38.3761 29.0967 37.7758 29.3306C37.7769 29.3113 37.7775 29.2919 37.7775 29.2725C37.7774 29.1069 37.7352 28.9391 37.6465 28.7854C37.0467 27.7459 36.5521 26.3219 37.604 25.4394ZM32.4853 28.369C32.5182 28.3493 32.5497 28.3278 32.5797 28.3047C32.74 28.2001 32.9071 28.1145 33.0788 28.052C34.3697 27.5823 35.3553 28.7226 35.9552 29.7619C36.0549 29.9344 36.1993 30.065 36.3652 30.1476C35.3474 30.9665 34.6347 32.15 34.4274 33.498C34.2734 33.3965 34.089 33.3374 33.8909 33.3374C32.6908 33.3374 31.2102 33.0537 30.9717 31.7015C30.7687 30.5499 31.4773 29.0858 32.4853 28.369ZM19.7951 6.96259H28.4584C30.3254 6.96259 31.8445 8.48154 31.8445 10.3486C31.8445 12.2157 30.3254 13.7347 28.4584 13.7347H19.7951C17.928 13.7347 16.409 12.2157 16.409 10.3486C16.4091 8.48154 17.9281 6.96259 19.7951 6.96259ZM13.1397 15.6877H28.5374C30.4948 15.6877 32.0873 17.2802 32.0873 19.2377C32.0873 21.1951 30.4948 22.7876 28.5374 22.7876H26.837C26.8338 22.7876 26.8306 22.7875 26.8275 22.7875H13.1323C11.1782 22.7835 9.58986 21.1926 9.58986 19.2376C9.58986 17.2802 11.1822 15.6877 13.1397 15.6877ZM4.85616 29.173C4.85626 28.7452 4.91681 28.3228 5.03634 27.9173C5.58761 26.0469 7.33624 24.7405 9.28849 24.7405H13.1246C13.1296 24.7405 26.8369 24.7406 26.8369 24.7406C28.5525 24.7442 30.0777 25.7184 30.8104 27.2235C29.5154 28.4396 28.7505 30.3526 29.0482 32.0405C29.0871 32.2609 29.1587 32.5472 29.2906 32.8585C28.5666 33.3439 27.7142 33.6052 26.8272 33.6052H9.28859C6.84454 33.6052 4.85616 31.6169 4.85616 29.173ZM35.1138 44.1084H6.56329C4.26241 44.1084 2.39063 42.2365 2.39063 39.9357V39.731C2.39063 39.5896 2.39776 39.4499 2.41153 39.312H22.8484C23.3876 39.312 23.8249 38.8748 23.8249 38.3354C23.8249 37.7961 23.3876 37.3588 22.8484 37.3588H3.13213C3.88614 36.2715 5.14298 35.5583 6.56339 35.5583H29.3881C29.1925 35.9499 29.0961 36.3178 29.0485 36.5873C28.6424 38.8901 30.2137 41.6115 32.411 42.4112C32.9425 42.6047 33.9437 42.8274 35.0631 42.3645C35.1586 43.0863 35.4471 43.6471 35.7563 44.0588C35.5445 44.0916 35.3297 44.1084 35.1138 44.1084ZM35.9552 38.866C35.3551 39.9052 34.3696 41.046 33.0789 40.576C31.7744 40.1013 30.7307 38.2936 30.9718 36.9266C31.1071 36.1596 31.642 35.7364 32.2987 35.5136C32.3088 35.5105 32.3187 35.5071 32.3287 35.5037C32.8224 35.3417 33.3819 35.2906 33.891 35.2906C34.0891 35.2906 34.2735 35.2315 34.4275 35.13C34.6348 36.4779 35.3474 37.6614 36.3652 38.4803C36.1992 38.5627 36.0549 38.6933 35.9552 38.866ZM41.8179 43.1884C40.9202 43.9418 39.2927 44.059 38.1676 43.5404C38.1356 43.5226 38.1028 43.5067 38.0691 43.4926C37.8996 43.4065 37.743 43.305 37.604 43.1883C36.5521 42.3057 37.0467 40.8816 37.6468 39.8422C37.7355 39.6885 37.7777 39.5207 37.7778 39.3551C37.7778 39.3357 37.7772 39.3164 37.776 39.297C38.3763 39.5309 39.029 39.6593 39.7111 39.6593C40.3931 39.6593 41.0458 39.5309 41.6462 39.297C41.645 39.3164 41.6444 39.3357 41.6444 39.3551C41.6445 39.5208 41.6867 39.6885 41.7755 39.8422C42.3753 40.8817 42.8698 42.3059 41.8179 43.1884ZM46.3431 40.5759C45.0526 41.0458 44.0667 39.9051 43.4667 38.8659C43.3671 38.6933 43.2227 38.5628 43.0567 38.4801C44.0745 37.6612 44.7872 36.4777 44.9945 35.1297C45.1485 35.2312 45.3329 35.2903 45.531 35.2903C46.7311 35.2903 48.2117 35.5741 48.4502 36.9263C48.6911 38.2935 47.6474 40.1012 46.3431 40.5759Z" fill="#9A563A"/>
<path d="M15.8485 17.8802C15.8367 17.8187 15.8182 17.7572 15.7938 17.6976C15.7694 17.639 15.739 17.5824 15.7039 17.5297C15.6678 17.476 15.6268 17.4261 15.5819 17.3812C15.5371 17.3363 15.4871 17.2953 15.4334 17.2592C15.3807 17.224 15.3241 17.1937 15.2655 17.1693C15.2059 17.1449 15.1444 17.1263 15.0829 17.1136C14.9569 17.0883 14.827 17.0883 14.701 17.1136C14.6385 17.1263 14.577 17.1449 14.5184 17.1693C14.4589 17.1937 14.4023 17.224 14.3495 17.2592C14.2958 17.2953 14.2459 17.3363 14.201 17.3812C14.1561 17.4261 14.1151 17.476 14.08 17.5297C14.0448 17.5824 14.0146 17.639 13.9902 17.6976C13.9658 17.7572 13.9472 17.8187 13.9345 17.8802C13.9218 17.9437 13.915 18.0082 13.915 18.0717C13.915 18.1351 13.9218 18.1996 13.9345 18.2621C13.9471 18.3246 13.9658 18.3861 13.9902 18.4447C14.0146 18.5043 14.0449 18.5609 14.08 18.6137C14.1151 18.6674 14.1561 18.7172 14.201 18.7621C14.2459 18.807 14.2958 18.848 14.3495 18.8832C14.4023 18.9183 14.4589 18.9486 14.5184 18.973C14.577 18.9974 14.6385 19.016 14.701 19.0287C14.7635 19.0414 14.828 19.0482 14.8914 19.0482C14.9549 19.0482 15.0193 19.0415 15.0829 19.0287C15.1444 19.016 15.2059 18.9974 15.2655 18.973C15.3241 18.9486 15.3807 18.9183 15.4334 18.8832C15.4871 18.848 15.537 18.807 15.5819 18.7621C15.6268 18.7172 15.6678 18.6674 15.7039 18.6137C15.739 18.5609 15.7694 18.5043 15.7938 18.4447C15.8182 18.3861 15.8368 18.3246 15.8485 18.2621C15.8612 18.1996 15.868 18.1351 15.868 18.0717C15.868 18.0082 15.8612 17.9437 15.8485 17.8802Z" fill="#9A563A"/>
<path d="M24.1267 17.095H18.4998C17.9604 17.095 17.5232 17.5322 17.5232 18.0716C17.5232 18.611 17.9604 19.0482 18.4998 19.0482H24.1267C24.666 19.0482 25.1033 18.6109 25.1033 18.0716C25.1033 17.5322 24.666 17.095 24.1267 17.095Z" fill="#9A563A"/>
</g>
<defs>
<clipPath id="clip0_3_3">
<rect width="50" height="50" fill="white" transform="translate(0.4375 0.5354)"/>
</clipPath>
</defs>
</svg>
