<svg width="51" height="51" viewBox="0 0 51 51" fill="none" xmlns="http://www.w3.org/2000/svg">
<path d="M49.1651 0.552457V15.8451C49.1651 16.1136 49.1219 16.3804 49.0372 16.6353L45.0741 28.524L38.8908 38.2023C38.6992 38.5049 38.3892 38.7128 38.0366 38.7752C37.2928 38.8912 36.5956 38.3823 36.4795 37.6384C36.435 37.3525 36.4825 37.0596 36.6154 36.8025C38.0649 34.1706 40.73 29.285 40.73 29.285C40.7611 29.228 40.7856 29.1677 40.8029 29.1051L41.4769 26.634L44.1264 18.3052L42.5379 17.7998L39.8825 26.1474L39.8885 26.1492C39.8849 26.1608 39.8759 26.1689 39.8727 26.1805C39.6602 26.9605 38.8557 27.4205 38.0757 27.2081C38.0216 27.1934 37.9684 27.1755 37.9163 27.1546C37.2613 26.8925 36.8864 26.2007 37.0243 25.5088L38.316 19.0496C38.3265 18.9957 38.3317 18.9408 38.3317 18.8858V16.4447C38.3222 12.891 39.7346 9.4811 42.2542 6.97496C42.4105 6.81871 42.4984 6.60683 42.4984 6.38579V0.552457H40.8317V6.046C40.2544 6.65569 39.7288 7.31225 39.2603 8.00892C34.6579 0.592146 24.9145 -1.68942 17.4978 2.91298C15.4297 4.19631 13.686 5.93985 12.4025 8.00787C11.9341 7.31162 11.4087 6.65537 10.8317 6.046V0.552457H9.16506V6.38579C9.16506 6.60683 9.25298 6.81871 9.40923 6.97496C11.9289 9.48121 13.3413 12.8913 13.3317 16.4452V18.8858C13.3318 18.9407 13.3374 18.9955 13.348 19.0493L14.6396 25.5085C14.778 26.2007 14.403 26.893 13.7477 27.1553C12.9967 27.4555 12.1446 27.0902 11.8444 26.3392C11.8237 26.2875 11.806 26.2344 11.7913 26.1807C11.7881 26.1689 11.7791 26.1608 11.7755 26.1494L11.7815 26.1476L9.126 17.7998L7.53746 18.3052L10.1869 26.634L10.861 29.1051C10.8783 29.1677 10.9028 29.228 10.9339 29.285C10.9339 29.285 13.599 34.1704 15.0485 36.8025C15.3699 37.3852 15.2104 38.1021 14.6285 38.5391C14.3421 38.7535 13.9795 38.8391 13.6276 38.7755C13.2749 38.7133 12.9647 38.5053 12.7734 38.2026L6.59006 28.5243L2.62693 16.6358C2.54173 16.3809 2.49829 16.1138 2.49839 15.8451V0.552457H0.831727V15.8451C0.831518 16.2929 0.90381 16.7379 1.04579 17.1626L5.04152 29.1494C5.06308 29.2145 5.09256 29.2768 5.12943 29.3346L11.368 39.0999C11.8114 39.7913 12.5219 40.2678 13.3301 40.4154C13.5011 40.4465 13.6746 40.4621 13.8485 40.4621C14.507 40.4585 15.1464 40.2402 15.6697 39.8404C15.7029 39.8156 15.7284 39.785 15.7603 39.759C15.8203 39.827 15.8757 39.9008 15.9367 39.9674C16.417 40.4943 16.9393 40.9814 17.4984 41.4239V44.5857C17.4975 46.2412 17.2304 47.8859 16.7074 49.4566C16.5624 49.8934 16.7989 50.3651 17.2358 50.5101C17.3205 50.5382 17.4091 50.5525 17.4984 50.5525H34.1651C34.6253 50.5526 34.9985 50.1795 34.9985 49.7192C34.9985 49.63 34.9842 49.5413 34.9561 49.4566C34.4331 47.8859 34.166 46.2412 34.1651 44.5857V41.4245C34.722 40.9838 35.2425 40.4986 35.7211 39.9738C35.7857 39.9033 35.8427 39.828 35.9057 39.756C35.9506 39.7934 35.9878 39.8361 36.0352 39.8717C37.3396 40.8505 39.1906 40.5864 40.1693 39.2819C40.2137 39.2229 40.2558 39.1621 40.2956 39.0999L46.5341 29.3346C46.571 29.2768 46.6005 29.2145 46.622 29.1494L50.6186 17.1621C50.76 16.7375 50.8319 16.2927 50.8317 15.8451V0.552457H49.1651ZM38.0976 10.0541C37.8817 9.78871 37.6567 9.54162 37.4301 9.29881L37.8431 8.88579C37.9973 9.13371 38.1435 9.38798 38.2837 9.64735C38.2162 9.78048 38.161 9.91912 38.0976 10.0541ZM36.8714 7.50037L36.2365 8.13579C35.6142 7.58767 34.9489 7.09048 34.2469 6.64892L35.1678 5.72819C35.7862 6.26808 36.3563 6.8611 36.8714 7.50037ZM18.9395 5.81496L17.8272 4.70277C18.6429 4.13912 19.5158 3.66319 20.4314 3.28298L21.2439 4.90694C20.4522 5.14621 19.6816 5.44985 18.9395 5.81496ZM22.9083 4.50767L22.0275 2.74725C22.9977 2.47954 23.9936 2.31621 24.9984 2.25975V4.2535C24.2966 4.29069 23.5983 4.37558 22.9081 4.50767H22.9083ZM26.6651 2.24798C27.6727 2.30506 28.6713 2.46923 29.6442 2.73756L28.7563 4.50839C28.0658 4.37642 27.3671 4.29121 26.6651 4.2536V2.24798ZM31.233 3.2861C32.1505 3.66235 33.0256 4.13475 33.8435 4.69548L32.7237 5.81506C31.9819 5.44996 31.2116 5.1461 30.4203 4.90662L31.233 3.2861ZM16.5066 5.73902L17.4164 6.6486C16.714 7.08954 16.0487 7.58683 15.4268 8.13558L14.8007 7.50954C15.1166 7.111 15.4539 6.72985 15.8111 6.36787C16.0343 6.14569 16.272 5.94444 16.5066 5.73902ZM13.8191 8.88485L14.2335 9.29913C14.0062 9.54308 13.7806 9.79027 13.566 10.0541C13.5029 9.91975 13.4479 9.78173 13.3807 9.64912C13.5205 9.39037 13.6638 9.13392 13.819 8.88506L13.8191 8.88485ZM33.0505 48.8858H18.613C18.979 47.4817 19.1645 46.0367 19.1651 44.5857V42.5873C19.5742 42.8236 19.9956 43.0384 20.4272 43.2307C23.8685 44.7599 27.7965 44.7599 31.2378 43.2307C31.6688 43.0385 32.0895 42.824 32.4982 42.588V44.5861C32.4988 46.0369 32.6843 47.4818 33.0505 48.8858ZM34.4868 38.8545C33.3947 40.0725 32.0566 41.0449 30.5609 41.7073C27.5492 43.0382 24.1162 43.0382 21.1045 41.7073C19.6057 41.0434 18.265 40.0684 17.1714 38.8471C17.0177 38.6798 16.8785 38.5041 16.7346 38.3315C16.984 37.5558 16.9021 36.7115 16.5082 35.9982C15.3046 33.8119 13.2603 30.0681 12.6052 28.8681C14.3018 29.1991 15.9457 28.0921 16.2768 26.3954C16.3551 25.9943 16.3541 25.5818 16.2738 25.1812L15.7094 22.3583C16.4462 22.4304 17.1878 22.48 17.9324 22.48C19.2315 22.481 20.5284 22.3701 21.8085 22.1483L21.522 20.5068C19.4876 20.8524 17.4135 20.898 15.3658 20.6423L14.9984 18.8032V17.3657C16.8796 16.3612 19.1519 16.1177 21.46 16.7017L21.8702 15.0863C19.4479 14.4717 17.0439 14.6448 14.9556 15.5394C14.8844 14.2959 14.659 13.0661 14.2845 11.8782C14.7004 11.2816 15.1621 10.7184 15.6657 10.1938C15.7105 10.1437 15.7609 10.0937 15.8121 10.0416C15.8554 9.99892 15.8968 9.95569 15.9807 9.88204C16.9271 8.95985 18.0009 8.17798 19.1691 7.56027C20.2615 6.9709 21.4296 6.53444 22.6408 6.26308C24.7431 5.77183 26.9305 5.77256 29.0325 6.26517C30.242 6.53704 31.4085 6.97381 32.4992 7.56319C33.671 8.18371 34.7477 8.96902 35.6963 9.89527C35.8078 9.99944 35.9104 10.1025 36.0259 10.2257C36.5193 10.7403 36.9716 11.2928 37.3786 11.8781C37.004 13.0661 36.7786 14.296 36.7076 15.5396C34.6196 14.6453 32.2166 14.4729 29.793 15.0865L30.2032 16.7019C32.5112 16.1171 34.7841 16.3606 36.6647 17.3657V18.8032L36.2813 20.721C34.5105 20.8754 32.7272 20.8033 30.9746 20.5065L30.6882 22.1487C31.9534 22.3666 33.2348 22.4757 34.5187 22.4746C34.9941 22.4746 35.4683 22.4563 35.9403 22.4267L35.3895 25.1814C35.0505 26.8769 36.1501 28.5262 37.8456 28.8653C38.2457 28.9453 38.6577 28.9463 39.0582 28.8683C38.4031 30.0683 36.3595 33.8121 35.1552 35.9984C34.7616 36.7102 34.6811 37.5534 34.933 38.3268C34.7868 38.5028 34.646 38.6803 34.4865 38.8545H34.4868Z" fill="#9A563A"/>
</svg>
