<svg width="51" height="51" viewBox="0 0 51 51" fill="none" xmlns="http://www.w3.org/2000/svg">
<path d="M40.7025 23.9729C39.7754 23.9729 38.8691 24.2478 38.0983 24.7629C37.3274 25.278 36.7266 26.01 36.3718 26.8666C36.017 27.7231 35.9242 28.6656 36.1051 29.5749C36.286 30.4842 36.7324 31.3194 37.388 31.975C38.0435 32.6305 38.8787 33.077 39.788 33.2578C40.6973 33.4387 41.6398 33.3459 42.4963 32.9911C43.3529 32.6363 44.085 32.0355 44.6 31.2646C45.1151 30.4938 45.39 29.5875 45.39 28.6604C45.3888 27.4176 44.8945 26.226 44.0157 25.3472C43.1369 24.4684 41.9453 23.9741 40.7025 23.9729ZM40.7025 31.7854C40.0845 31.7854 39.4803 31.6021 38.9664 31.2587C38.4525 30.9154 38.0519 30.4273 37.8154 29.8563C37.5789 29.2853 37.517 28.6569 37.6376 28.0507C37.7581 27.4446 38.0558 26.8877 38.4928 26.4507C38.9298 26.0137 39.4867 25.716 40.0929 25.5954C40.6991 25.4749 41.3274 25.5368 41.8984 25.7733C42.4694 26.0098 42.9575 26.4103 43.3009 26.9242C43.6442 27.4381 43.8275 28.0423 43.8275 28.6604C43.8275 29.4892 43.4983 30.2841 42.9122 30.8701C42.3262 31.4562 41.5313 31.7854 40.7025 31.7854Z" fill="#9A563A"/>
<path d="M21.9525 11.4729C22.8796 11.4729 23.7859 11.198 24.5568 10.6829C25.3276 10.1678 25.9284 9.43576 26.2832 8.57923C26.638 7.7227 26.7308 6.7802 26.5499 5.87092C26.3691 4.96163 25.9226 4.1264 25.2671 3.47084C24.6115 2.81528 23.7763 2.36884 22.867 2.18797C21.9577 2.0071 21.0152 2.09993 20.1587 2.45472C19.3022 2.8095 18.5701 3.41031 18.055 4.18117C17.5399 4.95202 17.265 5.8583 17.265 6.7854C17.2663 8.02822 17.7605 9.21979 18.6393 10.0986C19.5181 10.9774 20.7097 11.4717 21.9525 11.4729ZM21.9525 3.6604C22.5706 3.6604 23.1748 3.84368 23.6887 4.18706C24.2026 4.53044 24.6031 5.0185 24.8396 5.58952C25.0762 6.16054 25.138 6.78887 25.0175 7.39506C24.8969 8.00125 24.5993 8.55807 24.1622 8.99511C23.7252 9.43215 23.1684 9.72978 22.5622 9.85036C21.956 9.97094 21.3276 9.90905 20.7566 9.67253C20.1856 9.436 19.6976 9.03546 19.3542 8.52156C19.0108 8.00766 18.8275 7.40347 18.8275 6.7854C18.8275 5.9566 19.1568 5.16174 19.7428 4.57569C20.3289 3.98964 21.1237 3.6604 21.9525 3.6604Z" fill="#9A563A"/>
<path d="M47.7338 34.9104H35.1424L34.4525 29.3885C34.4386 28.7762 34.1856 28.1936 33.7475 27.7655C33.3095 27.3374 32.7213 27.0977 32.1088 27.0979L17.9681 27.1018L2.34314 28.6643C2.15043 28.6837 1.97179 28.7739 1.84187 28.9176C1.71195 29.0612 1.64001 29.248 1.64001 29.4417V32.5667C1.64001 32.7739 1.72232 32.9726 1.86884 33.1191C2.01535 33.2656 2.21406 33.3479 2.42126 33.3479H29.8595L30.0611 34.9104H2.42126C2.21406 34.9104 2.01535 34.9927 1.86884 35.1392C1.72232 35.2857 1.64001 35.4845 1.64001 35.6917V41.9417C1.64001 42.1489 1.72232 42.3476 1.86884 42.4941C2.01535 42.6406 2.21406 42.7229 2.42126 42.7229H6.32751V48.1917C6.32751 48.3989 6.40982 48.5976 6.55634 48.7441C6.70285 48.8906 6.90156 48.9729 7.10876 48.9729H16.4838C16.691 48.9729 16.8897 48.8906 17.0362 48.7441C17.1827 48.5976 17.265 48.3989 17.265 48.1917V42.7229H32.89V48.1917C32.89 48.3989 32.9723 48.5976 33.1188 48.7441C33.2653 48.8906 33.4641 48.9729 33.6713 48.9729H43.0463C43.2535 48.9729 43.4522 48.8906 43.5987 48.7441C43.7452 48.5976 43.8275 48.3989 43.8275 48.1917V42.7229H47.7338C47.941 42.7229 48.1397 42.6406 48.2862 42.4941C48.4327 42.3476 48.515 42.1489 48.515 41.9417V35.6917C48.515 35.4845 48.4327 35.2857 48.2862 35.1392C48.1397 34.9927 47.941 34.9104 47.7338 34.9104ZM3.20251 31.7854V30.1448L18.0463 28.6604H32.1088C32.316 28.6604 32.5147 28.7427 32.6612 28.8892C32.8077 29.0357 32.89 29.2345 32.89 29.4417C32.8902 29.474 32.8922 29.5064 32.8963 29.5385L33.6775 35.7885C33.7011 35.9774 33.7929 36.1512 33.9356 36.2773C34.0783 36.4033 34.2621 36.4728 34.4525 36.4729H43.0463C43.2535 36.4729 43.4522 36.5552 43.5987 36.7017C43.7452 36.8482 43.8275 37.047 43.8275 37.2542C43.8275 37.4614 43.7452 37.6601 43.5987 37.8066C43.4522 37.9531 43.2535 38.0354 43.0463 38.0354H32.726C32.5314 38.0353 32.3439 37.9626 32.2002 37.8315C32.0564 37.7005 31.9667 37.5205 31.9486 37.3268L31.3236 32.4667C31.2992 32.2779 31.2068 32.1045 31.0637 31.9791C30.9206 31.8537 30.7366 31.7848 30.5463 31.7854H3.20251ZM15.7025 47.4104H14.14V45.8479H12.5775V47.4104H11.015V45.0667H9.45251V47.4104H7.89001V42.7229H15.7025V47.4104ZM42.265 47.4104H40.7025V45.0667H39.14V47.4104H37.5775V44.2854H36.015V47.4104H34.4525V42.7229H42.265V47.4104ZM46.9525 41.1604H3.20251V39.5979H15.7025V38.0354H3.20251V36.4729H30.2627L30.397 37.5127C30.4607 38.086 30.7334 38.6156 31.1631 39.0003C31.5928 39.385 32.1492 39.5978 32.726 39.5979H43.0463C43.6679 39.5979 44.264 39.351 44.7035 38.9114C45.1431 38.4719 45.39 37.8758 45.39 37.2542C45.3874 36.9874 45.3388 36.7231 45.2463 36.4729H46.9525V41.1604Z" fill="#9A563A"/>
<path d="M16.5182 14.3682L13.3932 24.5245C13.3572 24.6413 13.3492 24.765 13.3698 24.8855C13.3903 25.006 13.4389 25.12 13.5115 25.2184C13.5842 25.3167 13.6789 25.3966 13.7881 25.4517C13.8972 25.5068 14.0178 25.5354 14.14 25.5354H21.9525C22.1304 25.5355 22.303 25.475 22.4418 25.3638C22.5806 25.2526 22.6772 25.0973 22.7158 24.9237L23.8533 19.8042L25.1893 22.0315C25.2771 22.1779 25.4104 22.2915 25.569 22.3549L31.3033 24.6479C31.8441 24.8631 32.4463 24.8653 32.9886 24.654C33.5309 24.4428 33.973 24.0338 34.2257 23.5095C34.4784 22.9852 34.5229 22.3846 34.3503 21.8288C34.1777 21.2729 33.8007 20.8032 33.2955 20.5143C33.2651 20.497 33.2335 20.4819 33.201 20.469L28.7494 18.6604C25.5088 13.0354 24.6916 13.0354 24.2963 13.0354H18.0463C17.6858 13.0744 17.3459 13.2231 17.0726 13.4615C16.7993 13.6998 16.6058 14.0163 16.5182 14.3682ZM18.1471 14.5979H24.1338C25.4288 16.1746 26.5646 17.8756 27.5244 19.676C27.6112 19.8282 27.7465 19.9468 27.9088 20.0127L32.5565 21.8963C32.6598 21.9643 32.7446 22.0572 32.8028 22.1664C32.8611 22.2755 32.8911 22.3976 32.89 22.5213C32.8899 22.6413 32.8605 22.7594 32.8042 22.8653C32.7479 22.9712 32.6665 23.0618 32.5672 23.129C32.4678 23.1962 32.3535 23.238 32.2342 23.2509C32.115 23.2637 31.9944 23.2471 31.883 23.2026L26.394 21.0042L24.1846 17.3237C24.1041 17.1896 23.9852 17.0828 23.8433 17.017C23.7014 16.9512 23.543 16.9296 23.3887 16.9548C23.2343 16.9801 23.0911 17.0511 22.9776 17.1586C22.864 17.2662 22.7854 17.4053 22.7518 17.5581L21.3275 23.9729H15.1979L18.0158 14.8127C18.0442 14.7328 18.0889 14.6596 18.1471 14.5979Z" fill="#9A563A"/>
<path d="M18.8275 38.0354H17.265V39.5979H18.8275V38.0354Z" fill="#9A563A"/>
<path d="M28.2025 38.0354H20.39V39.5979H28.2025V38.0354Z" fill="#9A563A"/>
</svg>
