<svg width="61" height="61" viewBox="0 0 61 61" fill="none" xmlns="http://www.w3.org/2000/svg">
<g clip-path="url(#clip0_25_75)">
<path d="M3.45609 14.8862C5.11234 14.8882 6.45413 16.23 6.45609 17.8862C6.45609 18.4385 6.90384 18.8862 7.45609 18.8862C8.00833 18.8862 8.45609 18.4385 8.45609 17.8862C8.45804 16.23 9.79984 14.8882 11.4561 14.8862C12.0083 14.8862 12.4561 14.4385 12.4561 13.8862C12.4561 13.334 12.0083 12.8862 11.4561 12.8862C9.79984 12.8843 8.45804 11.5425 8.45609 9.88623C8.45609 9.33398 8.00833 8.88623 7.45609 8.88623C6.90384 8.88623 6.45609 9.33398 6.45609 9.88623C6.45413 11.5425 5.11234 12.8843 3.45609 12.8862C2.90384 12.8862 2.45609 13.334 2.45609 13.8862C2.45609 14.4385 2.90384 14.8862 3.45609 14.8862ZM7.45609 12.8833C7.74173 13.2632 8.07913 13.6006 8.45902 13.8862C8.07913 14.1719 7.74173 14.5093 7.45609 14.8892C7.17044 14.5093 6.83304 14.1719 6.45316 13.8862C6.83304 13.6006 7.17044 13.2632 7.45609 12.8833Z" fill="#9A563A"/>
<path d="M31.4561 17.8862C31.4561 17.334 31.0083 16.8862 30.4561 16.8862H16.4561C12.9805 16.8926 10.0347 19.4463 9.53616 22.8862H8.45609C6.24808 22.8887 4.45853 24.6782 4.45609 26.8862C4.45999 27.5903 4.65237 28.2808 5.01224 28.8862H3.45609C2.90384 28.8862 2.45609 29.334 2.45609 29.8862V53.8862C2.46048 57.7505 5.59183 60.8818 9.45609 60.8862H49.4561C53.3203 60.8818 56.4517 57.7505 56.4561 53.8862V48.8862C56.4561 48.334 56.0083 47.8862 55.4561 47.8862H38.4561V29.8862C38.4561 29.334 38.0083 28.8862 37.4561 28.8862H35.8999C36.2598 28.2808 36.4522 27.5903 36.4561 26.8862C36.4536 24.6782 34.6641 22.8887 32.4561 22.8862H29.3457C30.6953 21.5728 31.4561 19.7695 31.4561 17.8862ZM49.4561 58.8862H27.4561C24.6958 58.8828 22.4595 56.6465 22.4561 53.8862H54.4561C54.4527 56.6465 52.2163 58.8828 49.4561 58.8862ZM54.4561 51.8862H22.4561V49.8862H54.4561V51.8862ZM21.4561 47.8862C20.9038 47.8862 20.4561 48.334 20.4561 48.8862V53.8862C20.4561 55.7695 21.2168 57.5728 22.5664 58.8862H9.45609C6.69583 58.8828 4.4595 56.6465 4.45609 53.8862V36.8862H36.4561V47.8862H21.4561ZM36.4561 34.8862H4.45609V30.8862H36.4561V34.8862ZM32.4561 24.8862C33.5606 24.8862 34.4561 25.7817 34.4561 26.8862C34.4561 27.9907 33.5606 28.8862 32.4561 28.8862H8.45609C7.35159 28.8862 6.45609 27.9907 6.45609 26.8862C6.45609 25.7817 7.35159 24.8862 8.45609 24.8862H32.4561ZM24.4561 22.8862H11.5567C12.0347 20.5601 14.0811 18.8892 16.4561 18.8862H29.3555C28.8775 21.2124 26.8311 22.8833 24.4561 22.8862Z" fill="#9A563A"/>
<path d="M45.4561 39.8862C46.3672 39.8799 47.2227 39.4463 47.7671 38.7153C48.4038 37.8687 48.6143 36.7759 48.3365 35.7534L46.4219 28.6265C46.3042 28.1899 45.9082 27.8862 45.4561 27.8862C45.0039 27.8862 44.6079 28.1899 44.4903 28.6265L42.5757 35.7534C42.2979 36.7759 42.5083 37.8687 43.1451 38.7153C43.6895 39.4463 44.545 39.8799 45.4561 39.8862ZM44.5074 36.2729L45.4561 32.7407L46.4048 36.2729C46.523 36.6943 46.44 37.147 46.1797 37.4985C46.0186 37.7407 45.7471 37.8862 45.4561 37.8862C45.1651 37.8862 44.8936 37.7407 44.7325 37.4985C44.4722 37.147 44.3892 36.6943 44.5074 36.2729Z" fill="#9A563A"/>
<path d="M58.4561 2.88623H48.4561V1.88623C48.4561 1.33398 48.0083 0.88623 47.4561 0.88623H31.4561C30.9038 0.88623 30.4561 1.33398 30.4561 1.88623V2.88623H25.4561C24.9038 2.88623 24.4561 3.33398 24.4561 3.88623V7.88623C24.4561 8.43848 24.9038 8.88623 25.4561 8.88623H30.4561V9.88623C30.4595 12.6465 32.6958 14.8828 35.4561 14.8862C36.5415 14.8823 37.5957 14.522 38.4561 13.8608V15.8862C38.458 17.5425 39.7998 18.8843 41.4561 18.8862C41.7974 18.8828 42.1358 18.8203 42.4561 18.7021V21.8862C42.4561 23.543 43.7993 24.8862 45.4561 24.8862C47.1128 24.8862 48.4561 23.543 48.4561 21.8862V8.88623H58.4561C59.0083 8.88623 59.4561 8.43848 59.4561 7.88623V3.88623C59.4561 3.33398 59.0083 2.88623 58.4561 2.88623ZM26.4561 6.88623V4.88623H30.4561V6.88623H26.4561ZM35.4561 12.8862C33.7998 12.8843 32.458 11.5425 32.4561 9.88623V2.88623H38.4561V9.88623C38.4541 11.5425 37.1123 12.8843 35.4561 12.8862ZM41.4561 16.8862C40.9038 16.8857 40.4566 16.4385 40.4561 15.8862V2.88623H42.4561V15.8862C42.4556 16.4385 42.0083 16.8857 41.4561 16.8862ZM46.4561 21.8862C46.4561 22.4385 46.0083 22.8862 45.4561 22.8862C44.9038 22.8862 44.4561 22.4385 44.4561 21.8862V2.88623H46.4561V21.8862ZM57.4561 6.88623H48.4561V4.88623H57.4561V6.88623Z" fill="#9A563A"/>
</g>
<defs>
<clipPath id="clip0_25_75">
<rect width="60" height="60" fill="white" transform="translate(0.956085 0.88623)"/>
</clipPath>
</defs>
</svg>
