<svg width="61" height="61" viewBox="0 0 61 61" fill="none" xmlns="http://www.w3.org/2000/svg">
<g clip-path="url(#clip0_25_70)">
<path d="M12.2143 26.8862C11.662 26.8862 11.2143 27.334 11.2143 27.8862V36.8862H10.2143C9.66205 36.8862 9.21429 37.334 9.21429 37.8862V59.8862C9.21429 60.4385 9.66205 60.8862 10.2143 60.8862H20.2143C20.7665 60.8862 21.2143 60.4385 21.2143 59.8862V37.8862C21.2143 37.334 20.7665 36.8862 20.2143 36.8862H19.2143V27.8862C19.2143 27.334 18.7665 26.8862 18.2143 26.8862H16.2143V20.8862H17.2143C17.7665 20.8862 18.2143 20.4385 18.2143 19.8862C18.2143 19.334 17.7665 18.8862 17.2143 18.8862H16.2143V16.8862H18.2143C18.7665 16.8862 19.2143 16.4385 19.2143 15.8862C19.2143 15.334 18.7665 14.8862 18.2143 14.8862H16.2143V12.8862H18.2143C18.7665 12.8862 19.2143 12.4385 19.2143 11.8862C19.2143 11.334 18.7665 10.8862 18.2143 10.8862H16.2143V8.88623H18.2143C18.7665 8.88623 19.2143 8.43848 19.2143 7.88623C19.2143 7.33398 18.7665 6.88623 18.2143 6.88623H16.2143V4.88623H17.2143C17.7665 4.88623 18.2143 4.43848 18.2143 3.88623C18.2143 3.33398 17.7665 2.88623 17.2143 2.88623H16.2143V1.88623C16.2143 1.33398 15.7665 0.88623 15.2143 0.88623C14.662 0.88623 14.2143 1.33398 14.2143 1.88623V2.88623H13.2143C12.662 2.88623 12.2143 3.33398 12.2143 3.88623C12.2143 4.43848 12.662 4.88623 13.2143 4.88623H14.2143V6.88623H12.2143C11.662 6.88623 11.2143 7.33398 11.2143 7.88623C11.2143 8.43848 11.662 8.88623 12.2143 8.88623H14.2143V10.8862H12.2143C11.662 10.8862 11.2143 11.334 11.2143 11.8862C11.2143 12.4385 11.662 12.8862 12.2143 12.8862H14.2143V14.8862H12.2143C11.662 14.8862 11.2143 15.334 11.2143 15.8862C11.2143 16.4385 11.662 16.8862 12.2143 16.8862H14.2143V18.8862H13.2143C12.662 18.8862 12.2143 19.334 12.2143 19.8862C12.2143 20.4385 12.662 20.8862 13.2143 20.8862H14.2143V26.8862H12.2143ZM19.2143 58.8862H11.2143V38.8862H19.2143V58.8862ZM17.2143 36.8862H13.2143V28.8862H17.2143V36.8862Z" fill="#9A563A"/>
<path d="M30.2143 5.88623C28.558 5.88428 27.2162 4.54248 27.2143 2.88623C27.2143 2.33398 26.7665 1.88623 26.2143 1.88623C25.662 1.88623 25.2143 2.33398 25.2143 2.88623C25.2123 4.54248 23.8705 5.88428 22.2143 5.88623C21.662 5.88623 21.2143 6.33398 21.2143 6.88623C21.2143 7.43848 21.662 7.88623 22.2143 7.88623C23.8705 7.88818 25.2123 9.22998 25.2143 10.8862C25.2143 11.4385 25.662 11.8862 26.2143 11.8862C26.7665 11.8862 27.2143 11.4385 27.2143 10.8862C27.2162 9.22998 28.558 7.88818 30.2143 7.88623C30.7665 7.88623 31.2143 7.43848 31.2143 6.88623C31.2143 6.33398 30.7665 5.88623 30.2143 5.88623ZM26.2143 7.88916C25.9287 7.50928 25.5912 7.17188 25.2114 6.88623C25.5912 6.60059 25.9287 6.26318 26.2143 5.8833C26.4999 6.26318 26.8373 6.60059 27.2172 6.88623C26.8373 7.17188 26.4999 7.50928 26.2143 7.88916Z" fill="#9A563A"/>
<path d="M26.2143 32.8862C25.662 32.8862 25.2143 33.334 25.2143 33.8862V59.8862C25.2143 60.4385 25.662 60.8862 26.2143 60.8862H36.2143C36.7665 60.8862 37.2143 60.4385 37.2143 59.8862V33.8862C37.2143 33.334 36.7665 32.8862 36.2143 32.8862H26.2143ZM27.2143 34.8862H35.2143V38.8862H27.2143V34.8862ZM27.2143 58.8862V40.8862H35.2143V58.8862H27.2143Z" fill="#9A563A"/>
<path d="M32.5307 10.9375C32.2792 10.8531 32.0043 10.8726 31.767 10.9912C31.5292 11.1099 31.3491 11.3179 31.2656 11.5699C30.7084 13.3677 31.1787 15.3267 32.4916 16.6758C26.3871 18.3125 24.412 22.2456 24.312 22.4556C24.1816 22.7281 24.1816 23.0445 24.312 23.3169C24.4384 23.5821 27.5327 29.8091 38.2143 29.8091C48.8959 29.8091 51.9902 23.5821 52.1166 23.3169C52.247 23.0445 52.247 22.7281 52.1166 22.4556C52.0121 22.2364 49.8671 17.9546 43.103 16.4712C43.0331 16.3052 42.9189 16.1617 42.7724 16.0567C42.6762 15.9912 40.4213 14.4273 41.163 12.2027C41.3378 11.6787 41.0546 11.1123 40.5307 10.9375C40.0068 10.7627 39.4404 11.0459 39.2656 11.5699C38.7719 13.085 39.0405 14.7456 39.9868 16.0279C39.5634 15.9986 39.1171 15.9873 38.6664 15.9795C38.2153 15.6382 36.5024 14.1841 37.163 12.2027C37.3378 11.6787 37.0546 11.1123 36.5307 10.9375C36.0068 10.7627 35.4404 11.0459 35.2656 11.5699C34.768 13.1006 35.0463 14.7779 36.0121 16.0655C35.6313 16.0992 35.2631 16.1416 34.9047 16.1914C34.8652 16.1421 34.8207 16.0972 34.7724 16.0567C34.6762 15.9912 32.4213 14.4273 33.163 12.2027C33.3378 11.6787 33.0546 11.1123 32.5307 10.9375ZM26.3735 22.8867C27.1913 21.6592 30.0844 18.2935 37.1933 17.9927C34.8759 18.4756 33.2148 20.5181 33.2143 22.8853C33.2138 25.253 34.8745 27.2959 37.1918 27.7793C30.0795 27.4781 27.1879 24.1089 26.3735 22.8867ZM35.2143 22.8863C35.2143 21.2295 36.5576 19.8863 38.2143 19.8863C39.871 19.8863 41.2143 21.2295 41.2143 22.8863C41.2143 24.543 39.871 25.8863 38.2143 25.8863C36.558 25.8843 35.2162 24.5425 35.2143 22.8863ZM50.0551 22.8858C49.2372 24.1128 46.3442 27.4781 39.2368 27.7793C41.5546 27.2959 43.2148 25.2525 43.2143 22.8853C43.2138 20.5181 41.5527 18.4756 39.2353 17.9927C46.3491 18.2935 49.2407 21.6636 50.0551 22.8858Z" fill="#9A563A"/>
</g>
<defs>
<clipPath id="clip0_25_70">
<rect width="60" height="60" fill="white" transform="translate(0.714294 0.88623)"/>
</clipPath>
</defs>
</svg>
