<svg width="61" height="61" viewBox="0 0 61 61" fill="none" xmlns="http://www.w3.org/2000/svg">
<path d="M12.6875 35.6506L10.8125 35.4959C10.791 35.7425 10.3438 41.5634 13.625 45.1212C14.4658 46.0058 15.4869 46.6994 16.6192 47.1549C17.7514 47.6104 18.9684 47.8172 20.1875 47.7612V45.8862C19.2298 45.9371 18.2724 45.7823 17.3794 45.4324C16.4865 45.0825 15.6788 44.5455 15.0107 43.8575C12.2928 40.9118 12.68 35.7031 12.6875 35.6506Z" fill="#9A563A"/>
<path d="M50.1875 31.8237H38V33.6987H50.1875V31.8237Z" fill="#9A563A"/>
<path d="M36.125 31.8237H34.25V33.6987H36.125V31.8237Z" fill="#9A563A"/>
<path d="M9.45125 28.0737H7.0625V40.2612C7.06662 43.0806 8.12838 45.7957 10.0379 47.87C11.9474 49.9442 14.5656 51.2265 17.375 51.4634V57.1362H43.625V51.4634C46.4344 51.2265 49.0526 49.9442 50.9621 47.87C52.8716 45.7957 53.9334 43.0806 53.9375 40.2612V28.0737H44.9506L50.8156 22.2097C51.44 21.7062 55.6663 18.2965 56.4753 17.4865C57.0804 16.9218 57.5628 16.2386 57.8927 15.4794C58.2225 14.7203 58.3928 13.9014 58.3928 13.0737C58.3928 12.246 58.2225 11.4272 57.8927 10.668C57.5628 9.9089 57.0804 9.22571 56.4753 8.66092C55.9113 8.05462 55.2283 7.57106 54.4691 7.2404C53.7098 6.90975 52.8906 6.7391 52.0625 6.7391C51.2344 6.7391 50.4152 6.90975 49.6559 7.2404C48.8967 7.57106 48.2137 8.05462 47.6497 8.66092C46.8387 9.47186 43.415 13.715 42.9228 14.3253L29.1744 28.0737H25.2987C27.4462 26.8444 29.2313 25.0703 30.4738 22.9304C31.7162 20.7905 32.372 18.3607 32.375 15.8862V5.57373C32.375 5.32509 32.2762 5.08663 32.1004 4.91082C31.9246 4.735 31.6861 4.63623 31.4375 4.63623H29.5625C26.4221 4.64178 23.3737 5.69745 20.9024 7.63529C18.4312 9.57312 16.679 12.2818 15.9247 15.3303C14.7692 12.969 12.9751 10.9789 10.7458 9.58579C8.51646 8.19267 5.9413 7.45231 3.3125 7.44873C3.06386 7.44873 2.8254 7.5475 2.64959 7.72332C2.47377 7.89913 2.375 8.13759 2.375 8.38623V15.8862C2.37797 18.3607 3.03379 20.7905 4.27624 22.9304C5.51869 25.0703 7.30378 26.8444 9.45125 28.0737ZM41.75 55.2612H26.75V53.3862H24.875V55.2612H23V53.3862H21.125V55.2612H19.25V51.5112H41.75V55.2612ZM48.9753 9.98654C49.3695 9.56167 49.8472 9.22273 50.3784 8.99095C50.9096 8.75917 51.4829 8.63954 52.0625 8.63954C52.6421 8.63954 53.2154 8.75917 53.7466 8.99095C54.2778 9.22273 54.7555 9.56167 55.1497 9.98654C55.579 10.3781 55.9219 10.8549 56.1565 11.3865C56.3912 11.918 56.5123 12.4927 56.5123 13.0737C56.5123 13.6548 56.3912 14.2294 56.1565 14.761C55.9219 15.2926 55.579 15.7694 55.1497 16.1609C54.5994 16.7112 51.8487 18.9603 50.2541 20.2522L44.8841 14.8822C46.1759 13.2875 48.425 10.5369 48.9753 9.98654ZM43.625 16.2744L48.8619 21.5112L47.375 22.9981L42.1381 17.7612L43.625 16.2744ZM40.8125 19.0869L46.0494 24.3237L42.6875 27.6856L37.4506 22.4487L40.8125 19.0869ZM36.125 23.7744L40.4244 28.0737H31.8256L36.125 23.7744ZM52.0625 29.9487V40.2612C52.0598 42.7468 51.0712 45.1298 49.3136 46.8873C47.556 48.6449 45.1731 49.6335 42.6875 49.6362H18.3125C15.8269 49.6335 13.444 48.6449 11.6864 46.8873C9.92883 45.1298 8.94023 42.7468 8.9375 40.2612V29.9487H52.0625ZM17.375 18.6987C17.3787 15.4675 18.664 12.3698 20.9487 10.085C23.2335 7.80018 26.3313 6.51495 29.5625 6.51123H30.5V15.8862C30.4963 19.1174 29.211 22.2152 26.9263 24.5C24.6415 26.7848 21.5437 28.07 18.3125 28.0737H17.375V27.6219C19.1328 26.3422 25.8791 20.9656 26.7444 13.1769L24.8806 12.9706C24.2356 18.7728 19.7441 23.2419 17.375 25.2265V18.6987ZM4.25 9.35936C7.30967 9.59913 10.1666 10.983 12.2516 13.2351C14.3366 15.4872 15.4964 18.4422 15.5 21.5112V25.4225C12.4745 23.1508 10.1741 20.0492 8.87844 16.4947L7.12156 17.1509C8.67062 21.4925 11.6177 25.1967 15.5 27.6819V28.0381C12.4403 27.7983 9.58335 26.4145 7.49839 24.1624C5.41343 21.9103 4.25359 18.9553 4.25 15.8862V9.35936Z" fill="#9A563A"/>
<path d="M53.2747 10.5362L51.4 12.4109L52.7258 13.7368L54.6005 11.8621L53.2747 10.5362Z" fill="#9A563A"/>
<path d="M50.4622 13.3484L48.5875 15.2231L49.9133 16.549L51.788 14.6743L50.4622 13.3484Z" fill="#9A563A"/>
</svg>
