<svg width="61" height="61" viewBox="0 0 61 61" fill="none" xmlns="http://www.w3.org/2000/svg">
<g clip-path="url(#clip0_25_49)">
<path d="M54.7025 49.9536L57.014 47.0194C57.2215 46.7555 57.2838 46.4046 57.1793 46.0852C57.0753 45.7658 56.8177 45.52 56.4944 45.4297L52.8988 44.4248C51.5691 44.0568 50.1609 44.0858 48.8469 44.5082C48.8434 43.1221 48.4323 41.7679 47.6644 40.6143L45.5943 37.5089C45.4225 37.214 45.0992 37.0413 44.7582 37.0619C44.5398 37.0644 44.3284 37.1375 44.1552 37.2709C42.8995 36.3235 41.4138 35.7263 39.8515 35.5413L36.7545 35.1768L38.8324 34.6572C40.7239 34.1842 42.1896 32.6891 42.6243 30.7883C43.0595 28.8874 42.3893 26.9037 40.8913 25.6554C38.2696 23.4676 35.071 22.0859 31.6805 21.6762L32.8154 21.5054C35.0067 21.1698 36.729 19.4544 37.0734 17.2641C37.4179 15.0743 36.305 12.9129 34.3227 11.9208L33.9749 11.7481C31.6074 10.5626 29.0555 9.78983 26.4285 9.46305L23.6219 9.11321C22.5748 8.98122 21.514 9.00281 20.4733 9.1765C17.2712 9.70691 14.626 11.9674 13.604 15.0478L13.5034 15.3495C13.158 16.3937 13.158 17.5212 13.5034 18.5649L14.0058 20.0722C14.3022 20.9524 14.8355 21.7341 15.5475 22.3302L14.8522 22.4568C12.6227 22.8552 10.9142 24.6609 10.6394 26.9086L10.4014 28.7957C10.1227 31.0841 11.3837 33.2828 13.4995 34.1979L16.1294 35.3254L13.5235 35.6267C10.9225 35.9314 8.58695 37.3646 7.13753 39.5461L6.06052 41.1535C4.06352 44.1515 4.06352 48.0552 6.06052 51.0527L6.8132 52.1763C8.46575 54.663 11.2542 56.1566 14.2399 56.1546H36.8085L36.6598 59.8424C36.647 60.1776 36.8021 60.4975 37.0734 60.6942C37.3447 60.8915 37.6966 60.94 38.0116 60.8243L41.5183 59.5289C42.822 59.0481 43.9535 58.1904 44.7685 57.0648C44.8509 57.1806 44.9152 57.3013 45.0055 57.4136C45.8043 58.3641 46.8357 59.0912 47.999 59.524L51.496 60.8203C51.811 60.9371 52.1633 60.889 52.4356 60.6918C52.7074 60.4945 52.863 60.1741 52.8497 59.8385L52.6986 56.1011C52.6422 54.7194 52.1785 53.3853 51.3655 52.2666C52.6809 51.8407 53.8418 51.036 54.7025 49.9536ZM15.4028 17.9383C15.1932 17.3053 15.1932 16.6213 15.4028 15.9884L15.5033 15.6871C16.2913 13.3133 18.3301 11.5719 20.7981 11.1652C21.6465 11.0229 22.511 11.0052 23.3643 11.1127L26.1718 11.4635C28.5736 11.7608 30.9072 12.4654 33.0716 13.5478L33.418 13.7215C34.6176 14.3206 35.2918 15.6268 35.0852 16.9516C34.8787 18.2764 33.839 19.3156 32.5137 19.5207L22.9202 20.9936L19.2613 21.5162C17.7869 21.7321 16.3708 20.8568 15.9042 19.4412L15.4028 17.9383ZM14.2875 32.351C12.9921 31.7912 12.2203 30.4453 12.3911 29.0449L12.6261 27.1628C12.7944 25.7874 13.84 24.6825 15.2035 24.4386L22.7122 23.0741C22.8996 23.0397 23.0895 23.0221 23.2799 23.0216C23.3603 23.0216 23.4418 23.0216 23.5232 23.0319L30.7002 23.5844C33.9734 23.8297 37.0871 25.0951 39.6043 27.202C40.5208 27.9655 40.9305 29.1794 40.6646 30.3423C40.3986 31.5051 39.5022 32.4202 38.3452 32.7097L33.3669 33.9526C33.1157 34.0159 32.8576 34.0482 32.5981 34.0482H18.8958C18.4665 34.0487 18.0411 33.9614 17.6466 33.7921L14.2875 32.351ZM37.91 52.6135C37.6092 53.0938 37.3663 53.6076 37.1853 54.1448H14.2399C11.9259 54.1473 9.76454 52.9903 8.48293 51.064L7.73123 49.9404C6.18515 47.6185 6.18515 44.5951 7.73123 42.2732L8.80775 40.6653C9.93088 38.975 11.7409 37.8646 13.7566 37.6286L24.4467 36.3725C26.1988 36.1704 27.9682 36.1704 29.7203 36.3725L39.6214 37.5393C40.8461 37.688 42.008 38.1649 42.9844 38.9191L41.8539 40.6153C41.0895 41.7664 40.6778 43.1162 40.6695 44.4979C39.3535 44.0701 37.9409 44.0436 36.6097 44.4209L33.0122 45.4258C32.6883 45.516 32.4317 45.7628 32.3277 46.0823C32.2237 46.4022 32.2865 46.7525 32.4945 47.016L34.8198 49.9585C35.6868 51.0394 36.8516 51.8431 38.17 52.2695C38.0847 52.3893 37.9875 52.4918 37.91 52.6135ZM42.0551 47.6131C42.4408 47.9988 42.7651 48.4414 43.0158 48.9257L43.2327 49.3525L42.7617 49.4271C42.0129 49.541 41.2887 49.7789 40.618 50.1302C40.3555 50.2676 40.1023 50.4227 39.8604 50.5944C38.4968 50.4614 37.2447 49.7824 36.3884 48.7127L35.0048 46.963L37.1465 46.36C38.5773 45.9459 40.1185 46.1956 41.3456 47.0405C41.6017 47.2054 41.8397 47.3972 42.0551 47.6131ZM40.8191 57.6467L38.725 58.4205L38.8162 56.1767C38.8226 55.9014 38.8589 55.6276 38.9262 55.3607C39.171 54.191 39.8241 53.1459 40.7681 52.4123C41.01 52.22 41.2705 52.0517 41.5458 51.9099C42.0237 51.6596 42.5404 51.4899 43.0742 51.4074L43.5462 51.3333L43.4712 51.8044C43.3544 52.5291 43.3544 53.2675 43.4712 53.9923L43.4761 54.0251L43.482 54.0634C43.5305 54.346 43.5978 54.6247 43.6831 54.8985C43.1498 56.1698 42.1145 57.1634 40.8221 57.6438L40.8191 57.6467ZM45.0236 48.4404L44.8033 48.0091C44.4579 47.3384 44.0099 46.726 43.4761 46.1932C43.2612 45.9807 43.031 45.7849 42.7867 45.6073C42.4977 44.2693 42.7631 42.8709 43.5222 41.7315L44.7552 39.8754L45.9902 41.7286C46.5437 42.5578 46.8386 43.5323 46.8386 44.5293C46.8386 44.7604 46.8219 44.9915 46.7881 45.2207C46.7542 45.4606 46.7032 45.6981 46.6355 45.9311C46.5521 46.226 46.4412 46.5131 46.3038 46.7873C46.0589 47.2697 45.742 47.7122 45.3642 48.0994L45.0236 48.4404ZM48.6933 57.6467C47.8607 57.3376 47.1227 56.8185 46.5501 56.1394C46.1777 55.6855 45.8877 55.1694 45.6939 54.6149C45.5903 54.3328 45.5158 54.0403 45.4716 53.743V53.7106L45.4667 53.6748C45.3838 53.1601 45.3838 52.6356 45.4667 52.1209L45.5413 51.6479L45.9539 51.8579C46.1536 51.9609 46.3587 52.0527 46.5692 52.1321C47.0707 52.3343 47.5947 52.4776 48.1295 52.558C48.421 52.5983 48.7139 52.6228 49.0078 52.6316C50.0299 53.5374 50.6388 54.8205 50.6952 56.1845L50.7855 58.4166L48.6933 57.6467ZM49.3336 50.6219C49.2983 50.6219 49.1805 50.6219 49.1467 50.6307C48.8984 50.6273 48.6506 50.6077 48.4048 50.5713C48.026 50.5144 47.6551 50.4134 47.2998 50.2701C47.1521 50.2146 47.0074 50.1504 46.8675 50.0782L46.4426 49.8618L46.7881 49.5174C47.3136 48.9801 47.7542 48.3658 48.0947 47.6956C48.2242 47.4316 48.3366 47.1593 48.4313 46.8806C49.6133 46.1838 51.0279 45.9979 52.3502 46.3649L54.4954 46.9679L53.1191 48.7157C52.1976 49.8736 50.8154 50.5689 49.3366 50.6189L49.3336 50.6219Z" fill="#9A563A"/>
<path d="M28.0874 6.91551V2.89599C28.0874 2.34105 27.6375 1.89111 27.0825 1.89111C26.5276 1.89111 26.0776 2.34105 26.0776 2.89599V6.91551C26.0776 7.47045 26.5276 7.92039 27.0825 7.92039C27.6375 7.92039 28.0874 7.47045 28.0874 6.91551Z" fill="#9A563A"/>
<path d="M32.1069 7.9204C32.1069 8.47534 32.5568 8.92528 33.1118 8.92528C33.6667 8.92528 34.1167 8.47534 34.1167 7.9204V6.91552C34.1167 6.36058 33.6667 5.91064 33.1118 5.91064C32.5568 5.91064 32.1069 6.36058 32.1069 6.91552V7.9204Z" fill="#9A563A"/>
<path d="M33.1118 4.90575C33.6667 4.90575 34.1167 4.45581 34.1167 3.90087V1.89111C34.1167 1.33617 33.6667 0.88623 33.1118 0.88623C32.5568 0.88623 32.1069 1.33617 32.1069 1.89111V3.90087C32.1069 4.45581 32.5568 4.90575 33.1118 4.90575Z" fill="#9A563A"/>
<path d="M8.99469 20.9838C8.99469 21.5388 9.44463 21.9887 9.99957 21.9887C10.5545 21.9887 11.0044 21.5388 11.0044 20.9838V19.9789C11.0044 19.424 10.5545 18.9741 9.99957 18.9741C9.44463 18.9741 8.99469 19.424 8.99469 19.9789V20.9838Z" fill="#9A563A"/>
<path d="M9.99957 17.9692C10.5545 17.9692 11.0044 17.5192 11.0044 16.9643V14.9545C11.0044 14.3996 10.5545 13.9496 9.99957 13.9496C9.44463 13.9496 8.99469 14.3996 8.99469 14.9545V16.9643C8.99469 17.5192 9.44463 17.9692 9.99957 17.9692Z" fill="#9A563A"/>
<path d="M20.0484 6.91552C20.0484 7.47046 20.4983 7.9204 21.0532 7.9204C21.6082 7.9204 22.0581 7.47046 22.0581 6.91552V5.91064C22.0581 5.3557 21.6082 4.90576 21.0532 4.90576C20.4983 4.90576 20.0484 5.3557 20.0484 5.91064V6.91552Z" fill="#9A563A"/>
<path d="M21.0532 3.90087C21.6082 3.90087 22.0581 3.45093 22.0581 2.89599V1.89111C22.0581 1.33617 21.6082 0.88623 21.0532 0.88623C20.4983 0.88623 20.0484 1.33617 20.0484 1.89111V2.89599C20.0484 3.45093 20.4983 3.90087 21.0532 3.90087Z" fill="#9A563A"/>
<path d="M40.1459 15.9594C40.1459 16.5143 40.5959 16.9643 41.1508 16.9643C41.7058 16.9643 42.1557 16.5143 42.1557 15.9594V11.9399C42.1557 11.3849 41.7058 10.935 41.1508 10.935C40.5959 10.935 40.1459 11.3849 40.1459 11.9399V15.9594Z" fill="#9A563A"/>
<path d="M41.1508 9.93016C41.7058 9.93016 42.1557 9.48022 42.1557 8.92528V5.91064C42.1557 5.3557 41.7058 4.90576 41.1508 4.90576C40.5959 4.90576 40.1459 5.3557 40.1459 5.91064V8.92528C40.1459 9.48022 40.5959 9.93016 41.1508 9.93016Z" fill="#9A563A"/>
<path d="M40.1459 20.9838C40.1459 21.5388 40.5959 21.9887 41.1508 21.9887C41.7058 21.9887 42.1557 21.5388 42.1557 20.9838V19.9789C42.1557 19.424 41.7058 18.9741 41.1508 18.9741C40.5959 18.9741 40.1459 19.424 40.1459 19.9789V20.9838Z" fill="#9A563A"/>
<path d="M48.185 27.0131C48.185 26.4581 47.735 26.0082 47.1801 26.0082C46.6252 26.0082 46.1752 26.4581 46.1752 27.0131V28.0179C46.1752 28.5729 46.6252 29.0228 47.1801 29.0228C47.735 29.0228 48.185 28.5729 48.185 28.0179V27.0131Z" fill="#9A563A"/>
<path d="M48.185 20.9838C48.185 20.4289 47.735 19.9789 47.1801 19.9789C46.6252 19.9789 46.1752 20.4289 46.1752 20.9838V23.9985C46.1752 24.5534 46.6252 25.0033 47.1801 25.0033C47.735 25.0033 48.185 24.5534 48.185 23.9985V20.9838Z" fill="#9A563A"/>
<path d="M47.1801 31.0326C46.6252 31.0326 46.1752 31.4825 46.1752 32.0375V33.0424C46.1752 33.5973 46.6252 34.0472 47.1801 34.0472C47.735 34.0472 48.185 33.5973 48.185 33.0424V32.0375C48.185 31.4825 47.735 31.0326 47.1801 31.0326Z" fill="#9A563A"/>
<path d="M26.556 30.0278H29.5633C30 30.0278 30.4347 29.9743 30.8577 29.8678L34.3605 28.9929C34.8953 28.8546 35.2187 28.3114 35.0843 27.7756C34.9503 27.2398 34.4091 26.913 33.8723 27.043L30.3695 27.9184C30.1065 27.9851 29.8366 28.019 29.5653 28.019H26.556C26.0011 28.019 25.5512 28.4689 25.5512 29.0239C25.5512 29.5788 26.0011 30.0287 26.556 30.0287V30.0278Z" fill="#9A563A"/>
<path d="M20.0484 30.0277C20.6033 30.0277 21.0532 29.5778 21.0532 29.0228C21.0532 28.4679 20.6033 28.018 20.0484 28.018H19.4512C18.6784 28.0165 17.9159 27.8369 17.2236 27.4925L16.4778 27.1186C15.9812 26.8703 15.3772 27.072 15.1295 27.569C14.8812 28.0656 15.0828 28.6691 15.5794 28.9174L16.3252 29.2903C17.2967 29.7736 18.3664 30.0263 19.4512 30.0277H20.0484Z" fill="#9A563A"/>
<path d="M16.1672 49.6229L15.5112 49.5316C13.7801 49.2897 12.1609 48.5366 10.8607 47.3688L10.1875 48.1146L9.55944 48.9016C11.1497 50.3177 13.1246 51.2298 15.234 51.5222L15.89 51.6125C15.9361 51.6194 15.9832 51.6228 16.0298 51.6228C16.5563 51.6204 16.992 51.2121 17.0283 50.6866C17.0646 50.1611 16.6888 49.697 16.1672 49.6229Z" fill="#9A563A"/>
<path d="M25.0728 50.1253H20.0484C19.4934 50.1253 19.0435 50.5752 19.0435 51.1302C19.0435 51.6851 19.4934 52.1351 20.0484 52.1351H25.0728C25.6277 52.1351 26.0776 51.6851 26.0776 51.1302C26.0776 50.5752 25.6277 50.1253 25.0728 50.1253Z" fill="#9A563A"/>
<path d="M32.1069 50.1253H29.0923C28.5373 50.1253 28.0874 50.5752 28.0874 51.1302C28.0874 51.6851 28.5373 52.1351 29.0923 52.1351H32.1069C32.6619 52.1351 33.1118 51.6851 33.1118 51.1302C33.1118 50.5752 32.6619 50.1253 32.1069 50.1253Z" fill="#9A563A"/>
<path d="M19.0435 17.9692H21.1538C22.5983 17.9706 24.011 17.5428 25.2121 16.74L26.6375 15.7906C27.0992 15.4825 27.2238 14.8583 26.9157 14.3966C26.6076 13.9349 25.9834 13.8103 25.5217 14.1184L24.0978 15.0679C23.2264 15.6498 22.2019 15.9604 21.1538 15.9594H19.0435C18.4885 15.9594 18.0386 16.4093 18.0386 16.9643C18.0386 17.5192 18.4885 17.9692 19.0435 17.9692Z" fill="#9A563A"/>
</g>
<defs>
<clipPath id="clip0_25_49">
<rect width="60" height="60" fill="white" transform="translate(0.83609 0.88623)"/>
</clipPath>
</defs>
</svg>
