<svg width="61" height="61" viewBox="0 0 61 61" fill="none" xmlns="http://www.w3.org/2000/svg">
<g clip-path="url(#clip0_25_101)">
<path d="M2.6755 28.3862C2.6755 35.6622 7.1135 37.5492 9.2205 38.0362C9.80585 40.0835 10.6105 42.0617 11.6205 43.9362C10.5693 45.2405 8.95882 45.9649 7.2855 45.8862C6.73322 45.8862 6.2855 46.334 6.2855 46.8862C6.2855 47.4385 6.73322 47.8862 7.2855 47.8862C13.1855 47.8862 13.2855 54.6022 13.2855 54.8862V54.9012C13.2896 55.4535 13.7407 55.8979 14.293 55.8937C14.8453 55.8896 15.2896 55.4385 15.2855 54.8862C15.3271 53.2733 15.7819 51.6981 16.6065 50.3112C19.3167 52.6497 22.7861 53.9206 26.3655 53.8862C31.5875 53.8862 35.9305 51.5012 39.2905 46.8072C40.2454 46.9547 41.2209 46.8929 42.1495 46.6262C43.6691 49.2611 46.8126 50.4898 49.7162 49.5839C52.6197 48.678 54.5068 45.8797 54.2585 42.8482C56.3668 43.1048 58.366 41.8474 59.0478 39.8359C59.7297 37.8245 58.9072 35.6106 57.0775 34.5322C57.639 32.9264 56.9608 31.1497 55.4722 30.3264C53.9836 29.503 52.1182 29.8729 51.0564 31.202C49.9946 32.5312 50.0457 34.4322 51.1775 35.7022C50.7905 36.215 50.5202 36.8061 50.3855 37.4342C49.5661 37.0736 48.6808 36.887 47.7855 36.8862C46.3655 36.8862 46.7955 37.2352 46.4785 36.6342C48.2135 35.3342 49.9355 32.9012 49.9355 28.3862C49.9355 25.8192 49.4805 22.6732 46.9485 22.3132C50.5438 16.7423 51.9796 10.0496 50.9855 3.49424L50.5855 1.66924C50.4834 1.20997 50.075 0.883972 49.6045 0.886242H2.9665C2.49789 0.886323 2.09219 1.2118 1.9905 1.66924L1.5705 3.56924C0.594405 10.1045 2.03622 16.7713 5.6255 22.3192C3.1215 22.7122 2.6755 25.8422 2.6755 28.3862ZM4.6755 28.3862C4.6755 25.1982 5.4485 24.5092 5.6845 24.3742C6.1755 24.0952 7.0775 24.4932 7.5045 24.7862C7.54464 28.4722 7.92323 32.1466 8.6355 35.7632C6.8625 35.0292 4.6755 33.1592 4.6755 28.3862ZM14.2855 50.3592C13.6583 48.9178 12.6015 47.7049 11.2595 46.8862C12.5905 46.0546 13.6439 44.8456 14.2855 43.4132C14.9127 44.8547 15.9695 46.0676 17.3115 46.8862C15.9794 47.7166 14.9257 48.926 14.2855 50.3592ZM26.3655 51.8862C23.2998 51.9156 20.3256 50.842 17.9855 48.8612C18.954 48.194 20.1099 47.8525 21.2855 47.8862C21.8378 47.8862 22.2855 47.4385 22.2855 46.8862C22.2855 46.334 21.8378 45.8862 21.2855 45.8862C15.3855 45.8862 15.2855 39.1702 15.2855 38.8862V38.8712C15.2814 38.319 14.8303 37.8746 14.278 37.8787C13.7257 37.8829 13.2814 38.334 13.2855 38.8862C13.2571 39.8729 13.0839 40.85 12.7715 41.7862C10.1465 36.2912 9.5425 29.9962 9.4785 23.7862C11.8798 19.4243 14.8553 15.4041 18.3255 11.8332C20.7563 13.2699 23.5429 13.9919 26.3655 13.9162C31.2295 13.9162 34.3855 13.9542 36.7325 14.5762C39.2469 17.5185 41.434 20.7254 43.2555 24.1402C43.244 27.1955 43.0044 30.2457 42.5385 33.2652C39.0307 32.0476 35.183 33.7842 33.7755 37.2201C32.3679 40.6561 33.8916 44.593 37.2455 46.1862C34.3415 49.9532 30.6935 51.8862 26.3655 51.8862ZM19.8105 10.3862C21.7919 8.51774 23.9619 6.85987 26.2855 5.43924C29.3213 7.31644 32.1016 9.57818 34.5575 12.1682C28.1665 11.4802 24.1285 12.7802 19.8105 10.3862ZM35.2855 39.8862C35.2855 37.1248 37.5241 34.8862 40.2855 34.8862C43.0469 34.8862 45.2855 37.1248 45.2855 39.8862C45.2855 42.6477 43.0469 44.8862 40.2855 44.8862C37.5255 44.8829 35.2888 42.6463 35.2855 39.8862ZM53.7855 31.8862C54.6139 31.8862 55.2855 32.5578 55.2855 33.3862C55.2855 34.2147 54.6139 34.8862 53.7855 34.8862C52.9571 34.8862 52.2855 34.2147 52.2855 33.3862C52.2855 32.5578 52.9571 31.8862 53.7855 31.8862ZM52.2855 38.3862C52.2848 37.787 52.5036 37.2082 52.9005 36.7592C53.939 37.0493 55.0535 36.8264 55.9005 36.1592C56.7099 36.552 57.2437 37.3517 57.2959 38.2498C57.3482 39.148 56.9107 40.0042 56.1523 40.4881C55.3938 40.972 54.433 41.008 53.6405 40.5822C53.3139 39.901 52.8717 39.2815 52.3335 38.7512C52.308 38.631 52.292 38.509 52.2855 38.3862ZM52.2855 43.3862C52.2803 45.3808 50.9626 47.1339 49.0482 47.6936C47.1337 48.2533 45.0793 47.4859 44.0005 45.8082C46.3358 44.3527 47.5946 41.6583 47.2125 38.9332C48.4943 38.7647 49.7866 39.1572 50.7582 40.01C51.7298 40.8629 52.2865 42.0934 52.2855 43.3862ZM47.9355 28.3862C47.9355 31.4702 47.0465 33.6912 45.3005 35.0132C45.0232 34.7281 44.7221 34.4672 44.4005 34.2332C44.9371 31.0864 45.219 27.9014 45.2435 24.7092C45.7225 24.4392 46.4685 24.1092 46.9305 24.3742C47.1635 24.5082 47.9355 25.1952 47.9355 28.3862ZM48.8045 2.88624C50.15 9.66357 48.6071 16.695 44.5475 22.2862C39.3985 13.1452 31.8375 6.14324 25.8555 2.88624H48.8045ZM3.7685 2.88624H17.4075C15.1763 4.36409 13.1863 6.17705 11.5075 8.26124C11.1623 8.69258 11.2322 9.32206 11.6635 9.66724C12.0948 10.0124 12.7243 9.94258 13.0695 9.51124C15.3047 6.75115 18.1204 4.51723 21.3165 2.96824C22.3324 3.36751 23.3267 3.81945 24.2955 4.32224C15.9015 9.72624 10.5405 17.7992 8.0245 22.2862C3.95923 16.6975 2.4161 9.6635 3.7685 2.88624Z" fill="#9A563A"/>
<path d="M14.7325 22.6213C15.7753 22.0971 16.9843 22.0114 18.0905 22.3833L21.9695 23.6763C22.4942 23.8508 23.061 23.5669 23.2355 23.0423C23.4101 22.5176 23.1262 21.9508 22.6015 21.7763L18.7225 20.4863C17.1134 19.9457 15.3551 20.0707 13.8385 20.8333C13.5161 20.9913 13.3031 21.3101 13.2805 21.6685C13.258 22.0269 13.4294 22.3699 13.7296 22.5671C14.0297 22.7642 14.4126 22.7843 14.7325 22.6213Z" fill="#9A563A"/>
<path d="M30.2855 23.7272C30.5185 23.7272 30.2855 23.7822 34.4855 22.3832C35.5916 22.0104 36.801 22.0961 37.8435 22.6212C38.1635 22.7843 38.5463 22.7632 38.8465 22.566C39.1467 22.3689 39.318 22.0259 39.2955 21.6675C39.273 21.3091 39.06 20.9903 38.7375 20.8322C37.2206 20.0697 35.462 19.9448 33.8525 20.4852L29.9745 21.7782C29.5096 21.9327 29.2251 22.4011 29.3023 22.8848C29.3794 23.3686 29.7957 23.7252 30.2855 23.7272Z" fill="#9A563A"/>
<path d="M22.2305 27.5652C22.0532 27.0433 21.4869 26.7633 20.9645 26.9392C20.9295 26.9502 17.5195 28.0622 14.8855 26.0862C14.4894 25.791 13.9371 25.8292 13.5855 26.1762C13.2344 26.5395 12.7809 26.7871 12.2855 26.8862C11.7332 26.8862 11.2855 27.3339 11.2855 27.8862C11.2855 28.4385 11.7332 28.8862 12.2855 28.8862C13.0323 28.8462 13.7497 28.5824 14.3445 28.1292C14.4955 28.2192 14.6445 28.2992 14.7985 28.3762C14.6644 28.5797 14.4898 28.7533 14.2855 28.8862C13.7332 28.8862 13.2855 29.3339 13.2855 29.8862C13.2855 31.1152 15.1325 31.5862 16.7585 29.0672C18.3697 29.3964 20.0377 29.3156 21.6095 28.8322C22.13 28.6528 22.4076 28.0865 22.2305 27.5652Z" fill="#9A563A"/>
<path d="M37.6855 26.0863C35.0505 28.0623 31.6405 26.9513 31.6095 26.9403C31.089 26.768 30.5269 27.047 30.3493 27.5656C30.1716 28.0843 30.4447 28.6493 30.9615 28.8323C32.5331 29.3164 34.2014 29.3972 35.8125 29.0673C36.3205 29.8563 37.1915 30.8863 38.2855 30.8863C38.8425 30.8891 39.2982 30.4432 39.3075 29.8863C39.3131 29.623 39.2125 29.3686 39.0283 29.1804C38.8441 28.9922 38.5918 28.8862 38.3285 28.8863C38.1069 28.7591 37.9179 28.5821 37.7765 28.3693C37.9265 28.2923 38.0765 28.2143 38.2265 28.1243C38.8207 28.5792 39.5382 28.8448 40.2855 28.8863C40.8378 28.8863 41.2855 28.4386 41.2855 27.8863C41.2855 27.334 40.8378 26.8863 40.2855 26.8863C39.7928 26.7869 39.342 26.5404 38.9925 26.1793C38.6406 25.8274 38.0836 25.7878 37.6855 26.0863Z" fill="#9A563A"/>
<path d="M22.7305 35.7182C24.8819 37.1577 27.6891 37.1577 29.8405 35.7182C30.1378 35.5199 30.3066 35.1781 30.2835 34.8216C30.2604 34.465 30.0489 34.1479 29.7285 33.9896C29.4082 33.8313 29.0278 33.8559 28.7305 34.0542C27.2506 35.0434 25.3204 35.0434 23.8405 34.0542C23.381 33.7477 22.76 33.8717 22.4535 34.3312C22.147 34.7907 22.271 35.4117 22.7305 35.7182Z" fill="#9A563A"/>
<path d="M30.9855 40.4862C30.312 40.3371 29.6616 40.0983 29.0515 39.7762C26.4515 38.5932 26.1345 38.5922 23.5295 39.7762C22.9195 40.0983 22.269 40.3371 21.5955 40.4862C21.2598 40.4599 20.9281 40.5741 20.6798 40.8016C20.4314 41.0291 20.2886 41.3495 20.2855 41.6862C20.2855 43.0972 23.1105 44.8862 26.2855 44.8862C29.4605 44.8862 32.2855 43.0962 32.2855 41.6862C32.2825 41.3512 32.1412 41.0324 31.895 40.8051C31.6488 40.5779 31.3197 40.4625 30.9855 40.4862ZM23.1655 42.1142C24.1664 41.6117 25.2107 41.2007 26.2855 40.8862C27.3618 41.2015 28.4076 41.6124 29.4105 42.1142C27.4542 43.1432 25.1168 43.1432 23.1605 42.1142H23.1655Z" fill="#9A563A"/>
<path d="M27.2855 46.8862H25.2855C24.7332 46.8862 24.2855 47.3339 24.2855 47.8862C24.2855 48.4385 24.7332 48.8862 25.2855 48.8862H27.2855C27.8378 48.8862 28.2855 48.4385 28.2855 47.8862C28.2855 47.3339 27.8378 46.8862 27.2855 46.8862Z" fill="#9A563A"/>
<path d="M9.28552 12.8862C9.83781 12.8862 10.2855 12.4385 10.2855 11.8862C10.2855 11.3339 9.83781 10.8862 9.28552 10.8862C8.73324 10.8862 8.28552 11.3339 8.28552 11.8862C8.28552 12.4385 8.73324 12.8862 9.28552 12.8862Z" fill="#9A563A"/>
<path d="M60.2855 53.8862C60.2855 51.1248 58.0469 48.8862 55.2855 48.8862C52.5241 48.8862 50.2855 51.1248 50.2855 53.8862C50.2855 56.6477 52.5241 58.8862 55.2855 58.8862C58.0456 58.8829 60.2822 56.6463 60.2855 53.8862ZM52.2855 53.8862C52.2855 52.2294 53.6287 50.8862 55.2855 50.8862C56.9424 50.8862 58.2855 52.2294 58.2855 53.8862C58.2855 55.5431 56.9424 56.8862 55.2855 56.8862C53.6287 56.8862 52.2855 55.5431 52.2855 53.8862Z" fill="#9A563A"/>
<path d="M47.2855 53.8862C47.2855 52.2294 45.9424 50.8862 44.2855 50.8862C42.6287 50.8862 41.2855 52.2294 41.2855 53.8862C41.2855 55.5431 42.6287 56.8862 44.2855 56.8862C45.9424 56.8862 47.2855 55.5431 47.2855 53.8862ZM43.2855 53.8862C43.2855 53.3339 43.7332 52.8862 44.2855 52.8862C44.8378 52.8862 45.2855 53.3339 45.2855 53.8862C45.2855 54.4385 44.8378 54.8862 44.2855 54.8862C43.7332 54.8862 43.2855 54.4385 43.2855 53.8862Z" fill="#9A563A"/>
<path d="M41.2855 36.8862C40.2153 36.8546 39.1794 37.2659 38.4223 38.023C37.6652 38.7801 37.2539 39.816 37.2855 40.8862C37.2855 41.4385 37.7332 41.8862 38.2855 41.8862C38.8378 41.8862 39.2855 41.4385 39.2855 40.8862C39.2512 40.3449 39.4518 39.8151 39.8358 39.4322C40.2199 39.0493 40.7503 38.8503 41.2915 38.8862C41.8438 38.8846 42.2902 38.4355 42.2885 37.8832C42.2869 37.3309 41.8378 36.8846 41.2855 36.8862Z" fill="#9A563A"/>
<path d="M6.28552 50.8862C5.73324 50.8862 5.28552 51.3339 5.28552 51.8862V53.8862C5.28552 54.4385 5.73324 54.8862 6.28552 54.8862C6.83781 54.8862 7.28552 54.4385 7.28552 53.8862V51.8862C7.28552 51.3339 6.83781 50.8862 6.28552 50.8862Z" fill="#9A563A"/>
<path d="M5.28552 59.8862C5.28552 60.4385 5.73324 60.8862 6.28552 60.8862C6.83781 60.8862 7.28552 60.4385 7.28552 59.8862V57.8862C7.28552 57.3339 6.83781 56.8862 6.28552 56.8862C5.73324 56.8862 5.28552 57.3339 5.28552 57.8862V59.8862Z" fill="#9A563A"/>
<path d="M8.28552 56.8862H10.2855C10.8378 56.8862 11.2855 56.4385 11.2855 55.8862C11.2855 55.3339 10.8378 54.8862 10.2855 54.8862H8.28552C7.73324 54.8862 7.28552 55.3339 7.28552 55.8862C7.28552 56.4385 7.73324 56.8862 8.28552 56.8862Z" fill="#9A563A"/>
<path d="M4.28552 54.8862H2.28552C1.73324 54.8862 1.28552 55.3339 1.28552 55.8862C1.28552 56.4385 1.73324 56.8862 2.28552 56.8862H4.28552C4.83781 56.8862 5.28552 56.4385 5.28552 55.8862C5.28552 55.3339 4.83781 54.8862 4.28552 54.8862Z" fill="#9A563A"/>
</g>
<defs>
<clipPath id="clip0_25_101">
<rect width="60" height="60" fill="white" transform="translate(0.785522 0.88623)"/>
</clipPath>
</defs>
</svg>
