<svg width="61" height="61" viewBox="0 0 61 61" fill="none" xmlns="http://www.w3.org/2000/svg">
<path d="M15.9869 37.4487H14.1119V39.3237H15.9869V37.4487Z" fill="#9A563A"/>
<path d="M19.7369 37.4487H17.8619V39.3237H19.7369V37.4487Z" fill="#9A563A"/>
<path d="M15.0494 8.38622C15.0494 7.82996 14.8845 7.2862 14.5754 6.82368C14.2664 6.36117 13.8272 6.00068 13.3132 5.78781C12.7993 5.57494 12.2338 5.51924 11.6882 5.62776C11.1427 5.73629 10.6415 6.00415 10.2482 6.39749C9.85487 6.79082 9.587 7.29196 9.47848 7.83753C9.36996 8.3831 9.42566 8.9486 9.63853 9.46252C9.8514 9.97644 10.2119 10.4157 10.6744 10.7247C11.1369 11.0338 11.6807 11.1987 12.2369 11.1987C12.2969 11.1987 12.3541 11.1847 12.4132 11.1809L14.8338 22.4787C14.7006 22.5097 14.5757 22.5695 14.468 22.6539C14.3603 22.7383 14.2724 22.8452 14.2104 22.9672L10.4604 30.4672C10.3955 30.5973 10.3618 30.7408 10.3619 30.8862V58.0737C10.3619 58.3224 10.4607 58.5608 10.6365 58.7366C10.8123 58.9125 11.0508 59.0112 11.2994 59.0112H26.2994C26.5481 59.0112 26.7865 58.9125 26.9624 58.7366C27.1382 58.5608 27.2369 58.3224 27.2369 58.0737V30.8862C27.2371 30.7408 27.2034 30.5973 27.1385 30.4672L23.3885 22.9672C23.3281 22.8477 23.2428 22.7425 23.1383 22.6587C23.0338 22.575 22.9127 22.5145 22.7829 22.4815L25.1744 12.1175C25.2382 12.1175 25.2982 12.1362 25.3619 12.1362C26.0201 12.1401 26.6591 11.9145 27.1688 11.4981C27.6785 11.0817 28.0271 10.5006 28.1546 9.85485C28.282 9.20912 28.1804 8.53916 27.8671 7.96029C27.5539 7.38143 27.0486 6.92989 26.4383 6.68341C25.828 6.43693 25.1509 6.41093 24.5235 6.60988C23.8961 6.80884 23.3577 7.22031 23.001 7.77344C22.6443 8.32658 22.4915 8.98678 22.5691 9.64038C22.6467 10.294 22.9497 10.9001 23.426 11.3543L20.8619 22.4487H19.7369V8.21372C20.3625 7.99257 20.8896 7.55741 21.2253 6.98515C21.561 6.41289 21.6836 5.74038 21.5714 5.08647C21.4592 4.43257 21.1195 3.83938 20.6122 3.41175C20.105 2.98412 19.4629 2.74957 18.7994 2.74957C18.136 2.74957 17.4939 2.98412 16.9866 3.41175C16.4794 3.83938 16.1396 4.43257 16.0274 5.08647C15.9153 5.74038 16.0378 6.41289 16.3735 6.98515C16.7092 7.55741 17.2364 7.99257 17.8619 8.21372V22.4487H16.7444L14.1673 10.4215C14.4453 10.1604 14.6671 9.84511 14.8188 9.49509C14.9705 9.14507 15.049 8.76771 15.0494 8.38622ZM25.3619 8.38622C25.5474 8.38622 25.7286 8.44121 25.8828 8.54422C26.037 8.64723 26.1571 8.79365 26.2281 8.96496C26.299 9.13626 26.3176 9.32476 26.2814 9.50662C26.2453 9.68848 26.156 9.85552 26.0249 9.98664C25.8937 10.1177 25.7267 10.207 25.5448 10.2432C25.363 10.2794 25.1745 10.2608 25.0032 10.1899C24.8319 10.1189 24.6854 9.99874 24.5824 9.84457C24.4794 9.6904 24.4244 9.50914 24.4244 9.32372C24.4244 9.07508 24.5232 8.83663 24.699 8.66081C24.8748 8.485 25.1133 8.38622 25.3619 8.38622ZM18.7994 4.63622C18.9849 4.63622 19.1661 4.69121 19.3203 4.79422C19.4745 4.89723 19.5946 5.04365 19.6656 5.21496C19.7365 5.38626 19.7551 5.57476 19.7189 5.75662C19.6828 5.93848 19.5935 6.10552 19.4624 6.23664C19.3312 6.36775 19.1642 6.45704 18.9823 6.49321C18.8005 6.52938 18.612 6.51082 18.4407 6.43986C18.2694 6.3689 18.1229 6.24874 18.0199 6.09457C17.9169 5.9404 17.8619 5.75914 17.8619 5.57372C17.8619 5.32508 17.9607 5.08663 18.1365 4.91081C18.3123 4.735 18.5508 4.63622 18.7994 4.63622ZM25.3619 49.6362H21.6119V51.5112H25.3619V53.3862H12.2369V51.5112H19.7369V49.6362H12.2369V35.5737H25.3619V49.6362ZM12.2369 57.1362V55.2612H25.3619V57.1362H12.2369ZM24.7826 29.9487H22.5494V31.8237H25.3619V33.6987H12.2369V31.1075L13.7538 28.0737H16.9244V26.1987H14.6913L15.6288 24.3237H21.9701L24.7826 29.9487ZM11.2994 8.38622C11.2994 8.2008 11.3544 8.01955 11.4574 7.86538C11.5605 7.7112 11.7069 7.59104 11.8782 7.52009C12.0495 7.44913 12.238 7.43056 12.4198 7.46674C12.6017 7.50291 12.7687 7.5922 12.8999 7.72331C13.031 7.85442 13.1203 8.02147 13.1564 8.20333C13.1926 8.38518 13.174 8.57368 13.1031 8.74499C13.0321 8.9163 12.912 9.06271 12.7578 9.16573C12.6036 9.26874 12.4224 9.32372 12.2369 9.32372C11.9883 9.32372 11.7498 9.22495 11.574 9.04914C11.3982 8.87332 11.2994 8.63486 11.2994 8.38622Z" fill="#9A563A"/>
<path d="M34.75 51.6659L36.5988 51.3565C35.7607 46.3268 38.1157 43.835 38.2169 43.7318L37.5494 43.0737L36.8866 42.4109C36.7572 42.5393 33.7441 45.634 34.75 51.6659Z" fill="#9A563A"/>
<path d="M46.9244 49.6362H45.0494V51.5112H46.9244V49.6362Z" fill="#9A563A"/>
<path d="M50.7091 39.4944C50.2488 38.2587 49.8129 37.0925 49.5504 36.2356C48.2135 31.8875 47.9351 25.7094 47.8779 23.3862H48.7994C49.0481 23.3862 49.2865 23.2875 49.4624 23.1116C49.6382 22.9358 49.7369 22.6974 49.7369 22.4487V18.6987C49.7369 18.4501 49.6382 18.2116 49.4624 18.0358C49.2865 17.86 49.0481 17.7612 48.7994 17.7612H47.2197L47.8526 13.2031C47.8711 13.0704 47.8609 12.9352 47.8227 12.8068C47.7846 12.6783 47.7193 12.5595 47.6313 12.4584C47.5434 12.3573 47.4348 12.2762 47.3128 12.2207C47.1909 12.1651 47.0584 12.1363 46.9244 12.1362H37.5494C37.4154 12.1363 37.283 12.1651 37.161 12.2207C37.0391 12.2762 36.9305 12.3573 36.8425 12.4584C36.7546 12.5595 36.6893 12.6783 36.6512 12.8068C36.613 12.9352 36.6028 13.0704 36.6213 13.2031L37.2541 17.7612H35.6744C35.4258 17.7612 35.1873 17.86 35.0115 18.0358C34.8357 18.2116 34.7369 18.4501 34.7369 18.6987V22.4487C34.7369 22.6974 34.8357 22.9358 35.0115 23.1116C35.1873 23.2875 35.4258 23.3862 35.6744 23.3862H36.596C36.5388 25.7094 36.2604 31.8875 34.9235 36.2356C34.661 37.0925 34.2251 38.2587 33.7648 39.4944C32.5273 42.8112 30.9869 46.94 30.9869 49.6362C30.9869 53.269 32.4748 56.9487 34.6891 58.7937C34.8575 58.9342 35.0698 59.0111 35.2891 59.0112H49.1848C49.404 59.0111 49.6163 58.9342 49.7847 58.7937C51.9991 56.9487 53.4869 53.269 53.4869 49.6362C53.4869 46.94 51.9466 42.8112 50.7091 39.4944ZM38.2198 28.0737H46.2541C46.3554 29.255 46.4951 30.5328 46.6873 31.8237H37.7866C37.9788 30.5328 38.1185 29.255 38.2198 28.0737ZM36.7198 36.7869C37.0247 35.7716 37.2751 34.7408 37.4698 33.6987H47.0069C47.2016 34.7408 47.452 35.7716 47.7569 36.7869C47.9763 37.4994 48.2857 38.3553 48.6448 39.3237H35.8282C36.1873 38.3553 36.4966 37.4994 36.716 36.7869H36.7198ZM38.6257 14.0112H45.8444L45.3307 17.7612H39.1432L38.6257 14.0112ZM36.6119 19.6362H47.8619V21.5112H36.6119V19.6362ZM46.0001 23.3862C46.0141 24.0519 46.0479 25.0353 46.1182 26.1987H38.3557C38.426 25.0353 38.4598 24.0519 38.4738 23.3862H46.0001ZM35.1316 41.1987H49.3422C50.4372 44.1584 51.6119 47.5306 51.6119 49.6362C51.6067 50.9094 51.4056 52.1742 51.0157 53.3862H33.4582C33.0683 52.1742 32.8672 50.9094 32.8619 49.6362C32.8619 47.5306 34.0366 44.1584 35.1316 41.1987ZM48.8294 57.1362H35.6444C35.0858 56.5876 34.6163 55.955 34.2532 55.2612H50.2207C49.8575 55.955 49.3881 56.5876 48.8294 57.1362Z" fill="#9A563A"/>
</svg>
