<svg width="60" height="61" viewBox="0 0 60 61" fill="none" xmlns="http://www.w3.org/2000/svg">
<g clip-path="url(#clip0_25_45)">
<path d="M24.8944 35.8607L24.6307 35.966L25.3727 37.8229L25.6362 37.7169C28.3267 36.6411 31.6733 36.6406 34.3638 37.7169L34.6273 37.8224L35.3693 35.9655L35.1056 35.8605C31.9486 34.5968 28.0514 34.5973 24.8944 35.8607Z" fill="#9A563A"/>
<path d="M29.0003 20.8999H30.9997V31.8961H29.0003V20.8999Z" fill="#9A563A"/>
<path d="M57.9904 0.906704V19.2516C57.9904 19.5737 57.9387 19.8937 57.8371 20.1995L53.083 34.4611L45.6655 46.071C45.4357 46.434 45.0639 46.6834 44.6409 46.7583C43.7486 46.8975 42.9122 46.2869 42.773 45.3946C42.7195 45.0516 42.7765 44.7004 42.936 44.3918C44.6747 41.2347 47.8718 35.3739 47.8718 35.3739C47.9091 35.3056 47.9385 35.2332 47.9592 35.1581L48.7678 32.1939L51.9461 22.2027L50.0405 21.5964L46.8551 31.6101L46.8624 31.6123C46.858 31.6262 46.8473 31.636 46.8434 31.6498C46.5885 32.5855 45.6234 33.1373 44.6877 32.8825C44.6229 32.8649 44.559 32.8434 44.4966 32.8184C43.7108 32.5039 43.2611 31.6741 43.4265 30.8441L44.976 23.0957C44.9886 23.031 44.9949 22.9652 44.9949 22.8992V19.9709C44.9835 15.7079 46.6778 11.6174 49.7003 8.61107C49.8877 8.42364 49.9932 8.16947 49.9932 7.90431V0.906704H47.9939V7.4967C47.3013 8.22808 46.6708 9.01568 46.1088 9.8514C40.5878 0.954314 28.8998 -1.78263 20.0027 3.73836C17.5219 5.27784 15.4301 7.36937 13.8904 9.85015C13.3286 9.01493 12.6983 8.2277 12.0062 7.4967V0.906704H10.0068V7.90431C10.0068 8.16947 10.1123 8.42364 10.2997 8.61107C13.3223 11.6175 15.0166 15.7083 15.0051 19.9714V22.8992C15.0053 22.965 15.0119 23.0308 15.0246 23.0954L16.5741 30.8437C16.74 31.6741 16.2902 32.5045 15.5041 32.8192C14.6033 33.1793 13.5811 32.7411 13.221 31.8403C13.1961 31.7782 13.1749 31.7146 13.1573 31.6501C13.1534 31.636 13.1426 31.6262 13.1383 31.6126L13.1455 31.6103L9.95998 21.5964L8.05438 22.2027L11.2327 32.1939L12.0413 35.1581C12.062 35.2332 12.0914 35.3056 12.1287 35.3739C12.1287 35.3739 15.3258 41.2344 17.0646 44.3918C17.45 45.0909 17.2587 45.9509 16.5607 46.4751C16.2172 46.7323 15.7822 46.835 15.36 46.7587C14.9369 46.6841 14.5649 46.4345 14.3354 46.0714L6.91789 34.4615L2.16377 20.2001C2.06155 19.8943 2.00945 19.574 2.00957 19.2516V0.906704H0.0102544V19.2516C0.0100045 19.7888 0.0967249 20.3226 0.267042 20.832L5.06028 35.2114C5.08614 35.2895 5.12151 35.3642 5.16574 35.4335L12.6494 47.1478C13.1814 47.9772 14.0337 48.5488 15.0031 48.7259C15.2083 48.7632 15.4165 48.782 15.625 48.782C16.415 48.7776 17.182 48.5157 17.8098 48.0361C17.8495 48.0064 17.8801 47.9696 17.9184 47.9385C17.9904 48.0201 18.0568 48.1086 18.1301 48.1884C18.7062 48.8206 19.3328 49.4049 20.0034 49.9357V53.7285C20.0023 55.7145 19.6819 57.6874 19.0545 59.5717C18.8806 60.0956 19.1643 60.6614 19.6884 60.8354C19.79 60.8691 19.8963 60.8862 20.0034 60.8862H39.9966C40.5487 60.8863 40.9964 60.4389 40.9964 59.8867C40.9964 59.7796 40.9793 59.6733 40.9455 59.5717C40.3181 57.6874 39.9977 55.7145 39.9966 53.7285V49.9365C40.6647 49.4078 41.289 48.8257 41.8632 48.1962C41.9407 48.1116 42.009 48.0212 42.0846 47.9349C42.1385 47.9797 42.1831 48.031 42.24 48.0737C43.8048 49.2478 46.0252 48.931 47.1993 47.3662C47.2525 47.2954 47.303 47.2225 47.3507 47.1478L54.8344 35.4335C54.8786 35.3642 54.914 35.2895 54.9399 35.2114L59.7341 20.8315C59.9037 20.3221 59.99 19.7885 59.9898 19.2516V0.906704H57.9904ZM44.714 12.3048C44.4551 11.9864 44.1852 11.69 43.9133 11.3987L44.4087 10.9033C44.5938 11.2007 44.7691 11.5057 44.9373 11.8169C44.8563 11.9765 44.7901 12.1429 44.714 12.3048ZM43.2431 9.24136L42.4815 10.0036C41.735 9.34607 40.9369 8.74965 40.0948 8.21996L41.1994 7.11546C41.9413 7.76311 42.6252 8.47449 43.2431 9.24136ZM21.7322 7.21955L20.3979 5.88538C21.3763 5.20923 22.4235 4.6383 23.5218 4.18221L24.4965 6.13029C23.5468 6.41732 22.6224 6.78157 21.7322 7.21955ZM26.4931 5.65133L25.4364 3.53955C26.6003 3.21841 27.795 3.02248 29.0003 2.95475V5.34644C28.1585 5.39105 27.3208 5.49289 26.4928 5.65133H26.4931ZM30.9997 2.94063C32.2084 3.00911 33.4063 3.20604 34.5734 3.52793L33.5083 5.65221C32.68 5.49389 31.8419 5.39167 30.9997 5.34656V2.94063ZM36.4793 4.18596C37.5799 4.6373 38.6297 5.20399 39.6108 5.87663L38.2676 7.21967C37.3777 6.7817 36.4537 6.4172 35.5044 6.12992L36.4793 4.18596ZM18.8137 7.12845L19.9051 8.21958C19.0625 8.74852 18.2644 9.34507 17.5184 10.0033L16.7673 9.25235C17.1463 8.77427 17.5509 8.31705 17.9794 7.88282C18.2471 7.61629 18.5323 7.37487 18.8137 7.12845ZM15.5898 10.9022L16.0869 11.3991C15.8142 11.6918 15.5436 11.9883 15.2862 12.3048C15.2104 12.1436 15.1445 11.978 15.0639 11.819C15.2316 11.5086 15.4035 11.2009 15.5897 10.9024L15.5898 10.9022ZM38.6595 58.8869H21.3405C21.7796 57.2026 22.0021 55.4692 22.0027 53.7285V51.3312C22.4936 51.6148 22.999 51.8724 23.5168 52.1031C27.6449 53.9375 32.357 53.9375 36.485 52.1031C37.0021 51.8725 37.5068 51.6153 37.997 51.3321V53.729C37.9978 55.4694 38.2203 57.2027 38.6595 58.8869ZM40.3826 46.8535C39.0725 48.3145 37.4673 49.481 35.6731 50.2756C32.0603 51.8722 27.9421 51.8722 24.3293 50.2756C22.5313 49.4792 20.923 48.3096 19.6112 46.8446C19.4267 46.6438 19.2598 46.4331 19.0872 46.2261C19.3864 45.2955 19.2882 44.2828 18.8156 43.4271C17.3718 40.8044 14.9194 36.3134 14.1336 34.8738C16.1689 35.271 18.1408 33.943 18.538 31.9076C18.6319 31.4265 18.6308 30.9317 18.5344 30.4511L17.8574 27.0648C18.7412 27.1512 19.6308 27.2107 20.524 27.2107C22.0825 27.212 23.6382 27.0789 25.1738 26.8129L24.8301 24.8438C22.3896 25.2583 19.9016 25.313 17.4452 25.0062L17.0044 22.8001V21.0757C19.2612 19.8707 21.987 19.5786 24.7557 20.2792L25.2478 18.3414C22.342 17.6041 19.4582 17.8117 16.9531 18.8849C16.8677 17.3932 16.5973 15.918 16.1481 14.4929C16.6469 13.7773 17.2009 13.1017 17.8049 12.4724C17.8587 12.4123 17.9191 12.3523 17.9806 12.2898C18.0325 12.2386 18.0822 12.1867 18.1828 12.0984C19.3182 10.9921 20.6062 10.0542 22.0076 9.31321C23.318 8.6062 24.7193 8.08263 26.1722 7.75711C28.6941 7.16781 31.3181 7.16869 33.8396 7.75961C35.2906 8.08575 36.6898 8.6097 37.9983 9.31671C39.4039 10.0611 40.6955 11.0031 41.8335 12.1143C41.9672 12.2392 42.0903 12.3628 42.2288 12.5106C42.8208 13.1279 43.3633 13.7907 43.8515 14.4928C43.4022 15.918 43.1318 17.3933 43.0465 18.8852C40.5419 17.8123 37.6593 17.6055 34.7519 18.3416L35.244 20.2795C38.0126 19.578 40.7392 19.87 42.9952 21.0757V22.8001L42.5352 25.1007C40.411 25.2859 38.2718 25.1994 36.1694 24.8434L35.8258 26.8134C37.3435 27.0748 38.8807 27.2056 40.4208 27.2043C40.9911 27.2043 41.5599 27.1824 42.1261 27.1469L41.4655 30.4514C41.0587 32.4853 42.3778 34.4637 44.4117 34.8705C44.8917 34.9664 45.3859 34.9677 45.8663 34.8741C45.0805 36.3136 42.6291 40.8047 41.1843 43.4273C40.7122 44.2811 40.6156 45.2927 40.9178 46.2205C40.7425 46.4315 40.5735 46.6445 40.3822 46.8535H40.3826Z" fill="#9A563A"/>
</g>
<defs>
<clipPath id="clip0_25_45">
<rect width="60" height="60" fill="white" transform="translate(0 0.88623)"/>
</clipPath>
</defs>
</svg>
