<svg width="61" height="61" viewBox="0 0 61 61" fill="none" xmlns="http://www.w3.org/2000/svg">
<path d="M48.9675 29.0112C47.855 29.0112 46.7675 29.3411 45.8425 29.9592C44.9174 30.5773 44.1965 31.4558 43.7707 32.4836C43.345 33.5115 43.2336 34.6425 43.4506 35.7336C43.6677 36.8248 44.2034 37.827 44.9901 38.6137C45.7767 39.4004 46.779 39.9361 47.8701 40.1531C48.9613 40.3702 50.0923 40.2588 51.1201 39.8331C52.148 39.4073 53.0265 38.6863 53.6445 37.7613C54.2626 36.8363 54.5925 35.7487 54.5925 34.6362C54.591 33.1448 53.9979 31.715 52.9434 30.6604C51.8888 29.6058 50.4589 29.0127 48.9675 29.0112ZM48.9675 38.3862C48.2259 38.3862 47.5008 38.1663 46.8841 37.7542C46.2675 37.3422 45.7868 36.7565 45.503 36.0713C45.2192 35.3861 45.1449 34.6321 45.2896 33.9046C45.4343 33.1772 45.7914 32.509 46.3159 31.9846C46.8403 31.4601 47.5085 31.103 48.2359 30.9583C48.9634 30.8136 49.7174 30.8879 50.4026 31.1717C51.0878 31.4555 51.6735 31.9362 52.0855 32.5528C52.4976 33.1695 52.7175 33.8946 52.7175 34.6362C52.7175 35.6308 52.3224 36.5846 51.6192 37.2879C50.9159 37.9911 49.9621 38.3862 48.9675 38.3862Z" fill="#9A563A"/>
<path d="M26.4675 14.0112C27.58 14.0112 28.6676 13.6813 29.5926 13.0632C30.5176 12.4452 31.2386 11.5667 31.6644 10.5388C32.0901 9.51099 32.2015 8.37999 31.9844 7.28885C31.7674 6.19771 31.2317 5.19543 30.445 4.40876C29.6583 3.62209 28.6561 3.08636 27.5649 2.86932C26.4738 2.65227 25.3428 2.76367 24.3149 3.18941C23.2871 3.61515 22.4086 4.33612 21.7905 5.26115C21.1724 6.18618 20.8425 7.27371 20.8425 8.38623C20.844 9.87762 21.4371 11.3075 22.4917 12.3621C23.5463 13.4166 24.9761 14.0097 26.4675 14.0112ZM26.4675 4.63623C27.2092 4.63623 27.9342 4.85617 28.5509 5.26822C29.1676 5.68028 29.6482 6.26595 29.9321 6.95117C30.2159 7.63639 30.2902 8.39039 30.1455 9.11782C30.0008 9.84525 29.6436 10.5134 29.1192 11.0379C28.5947 11.5623 27.9265 11.9195 27.1991 12.0642C26.4717 12.2089 25.7177 12.1346 25.0325 11.8508C24.3472 11.567 23.7616 11.0863 23.3495 10.4696C22.9375 9.85294 22.7175 9.12791 22.7175 8.38623C22.7175 7.39167 23.1126 6.43784 23.8159 5.73458C24.5191 5.03132 25.473 4.63623 26.4675 4.63623Z" fill="#9A563A"/>
<path d="M57.405 42.1362H42.2953L41.4675 35.51C41.4509 34.7752 41.1472 34.0761 40.6216 33.5623C40.0959 33.0486 39.39 32.761 38.655 32.7612L21.6863 32.7659L2.93628 34.6409C2.70503 34.6642 2.49066 34.7725 2.33476 34.9448C2.17885 35.1172 2.09253 35.3413 2.09253 35.5737V39.3237C2.09253 39.5724 2.1913 39.8108 2.36712 39.9866C2.54293 40.1625 2.78139 40.2612 3.03003 40.2612H35.956L36.1978 42.1362H3.03003C2.78139 42.1362 2.54293 42.235 2.36712 42.4108C2.1913 42.5866 2.09253 42.8251 2.09253 43.0737V50.5737C2.09253 50.8224 2.1913 51.0608 2.36712 51.2366C2.54293 51.4125 2.78139 51.5112 3.03003 51.5112H7.71753V58.0737C7.71753 58.3224 7.8163 58.5608 7.99212 58.7366C8.16793 58.9125 8.40639 59.0112 8.65503 59.0112H19.905C20.1537 59.0112 20.3921 58.9125 20.5679 58.7366C20.7438 58.5608 20.8425 58.3224 20.8425 58.0737V51.5112H39.5925V58.0737C39.5925 58.3224 39.6913 58.5608 39.8671 58.7366C40.0429 58.9125 40.2814 59.0112 40.53 59.0112H51.78C52.0287 59.0112 52.2671 58.9125 52.4429 58.7366C52.6188 58.5608 52.7175 58.3224 52.7175 58.0737V51.5112H57.405C57.6537 51.5112 57.8921 51.4125 58.0679 51.2366C58.2438 51.0608 58.3425 50.8224 58.3425 50.5737V43.0737C58.3425 42.8251 58.2438 42.5866 58.0679 42.4108C57.8921 42.235 57.6537 42.1362 57.405 42.1362ZM3.96753 38.3862V36.4175L21.78 34.6362H38.655C38.9037 34.6362 39.1421 34.735 39.3179 34.9108C39.4938 35.0866 39.5925 35.3251 39.5925 35.5737C39.5927 35.6126 39.5952 35.6514 39.6 35.69L40.5375 43.19C40.5659 43.4167 40.676 43.6252 40.8472 43.7765C41.0185 43.9277 41.2391 44.0112 41.4675 44.0112H51.78C52.0287 44.0112 52.2671 44.11 52.4429 44.2858C52.6188 44.4616 52.7175 44.7001 52.7175 44.9487C52.7175 45.1974 52.6188 45.4358 52.4429 45.6116C52.2671 45.7875 52.0287 45.8862 51.78 45.8862H39.3957C39.1622 45.8861 38.9372 45.7988 38.7647 45.6416C38.5922 45.4843 38.4845 45.2683 38.4628 45.0359L37.7128 39.2037C37.6836 38.9772 37.5727 38.7692 37.401 38.6187C37.2292 38.4681 37.0084 38.3855 36.78 38.3862H3.96753ZM18.9675 57.1362H17.0925V55.2612H15.2175V57.1362H13.3425V54.3237H11.4675V57.1362H9.59253V51.5112H18.9675V57.1362ZM50.8425 57.1362H48.9675V54.3237H47.0925V57.1362H45.2175V53.3862H43.3425V57.1362H41.4675V51.5112H50.8425V57.1362ZM56.4675 49.6362H3.96753V47.7612H18.9675V45.8862H3.96753V44.0112H36.4397L36.601 45.259C36.6773 45.9469 37.0046 46.5824 37.5202 47.0441C38.0358 47.5057 38.7036 47.7611 39.3957 47.7612H51.78C52.526 47.7612 53.2413 47.4649 53.7688 46.9375C54.2962 46.41 54.5925 45.6947 54.5925 44.9487C54.5894 44.6286 54.5311 44.3115 54.42 44.0112H56.4675V49.6362Z" fill="#9A563A"/>
<path d="M19.9463 17.4856L16.1963 29.6731C16.1531 29.8133 16.1435 29.9617 16.1682 30.1064C16.1929 30.251 16.2511 30.3878 16.3383 30.5058C16.4255 30.6238 16.5392 30.7197 16.6701 30.7858C16.8011 30.8519 16.9458 30.8863 17.0925 30.8862H26.4675C26.681 30.8864 26.8881 30.8138 27.0546 30.6803C27.2211 30.5468 27.3372 30.3605 27.3835 30.1522L28.7485 24.0087L30.3516 26.6815C30.457 26.8572 30.617 26.9936 30.8072 27.0697L37.6885 29.8212C38.3374 30.0795 39.0601 30.0821 39.7108 29.8286C40.3616 29.5751 40.8921 29.0843 41.1953 28.4551C41.4985 27.826 41.5519 27.1052 41.3448 26.4383C41.1377 25.7713 40.6854 25.2076 40.0791 24.8609C40.0426 24.8402 40.0047 24.822 39.9657 24.8065L34.6238 22.6362C30.735 15.8862 29.7544 15.8862 29.28 15.8862H21.78C21.3474 15.933 20.9396 16.1115 20.6116 16.3975C20.2837 16.6836 20.0514 17.0634 19.9463 17.4856ZM21.901 17.7612H29.085C30.6391 19.6532 32.002 21.6944 33.1538 23.855C33.2579 24.0376 33.4203 24.1799 33.615 24.259L39.1922 26.5194C39.3163 26.601 39.4179 26.7124 39.4879 26.8434C39.5578 26.9744 39.5938 27.1209 39.5925 27.2694C39.5924 27.4133 39.557 27.555 39.4895 27.6821C39.4219 27.8092 39.3243 27.9179 39.2051 27.9985C39.0858 28.0792 38.9487 28.1294 38.8056 28.1448C38.6625 28.1602 38.5177 28.1403 38.3841 28.0869L31.7972 25.4487L29.146 21.0322C29.0494 20.8713 28.9067 20.7431 28.7364 20.6642C28.5661 20.5852 28.3761 20.5593 28.1909 20.5896C28.0057 20.6199 27.8338 20.705 27.6975 20.8341C27.5613 20.9631 27.4669 21.1301 27.4266 21.3134L25.7175 29.0112H18.3619L21.7435 18.019C21.7775 17.9231 21.8311 17.8353 21.901 17.7612Z" fill="#9A563A"/>
<path d="M22.7175 45.8862H20.8425V47.7612H22.7175V45.8862Z" fill="#9A563A"/>
<path d="M33.9675 45.8862H24.5925V47.7612H33.9675V45.8862Z" fill="#9A563A"/>
</svg>
