<svg width="261" height="80" viewBox="0 0 261 80" fill="none" xmlns="http://www.w3.org/2000/svg">
<path d="M124.58 24.4609L133.317 45.671L141.814 24.8541C142.149 23.9949 142.397 23.2668 142.557 22.6697C142.717 22.0727 142.797 21.563 142.797 21.1407C142.797 21.0096 142.79 20.8785 142.776 20.7475C142.761 20.6019 142.739 20.4926 142.71 20.4198V20.3325H147.035V20.4198C146.744 20.7402 146.423 21.2499 146.074 21.9489C145.739 22.6479 145.346 23.5143 144.894 24.5483L133.23 52.3333H131.57L123.073 31.713L115.318 52.3333H113.68L102.977 25.6186C102.714 24.9924 102.445 24.3881 102.168 23.8056C101.906 23.2231 101.651 22.6988 101.404 22.2329C101.171 21.7669 100.96 21.3737 100.77 21.0533C100.566 20.7329 100.421 20.5218 100.333 20.4198V20.3325H106.384V20.4198C106.355 20.58 106.34 20.7038 106.34 20.7912C106.34 20.8785 106.34 20.9805 106.34 21.097C106.34 21.5921 106.391 22.1164 106.493 22.6697C106.61 23.2231 106.828 23.893 107.149 24.6793L115.362 45.4307L123.204 24.5483L124.58 24.4609ZM157.76 52.0494C156.144 52.0494 154.629 51.7945 153.217 51.2848C151.804 50.7751 150.574 50.0325 149.525 49.0568C148.477 48.0666 147.647 46.8505 147.035 45.4089C146.438 43.9527 146.14 42.2925 146.14 40.4285C146.14 38.783 146.416 37.2612 146.97 35.8632C147.523 34.4507 148.287 33.2274 149.263 32.1936C150.239 31.1596 151.375 30.3514 152.671 29.7689C153.981 29.1864 155.394 28.8951 156.908 28.8951C158.408 28.8951 159.799 29.1573 161.08 29.6816C162.362 30.1912 163.469 30.9412 164.401 31.9314C165.347 32.9071 166.09 34.123 166.629 35.5793C167.182 37.021 167.481 38.6665 167.524 40.516C165.879 40.4868 164.233 40.465 162.588 40.4504C160.942 40.4358 159.231 40.4285 157.455 40.4285C156.187 40.4285 154.95 40.4358 153.741 40.4504C152.547 40.465 151.469 40.4868 150.508 40.516C150.596 42.0304 150.829 43.3993 151.207 44.6225C151.6 45.8458 152.132 46.8943 152.802 47.7679C153.486 48.6272 154.309 49.2897 155.27 49.7558C156.246 50.2217 157.345 50.4548 158.568 50.4548C159.413 50.4548 160.207 50.36 160.949 50.1708C161.707 49.9669 162.391 49.6902 163.003 49.3407C163.614 48.9912 164.16 48.5835 164.641 48.1174C165.122 47.6369 165.529 47.12 165.864 46.5666L166.126 46.6976L164.51 50.5858C163.724 50.9936 162.784 51.3431 161.692 51.6343C160.6 51.911 159.289 52.0494 157.76 52.0494ZM154.855 38.7248C156.311 38.7248 157.768 38.7248 159.224 38.7248C160.695 38.7102 162.027 38.681 163.221 38.6374C163.09 37.3705 162.843 36.2345 162.478 35.2298C162.114 34.225 161.648 33.373 161.08 32.674C160.513 31.975 159.843 31.4363 159.071 31.0576C158.299 30.679 157.447 30.4897 156.515 30.4897C155.671 30.4897 154.891 30.679 154.178 31.0576C153.479 31.4218 152.867 31.9532 152.343 32.6522C151.819 33.3512 151.397 34.2104 151.076 35.2298C150.756 36.2345 150.566 37.385 150.508 38.681C151.164 38.7102 151.855 38.7248 152.583 38.7248C153.311 38.7248 154.069 38.7248 154.855 38.7248ZM172.352 27.5408C172.352 26.303 172.33 25.2254 172.286 24.308C172.257 23.376 172.213 22.5751 172.155 21.9052C172.111 21.2353 172.046 20.6747 171.959 20.2232C171.886 19.7718 171.806 19.3932 171.718 19.0874V19H176.764V19.0874C176.677 19.3932 176.597 19.7718 176.524 20.2232C176.451 20.6747 176.386 21.2353 176.327 21.9052C176.269 22.5751 176.225 23.376 176.196 24.308C176.167 25.2254 176.153 26.303 176.153 27.5408V43.1153C176.153 44.3532 176.167 45.438 176.196 46.37C176.225 47.2875 176.269 48.0811 176.327 48.7509C176.386 49.4208 176.451 49.9815 176.524 50.4329C176.597 50.8843 176.677 51.2629 176.764 51.5688V51.6561H171.718V51.5688C171.806 51.2629 171.886 50.8843 171.959 50.4329C172.046 49.9815 172.111 49.4208 172.155 48.7509C172.213 48.0811 172.257 47.2875 172.286 46.37C172.33 45.438 172.352 44.3532 172.352 43.1153V27.5408ZM183.142 27.5408C183.142 26.303 183.121 25.2254 183.077 24.308C183.048 23.376 183.004 22.5751 182.946 21.9052C182.902 21.2353 182.837 20.6747 182.749 20.2232C182.676 19.7718 182.596 19.3932 182.509 19.0874V19H187.555V19.0874C187.468 19.3932 187.387 19.7718 187.315 20.2232C187.242 20.6747 187.176 21.2353 187.118 21.9052C187.06 22.5751 187.016 23.376 186.987 24.308C186.958 25.2254 186.943 26.303 186.943 27.5408V43.1153C186.943 44.3532 186.958 45.438 186.987 46.37C187.016 47.2875 187.06 48.0811 187.118 48.7509C187.176 49.4208 187.242 49.9815 187.315 50.4329C187.387 50.8843 187.468 51.2629 187.555 51.5688V51.6561H182.509V51.5688C182.596 51.2629 182.676 50.8843 182.749 50.4329C182.837 49.9815 182.902 49.4208 182.946 48.7509C183.004 48.0811 183.048 47.2875 183.077 46.37C183.121 45.438 183.142 44.3532 183.142 43.1153V27.5408ZM208.83 36.9335C208.83 35.0114 208.445 33.5988 207.673 32.696C206.901 31.7931 205.867 31.3416 204.571 31.3416C204.105 31.3416 203.581 31.4436 202.998 31.6475C202.416 31.8367 201.819 32.0988 201.207 32.4338C200.596 32.7542 199.984 33.1328 199.372 33.5696C198.761 34.0066 198.185 34.4725 197.647 34.9676L197.603 37.8291V43.1153C197.603 44.3532 197.617 45.438 197.647 46.37C197.676 47.2875 197.719 48.0811 197.778 48.7509C197.836 49.4208 197.901 49.9815 197.974 50.4329C198.047 50.8843 198.127 51.2629 198.215 51.5688V51.6561H193.169V51.5688C193.256 51.2629 193.336 50.8843 193.409 50.4329C193.496 49.9815 193.562 49.4208 193.606 48.7509C193.664 48.0811 193.707 47.2875 193.737 46.37C193.78 45.438 193.802 44.3532 193.802 43.1153V37.8291C193.802 36.5913 193.78 35.5137 193.737 34.5963C193.707 33.6644 193.664 32.8634 193.606 32.1936C193.562 31.5237 193.496 30.963 193.409 30.5116C193.336 30.0601 193.256 29.6816 193.169 29.3757V29.2883H198.215V29.3757C198.098 29.7397 198.003 30.2057 197.931 30.7737C197.872 31.327 197.807 32.0552 197.734 32.958C198.331 32.4629 198.972 31.9678 199.656 31.4727C200.355 30.9775 201.076 30.5407 201.819 30.162C202.561 29.7689 203.319 29.4557 204.091 29.2228C204.862 28.9752 205.62 28.8515 206.362 28.8515C207.498 28.8515 208.459 29.048 209.246 29.4412C210.047 29.8344 210.695 30.3514 211.19 30.9921C211.699 31.6329 212.064 32.3683 212.282 33.1983C212.515 34.0139 212.632 34.8438 212.632 35.6885V43.1153C212.632 44.3532 212.646 45.438 212.675 46.37C212.704 47.2875 212.748 48.0811 212.806 48.7509C212.864 49.4208 212.93 49.9815 213.003 50.4329C213.076 50.8843 213.155 51.2629 213.243 51.5688V51.6561H208.197V51.5688C208.284 51.2629 208.365 50.8843 208.437 50.4329C208.525 49.9815 208.59 49.4208 208.634 48.7509C208.692 48.0811 208.736 47.2875 208.765 46.37C208.809 45.438 208.83 44.3532 208.83 43.1153V36.9335ZM229.014 52.0494C227.398 52.0494 225.883 51.7945 224.471 51.2848C223.058 50.7751 221.827 50.0325 220.779 49.0568C219.73 48.0666 218.9 46.8505 218.288 45.4089C217.691 43.9527 217.393 42.2925 217.393 40.4285C217.393 38.783 217.67 37.2612 218.224 35.8632C218.776 34.4507 219.541 33.2274 220.516 32.1936C221.493 31.1596 222.628 30.3514 223.924 29.7689C225.235 29.1864 226.647 28.8951 228.162 28.8951C229.663 28.8951 231.053 29.1573 232.334 29.6816C233.616 30.1912 234.722 30.9412 235.655 31.9314C236.601 32.9071 237.344 34.123 237.883 35.5793C238.436 37.021 238.735 38.6665 238.779 40.516C237.132 40.4868 235.487 40.465 233.842 40.4504C232.196 40.4358 230.485 40.4285 228.709 40.4285C227.441 40.4285 226.203 40.4358 224.994 40.4504C223.801 40.465 222.723 40.4868 221.762 40.516C221.849 42.0304 222.082 43.3993 222.461 44.6225C222.854 45.8458 223.386 46.8943 224.056 47.7679C224.74 48.6272 225.563 49.2897 226.524 49.7558C227.5 50.2217 228.599 50.4548 229.822 50.4548C230.667 50.4548 231.461 50.36 232.204 50.1708C232.961 49.9669 233.645 49.6902 234.257 49.3407C234.869 48.9912 235.414 48.5835 235.894 48.1174C236.375 47.6369 236.783 47.12 237.118 46.5666L237.381 46.6976L235.763 50.5858C234.977 50.9936 234.038 51.3431 232.946 51.6343C231.853 51.911 230.543 52.0494 229.014 52.0494ZM226.108 38.7248C227.566 38.7248 229.022 38.7248 230.478 38.7248C231.949 38.7102 233.281 38.681 234.475 38.6374C234.344 37.3705 234.096 36.2345 233.732 35.2298C233.368 34.225 232.903 33.373 232.334 32.674C231.766 31.975 231.096 31.4363 230.325 31.0576C229.553 30.679 228.701 30.4897 227.769 30.4897C226.925 30.4897 226.145 30.679 225.432 31.0576C224.733 31.4218 224.121 31.9532 223.596 32.6522C223.073 33.3512 222.65 34.2104 222.33 35.2298C222.009 36.2345 221.82 37.385 221.762 38.681C222.418 38.7102 223.109 38.7248 223.837 38.7248C224.565 38.7248 225.322 38.7248 226.108 38.7248ZM245.703 49.9524H252.19C253.325 49.9524 254.375 49.8941 255.335 49.7776C256.297 49.6465 257.127 49.5009 257.826 49.3407C258.641 49.1659 259.384 48.9548 260.054 48.7073L259.071 51.8308C258.896 51.8163 258.59 51.7945 258.154 51.7654C257.731 51.7508 257.28 51.729 256.799 51.6999C256.333 51.6852 255.889 51.6707 255.466 51.6561C255.044 51.6561 254.76 51.6561 254.615 51.6561H240.461V51.11L254.571 30.9921H250.006C248.797 30.9921 247.683 31.0576 246.663 31.1887C245.659 31.3198 244.785 31.4654 244.043 31.6255C243.168 31.8003 242.382 32.0042 241.683 32.2372L243.103 29.1136C243.278 29.1427 243.576 29.1645 243.999 29.1791C244.435 29.1937 244.894 29.2155 245.375 29.2446C245.856 29.2592 246.3 29.2738 246.707 29.2883C247.13 29.2883 247.42 29.2883 247.581 29.2883H259.879V29.6816L245.703 49.9524Z" fill="white"/>
<path d="M100.584 64.2457C100.584 63.7563 100.578 63.3302 100.567 62.9675C100.555 62.599 100.538 62.2823 100.515 62.0175C100.492 61.7469 100.463 61.5223 100.428 61.3438C100.4 61.1654 100.368 61.0157 100.333 60.8947V60.8602C100.449 60.866 100.57 60.8688 100.696 60.8688C100.806 60.8746 100.927 60.8775 101.059 60.8775C101.197 60.8775 101.338 60.8775 101.482 60.8775C101.689 60.8775 101.969 60.8573 102.32 60.817C102.677 60.7767 103.135 60.7566 103.693 60.7566C104.211 60.7566 104.689 60.8257 105.127 60.9638C105.564 61.0963 105.941 61.2891 106.258 61.5425C106.581 61.7958 106.831 62.1096 107.009 62.4838C107.194 62.8523 107.286 63.2726 107.286 63.7448C107.286 64.142 107.231 64.499 107.122 64.8157C107.012 65.1266 106.857 65.4001 106.655 65.6362C106.46 65.8665 106.221 66.0622 105.939 66.2234C105.662 66.3789 105.357 66.5027 105.023 66.5948C105.512 66.6696 105.959 66.7963 106.362 66.9748C106.765 67.1475 107.11 67.3663 107.398 67.6312C107.692 67.896 107.916 68.2069 108.072 68.5639C108.233 68.9151 108.314 69.3066 108.314 69.7385C108.314 70.9533 107.913 71.8659 107.113 72.4762C106.313 73.0808 105.115 73.383 103.52 73.383C103.348 73.383 103.146 73.3744 102.916 73.3572C102.685 73.3456 102.449 73.3312 102.208 73.3139C101.972 73.2967 101.738 73.2793 101.508 73.2621C101.278 73.2506 101.076 73.2449 100.903 73.2449H100.333V73.2104C100.368 73.0894 100.4 72.9397 100.428 72.7612C100.463 72.5827 100.492 72.361 100.515 72.0962C100.538 71.8314 100.555 71.5176 100.567 71.1549C100.578 70.7863 100.584 70.3574 100.584 69.868V64.2457ZM103.754 67.1216C103.362 67.1216 103.034 67.136 102.769 67.1648C102.504 67.1936 102.3 67.2224 102.156 67.2512V69.868C102.156 70.5416 102.167 71.0973 102.19 71.5348C102.213 71.9725 102.245 72.3294 102.285 72.6058C102.504 72.6345 102.723 72.6605 102.942 72.6835C103.16 72.7065 103.336 72.718 103.469 72.718C104.545 72.718 105.331 72.4791 105.826 72.0012C106.327 71.5176 106.578 70.7777 106.578 69.7816C106.578 69.3901 106.517 69.0331 106.396 68.7107C106.281 68.3825 106.106 68.1004 105.869 67.8643C105.639 67.6283 105.346 67.4469 104.989 67.3202C104.637 67.1878 104.226 67.1216 103.754 67.1216ZM102.156 66.4739C102.317 66.4912 102.461 66.5027 102.588 66.5084C102.714 66.5084 102.85 66.5084 102.994 66.5084C103.385 66.5084 103.742 66.4537 104.064 66.3443C104.387 66.2292 104.66 66.0593 104.885 65.8348C105.115 65.6102 105.294 65.331 105.42 64.997C105.547 64.6574 105.61 64.263 105.61 63.8139C105.61 63.4396 105.564 63.0999 105.472 62.7948C105.38 62.4896 105.242 62.2305 105.058 62.0175C104.879 61.7987 104.657 61.6317 104.393 61.5166C104.128 61.4014 103.825 61.3438 103.486 61.3438C103.267 61.3438 103.074 61.3525 102.907 61.3697C102.746 61.387 102.608 61.4072 102.493 61.4302C102.36 61.4532 102.248 61.482 102.156 61.5166V66.4739ZM116.706 73.4003C116.067 73.4003 115.468 73.2996 114.909 73.098C114.351 72.8965 113.864 72.6029 113.45 72.2171C113.035 71.8255 112.707 71.3448 112.465 70.7748C112.229 70.1991 112.111 69.5427 112.111 68.8057C112.111 68.1551 112.221 67.5534 112.439 67.0007C112.658 66.4422 112.96 65.9586 113.346 65.5498C113.732 65.141 114.181 64.8214 114.693 64.5911C115.212 64.3608 115.77 64.2457 116.369 64.2457C116.962 64.2457 117.512 64.3493 118.019 64.5566C118.525 64.7581 118.963 65.0546 119.331 65.4461C119.705 65.8319 119.999 66.3127 120.212 66.8884C120.431 67.4584 120.549 68.1091 120.566 68.8403C119.916 68.8288 119.265 68.8201 118.614 68.8144C117.964 68.8086 117.287 68.8057 116.585 68.8057C116.084 68.8057 115.595 68.8086 115.117 68.8144C114.645 68.8201 114.218 68.8288 113.838 68.8403C113.873 69.4391 113.965 69.9803 114.115 70.4639C114.27 70.9476 114.48 71.3621 114.745 71.7076C115.016 72.0473 115.341 72.3092 115.721 72.4935C116.107 72.6777 116.542 72.7698 117.025 72.7698C117.359 72.7698 117.673 72.7325 117.967 72.6576C118.266 72.5769 118.537 72.4676 118.779 72.3294C119.02 72.1912 119.236 72.0299 119.426 71.8458C119.616 71.6557 119.777 71.4513 119.91 71.2326L120.014 71.2844L119.374 72.8217C119.063 72.9829 118.692 73.121 118.26 73.2362C117.828 73.3456 117.31 73.4003 116.706 73.4003ZM115.557 68.1321C116.133 68.1321 116.709 68.1321 117.284 68.1321C117.866 68.1263 118.393 68.1148 118.865 68.0975C118.813 67.5966 118.715 67.1475 118.571 66.7502C118.427 66.353 118.243 66.0162 118.019 65.7398C117.794 65.4634 117.529 65.2504 117.224 65.1007C116.919 64.951 116.582 64.8761 116.214 64.8761C115.88 64.8761 115.572 64.951 115.289 65.1007C115.013 65.2446 114.771 65.4548 114.564 65.7311C114.357 66.0075 114.19 66.3472 114.063 66.7502C113.936 67.1475 113.862 67.6024 113.838 68.1148C114.098 68.1263 114.371 68.1321 114.659 68.1321C114.947 68.1321 115.246 68.1321 115.557 68.1321ZM124.208 70.6971C124.208 70.2422 124.301 69.8478 124.485 69.5139C124.675 69.18 124.925 68.895 125.236 68.6589C125.547 68.4228 125.901 68.2328 126.298 68.0889C126.696 67.9392 127.107 67.824 127.533 67.7434C127.96 67.6571 128.38 67.5995 128.794 67.5707C129.209 67.5362 129.589 67.516 129.934 67.5103V67.0698C129.934 66.6898 129.885 66.3616 129.787 66.0852C129.69 65.8089 129.551 65.5815 129.373 65.403C129.195 65.2187 128.979 65.0834 128.725 64.997C128.478 64.9049 128.204 64.8589 127.905 64.8589C127.698 64.8589 127.493 64.8761 127.292 64.9107C127.09 64.9452 126.88 65.0028 126.661 65.0834C126.448 65.164 126.221 65.2734 125.979 65.4116C125.743 65.5498 125.487 65.7254 125.21 65.9384L125.124 65.8866L125.711 64.6689C125.901 64.5825 126.088 64.5134 126.273 64.4616C126.457 64.404 126.644 64.358 126.834 64.3234C127.024 64.2889 127.217 64.2658 127.413 64.2543C127.614 64.237 127.824 64.2284 128.043 64.2284C128.648 64.2284 129.163 64.3033 129.589 64.453C130.021 64.5969 130.372 64.7984 130.643 65.0575C130.919 65.3108 131.12 65.6102 131.247 65.9557C131.374 66.2954 131.437 66.661 131.437 67.0525V69.868C131.437 70.3574 131.443 70.7863 131.454 71.1549C131.472 71.5176 131.489 71.8314 131.506 72.0962C131.529 72.361 131.555 72.5827 131.584 72.7612C131.618 72.9397 131.653 73.0894 131.688 73.2104V73.2449H129.779V73.2104C129.808 73.1182 129.828 73.0146 129.839 72.8994C129.857 72.7842 129.871 72.646 129.883 72.4848C129.762 72.5884 129.618 72.695 129.451 72.8044C129.289 72.9138 129.102 73.0146 128.889 73.1067C128.682 73.193 128.449 73.2621 128.19 73.3139C127.937 73.3715 127.657 73.4003 127.352 73.4003C126.35 73.4003 125.576 73.1671 125.029 72.7007C124.482 72.2286 124.208 71.5608 124.208 70.6971ZM129.934 68.1839C129.41 68.1897 128.907 68.2213 128.423 68.2789C127.939 68.3307 127.51 68.443 127.136 68.6157C126.768 68.7884 126.471 69.036 126.247 69.3585C126.028 69.6751 125.918 70.0983 125.918 70.628C125.918 71.3074 126.088 71.8255 126.428 72.1826C126.768 72.5396 127.237 72.718 127.836 72.718C128.112 72.718 128.363 72.6806 128.587 72.6058C128.817 72.5252 129.019 72.4273 129.192 72.3121C129.37 72.1912 129.52 72.0617 129.641 71.9235C129.762 71.7796 129.854 71.6414 129.917 71.5089C129.929 71.2902 129.934 71.0483 129.934 70.7835C129.934 70.5129 129.934 70.2077 129.934 69.868V68.1839ZM137.981 70.2221C137.981 70.9821 138.131 71.5406 138.43 71.8975C138.735 72.2546 139.144 72.433 139.657 72.433C139.841 72.433 140.048 72.3956 140.278 72.3208C140.509 72.2401 140.745 72.1365 140.987 72.0098C141.234 71.8774 141.479 71.7248 141.721 71.5522C141.968 71.3794 142.196 71.1951 142.403 70.9994C142.414 70.8324 142.42 70.6568 142.42 70.4726C142.42 70.2826 142.42 70.081 142.42 69.868V67.778C142.42 67.2886 142.412 66.8625 142.394 66.4998C142.383 66.1313 142.366 65.8146 142.342 65.5498C142.325 65.2849 142.299 65.0633 142.265 64.8848C142.236 64.7063 142.204 64.5566 142.17 64.4357V64.4011H144.165V64.4357C144.13 64.5566 144.099 64.7063 144.07 64.8848C144.041 65.0633 144.015 65.2849 143.992 65.5498C143.969 65.8146 143.952 66.1313 143.94 66.4998C143.929 66.8625 143.923 67.2886 143.923 67.778V69.868C143.923 70.3574 143.929 70.7863 143.94 71.1549C143.952 71.5176 143.969 71.8314 143.992 72.0962C144.015 72.361 144.041 72.5827 144.07 72.7612C144.099 72.9397 144.13 73.0894 144.165 73.2104V73.2449H142.17V73.2104C142.204 73.0663 142.239 72.8821 142.273 72.6576C142.314 72.433 142.342 72.1394 142.36 71.7767C142.124 71.9782 141.868 72.1769 141.591 72.3725C141.321 72.5683 141.035 72.744 140.736 72.8994C140.443 73.0548 140.143 73.1786 139.838 73.2707C139.539 73.3687 139.242 73.4175 138.948 73.4175C138.499 73.4175 138.116 73.3398 137.8 73.1844C137.489 73.029 137.233 72.8246 137.031 72.5712C136.835 72.3179 136.691 72.0299 136.599 71.7076C136.513 71.3851 136.47 71.054 136.47 70.7144V67.778C136.47 67.2886 136.464 66.8625 136.452 66.4998C136.441 66.1313 136.424 65.8146 136.401 65.5498C136.378 65.2849 136.352 65.0633 136.323 64.8848C136.294 64.7063 136.262 64.5566 136.228 64.4357V64.4011H138.223V64.4357C138.188 64.5566 138.157 64.7063 138.128 64.8848C138.099 65.0633 138.073 65.2849 138.05 65.5498C138.027 65.8146 138.01 66.1313 137.998 66.4998C137.987 66.8625 137.981 67.2886 137.981 67.778V70.2221ZM152.186 72.7353C152.358 72.7353 152.528 72.7036 152.695 72.6403C152.868 72.5769 153.032 72.4906 153.187 72.3813C153.349 72.2718 153.501 72.148 153.645 72.0098C153.795 71.8659 153.933 71.7162 154.06 71.5608L154.146 71.6039L153.585 72.9944C153.516 73.029 153.429 73.0722 153.326 73.1239C153.228 73.17 153.107 73.2132 152.963 73.2535C152.825 73.2996 152.661 73.3369 152.471 73.3658C152.281 73.4003 152.056 73.4175 151.797 73.4175C151.025 73.4175 150.424 73.2104 149.992 72.7958C149.566 72.3754 149.353 71.722 149.353 70.8353V65.0748L147.902 65.1266V64.3666C148.08 64.3781 148.294 64.3867 148.541 64.3925C148.789 64.3983 149.059 64.4011 149.353 64.4011C149.347 63.9923 149.336 63.6325 149.318 63.3216C149.307 63.0049 149.29 62.7314 149.267 62.5011C149.249 62.2651 149.226 62.0664 149.197 61.9052C149.169 61.744 149.14 61.6087 149.111 61.4993V61.4647H151.106V61.4993C151.072 61.6087 151.04 61.744 151.011 61.9052C150.982 62.0664 150.956 62.2622 150.933 62.4925C150.916 62.7228 150.899 62.9963 150.882 63.3129C150.87 63.6239 150.861 63.9866 150.856 64.4011C151.218 64.3954 151.572 64.3896 151.918 64.3839C152.269 64.3724 152.586 64.3608 152.868 64.3493C153.156 64.332 153.398 64.3177 153.593 64.3061C153.795 64.2889 153.927 64.2745 153.991 64.263L153.835 65.1439C153.542 65.1381 153.234 65.1295 152.911 65.118C152.635 65.1064 152.318 65.0978 151.961 65.0921C151.604 65.0863 151.236 65.0805 150.856 65.0748V71.0167C150.856 71.3736 150.893 71.6644 150.968 71.8889C151.049 72.1078 151.149 72.2804 151.27 72.4071C151.397 72.5338 151.538 72.6202 151.693 72.6663C151.855 72.7122 152.019 72.7353 152.186 72.7353ZM161.096 73.1412L158.056 66.4912C157.947 66.2378 157.829 65.996 157.702 65.7657C157.575 65.5296 157.454 65.3195 157.339 65.1352C157.23 64.951 157.132 64.7984 157.046 64.6775C156.959 64.5508 156.902 64.4702 156.873 64.4357V64.4011H159.136V64.4357C159.124 64.4645 159.115 64.5076 159.11 64.5652C159.104 64.6228 159.101 64.6746 159.101 64.7207C159.101 64.8992 159.127 65.0978 159.179 65.3166C159.236 65.5296 159.34 65.7974 159.49 66.1198L161.873 71.3017L164.05 66.1889C164.142 65.9758 164.234 65.7427 164.326 65.4893C164.424 65.236 164.473 64.9798 164.473 64.7207C164.473 64.6458 164.467 64.5854 164.456 64.5393C164.444 64.4875 164.433 64.453 164.421 64.4357V64.4011H165.976V64.4357C165.872 64.5451 165.74 64.7408 165.578 65.023C165.423 65.2993 165.256 65.6477 165.077 66.068L160.958 75.879C160.866 76.092 160.771 76.3252 160.673 76.5785C160.581 76.8319 160.535 77.0881 160.535 77.3471C160.535 77.422 160.54 77.4824 160.552 77.5285C160.563 77.5804 160.575 77.6149 160.586 77.6322V77.6667H158.971V77.6322C159.081 77.5228 159.213 77.3299 159.369 77.0535C159.53 76.7829 159.7 76.4403 159.878 76.0258L161.096 73.1412ZM185.912 73.2449V73.2104C185.924 73.1815 185.932 73.1383 185.938 73.0808C185.944 73.0232 185.947 72.9714 185.947 72.9253C185.947 72.7468 185.921 72.5511 185.869 72.338C185.823 72.1193 185.731 71.8487 185.593 71.5262L184.548 69.1771C184.225 69.1656 183.796 69.1598 183.261 69.1598C182.726 69.1598 182.147 69.1598 181.525 69.1598C181.07 69.1598 180.63 69.1598 180.204 69.1598C179.783 69.1598 179.403 69.1656 179.064 69.1771L178.07 71.4571C177.984 71.6701 177.892 71.9034 177.794 72.1566C177.696 72.41 177.647 72.6663 177.647 72.9253C177.647 73.0001 177.653 73.0634 177.664 73.1153C177.676 73.1614 177.688 73.193 177.699 73.2104V73.2449H175.937V73.2104C176.041 73.1009 176.17 72.908 176.326 72.6317C176.481 72.3495 176.651 71.9983 176.835 71.578L181.784 60.6011H182.475L187.165 71.1549C187.274 71.4024 187.386 71.6443 187.501 71.8803C187.622 72.1106 187.735 72.3179 187.838 72.5021C187.942 72.6864 188.034 72.8418 188.115 72.9685C188.195 73.0952 188.25 73.1758 188.279 73.2104V73.2449H185.912ZM180.316 68.4171C180.65 68.4171 180.992 68.4171 181.344 68.4171C181.695 68.4113 182.037 68.4084 182.371 68.4084C182.711 68.4027 183.036 68.3998 183.347 68.3998C183.658 68.3941 183.94 68.3883 184.194 68.3825L181.767 62.8984L179.383 68.4171H180.316ZM197.863 67.4239C197.863 66.6639 197.71 66.1054 197.405 65.7484C197.1 65.3914 196.691 65.213 196.179 65.213C195.994 65.213 195.787 65.2533 195.557 65.3339C195.326 65.4087 195.09 65.5124 194.849 65.6448C194.607 65.7714 194.365 65.9212 194.123 66.0939C193.881 66.2666 193.654 66.4509 193.441 66.6466L193.424 67.778V69.868C193.424 70.3574 193.429 70.7863 193.441 71.1549C193.452 71.5176 193.47 71.8314 193.493 72.0962C193.516 72.361 193.542 72.5827 193.57 72.7612C193.599 72.9397 193.631 73.0894 193.665 73.2104V73.2449H191.67V73.2104C191.705 73.0894 191.737 72.9397 191.765 72.7612C191.8 72.5827 191.826 72.361 191.843 72.0962C191.866 71.8314 191.883 71.5176 191.895 71.1549C191.912 70.7863 191.921 70.3574 191.921 69.868V67.778C191.921 67.2886 191.912 66.8625 191.895 66.4998C191.883 66.1313 191.866 65.8146 191.843 65.5498C191.826 65.2849 191.8 65.0633 191.765 64.8848C191.737 64.7063 191.705 64.5566 191.67 64.4357V64.4011H193.665V64.4357C193.619 64.5796 193.582 64.7639 193.553 64.9884C193.53 65.2072 193.504 65.4951 193.475 65.8521C193.712 65.6563 193.965 65.4605 194.235 65.2648C194.512 65.069 194.797 64.8963 195.09 64.7466C195.384 64.5911 195.683 64.4674 195.989 64.3752C196.294 64.2773 196.593 64.2284 196.887 64.2284C197.336 64.2284 197.716 64.3061 198.027 64.4616C198.344 64.617 198.6 64.8214 198.795 65.0748C198.997 65.3281 199.141 65.6189 199.227 65.9471C199.319 66.2695 199.365 66.5977 199.365 66.9316V69.868C199.365 70.3574 199.371 70.7863 199.383 71.1549C199.394 71.5176 199.412 71.8314 199.435 72.0962C199.458 72.361 199.483 72.5827 199.512 72.7612C199.541 72.9397 199.573 73.0894 199.607 73.2104V73.2449H197.612V73.2104C197.647 73.0894 197.678 72.9397 197.707 72.7612C197.742 72.5827 197.768 72.361 197.785 72.0962C197.808 71.8314 197.825 71.5176 197.837 71.1549C197.854 70.7863 197.863 70.3574 197.863 69.868V67.4239ZM208.388 64.2457C208.624 64.2457 208.86 64.2658 209.096 64.3061C209.332 64.3464 209.563 64.404 209.787 64.4789C210.012 64.5537 210.225 64.6458 210.426 64.7552C210.628 64.8646 210.809 64.9884 210.97 65.1266V63.7102C210.97 63.2208 210.965 62.7948 210.953 62.432C210.942 62.0635 210.924 61.7469 210.902 61.482C210.879 61.2172 210.852 60.9955 210.823 60.817C210.795 60.6385 210.764 60.4888 210.729 60.3679V60.3334H212.724V60.3679C212.689 60.4888 212.655 60.6385 212.62 60.817C212.591 60.9955 212.566 61.2172 212.542 61.482C212.525 61.7469 212.508 62.0635 212.49 62.432C212.479 62.7948 212.473 63.2208 212.473 63.7102V69.868C212.473 70.3574 212.479 70.7863 212.49 71.1549C212.508 71.5176 212.525 71.8314 212.542 72.0962C212.566 72.361 212.591 72.5827 212.62 72.7612C212.655 72.9397 212.689 73.0894 212.724 73.2104V73.2449H210.814V73.2104C210.832 73.1643 210.847 73.098 210.859 73.0117C210.87 72.9195 210.884 72.8073 210.902 72.6749C210.608 72.859 210.239 73.0261 209.796 73.1758C209.352 73.3254 208.837 73.4003 208.25 73.4003C207.565 73.4003 206.943 73.2938 206.384 73.0808C205.826 72.8678 205.348 72.5626 204.951 72.1653C204.559 71.7681 204.257 71.2873 204.044 70.723C203.831 70.153 203.724 69.5139 203.724 68.8057C203.724 68.1551 203.84 67.5534 204.07 67.0007C204.3 66.4422 204.623 65.9586 205.037 65.5498C205.452 65.141 205.944 64.8214 206.514 64.5911C207.084 64.3608 207.709 64.2457 208.388 64.2457ZM210.97 66.6466C210.74 66.0421 210.409 65.5958 209.977 65.308C209.551 65.0201 209.07 64.8761 208.535 64.8761C208.086 64.8761 207.671 64.9567 207.291 65.118C206.911 65.2734 206.586 65.5008 206.315 65.8002C206.045 66.0996 205.832 66.4681 205.676 66.9057C205.527 67.3375 205.452 67.8298 205.452 68.3825C205.452 69.0044 205.521 69.583 205.659 70.1185C205.797 70.6539 205.999 71.1203 206.264 71.5176C206.534 71.9091 206.868 72.2171 207.265 72.4416C207.663 72.6605 208.12 72.7698 208.639 72.7698C208.909 72.7698 209.162 72.7382 209.399 72.6749C209.635 72.6115 209.851 72.5309 210.046 72.433C210.242 72.3352 210.415 72.2286 210.565 72.1135C210.714 71.9926 210.838 71.8745 210.936 71.7593C210.947 71.5118 210.956 71.2297 210.962 70.913C210.967 70.5963 210.97 70.248 210.97 69.868V66.6466ZM230.466 62.8293H230.276C230.231 62.6969 230.156 62.5472 230.052 62.3802C229.954 62.2132 229.822 62.0578 229.655 61.9138C229.494 61.7641 229.295 61.6404 229.059 61.5425C228.829 61.4446 228.555 61.3957 228.239 61.3957C227.956 61.3957 227.706 61.4388 227.487 61.5252C227.268 61.6116 227.084 61.7325 226.934 61.8879C226.791 62.0434 226.681 62.2276 226.606 62.4407C226.531 62.6537 226.494 62.8898 226.494 63.1489C226.494 63.5634 226.609 63.9607 226.839 64.3407C227.076 64.7149 227.369 65.0863 227.72 65.4548C228.072 65.8233 228.451 66.1918 228.86 66.5602C229.269 66.9287 229.649 67.3116 230 67.7089C230.351 68.1062 230.642 68.5236 230.872 68.9612C231.109 69.393 231.227 69.8594 231.227 70.3603C231.227 70.7345 231.161 71.1116 231.028 71.4917C230.902 71.8659 230.703 72.2027 230.432 72.5021C230.161 72.8016 229.813 73.0462 229.387 73.2362C228.961 73.4205 228.454 73.5126 227.867 73.5126C227.539 73.5126 227.225 73.4809 226.926 73.4175C226.633 73.36 226.358 73.2881 226.105 73.2016C225.858 73.1095 225.633 73.0117 225.432 72.908C225.236 72.8044 225.075 72.7094 224.948 72.623L225.147 70.7144H225.362C225.425 70.985 225.529 71.2441 225.673 71.4917C225.818 71.7335 225.992 71.9494 226.2 72.1394C226.414 72.3237 226.655 72.4733 226.926 72.5884C227.196 72.6979 227.493 72.7526 227.815 72.7526C228.108 72.7526 228.37 72.7094 228.601 72.623C228.837 72.5309 229.039 72.4071 229.206 72.2517C229.373 72.0904 229.499 71.9005 229.585 71.6816C229.678 71.4628 229.723 71.224 229.723 70.9648C229.723 70.6021 229.658 70.2682 229.526 69.963C229.393 69.6521 229.217 69.3585 228.998 69.0821C228.785 68.8057 228.541 68.538 228.264 68.2789C227.993 68.0198 227.715 67.7607 227.426 67.5016C227.139 67.2368 226.857 66.9662 226.581 66.6898C226.31 66.4134 226.065 66.1198 225.847 65.8089C225.633 65.4922 225.461 65.1554 225.328 64.7984C225.195 64.4357 225.129 64.0384 225.129 63.6066C225.129 63.1517 225.215 62.7429 225.389 62.3802C225.567 62.0117 225.8 61.6979 226.088 61.4388C226.382 61.1797 226.712 60.9811 227.081 60.8429C227.45 60.7047 227.83 60.6356 228.221 60.6356C228.509 60.6356 228.774 60.6587 229.016 60.7047C229.258 60.7508 229.474 60.8055 229.664 60.8688C229.859 60.9322 230.029 60.9955 230.173 61.0588C230.317 61.1222 230.435 61.174 230.527 61.2143L230.466 62.8293ZM235.923 67.6053C235.923 67.1159 235.914 66.6898 235.896 66.3271C235.885 65.9586 235.868 65.6419 235.844 65.3771C235.828 65.1122 235.801 64.8905 235.767 64.712C235.738 64.5336 235.706 64.3839 235.672 64.263V64.2284H237.667V64.263C237.639 64.3493 237.612 64.4472 237.589 64.5566C237.567 64.666 237.546 64.7898 237.529 64.928C237.868 64.7322 238.243 64.5681 238.651 64.4357C239.066 64.2975 239.523 64.2284 240.025 64.2284C240.664 64.2284 241.246 64.3378 241.77 64.5566C242.299 64.7696 242.751 65.0777 243.125 65.4807C243.505 65.8837 243.799 66.3702 244.006 66.9403C244.214 67.5103 244.317 68.1493 244.317 68.8575C244.317 69.4506 244.214 70.0206 244.006 70.5676C243.805 71.1145 243.505 71.5982 243.108 72.0184C242.716 72.4387 242.233 72.7756 241.657 73.029C241.081 73.2765 240.419 73.4003 239.67 73.4003C239.222 73.4003 238.813 73.3658 238.444 73.2967C238.076 73.2276 237.736 73.1383 237.425 73.029V74.2898C237.425 74.7792 237.431 75.2053 237.443 75.5681C237.454 75.9365 237.472 76.2533 237.494 76.518C237.517 76.7829 237.543 77.0045 237.572 77.1831C237.601 77.3616 237.632 77.5113 237.667 77.6322V77.6667H235.672V77.6322C235.706 77.5113 235.738 77.3616 235.767 77.1831C235.801 77.0045 235.828 76.7829 235.844 76.518C235.868 76.2533 235.885 75.9365 235.896 75.5681C235.914 75.2053 235.923 74.7792 235.923 74.2898V67.6053ZM239.722 64.8761C239.527 64.8761 239.326 64.902 239.118 64.9539C238.916 64.9999 238.715 65.069 238.513 65.1611C238.317 65.2475 238.127 65.3598 237.944 65.498C237.765 65.6304 237.603 65.783 237.459 65.9557C237.448 66.1745 237.44 66.4221 237.434 66.6984C237.429 66.9748 237.425 67.2771 237.425 67.6053V72.1308C237.54 72.2171 237.67 72.2977 237.814 72.3725C237.958 72.4474 238.119 72.5165 238.297 72.5798C238.482 72.6374 238.687 72.6835 238.911 72.718C239.141 72.7526 239.394 72.7698 239.67 72.7698C240.119 72.7698 240.526 72.6892 240.889 72.5281C241.251 72.3668 241.556 72.1336 241.804 71.8285C242.057 71.5233 242.251 71.152 242.382 70.7144C242.52 70.2768 242.59 69.7816 242.59 69.2289C242.59 68.6071 242.538 68.0313 242.434 67.5016C242.33 66.9662 242.163 66.5056 241.933 66.1198C241.709 65.7283 241.415 65.4231 241.052 65.2043C240.69 64.9855 240.246 64.8761 239.722 64.8761ZM248.037 70.6971C248.037 70.2422 248.129 69.8478 248.313 69.5139C248.503 69.18 248.754 68.895 249.065 68.6589C249.375 68.4228 249.73 68.2328 250.127 68.0889C250.524 67.9392 250.936 67.824 251.362 67.7434C251.789 67.6571 252.209 67.5995 252.623 67.5707C253.038 67.5362 253.418 67.516 253.763 67.5103V67.0698C253.763 66.6898 253.714 66.3616 253.616 66.0852C253.519 65.8089 253.38 65.5815 253.201 65.403C253.023 65.2187 252.807 65.0834 252.553 64.997C252.306 64.9049 252.033 64.8589 251.733 64.8589C251.527 64.8589 251.322 64.8761 251.12 64.9107C250.919 64.9452 250.708 65.0028 250.49 65.0834C250.276 65.164 250.05 65.2734 249.808 65.4116C249.571 65.5498 249.316 65.7254 249.039 65.9384L248.952 65.8866L249.54 64.6689C249.73 64.5825 249.917 64.5134 250.102 64.4616C250.285 64.404 250.472 64.358 250.662 64.3234C250.852 64.2889 251.046 64.2658 251.241 64.2543C251.442 64.237 251.653 64.2284 251.871 64.2284C252.476 64.2284 252.991 64.3033 253.418 64.453C253.849 64.5969 254.201 64.7984 254.471 65.0575C254.748 65.3108 254.949 65.6102 255.076 65.9557C255.202 66.2954 255.265 66.661 255.265 67.0525V69.868C255.265 70.3574 255.272 70.7863 255.283 71.1549C255.301 71.5176 255.317 71.8314 255.335 72.0962C255.358 72.361 255.383 72.5827 255.412 72.7612C255.446 72.9397 255.482 73.0894 255.516 73.2104V73.2449H253.607V73.2104C253.636 73.1182 253.657 73.0146 253.668 72.8994C253.685 72.7842 253.7 72.646 253.711 72.4848C253.59 72.5884 253.447 72.695 253.28 72.8044C253.118 72.9138 252.93 73.0146 252.718 73.1067C252.51 73.193 252.277 73.2621 252.018 73.3139C251.765 73.3715 251.486 73.4003 251.18 73.4003C250.179 73.4003 249.404 73.1671 248.858 72.7007C248.311 72.2286 248.037 71.5608 248.037 70.6971ZM253.763 68.1839C253.239 68.1897 252.735 68.2213 252.252 68.2789C251.768 68.3307 251.339 68.443 250.965 68.6157C250.596 68.7884 250.299 69.036 250.075 69.3585C249.856 69.6751 249.747 70.0983 249.747 70.628C249.747 71.3074 249.917 71.8255 250.256 72.1826C250.596 72.5396 251.066 72.718 251.665 72.718C251.941 72.718 252.191 72.6806 252.415 72.6058C252.646 72.5252 252.848 72.4273 253.02 72.3121C253.199 72.1912 253.348 72.0617 253.469 71.9235C253.59 71.7796 253.682 71.6414 253.745 71.5089C253.757 71.2902 253.763 71.0483 253.763 70.7835C253.763 70.5129 253.763 70.2077 253.763 69.868V68.1839Z" fill="white"/>
<path fill-rule="evenodd" clip-rule="evenodd" d="M36.2568 18.3319C37.118 17.5712 38.0122 16.8152 38.9535 16.0639C42.9537 11.88 43.5326 6.52227 40.6948 0C40.1582 2.62488 39.0005 5.07601 37.2074 7.35341C35.1273 9.02506 34.4308 11.7251 35.1273 15.444C37.0239 14.1199 38.737 11.4903 40.2712 7.55063C38.1299 15.9981 34.4825 16.2939 29.5222 21.8536C29.7763 17.975 27.8562 14.4579 22.3687 12.6313C23.7665 14.0494 24.4536 15.4816 24.4347 16.9279C24.2324 19.642 25.5031 21.4075 27.3197 21.9945C27.5032 20.8347 27.4326 19.2053 27.0279 17.5806C28.148 20.3604 28.3739 21.8865 28.2703 23.3281C28.1668 23.5863 23.1358 28.93 20.6792 39.2323C17.2577 31.367 10.4149 26.6103 0 31.8835C3.00257 31.8976 5.26627 32.6865 6.79109 34.2549C9.46423 37.3822 12.7115 37.9034 15.2811 36.5745C14.2458 35.1329 12.4291 33.466 10.2643 32.1606C17.0789 35.0625 17.7425 36.9455 20.3733 40.655C19.1967 46.7688 19.7426 53.0657 21.9263 58.7991C17.8225 54.6669 12.8339 55.8314 7.44055 62.4617C9.95367 61.5132 12.095 61.4568 13.8598 62.2833C17.0789 64.0394 19.5497 63.9596 21.2816 62.0297C19.9591 61.1563 18.1943 60.5177 15.9729 60.1186C18.9896 60.0387 21.6345 61.0201 23.8982 63.0534C29.4986 73.1584 40.2288 80 52.5497 80C70.6546 80 85.3333 65.2368 85.3333 47.0224C85.3333 30.0335 72.5653 16.0498 56.1594 14.2419C71.0876 16.5287 82.1425 28.3759 82.1425 43.8105C82.1425 60.25 68.8945 73.581 52.5545 73.581C39.9841 73.581 29.2445 65.6923 24.9571 54.573C24.4677 49.5298 26.3972 44.5759 30.9482 39.899C32.5059 38.2978 34.6849 37.4291 37.1039 36.5886C35.4191 37.8752 33.5272 39.3074 31.4235 40.8898C38.2334 42.9371 38.1252 37.0957 45.0857 36.8187C37.4569 31.8131 32.2659 32.8133 29.734 38.6876C26.642 41.8055 24.6183 45.2051 23.5217 49.6144C21.0274 36.8985 26.9996 21.2244 41.0524 19.2522C39.0146 19.8392 37.1792 20.7924 36.0262 21.7362C37.8287 23.375 40.5771 23.6614 43.4197 21.7127C44.9962 20.7736 47.0058 20.6233 49.4436 21.2714C46.4081 18.5291 40.0641 15.5004 36.2568 18.3319Z" fill="white"/>
<path fill-rule="evenodd" clip-rule="evenodd" d="M51.8303 33.6679C51.835 31.5455 52.7009 29.6203 54.1081 28.2444C55.5153 29.6203 56.3859 31.5408 56.3859 33.6679C56.3859 35.3443 55.8447 36.8891 54.9317 38.1429C54.1834 37.1239 54.1552 35.0625 54.1081 33.6679C53.7598 35.1752 53.6798 36.537 53.8116 37.6968C53.3975 36.2881 52.635 34.9404 51.835 34.0624C51.8303 33.9309 51.8256 33.7994 51.8303 33.6679ZM51.0914 34.1422C49.5948 32.6443 47.6276 31.9023 45.6698 31.9305C45.6181 35.7011 48.3336 38.9411 52.0421 39.514C51.8538 38.2603 50.4278 36.7811 49.4772 35.7669C50.4467 36.3726 51.2561 37.03 51.9056 37.7015C53.0257 38.9271 53.5763 40.2278 53.1151 41.3641C52.8374 42.045 51.4632 41.89 50.602 42.7352C49.7313 43.5899 49.1101 45.069 49.1289 46.3885C51.3644 46.4213 53.3692 44.961 54.0187 42.7963L54.0046 42.8385C54.4046 41.829 54.0234 41.3406 55.1999 39.9507C55.5859 39.5891 56.0377 39.237 56.5647 38.9083C55.9294 39.5891 54.974 40.5799 54.847 41.4158C57.3319 41.0354 59.1532 38.8613 59.1155 36.3398C57.8025 36.321 56.4518 36.8516 55.487 37.8236C53.7316 39.5891 54.494 41.3265 53.3692 42.4582C52.9268 42.9325 52.3621 43.3926 51.6844 43.8199C52.1127 43.3598 52.6821 42.7681 53.0492 42.1671C54.4752 39.8474 52.7998 35.8467 51.0914 34.1422ZM47.6464 37.8705C45.5333 37.8752 43.6226 38.7486 42.2578 40.162C43.6226 41.5754 45.5333 42.4535 47.6464 42.4535C49.3124 42.4535 50.8467 41.9088 52.0938 40.9885C51.0773 40.2372 49.0301 40.2043 47.6464 40.162C49.1713 39.8051 50.5502 39.73 51.7126 39.8756C50.2019 39.6032 48.8701 38.8848 47.83 37.8752C47.7688 37.8752 47.7076 37.8705 47.6464 37.8705ZM70.0246 40.7912C74.8249 43.7589 76.105 45.7733 73.8695 46.8299C71.1305 48.5579 70.7211 50.3093 72.6412 52.0796C73.2436 52.7934 73.2013 53.5118 72.5142 54.2349C72.0859 54.728 72.1235 55.1459 72.6224 55.4887C73.2436 56.409 73.0507 57.2073 72.0388 57.8834C71.54 58.5174 71.4223 59.6068 71.6906 61.1422C71.9494 64.8706 70.2128 66.5047 66.4902 66.0398C54.9082 64.4809 49.1666 64.4245 49.1336 73.5951C39.0246 64.3494 44.4933 55.9301 50.0749 47.9099C53.1386 47.2384 55.3317 45.501 56.7624 43.0921C48.4512 57.4561 44.4462 60.3252 47.797 70.1626C45.4204 57.4468 70.0716 44.6511 53.774 17.2378C69.4692 25.1641 65.4642 37.0394 70.0246 40.7912Z" fill="white"/>
</svg>
