<svg width="161" height="50" viewBox="0 0 161 50" fill="none" xmlns="http://www.w3.org/2000/svg">
<path d="M77.6372 15.8298L83.013 28.8795L88.241 16.0717C88.4471 15.5431 88.5993 15.0951 88.6979 14.7278C88.7965 14.3605 88.8457 14.0469 88.8457 13.787C88.8457 13.7064 88.8413 13.6258 88.8323 13.5451C88.8233 13.4555 88.8099 13.3883 88.792 13.3435V13.2898H91.4529V13.3435C91.2738 13.5406 91.0767 13.8542 90.8617 14.2843C90.6556 14.7144 90.4136 15.2475 90.1359 15.8836L82.9593 32.9786H81.9378L76.7099 20.2917L71.9389 32.9786H70.931L64.3457 16.5421C64.1844 16.1569 64.0186 15.785 63.8484 15.4266C63.6871 15.0683 63.5303 14.7457 63.378 14.459C63.2347 14.1723 63.1047 13.9304 62.9883 13.7333C62.8628 13.5362 62.7732 13.4063 62.7195 13.3435V13.2898H66.4422V13.3435C66.4243 13.4421 66.4153 13.5182 66.4153 13.572C66.4153 13.6258 66.4153 13.6885 66.4153 13.7602C66.4153 14.0648 66.4467 14.3873 66.5094 14.7278C66.5811 15.0683 66.7155 15.4804 66.9126 15.9642L71.9658 28.7317L76.7906 15.8836L77.6372 15.8298ZM98.0517 32.8038C97.0572 32.8038 96.1254 32.647 95.2563 32.3335C94.3873 32.0198 93.6302 31.5629 92.9851 30.9626C92.34 30.3534 91.8293 29.6052 91.4529 28.7183C91.0856 27.8223 90.902 26.8009 90.902 25.654C90.902 24.6416 91.0722 23.7053 91.4127 22.8452C91.7531 21.9761 92.2235 21.2235 92.8238 20.5874C93.4241 19.9513 94.123 19.454 94.9203 19.0956C95.7267 18.7372 96.5958 18.558 97.5276 18.558C98.4504 18.558 99.3061 18.7193 100.094 19.0419C100.883 19.3554 101.564 19.8169 102.137 20.4261C102.72 21.0264 103.177 21.7745 103.508 22.6705C103.849 23.5575 104.032 24.5699 104.059 25.7078C103.047 25.6899 102.034 25.6765 101.022 25.6675C100.009 25.6585 98.9567 25.654 97.8636 25.654C97.0841 25.654 96.3225 25.6585 95.5788 25.6675C94.8442 25.6765 94.1812 25.6899 93.5898 25.7078C93.6436 26.6396 93.787 27.4818 94.0199 28.2344C94.2618 28.987 94.5888 29.6321 95.001 30.1697C95.4221 30.6983 95.9283 31.106 96.5196 31.3927C97.1199 31.6794 97.7964 31.8228 98.549 31.8228C99.0687 31.8228 99.557 31.7645 100.014 31.648C100.48 31.5226 100.901 31.3524 101.277 31.1373C101.654 30.9223 101.989 30.6714 102.285 30.3847C102.581 30.089 102.832 29.771 103.038 29.4305L103.199 29.5112L102.204 31.9034C101.721 32.1543 101.143 32.3693 100.471 32.5485C99.7988 32.7187 98.9925 32.8038 98.0517 32.8038ZM96.2643 24.6058C97.1602 24.6058 98.0562 24.6058 98.9522 24.6058C99.8571 24.5968 100.677 24.5789 101.412 24.552C101.331 23.7726 101.179 23.0737 100.955 22.4555C100.731 21.8373 100.444 21.3131 100.094 20.883C99.7451 20.453 99.333 20.1215 98.8581 19.8885C98.3833 19.6556 97.8591 19.5391 97.2857 19.5391C96.766 19.5391 96.2867 19.6556 95.8477 19.8885C95.4176 20.1126 95.0413 20.4395 94.7187 20.8696C94.3962 21.2997 94.1364 21.8283 93.9392 22.4555C93.7422 23.0737 93.6257 23.7815 93.5898 24.5789C93.9931 24.5968 94.4186 24.6058 94.8666 24.6058C95.3146 24.6058 95.7805 24.6058 96.2643 24.6058ZM107.029 17.7248C107.029 16.9632 107.016 16.3002 106.989 15.7358C106.971 15.1623 106.944 14.6696 106.908 14.2574C106.881 13.8453 106.841 13.5003 106.787 13.2226C106.743 12.9448 106.693 12.7119 106.64 12.5237V12.47H109.744V12.5237C109.69 12.7119 109.641 12.9448 109.596 13.2226C109.551 13.5003 109.511 13.8453 109.475 14.2574C109.439 14.6696 109.413 15.1623 109.395 15.7358C109.377 16.3002 109.368 16.9632 109.368 17.7248V27.3071C109.368 28.0687 109.377 28.7362 109.395 29.3095C109.413 29.8741 109.439 30.3623 109.475 30.7744C109.511 31.1866 109.551 31.5316 109.596 31.8093C109.641 32.0871 109.69 32.32 109.744 32.5082V32.5619H106.64V32.5082C106.693 32.32 106.743 32.0871 106.787 31.8093C106.841 31.5316 106.881 31.1866 106.908 30.7744C106.944 30.3623 106.971 29.8741 106.989 29.3095C107.016 28.7362 107.029 28.0687 107.029 27.3071V17.7248ZM113.668 17.7248C113.668 16.9632 113.655 16.3002 113.628 15.7358C113.61 15.1623 113.583 14.6696 113.547 14.2574C113.521 13.8453 113.48 13.5003 113.426 13.2226C113.382 12.9448 113.332 12.7119 113.279 12.5237V12.47H116.383V12.5237C116.329 12.7119 116.28 12.9448 116.235 13.2226C116.19 13.5003 116.15 13.8453 116.114 14.2574C116.078 14.6696 116.052 15.1623 116.034 15.7358C116.016 16.3002 116.007 16.9632 116.007 17.7248V27.3071C116.007 28.0687 116.016 28.7362 116.034 29.3095C116.052 29.8741 116.078 30.3623 116.114 30.7744C116.15 31.1866 116.19 31.5316 116.235 31.8093C116.28 32.0871 116.329 32.32 116.383 32.5082V32.5619H113.279V32.5082C113.332 32.32 113.382 32.0871 113.426 31.8093C113.48 31.5316 113.521 31.1866 113.547 30.7744C113.583 30.3623 113.61 29.8741 113.628 29.3095C113.655 28.7362 113.668 28.0687 113.668 27.3071V17.7248ZM129.473 23.5037C129.473 22.3211 129.236 21.452 128.761 20.8965C128.286 20.341 127.65 20.0632 126.852 20.0632C126.566 20.0632 126.243 20.126 125.885 20.2514C125.526 20.3678 125.159 20.5291 124.783 20.7352C124.406 20.9324 124.03 21.1653 123.654 21.434C123.278 21.7029 122.924 21.9896 122.592 22.2942L122.565 24.0547V27.3071C122.565 28.0687 122.574 28.7362 122.592 29.3095C122.61 29.8741 122.637 30.3623 122.673 30.7744C122.709 31.1866 122.749 31.5316 122.794 31.8093C122.838 32.0871 122.888 32.32 122.942 32.5082V32.5619H119.837V32.5082C119.891 32.32 119.94 32.0871 119.985 31.8093C120.039 31.5316 120.079 31.1866 120.106 30.7744C120.142 30.3623 120.169 29.8741 120.186 29.3095C120.213 28.7362 120.227 28.0687 120.227 27.3071V24.0547C120.227 23.2932 120.213 22.6302 120.186 22.0657C120.169 21.4923 120.142 20.9995 120.106 20.5874C120.079 20.1752 120.039 19.8303 119.985 19.5526C119.94 19.2748 119.891 19.0419 119.837 18.8537V18.7999H122.942V18.8537C122.87 19.0777 122.812 19.3644 122.767 19.7138C122.731 20.0543 122.691 20.5023 122.646 21.0577C123.013 20.7531 123.407 20.4485 123.829 20.1439C124.259 19.8392 124.702 19.5705 125.159 19.3375C125.616 19.0956 126.082 18.9029 126.557 18.7596C127.032 18.6073 127.498 18.5312 127.954 18.5312C128.653 18.5312 129.245 18.6521 129.728 18.894C130.221 19.1359 130.62 19.454 130.925 19.8482C131.238 20.2425 131.462 20.6949 131.596 21.2056C131.74 21.7074 131.812 22.218 131.812 22.7377V27.3071C131.812 28.0687 131.821 28.7362 131.839 29.3095C131.857 29.8741 131.883 30.3623 131.919 30.7744C131.955 31.1866 131.996 31.5316 132.04 31.8093C132.085 32.0871 132.134 32.32 132.188 32.5082V32.5619H129.083V32.5082C129.137 32.32 129.186 32.0871 129.231 31.8093C129.285 31.5316 129.325 31.1866 129.352 30.7744C129.388 30.3623 129.415 29.8741 129.433 29.3095C129.46 28.7362 129.473 28.0687 129.473 27.3071V23.5037ZM141.891 32.8038C140.897 32.8038 139.965 32.647 139.096 32.3335C138.227 32.0198 137.469 31.5629 136.825 30.9626C136.179 30.3534 135.669 29.6052 135.292 28.7183C134.925 27.8223 134.741 26.8009 134.741 25.654C134.741 24.6416 134.912 23.7053 135.252 22.8452C135.592 21.9761 136.063 21.2235 136.663 20.5874C137.264 19.9513 137.962 19.454 138.76 19.0956C139.566 18.7372 140.435 18.558 141.367 18.558C142.29 18.558 143.145 18.7193 143.934 19.0419C144.723 19.3554 145.403 19.8169 145.977 20.4261C146.559 21.0264 147.016 21.7745 147.348 22.6705C147.688 23.5575 147.872 24.5699 147.899 25.7078C146.886 25.6899 145.874 25.6765 144.862 25.6675C143.849 25.6585 142.796 25.654 141.703 25.654C140.924 25.654 140.162 25.6585 139.418 25.6675C138.684 25.6765 138.02 25.6899 137.429 25.7078C137.483 26.6396 137.626 27.4818 137.859 28.2344C138.101 28.987 138.429 29.6321 138.841 30.1697C139.262 30.6983 139.768 31.106 140.359 31.3927C140.959 31.6794 141.636 31.8228 142.389 31.8228C142.908 31.8228 143.397 31.7645 143.854 31.648C144.319 31.5226 144.74 31.3524 145.117 31.1373C145.493 30.9223 145.829 30.6714 146.124 30.3847C146.42 30.089 146.671 29.771 146.877 29.4305L147.039 29.5112L146.044 31.9034C145.56 32.1543 144.982 32.3693 144.31 32.5485C143.638 32.7187 142.832 32.8038 141.891 32.8038ZM140.103 24.6058C141 24.6058 141.896 24.6058 142.792 24.6058C143.697 24.5968 144.516 24.5789 145.251 24.552C145.171 23.7726 145.018 23.0737 144.794 22.4555C144.57 21.8373 144.284 21.3131 143.934 20.883C143.584 20.453 143.172 20.1215 142.697 19.8885C142.223 19.6556 141.698 19.5391 141.125 19.5391C140.606 19.5391 140.126 19.6556 139.687 19.8885C139.257 20.1126 138.881 20.4395 138.558 20.8696C138.236 21.2997 137.976 21.8283 137.779 22.4555C137.581 23.0737 137.465 23.7815 137.429 24.5789C137.833 24.5968 138.258 24.6058 138.706 24.6058C139.154 24.6058 139.62 24.6058 140.103 24.6058ZM152.159 31.5137H156.151C156.849 31.5137 157.494 31.4778 158.085 31.4061C158.677 31.3255 159.188 31.2359 159.618 31.1373C160.119 31.0298 160.576 30.8999 160.989 30.7476L160.384 32.6694C160.276 32.6604 160.088 32.647 159.819 32.6291C159.559 32.6201 159.282 32.6067 158.986 32.5888C158.699 32.5798 158.426 32.5709 158.166 32.5619C157.907 32.5619 157.732 32.5619 157.642 32.5619H148.934V32.2259L157.615 19.8482H154.807C154.063 19.8482 153.377 19.8885 152.75 19.9692C152.132 20.0498 151.595 20.1394 151.138 20.2379C150.6 20.3455 150.116 20.4709 149.686 20.6142L150.56 18.6924C150.667 18.7103 150.851 18.7238 151.111 18.7327C151.379 18.7417 151.661 18.7551 151.957 18.7731C152.253 18.782 152.526 18.791 152.777 18.7999C153.037 18.7999 153.216 18.7999 153.315 18.7999H160.881V19.0419L152.159 31.5137Z" fill="white"/>
<path d="M62.8736 40.3077C62.8736 40.0066 62.87 39.7445 62.863 39.5213C62.8559 39.2946 62.8452 39.0997 62.8311 38.9368C62.8169 38.7703 62.7992 38.6321 62.7779 38.5223C62.7602 38.4125 62.7407 38.3204 62.7195 38.246V38.2248C62.7903 38.2283 62.8647 38.2301 62.9427 38.2301C63.01 38.2336 63.0844 38.2354 63.1658 38.2354C63.2508 38.2354 63.3376 38.2354 63.4262 38.2354C63.5537 38.2354 63.7255 38.223 63.9416 38.1982C64.1612 38.1734 64.4429 38.161 64.7865 38.161C65.1053 38.161 65.3993 38.2035 65.6685 38.2885C65.9378 38.37 66.1698 38.4887 66.3646 38.6445C66.563 38.8004 66.7171 38.9935 66.8269 39.2237C66.9403 39.4504 66.997 39.709 66.997 39.9995C66.997 40.2439 66.9633 40.4636 66.896 40.6584C66.8287 40.8497 66.733 41.018 66.6091 41.1632C66.4886 41.3049 66.3416 41.4253 66.168 41.5245C65.998 41.6202 65.8102 41.6963 65.6048 41.753C65.9059 41.7991 66.1804 41.877 66.4284 41.9868C66.6764 42.0931 66.8889 42.2277 67.066 42.3907C67.2467 42.5536 67.3849 42.7449 67.4805 42.9645C67.5797 43.1806 67.6293 43.4215 67.6293 43.6872C67.6293 44.4346 67.3831 44.9961 66.8907 45.3716C66.3983 45.7436 65.6615 45.9295 64.6802 45.9295C64.5739 45.9295 64.45 45.9242 64.3083 45.9136C64.1666 45.9065 64.0213 45.8976 63.8725 45.887C63.7273 45.8764 63.5838 45.8657 63.4421 45.8551C63.3004 45.8481 63.1765 45.8445 63.0702 45.8445H62.7195V45.8233C62.7407 45.7489 62.7602 45.6568 62.7779 45.547C62.7992 45.4371 62.8169 45.3007 62.8311 45.1378C62.8452 44.9749 62.8559 44.7818 62.863 44.5586C62.87 44.3319 62.8736 44.068 62.8736 43.7669V40.3077ZM64.8237 42.0772C64.5828 42.0772 64.3809 42.086 64.2179 42.1037C64.055 42.1214 63.9292 42.1391 63.8407 42.1569V43.7669C63.8407 44.1814 63.8477 44.5232 63.8619 44.7924C63.8761 45.0617 63.8956 45.2813 63.9204 45.4513C64.055 45.469 64.1896 45.485 64.3242 45.4991C64.4588 45.5133 64.5669 45.5204 64.6483 45.5204C65.3108 45.5204 65.7943 45.3734 66.099 45.0794C66.4071 44.7818 66.5612 44.3266 66.5612 43.7138C66.5612 43.4729 66.524 43.2532 66.4497 43.0549C66.3788 42.8529 66.2708 42.6794 66.1255 42.5341C65.9838 42.3889 65.8032 42.2773 65.5835 42.1994C65.3674 42.1179 65.1142 42.0772 64.8237 42.0772ZM63.8407 41.6786C63.9398 41.6893 64.0284 41.6963 64.1063 41.6999C64.1843 41.6999 64.2675 41.6999 64.3561 41.6999C64.597 41.6999 64.8166 41.6662 65.015 41.5989C65.2133 41.5281 65.3816 41.4236 65.5198 41.2854C65.6615 41.1473 65.7713 40.9755 65.8492 40.77C65.9271 40.561 65.9661 40.3183 65.9661 40.042C65.9661 39.8118 65.9378 39.6028 65.8811 39.415C65.8244 39.2273 65.7394 39.0679 65.626 38.9368C65.5162 38.8022 65.3798 38.6995 65.2169 38.6286C65.0539 38.5578 64.868 38.5223 64.659 38.5223C64.5243 38.5223 64.4057 38.5276 64.3029 38.5383C64.2038 38.5489 64.1187 38.5613 64.0479 38.5755C63.9664 38.5896 63.8973 38.6074 63.8407 38.6286V41.6786ZM72.7926 45.9401C72.3995 45.9401 72.031 45.8782 71.6874 45.7542C71.3438 45.6302 71.0445 45.4496 70.7894 45.2122C70.5344 44.9713 70.3324 44.6755 70.1837 44.3248C70.0384 43.9706 69.9658 43.5667 69.9658 43.1133C69.9658 42.713 70.0331 42.3428 70.1677 42.0028C70.3023 41.6591 70.4883 41.3616 70.7256 41.1101C70.963 40.8586 71.2393 40.662 71.5546 40.5203C71.8734 40.3786 72.217 40.3077 72.5854 40.3077C72.9503 40.3077 73.2886 40.3715 73.6003 40.499C73.912 40.623 74.1813 40.8054 74.408 41.0463C74.6382 41.2836 74.8189 41.5794 74.95 41.9337C75.0846 42.2844 75.1572 42.6847 75.1678 43.1346C74.7675 43.1275 74.3672 43.1222 73.967 43.1186C73.5666 43.1151 73.1504 43.1133 72.7182 43.1133C72.4101 43.1133 72.109 43.1151 71.8149 43.1186C71.5244 43.1222 71.2623 43.1275 71.0285 43.1346C71.0498 43.503 71.1064 43.836 71.1985 44.1335C71.2942 44.4311 71.4235 44.6862 71.5865 44.8987C71.753 45.1077 71.9531 45.2688 72.1869 45.3822C72.4242 45.4956 72.6917 45.5523 72.9893 45.5523C73.1947 45.5523 73.3878 45.5293 73.5684 45.4832C73.7527 45.4336 73.9191 45.3663 74.0679 45.2813C74.2167 45.1963 74.3496 45.097 74.4664 44.9837C74.5833 44.8668 74.6825 44.7411 74.764 44.6064L74.8278 44.6383L74.4346 45.5842C74.2433 45.6833 74.0148 45.7683 73.7491 45.8392C73.4834 45.9065 73.1646 45.9401 72.7926 45.9401ZM72.0859 42.6988C72.4402 42.6988 72.7944 42.6988 73.1486 42.6988C73.5065 42.6953 73.8305 42.6882 74.121 42.6776C74.0891 42.3694 74.0289 42.0931 73.9404 41.8487C73.8518 41.6042 73.7385 41.397 73.6003 41.227C73.4622 41.0569 73.2992 40.9259 73.1114 40.8338C72.9237 40.7417 72.7165 40.6956 72.4898 40.6956C72.2843 40.6956 72.0948 40.7417 71.9212 40.8338C71.7511 40.9223 71.6024 41.0516 71.4749 41.2217C71.3473 41.3917 71.2446 41.6007 71.1667 41.8487C71.0887 42.0931 71.0427 42.3729 71.0285 42.6882C71.1879 42.6953 71.3562 42.6988 71.5333 42.6988C71.7105 42.6988 71.8946 42.6988 72.0859 42.6988ZM77.4087 44.277C77.4087 43.9971 77.4654 43.7545 77.5788 43.549C77.6956 43.3436 77.8497 43.1682 78.0411 43.023C78.2323 42.8777 78.4502 42.7608 78.6946 42.6723C78.939 42.5802 79.1923 42.5093 79.4545 42.4597C79.7166 42.4066 79.9752 42.3712 80.2302 42.3535C80.4853 42.3322 80.7191 42.3198 80.9317 42.3163V42.0453C80.9317 41.8115 80.9015 41.6096 80.8413 41.4395C80.7811 41.2695 80.6961 41.1296 80.5862 41.0197C80.4764 40.9064 80.3436 40.8231 80.1877 40.77C80.0354 40.7133 79.8672 40.685 79.6829 40.685C79.5554 40.685 79.4296 40.6956 79.3056 40.7169C79.1817 40.7381 79.0524 40.7735 78.9178 40.8231C78.7867 40.8727 78.6468 40.94 78.498 41.0251C78.3528 41.1101 78.1951 41.2181 78.0251 41.3492L77.9719 41.3173L78.3332 40.5681C78.4502 40.5149 78.5653 40.4724 78.6787 40.4406C78.792 40.4051 78.9071 40.3768 79.0241 40.3555C79.1409 40.3343 79.2596 40.3201 79.3801 40.313C79.504 40.3024 79.6333 40.2971 79.7679 40.2971C80.1399 40.2971 80.4569 40.3431 80.7191 40.4352C80.9848 40.5238 81.2009 40.6478 81.3674 40.8072C81.5374 40.9631 81.6614 41.1473 81.7393 41.3598C81.8172 41.5688 81.8562 41.7938 81.8562 42.0346V43.7669C81.8562 44.068 81.8597 44.3319 81.8669 44.5586C81.8775 44.7818 81.8881 44.9749 81.8987 45.1378C81.9129 45.3007 81.9288 45.4371 81.9465 45.547C81.9678 45.6568 81.989 45.7489 82.0103 45.8233V45.8445H80.836V45.8233C80.8537 45.7666 80.8661 45.7028 80.8732 45.632C80.8838 45.5611 80.8927 45.4761 80.8998 45.3769C80.8254 45.4406 80.7368 45.5062 80.6341 45.5735C80.5349 45.6408 80.4198 45.7028 80.2887 45.7595C80.1611 45.8126 80.0177 45.8551 79.8583 45.887C79.7024 45.9225 79.5306 45.9401 79.3428 45.9401C78.7265 45.9401 78.2501 45.7967 77.9135 45.5098C77.577 45.2193 77.4087 44.8084 77.4087 44.277ZM80.9317 42.7307C80.6093 42.7343 80.2993 42.7538 80.0018 42.7892C79.7042 42.8211 79.4403 42.8901 79.21 42.9964C78.9833 43.1027 78.8008 43.255 78.6627 43.4534C78.5281 43.6482 78.4608 43.9086 78.4608 44.2345C78.4608 44.6525 78.5653 44.9713 78.7743 45.191C78.9833 45.4106 79.272 45.5204 79.6404 45.5204C79.8104 45.5204 79.9646 45.4974 80.1027 45.4513C80.2444 45.4017 80.3684 45.3415 80.4747 45.2706C80.5845 45.1963 80.6766 45.1166 80.751 45.0315C80.8254 44.943 80.882 44.858 80.921 44.7765C80.9281 44.6419 80.9317 44.4931 80.9317 44.3301C80.9317 44.1636 80.9317 43.9759 80.9317 43.7669V42.7307ZM85.8824 43.9847C85.8824 44.4523 85.9745 44.7959 86.1588 45.0156C86.3465 45.2352 86.598 45.345 86.9133 45.345C87.0267 45.345 87.1542 45.322 87.2959 45.276C87.4376 45.2263 87.5828 45.1626 87.7316 45.0847C87.8839 45.0032 88.0345 44.9093 88.1832 44.8031C88.3356 44.6968 88.4755 44.5834 88.603 44.463C88.6101 44.3602 88.6137 44.2522 88.6137 44.1388C88.6137 44.0219 88.6137 43.898 88.6137 43.7669V42.481C88.6137 42.1799 88.6083 41.9177 88.5977 41.6946C88.5906 41.4679 88.58 41.273 88.5658 41.1101C88.5552 40.9471 88.5393 40.8107 88.518 40.7009C88.5003 40.5911 88.4808 40.499 88.4596 40.4246V40.4034H89.687V40.4246C89.6658 40.499 89.6463 40.5911 89.6285 40.7009C89.6109 40.8107 89.5949 40.9471 89.5807 41.1101C89.5666 41.273 89.556 41.4679 89.5489 41.6946C89.5418 41.9177 89.5382 42.1799 89.5382 42.481V43.7669C89.5382 44.068 89.5418 44.3319 89.5489 44.5586C89.556 44.7818 89.5666 44.9749 89.5807 45.1378C89.5949 45.3007 89.6109 45.4371 89.6285 45.547C89.6463 45.6568 89.6658 45.7489 89.687 45.8233V45.8445H88.4596V45.8233C88.4808 45.7347 88.5021 45.6214 88.5233 45.4832C88.5481 45.345 88.5658 45.1644 88.5765 44.9412C88.4312 45.0652 88.2736 45.1874 88.1036 45.3078C87.9371 45.4283 87.7617 45.5363 87.5775 45.632C87.3969 45.7276 87.2127 45.8038 87.0249 45.8604C86.8407 45.9207 86.6583 45.9508 86.4776 45.9508C86.2013 45.9508 85.9657 45.9029 85.7709 45.8073C85.5796 45.7117 85.4219 45.5859 85.298 45.43C85.1775 45.2742 85.089 45.097 85.0323 44.8987C84.9791 44.7003 84.9525 44.4966 84.9525 44.2876V42.481C84.9525 42.1799 84.949 41.9177 84.9419 41.6946C84.9349 41.4679 84.9243 41.273 84.91 41.1101C84.8959 40.9471 84.88 40.8107 84.8622 40.7009C84.8445 40.5911 84.825 40.499 84.8038 40.4246V40.4034H86.0313V40.4246C86.01 40.499 85.9905 40.5911 85.9728 40.7009C85.9551 40.8107 85.9392 40.9471 85.925 41.1101C85.9108 41.273 85.9002 41.4679 85.8931 41.6946C85.886 41.9177 85.8824 42.1799 85.8824 42.481V43.9847ZM94.6219 45.531C94.7281 45.531 94.8327 45.5115 94.9354 45.4725C95.0417 45.4336 95.1426 45.3805 95.2382 45.3132C95.3375 45.2459 95.4313 45.1697 95.5199 45.0847C95.612 44.9961 95.697 44.904 95.775 44.8084L95.8281 44.8349L95.4827 45.6904C95.4402 45.7117 95.3871 45.7383 95.3233 45.7701C95.2631 45.7985 95.1887 45.8251 95.1001 45.8498C95.0151 45.8782 94.9142 45.9012 94.7972 45.9189C94.6803 45.9401 94.5422 45.9508 94.3828 45.9508C93.9081 45.9508 93.5379 45.8233 93.2722 45.5682C93.0101 45.3096 92.879 44.9075 92.879 44.362V40.8178L91.9863 40.8497V40.3821C92.0962 40.3892 92.2272 40.3945 92.3795 40.398C92.5319 40.4016 92.6984 40.4034 92.879 40.4034C92.8755 40.1518 92.8684 39.9304 92.8577 39.7392C92.8507 39.5443 92.8401 39.3761 92.8259 39.2344C92.8152 39.0891 92.8011 38.9669 92.7834 38.8677C92.7656 38.7685 92.748 38.6853 92.7302 38.618V38.5967H93.9577V38.618C93.9364 38.6853 93.9169 38.7685 93.8992 38.8677C93.8816 38.9669 93.8656 39.0873 93.8514 39.229C93.8408 39.3707 93.8301 39.539 93.8195 39.7338C93.8125 39.9251 93.8072 40.1483 93.8036 40.4034C94.0268 40.3998 94.2446 40.3963 94.4572 40.3927C94.6733 40.3856 94.8681 40.3786 95.0417 40.3715C95.2188 40.3608 95.3676 40.352 95.488 40.3449C95.612 40.3343 95.6935 40.3254 95.7324 40.3183L95.6368 40.8603C95.4562 40.8568 95.2666 40.8515 95.0682 40.8444C94.8982 40.8373 94.7034 40.832 94.4838 40.8284C94.2641 40.8249 94.0374 40.8214 93.8036 40.8178V44.4736C93.8036 44.6932 93.8266 44.8721 93.8727 45.0103C93.9223 45.1449 93.9843 45.2512 94.0587 45.3291C94.1366 45.407 94.2234 45.4602 94.319 45.4885C94.4182 45.5168 94.5192 45.531 94.6219 45.531ZM100.104 45.7807L98.2337 41.6893C98.1664 41.5334 98.0938 41.3846 98.0158 41.2429C97.9379 41.0977 97.8635 40.9684 97.7927 40.855C97.7253 40.7417 97.6651 40.6478 97.612 40.5734C97.5588 40.4955 97.5234 40.4459 97.5057 40.4246V40.4034H98.8979V40.4246C98.8908 40.4423 98.8855 40.4689 98.8819 40.5043C98.8784 40.5397 98.8766 40.5716 98.8766 40.6C98.8766 40.7098 98.8926 40.832 98.9244 40.9666C98.9599 41.0977 99.0237 41.2624 99.1158 41.4608L100.582 44.649L101.921 41.5033C101.978 41.3722 102.035 41.2287 102.091 41.0729C102.152 40.917 102.182 40.7594 102.182 40.6C102.182 40.5539 102.178 40.5167 102.171 40.4884C102.164 40.4565 102.157 40.4352 102.15 40.4246V40.4034H103.106V40.4246C103.043 40.4919 102.961 40.6124 102.862 40.7859C102.766 40.956 102.663 41.1703 102.554 41.4289L100.019 47.4652C99.9624 47.5962 99.9039 47.7397 99.8437 47.8956C99.7871 48.0515 99.7587 48.2091 99.7587 48.3685C99.7587 48.4145 99.7622 48.4517 99.7693 48.4801C99.7764 48.512 99.7835 48.5332 99.7906 48.5439V48.5651H98.7969V48.5439C98.8642 48.4765 98.9457 48.3579 99.0413 48.1878C99.1405 48.0213 99.2451 47.8105 99.3549 47.5555L100.104 45.7807ZM115.373 45.8445V45.8233C115.38 45.8055 115.385 45.779 115.388 45.7436C115.392 45.7081 115.394 45.6763 115.394 45.6479C115.394 45.5381 115.378 45.4177 115.346 45.2866C115.318 45.152 115.261 44.9855 115.176 44.7871L114.533 43.3418C114.335 43.3347 114.071 43.3312 113.741 43.3312C113.412 43.3312 113.056 43.3312 112.673 43.3312C112.393 43.3312 112.122 43.3312 111.86 43.3312C111.602 43.3312 111.368 43.3347 111.159 43.3418L110.548 44.7446C110.495 44.8757 110.438 45.0192 110.378 45.175C110.317 45.3309 110.287 45.4885 110.287 45.6479C110.287 45.6939 110.291 45.7329 110.298 45.7648C110.305 45.7932 110.312 45.8126 110.319 45.8233V45.8445H109.235V45.8233C109.299 45.756 109.379 45.6373 109.474 45.4672C109.57 45.2937 109.675 45.0776 109.788 44.819L112.833 38.0654H113.258L116.143 44.5586C116.21 44.7109 116.279 44.8597 116.35 45.0049C116.425 45.1467 116.494 45.2742 116.557 45.3875C116.621 45.5009 116.678 45.5965 116.728 45.6745C116.777 45.7524 116.811 45.802 116.828 45.8233V45.8445H115.373ZM111.929 42.8742C112.135 42.8742 112.345 42.8742 112.562 42.8742C112.778 42.8707 112.988 42.8689 113.194 42.8689C113.403 42.8653 113.603 42.8636 113.794 42.8636C113.986 42.86 114.159 42.8565 114.315 42.8529L112.822 39.4788L111.355 42.8742H111.929ZM122.725 42.2631C122.725 41.7955 122.631 41.4519 122.443 41.2323C122.256 41.0127 122.004 40.9028 121.689 40.9028C121.576 40.9028 121.448 40.9276 121.306 40.9772C121.165 41.0233 121.019 41.087 120.871 41.1685C120.722 41.2465 120.573 41.3386 120.424 41.4448C120.275 41.5511 120.136 41.6645 120.005 41.7849L119.994 42.481V43.7669C119.994 44.068 119.997 44.3319 120.005 44.5586C120.012 44.7818 120.022 44.9749 120.036 45.1378C120.051 45.3007 120.066 45.4371 120.084 45.547C120.102 45.6568 120.121 45.7489 120.143 45.8233V45.8445H118.915V45.8233C118.936 45.7489 118.956 45.6568 118.974 45.547C118.995 45.4371 119.011 45.3007 119.021 45.1378C119.036 44.9749 119.046 44.7818 119.053 44.5586C119.064 44.3319 119.069 44.068 119.069 43.7669V42.481C119.069 42.1799 119.064 41.9177 119.053 41.6946C119.046 41.4679 119.036 41.273 119.021 41.1101C119.011 40.9471 118.995 40.8107 118.974 40.7009C118.956 40.5911 118.936 40.499 118.915 40.4246V40.4034H120.143V40.4246C120.114 40.5132 120.091 40.6265 120.074 40.7647C120.059 40.8993 120.043 41.0764 120.026 41.296C120.171 41.1756 120.327 41.0552 120.493 40.9347C120.663 40.8143 120.839 40.708 121.019 40.6159C121.2 40.5203 121.384 40.4441 121.572 40.3874C121.76 40.3272 121.944 40.2971 122.125 40.2971C122.401 40.2971 122.635 40.3449 122.826 40.4406C123.021 40.5362 123.178 40.662 123.299 40.8178C123.423 40.9737 123.511 41.1526 123.565 41.3545C123.621 41.5529 123.65 41.7548 123.65 41.9602V43.7669C123.65 44.068 123.653 44.3319 123.66 44.5586C123.667 44.7818 123.678 44.9749 123.692 45.1378C123.706 45.3007 123.722 45.4371 123.74 45.547C123.758 45.6568 123.777 45.7489 123.798 45.8233V45.8445H122.571V45.8233C122.592 45.7489 122.612 45.6568 122.629 45.547C122.651 45.4371 122.667 45.3007 122.677 45.1378C122.691 44.9749 122.702 44.7818 122.709 44.5586C122.72 44.3319 122.725 44.068 122.725 43.7669V42.2631ZM129.201 40.3077C129.346 40.3077 129.491 40.3201 129.637 40.3449C129.782 40.3697 129.924 40.4051 130.062 40.4512C130.2 40.4972 130.331 40.5539 130.455 40.6212C130.579 40.6885 130.69 40.7647 130.79 40.8497V39.9783C130.79 39.6772 130.786 39.415 130.779 39.1918C130.772 38.9651 130.761 38.7703 130.747 38.6074C130.733 38.4444 130.717 38.308 130.699 38.1982C130.681 38.0884 130.662 37.9963 130.641 37.9219V37.9006H131.868V37.9219C131.847 37.9963 131.826 38.0884 131.804 38.1982C131.787 38.308 131.771 38.4444 131.757 38.6074C131.746 38.7703 131.736 38.9651 131.725 39.1918C131.718 39.415 131.714 39.6772 131.714 39.9783V43.7669C131.714 44.068 131.718 44.3319 131.725 44.5586C131.736 44.7818 131.746 44.9749 131.757 45.1378C131.771 45.3007 131.787 45.4371 131.804 45.547C131.826 45.6568 131.847 45.7489 131.868 45.8233V45.8445H130.694V45.8233C130.705 45.7949 130.713 45.7542 130.721 45.7011C130.728 45.6444 130.737 45.5753 130.747 45.4938C130.566 45.6071 130.34 45.7099 130.067 45.802C129.794 45.8941 129.477 45.9401 129.116 45.9401C128.694 45.9401 128.312 45.8746 127.968 45.7436C127.625 45.6125 127.33 45.4247 127.086 45.1803C126.845 44.9359 126.659 44.6401 126.528 44.2929C126.397 43.9422 126.332 43.549 126.332 43.1133C126.332 42.713 126.402 42.3428 126.544 42.0028C126.686 41.6591 126.884 41.3616 127.139 41.1101C127.394 40.8586 127.697 40.662 128.048 40.5203C128.399 40.3786 128.783 40.3077 129.201 40.3077ZM130.79 41.7849C130.648 41.413 130.444 41.1384 130.179 40.9613C129.916 40.7842 129.621 40.6956 129.291 40.6956C129.015 40.6956 128.76 40.7452 128.526 40.8444C128.292 40.94 128.092 41.08 127.926 41.2642C127.759 41.4484 127.628 41.6751 127.532 41.9443C127.44 42.21 127.394 42.5129 127.394 42.8529C127.394 43.2355 127.437 43.5915 127.522 43.921C127.607 44.2504 127.731 44.5373 127.894 44.7818C128.06 45.0227 128.266 45.2122 128.51 45.3503C128.755 45.485 129.036 45.5523 129.355 45.5523C129.522 45.5523 129.677 45.5328 129.823 45.4938C129.968 45.4549 130.101 45.4053 130.221 45.345C130.342 45.2848 130.448 45.2193 130.54 45.1485C130.632 45.074 130.708 45.0014 130.769 44.9305C130.775 44.7783 130.781 44.6047 130.784 44.4098C130.788 44.215 130.79 44.0007 130.79 43.7669V41.7849ZM142.785 39.4363H142.668C142.64 39.3548 142.594 39.2627 142.53 39.16C142.47 39.0572 142.388 38.9616 142.285 38.873C142.186 38.7809 142.064 38.7048 141.919 38.6445C141.777 38.5843 141.609 38.5542 141.414 38.5542C141.24 38.5542 141.086 38.5808 140.952 38.6339C140.817 38.6871 140.703 38.7614 140.612 38.8571C140.523 38.9527 140.456 39.0661 140.41 39.1972C140.363 39.3282 140.341 39.4735 140.341 39.6329C140.341 39.8879 140.412 40.1324 140.553 40.3662C140.699 40.5964 140.879 40.8249 141.095 41.0516C141.311 41.2783 141.545 41.505 141.796 41.7318C142.048 41.9585 142.282 42.194 142.498 42.4385C142.714 42.6829 142.893 42.9397 143.034 43.209C143.18 43.4746 143.253 43.7616 143.253 44.0698C143.253 44.3 143.212 44.532 143.13 44.7659C143.053 44.9961 142.93 45.2033 142.764 45.3875C142.597 45.5718 142.383 45.7223 142.121 45.8392C141.858 45.9526 141.547 46.0092 141.186 46.0092C140.984 46.0092 140.79 45.9897 140.606 45.9508C140.426 45.9154 140.257 45.8711 140.102 45.8179C139.949 45.7613 139.811 45.7011 139.687 45.6373C139.567 45.5735 139.468 45.5151 139.389 45.4619L139.512 44.2876H139.644C139.683 44.4541 139.747 44.6135 139.836 44.7659C139.925 44.9146 140.032 45.0475 140.16 45.1644C140.291 45.2778 140.44 45.3698 140.606 45.4406C140.773 45.508 140.955 45.5416 141.154 45.5416C141.334 45.5416 141.495 45.5151 141.637 45.4619C141.782 45.4053 141.907 45.3291 142.009 45.2335C142.112 45.1342 142.19 45.0174 142.243 44.8827C142.3 44.7481 142.328 44.6011 142.328 44.4417C142.328 44.2185 142.287 44.0131 142.206 43.8253C142.124 43.634 142.016 43.4534 141.881 43.2833C141.75 43.1133 141.6 42.9486 141.43 42.7892C141.263 42.6298 141.092 42.4704 140.914 42.311C140.737 42.148 140.564 41.9815 140.394 41.8115C140.227 41.6414 140.077 41.4608 139.942 41.2695C139.811 41.0746 139.705 40.8674 139.623 40.6478C139.542 40.4246 139.501 40.1802 139.501 39.9145C139.501 39.6346 139.554 39.3831 139.661 39.16C139.77 38.9333 139.914 38.7402 140.091 38.5808C140.272 38.4214 140.475 38.2992 140.702 38.2141C140.929 38.1291 141.163 38.0866 141.403 38.0866C141.58 38.0866 141.743 38.1008 141.892 38.1291C142.041 38.1575 142.174 38.1911 142.291 38.2301C142.411 38.269 142.515 38.308 142.604 38.347C142.693 38.3859 142.766 38.4178 142.822 38.4426L142.785 39.4363ZM146.142 42.3747C146.142 42.0736 146.136 41.8115 146.126 41.5883C146.119 41.3616 146.108 41.1668 146.094 41.0038C146.083 40.8408 146.067 40.7045 146.046 40.5946C146.028 40.4848 146.009 40.3927 145.987 40.3183V40.2971H147.215V40.3183C147.197 40.3715 147.181 40.4317 147.167 40.499C147.153 40.5663 147.14 40.6425 147.13 40.7275C147.339 40.607 147.569 40.5061 147.82 40.4246C148.076 40.3396 148.357 40.2971 148.666 40.2971C149.059 40.2971 149.417 40.3644 149.739 40.499C150.065 40.6301 150.343 40.8196 150.573 41.0676C150.807 41.3155 150.988 41.6149 151.115 41.9656C151.243 42.3163 151.306 42.7095 151.306 43.1452C151.306 43.5101 151.243 43.8608 151.115 44.1973C150.991 44.5338 150.807 44.8314 150.563 45.09C150.321 45.3486 150.024 45.5558 149.67 45.7117C149.315 45.864 148.908 45.9401 148.448 45.9401C148.171 45.9401 147.92 45.9189 147.693 45.8764C147.467 45.8339 147.257 45.779 147.066 45.7117V46.4875C147.066 46.7886 147.07 47.0507 147.077 47.2739C147.084 47.5006 147.095 47.6955 147.108 47.8584C147.123 48.0213 147.139 48.1577 147.157 48.2675C147.174 48.3774 147.193 48.4695 147.215 48.5439V48.5651H145.987V48.5439C146.009 48.4695 146.028 48.3774 146.046 48.2675C146.067 48.1577 146.083 48.0213 146.094 47.8584C146.108 47.6955 146.119 47.5006 146.126 47.2739C146.136 47.0507 146.142 46.7886 146.142 46.4875V42.3747ZM148.48 40.6956C148.359 40.6956 148.235 40.7115 148.107 40.7434C147.984 40.7718 147.86 40.8143 147.735 40.871C147.615 40.9241 147.498 40.9932 147.385 41.0782C147.275 41.1597 147.176 41.2535 147.087 41.3598C147.08 41.4944 147.075 41.6467 147.072 41.8168C147.068 41.9868 147.066 42.1728 147.066 42.3747V45.1591C147.137 45.2122 147.217 45.2618 147.306 45.3078C147.394 45.3539 147.493 45.3964 147.603 45.4353C147.716 45.4708 147.842 45.4991 147.98 45.5204C148.122 45.5416 148.278 45.5523 148.448 45.5523C148.724 45.5523 148.974 45.5027 149.197 45.4035C149.42 45.3043 149.608 45.1608 149.76 44.9731C149.916 44.7853 150.035 44.5569 150.116 44.2876C150.201 44.0184 150.244 43.7138 150.244 43.3737C150.244 42.9911 150.212 42.6369 150.148 42.311C150.084 41.9815 149.981 41.6981 149.84 41.4608C149.702 41.2199 149.521 41.0321 149.298 40.8975C149.075 40.7629 148.802 40.6956 148.48 40.6956ZM153.595 44.277C153.595 43.9971 153.652 43.7545 153.765 43.549C153.882 43.3436 154.036 43.1682 154.227 43.023C154.419 42.8777 154.637 42.7608 154.881 42.6723C155.125 42.5802 155.379 42.5093 155.641 42.4597C155.903 42.4066 156.162 42.3712 156.417 42.3535C156.672 42.3322 156.906 42.3198 157.118 42.3163V42.0453C157.118 41.8115 157.088 41.6096 157.028 41.4395C156.968 41.2695 156.883 41.1296 156.773 41.0197C156.663 40.9064 156.53 40.8231 156.374 40.77C156.222 40.7133 156.054 40.685 155.869 40.685C155.742 40.685 155.616 40.6956 155.492 40.7169C155.368 40.7381 155.239 40.7735 155.104 40.8231C154.973 40.8727 154.833 40.94 154.684 41.0251C154.539 41.1101 154.382 41.2181 154.212 41.3492L154.158 41.3173L154.52 40.5681C154.637 40.5149 154.752 40.4724 154.865 40.4406C154.978 40.4051 155.093 40.3768 155.21 40.3555C155.327 40.3343 155.446 40.3201 155.567 40.313C155.69 40.3024 155.82 40.2971 155.954 40.2971C156.326 40.2971 156.643 40.3431 156.906 40.4352C157.171 40.5238 157.387 40.6478 157.554 40.8072C157.724 40.9631 157.848 41.1473 157.926 41.3598C158.004 41.5688 158.042 41.7938 158.042 42.0346V43.7669C158.042 44.068 158.046 44.3319 158.053 44.5586C158.064 44.7818 158.074 44.9749 158.085 45.1378C158.099 45.3007 158.115 45.4371 158.133 45.547C158.154 45.6568 158.176 45.7489 158.197 45.8233V45.8445H157.022V45.8233C157.04 45.7666 157.053 45.7028 157.06 45.632C157.07 45.5611 157.079 45.4761 157.086 45.3769C157.012 45.4406 156.924 45.5062 156.821 45.5735C156.722 45.6408 156.606 45.7028 156.475 45.7595C156.347 45.8126 156.204 45.8551 156.045 45.887C155.889 45.9225 155.717 45.9401 155.529 45.9401C154.913 45.9401 154.436 45.7967 154.1 45.5098C153.764 45.2193 153.595 44.8084 153.595 44.277ZM157.118 42.7307C156.796 42.7343 156.486 42.7538 156.188 42.7892C155.89 42.8211 155.626 42.8901 155.397 42.9964C155.169 43.1027 154.987 43.255 154.849 43.4534C154.714 43.6482 154.647 43.9086 154.647 44.2345C154.647 44.6525 154.752 44.9713 154.961 45.191C155.169 45.4106 155.458 45.5204 155.827 45.5204C155.997 45.5204 156.151 45.4974 156.289 45.4513C156.431 45.4017 156.555 45.3415 156.661 45.2706C156.771 45.1963 156.863 45.1166 156.937 45.0315C157.012 44.943 157.068 44.858 157.107 44.7765C157.115 44.6419 157.118 44.4931 157.118 44.3301C157.118 44.1636 157.118 43.9759 157.118 43.7669V42.7307Z" fill="white"/>
<path fill-rule="evenodd" clip-rule="evenodd" d="M23.2958 12.0588C23.8257 11.5908 24.3758 11.1257 24.9549 10.6634C27.4161 8.0893 27.7723 4.79291 26.0263 0.780029C25.6962 2.395 24.9839 3.90308 23.8807 5.30427C22.6009 6.33277 22.1723 7.99397 22.6009 10.2821C23.7678 9.46738 24.8217 7.84951 25.7657 5.42561C24.4482 10.623 22.2042 10.805 19.1523 14.2256C19.3086 11.8393 18.1272 9.67539 14.751 8.55155C15.611 9.42404 16.0338 10.3052 16.0222 11.195C15.8977 12.8649 16.6795 13.9512 17.7972 14.3123C17.9101 13.5987 17.8666 12.5962 17.6176 11.5966C18.3068 13.3069 18.4458 14.2459 18.3821 15.1328C18.3183 15.2917 15.223 18.5794 13.7115 24.918C11.6065 20.0788 7.39636 17.1522 0.988525 20.3966C2.83588 20.4053 4.22864 20.8906 5.16679 21.8556C6.81146 23.7797 8.80939 24.1004 10.3904 23.2828C9.75333 22.3958 8.63565 21.3702 7.3037 20.5671C11.4964 22.3525 11.9047 23.511 13.5233 25.7934C12.7994 29.5549 13.1353 33.4291 14.4789 36.9566C11.9539 34.4143 8.88467 35.1307 5.56638 39.2101C7.1126 38.6265 8.43007 38.5918 9.5159 39.1003C11.4964 40.1808 13.0166 40.1317 14.0822 38.9443C13.2685 38.4069 12.1827 38.014 10.816 37.7684C12.672 37.7193 14.2993 38.3231 15.6921 39.5741C19.1378 45.7913 25.7396 50.0006 33.3202 50.0006C44.4593 50.0006 53.4905 40.9175 53.4905 29.7109C53.4905 19.2583 45.6349 10.6548 35.541 9.54249C44.7257 10.9495 51.5273 18.2385 51.5273 27.7348C51.5273 37.8493 43.3764 46.0513 33.323 46.0513C25.5891 46.0513 18.9814 41.1977 16.3436 34.3565C16.0425 31.2536 17.2296 28.2057 20.0296 25.3282C20.988 24.3431 22.3287 23.8086 23.817 23.2914C22.7804 24.083 21.6164 24.9642 20.3221 25.9378C24.5119 27.1974 24.4453 23.6035 28.7278 23.433C24.0341 20.3533 20.8404 20.9687 19.2826 24.5828C17.3802 26.5012 16.1351 28.5928 15.4604 31.3056C13.9258 23.4821 17.6003 13.8385 26.2463 12.6251C24.9926 12.9862 23.8633 13.5727 23.1539 14.1534C24.2629 15.1617 25.9539 15.3379 27.7028 14.139C28.6728 13.5611 29.9092 13.4687 31.4091 13.8674C29.5415 12.1802 25.6383 10.3168 23.2958 12.0588Z" fill="#A86E56"/>
<path fill-rule="evenodd" clip-rule="evenodd" d="M32.8776 21.4945C32.8805 20.1887 33.4132 19.0041 34.279 18.1577C35.1448 19.0041 35.6805 20.1858 35.6805 21.4945C35.6805 22.5259 35.3475 23.4764 34.7857 24.2478C34.3253 23.6208 34.308 22.3525 34.279 21.4945C34.0647 22.4219 34.0155 23.2597 34.0966 23.9733C33.8418 23.1066 33.3727 22.2774 32.8805 21.7372C32.8776 21.6563 32.8747 21.5754 32.8776 21.4945ZM32.423 21.7863C31.5022 20.8647 30.2919 20.4082 29.0873 20.4256C29.0555 22.7455 30.7262 24.7389 33.0079 25.0914C32.892 24.32 32.0147 23.4099 31.4298 22.7859C32.0263 23.1586 32.5243 23.5631 32.9239 23.9762C33.613 24.7302 33.9518 25.5305 33.6681 26.2296C33.4972 26.6486 32.6517 26.5532 32.1218 27.0732C31.5862 27.599 31.2039 28.5091 31.2155 29.3209C32.5909 29.3411 33.8244 28.4426 34.224 27.1108L34.2153 27.1368C34.4614 26.5157 34.2269 26.2152 34.9508 25.36C35.1882 25.1376 35.4662 24.9209 35.7905 24.7187C35.3996 25.1376 34.8118 25.7472 34.7336 26.2614C36.2625 26.0274 37.383 24.6898 37.3599 23.1384C36.552 23.1268 35.721 23.4533 35.1274 24.0513C34.0474 25.1376 34.5164 26.2065 33.8244 26.9028C33.5522 27.1946 33.2048 27.4777 32.7878 27.7406C33.0513 27.4575 33.4017 27.0935 33.6275 26.7237C34.5049 25.2965 33.4741 22.835 32.423 21.7863ZM30.3034 24.0802C29.0033 24.0831 27.8277 24.6204 26.988 25.49C27.8277 26.3596 29.0033 26.8999 30.3034 26.8999C31.3285 26.8999 32.2724 26.5648 33.0397 25.9985C32.4143 25.5363 31.1547 25.516 30.3034 25.49C31.2416 25.2705 32.09 25.2243 32.8052 25.3138C31.8757 25.1462 31.0563 24.7042 30.4164 24.0831C30.3787 24.0831 30.3411 24.0802 30.3034 24.0802ZM44.0717 25.8772C47.0252 27.7031 47.8128 28.9424 46.4374 29.5925C44.7522 30.6556 44.5003 31.7333 45.6817 32.8224C46.0523 33.2616 46.0262 33.7036 45.6035 34.1485C45.34 34.4519 45.3631 34.709 45.6701 34.9199C46.0523 35.4861 45.9336 35.9773 45.311 36.3933C45.0041 36.7833 44.9317 37.4536 45.0968 38.3983C45.256 40.6922 44.1876 41.6976 41.8972 41.4116C34.7713 40.4524 31.2387 40.4177 31.2184 46.06C24.9988 40.3715 28.3634 35.1914 31.7975 30.257C33.6825 29.8438 35.0319 28.7749 35.9121 27.2928C30.7986 36.1304 28.3345 37.8956 30.3961 43.9481C28.9338 36.1246 44.1007 28.252 34.0734 11.3857C43.7301 16.2624 41.266 23.5688 44.0717 25.8772Z" fill="#A86E56"/>
</svg>
